<svg width="71" height="70" viewBox="0 0 71 70" fill="none" xmlns="http://www.w3.org/2000/svg">
<path d="M56.8063 47.3594C56.2594 47.0423 54.9578 46.3094 51.6438 48.4641C49.0625 50.1485 46.0656 51.1766 42.9484 51.461C40.2688 51.7016 36.6266 51.5594 34.3078 50.0719C32.2844 48.7813 34.0234 49.0438 34.0234 49.0438C34.0234 49.0438 36.4188 49.4813 38.1578 49.6673C39.8969 49.8532 41.8656 49.9407 41.9859 48.7704C42.0953 47.6001 41.4391 46.8235 40.0281 46.3094C34.9969 44.4391 29.3531 42.0329 23.8297 43.4219C22.0906 43.8594 19.0172 44.9094 17.3875 45.3251C16.425 45.5657 13.4828 46.0798 13.4828 46.0798V59.0735C13.4828 59.0735 17.2234 57.4219 19.5641 57.6298C21.9047 57.8376 32.1531 60.2876 35.8281 60.5391C37.7641 60.6704 39.7438 60.7798 41.6469 60.3094C44.7094 59.5548 47.3344 57.7501 49.8063 55.9344C52.1141 54.2391 55.0125 52.6969 56.8063 50.4876C58.0859 48.9235 57.3531 47.6657 56.8063 47.3485V47.3594Z" fill="#368DDF"/>
<path d="M28.1719 40.5562C31.4422 40.6875 34.5266 41.3547 37.5781 42.4703C40.05 43.3781 42.9703 44.275 44.4141 46.6594C44.8516 47.3812 44.95 48.1906 45.0813 48.65C46.0547 48.3437 47.2578 47.8844 48.5485 47.1516C49.6641 46.5172 50.5719 45.8281 51.2828 45.2266V35.35L35.5547 19.4688L19.7281 35.4812V41.9672C19.7281 41.6281 24.7594 40.4141 28.1828 40.5562H28.1719Z" fill="#368DDF"/>
<path d="M36.9765 10.839L35.489 9.34058L32.5359 12.3375L12.2468 32.9218L15.2546 35.8749L35.5 15.3453L55.7343 35.8749L58.7421 32.9218L38.4531 12.3484L36.9765 10.839Z" fill="#368DDF"/>
<path d="M58.1297 0H12.8703C6.04531 0 0.5 5.54531 0.5 12.3703V57.6297C0.5 64.4547 6.04531 70 12.8703 70H58.1297C64.9547 70 70.5 64.4547 70.5 57.6297V12.3703C70.5 5.54531 64.9547 0 58.1297 0ZM68.3016 57.6297C68.3016 63.2406 63.7406 67.8016 58.1297 67.8016H12.8703C7.25937 67.8016 2.69843 63.2406 2.69843 57.6297V12.3703C2.69843 6.75938 7.25937 2.19844 12.8703 2.19844H58.1297C63.7406 2.19844 68.3016 6.75938 68.3016 12.3703V57.6297Z" fill="#B3B3B3"/>
</svg>
