<svg width="20" height="19" viewBox="0 0 20 19" fill="none" xmlns="http://www.w3.org/2000/svg">
<path d="M10.7884 0.612305L12.4684 5.7423C12.5784 6.0723 12.8884 6.3023 13.2484 6.3023H18.6884C19.4784 6.3023 19.8084 7.3123 19.1684 7.7723L14.7684 10.9423C14.4784 11.1523 14.3584 11.5123 14.4684 11.8523L16.1484 16.9823C16.3884 17.7323 15.5284 18.3523 14.8884 17.8923L10.4884 14.7223C10.1984 14.5123 9.80841 14.5123 9.52841 14.7223L5.12841 17.8923C4.48841 18.3523 3.62841 17.7323 3.86841 16.9823L5.54841 11.8523C5.65841 11.5223 5.53841 11.1523 5.24841 10.9423L0.848413 7.7723C0.208413 7.3123 0.538413 6.3023 1.32841 6.3023H6.76841C7.11841 6.3023 7.43841 6.0723 7.54841 5.7423L9.22841 0.612305C9.46841 -0.137695 10.5384 -0.137695 10.7884 0.612305Z" fill="#762B3D"/>
</svg>
