<svg width="89" height="16" viewBox="0 0 89 16" fill="none" xmlns="http://www.w3.org/2000/svg">
<path fill-rule="evenodd" clip-rule="evenodd" d="M0.5 5.32855H28.5V-0.00805664H0.5V5.32855Z" fill="#C72127"/>
<path fill-rule="evenodd" clip-rule="evenodd" d="M0.5 15.9921H28.5V10.6653H0.5V15.9921Z" fill="#C72127"/>
<path fill-rule="evenodd" clip-rule="evenodd" d="M0.5 10.6652H28.5V5.32861H0.5V10.6652Z" fill="white"/>
<path d="M42.7656 5.25366L40.6855 11.9919H38.4766L41.6113 3.46069H43.0117L42.7656 5.25366ZM44.4883 11.9919L42.4023 5.25366L42.1328 3.46069H43.5508L46.7031 11.9919H44.4883ZM44.4062 8.8103V10.3982H40.0293V8.8103H44.4062ZM50.8105 8.36499H48.6133L48.6016 7.01733H50.3828C50.7031 7.01733 50.959 6.98218 51.1504 6.91187C51.3418 6.83765 51.4805 6.73022 51.5664 6.5896C51.6562 6.44897 51.7012 6.27319 51.7012 6.06226C51.7012 5.82007 51.6562 5.62476 51.5664 5.47632C51.4766 5.32788 51.334 5.22046 51.1387 5.15405C50.9473 5.08374 50.6992 5.04858 50.3945 5.04858H49.3867V11.9919H47.3301V3.46069H50.3945C50.9219 3.46069 51.3926 3.50952 51.8066 3.60718C52.2207 3.70093 52.5723 3.84546 52.8613 4.04077C53.1543 4.23608 53.377 4.48218 53.5293 4.77905C53.6816 5.07202 53.7578 5.41772 53.7578 5.81616C53.7578 6.16382 53.6836 6.48999 53.5352 6.79468C53.3867 7.09937 53.1387 7.34741 52.791 7.53882C52.4473 7.72632 51.9766 7.82397 51.3789 7.83179L50.8105 8.36499ZM50.7285 11.9919H48.1152L48.8184 10.4099H50.7285C51.0098 10.4099 51.2344 10.3669 51.4023 10.281C51.5742 10.1912 51.6973 10.074 51.7715 9.92944C51.8496 9.78101 51.8887 9.61694 51.8887 9.43726C51.8887 9.21851 51.8516 9.02905 51.7773 8.8689C51.707 8.70874 51.5938 8.58569 51.4375 8.49976C51.2812 8.40991 51.0723 8.36499 50.8105 8.36499H49.082L49.0938 7.01733H51.1621L51.6426 7.5564C52.2129 7.53296 52.6641 7.61304 52.9961 7.79663C53.332 7.98022 53.5723 8.22241 53.7168 8.52319C53.8613 8.82397 53.9336 9.13843 53.9336 9.46655C53.9336 10.0251 53.8125 10.4919 53.5703 10.8669C53.332 11.2419 52.9746 11.5232 52.498 11.7107C52.0215 11.8982 51.4316 11.9919 50.7285 11.9919ZM59.9277 9.10327H61.9785C61.9512 9.69702 61.791 10.2205 61.498 10.6736C61.2051 11.1267 60.7988 11.4802 60.2793 11.7341C59.7637 11.9841 59.1543 12.1091 58.4512 12.1091C57.8809 12.1091 57.3711 12.0134 56.9219 11.822C56.4766 11.6306 56.0977 11.3552 55.7852 10.9958C55.4766 10.6365 55.2402 10.2009 55.0762 9.68921C54.916 9.17749 54.8359 8.60132 54.8359 7.96069V7.4978C54.8359 6.85718 54.9199 6.28101 55.0879 5.76929C55.2598 5.25366 55.502 4.81616 55.8145 4.45679C56.1309 4.09351 56.5098 3.81616 56.9512 3.62476C57.3926 3.43335 57.8828 3.33765 58.4219 3.33765C59.1641 3.33765 59.791 3.47046 60.3027 3.73608C60.8145 4.00171 61.2109 4.36694 61.4922 4.83179C61.7734 5.29272 61.9395 5.81812 61.9902 6.40796H59.9395C59.9316 6.08765 59.877 5.82007 59.7754 5.60522C59.6738 5.38647 59.5137 5.22241 59.2949 5.11304C59.0762 5.00366 58.7852 4.94897 58.4219 4.94897C58.168 4.94897 57.9473 4.99585 57.7598 5.0896C57.5723 5.18335 57.416 5.33179 57.291 5.53491C57.166 5.73804 57.0723 6.00171 57.0098 6.32593C56.9512 6.64624 56.9219 7.03296 56.9219 7.48608V7.96069C56.9219 8.41382 56.9492 8.80054 57.0039 9.12085C57.0586 9.44116 57.1465 9.70288 57.2676 9.90601C57.3887 10.1091 57.5449 10.2595 57.7363 10.3572C57.9316 10.4509 58.1699 10.4978 58.4512 10.4978C58.7637 10.4978 59.0273 10.449 59.2422 10.3513C59.457 10.2498 59.623 10.0974 59.7402 9.89429C59.8574 9.68726 59.9199 9.42358 59.9277 9.10327ZM66.9062 3.46069V11.9919H64.8496V3.46069H66.9062ZM69.4727 3.46069V5.04858H62.3418V3.46069H69.4727ZM73.75 9.09741H71.6289V7.50952H73.75C74.0391 7.50952 74.2734 7.46069 74.4531 7.36304C74.6328 7.26538 74.7637 7.13062 74.8457 6.95874C74.9316 6.78296 74.9746 6.58569 74.9746 6.36694C74.9746 6.13257 74.9316 5.91577 74.8457 5.71655C74.7637 5.51733 74.6328 5.35718 74.4531 5.23608C74.2734 5.11108 74.0391 5.04858 73.75 5.04858H72.4023V11.9919H70.3457V3.46069H73.75C74.4336 3.46069 75.0215 3.58569 75.5137 3.83569C76.0098 4.08569 76.3906 4.42944 76.6562 4.86694C76.9219 5.30054 77.0547 5.79663 77.0547 6.35522C77.0547 6.90601 76.9219 7.38647 76.6562 7.79663C76.3906 8.20679 76.0098 8.5271 75.5137 8.75757C75.0215 8.98413 74.4336 9.09741 73.75 9.09741ZM80.3477 3.46069V11.9919H78.2969V3.46069H80.3477ZM86.2363 8.9978H83.957L83.3477 8.74585C82.6523 8.5271 82.123 8.20288 81.7598 7.77319C81.3965 7.3396 81.2148 6.78687 81.2148 6.11499C81.2148 5.52905 81.3457 5.04077 81.6074 4.65015C81.8691 4.25562 82.2402 3.95874 82.7207 3.75952C83.2012 3.5603 83.7715 3.46069 84.4316 3.46069H87.5254V11.9919H85.4629V5.04858H84.4316C84.0215 5.04858 83.7246 5.15601 83.541 5.37085C83.3574 5.58179 83.2656 5.89038 83.2656 6.29663C83.2656 6.60913 83.3086 6.85522 83.3945 7.03491C83.4844 7.2146 83.6152 7.34351 83.7871 7.42163C83.959 7.49585 84.1738 7.53296 84.4316 7.53296H86.2246L86.2363 8.9978ZM84.6543 8.23022L82.8438 11.9919H80.6055L82.3926 8.23022H84.6543Z" fill="#4D4D4D"/>
</svg>
