<svg width="87" height="16" viewBox="0 0 87 16" fill="none" xmlns="http://www.w3.org/2000/svg">
<path fill-rule="evenodd" clip-rule="evenodd" d="M0.5 15.9922H9.83668V-0.0078125H0.5V15.9922Z" fill="#000101"/>
<path fill-rule="evenodd" clip-rule="evenodd" d="M9.83667 15.9922H19.1633V-0.0078125H9.83667V15.9922Z" fill="#F7DE29"/>
<path fill-rule="evenodd" clip-rule="evenodd" d="M19.1633 15.9922H28.5V-0.0078125H19.1633V15.9922Z" fill="#DA1F27"/>
<path d="M44.9102 3.46094V5.04883H41.2012V11.9922H39.1504V3.46094H44.9102ZM40.4395 6.39648H42.2734C42.9648 6.39648 43.5664 6.51172 44.0781 6.74219C44.5898 6.97266 44.9844 7.29492 45.2617 7.70898C45.543 8.12305 45.6836 8.60742 45.6836 9.16211C45.6836 9.58008 45.6035 9.96289 45.4434 10.3105C45.2832 10.6543 45.0527 10.9531 44.752 11.207C44.4551 11.457 44.0977 11.6504 43.6797 11.7871C43.2617 11.9238 42.793 11.9922 42.2734 11.9922H39.1562V3.46094H41.2188V10.4102H42.2734C42.5664 10.4102 42.8125 10.3535 43.0117 10.2402C43.2148 10.127 43.3691 9.97656 43.4746 9.78906C43.5801 9.59766 43.6328 9.38477 43.6328 9.15039C43.6328 8.92383 43.5801 8.72266 43.4746 8.54688C43.3691 8.37109 43.2148 8.23242 43.0117 8.13086C42.8125 8.0293 42.5664 7.97852 42.2734 7.97852H40.4395V6.39648ZM52.5215 10.4102V11.9922H47.9746V10.4102H52.5215ZM48.707 3.46094V11.9922H46.6504V3.46094H48.707ZM51.9355 6.84766V8.37695H47.9746V6.84766H51.9355ZM52.5391 3.46094V5.04883H47.9746V3.46094H52.5391ZM59.1543 3.46094V5.04883H54.748V3.46094H59.1543ZM60.543 3.46094V11.9922H58.4863V3.46094H60.543ZM54.6074 3.46094H56.6523L56.4297 7.79688C56.3945 8.45312 56.3281 9.01953 56.2305 9.49609C56.1328 9.96875 56.002 10.3672 55.8379 10.6914C55.6738 11.0117 55.4766 11.2676 55.2461 11.459C55.0156 11.6504 54.748 11.7871 54.4434 11.8691C54.1426 11.9512 53.8047 11.9922 53.4297 11.9922H52.9316V10.4102L53.1543 10.3867C53.334 10.3672 53.4922 10.3184 53.6289 10.2402C53.7656 10.1582 53.8828 10.0371 53.9805 9.87695C54.082 9.7168 54.166 9.51172 54.2324 9.26172C54.2988 9.01172 54.3516 8.70898 54.3906 8.35352C54.4336 7.99414 54.4629 7.57422 54.4785 7.09375L54.6074 3.46094ZM63.1152 6.39648H64.9492C65.6406 6.39648 66.2422 6.51172 66.7539 6.74219C67.2656 6.97266 67.6602 7.29492 67.9375 7.70898C68.2188 8.12305 68.3594 8.60742 68.3594 9.16211C68.3594 9.58008 68.2793 9.96289 68.1191 10.3105C67.959 10.6543 67.7285 10.9531 67.4277 11.207C67.1309 11.457 66.7734 11.6504 66.3555 11.7871C65.9375 11.9238 65.4688 11.9922 64.9492 11.9922H61.832V3.46094H63.8945V10.4102H64.9492C65.2422 10.4102 65.4883 10.3535 65.6875 10.2402C65.8906 10.127 66.0449 9.97656 66.1504 9.78906C66.2559 9.59766 66.3086 9.38477 66.3086 9.15039C66.3086 8.92383 66.2559 8.72266 66.1504 8.54688C66.0449 8.37109 65.8906 8.23242 65.6875 8.13086C65.4883 8.0293 65.2422 7.97852 64.9492 7.97852H63.1152V6.39648ZM75.0508 3.46094V5.04883H71.3418V11.9922H69.291V3.46094H75.0508ZM78.1797 3.46094V11.9922H76.1289V3.46094H78.1797ZM84.0684 8.99805H81.7891L81.1797 8.74609C80.4844 8.52734 79.9551 8.20312 79.5918 7.77344C79.2285 7.33984 79.0469 6.78711 79.0469 6.11523C79.0469 5.5293 79.1777 5.04102 79.4395 4.65039C79.7012 4.25586 80.0723 3.95898 80.5527 3.75977C81.0332 3.56055 81.6035 3.46094 82.2637 3.46094H85.3574V11.9922H83.2949V5.04883H82.2637C81.8535 5.04883 81.5566 5.15625 81.373 5.37109C81.1895 5.58203 81.0977 5.89062 81.0977 6.29688C81.0977 6.60938 81.1406 6.85547 81.2266 7.03516C81.3164 7.21484 81.4473 7.34375 81.6191 7.42188C81.791 7.49609 82.0059 7.5332 82.2637 7.5332H84.0566L84.0684 8.99805ZM82.4863 8.23047L80.6758 11.9922H78.4375L80.2246 8.23047H82.4863Z" fill="#4D4D4D"/>
</svg>
