<svg width="93" height="21" viewBox="0 0 93 21" fill="none" xmlns="http://www.w3.org/2000/svg">
<path fill-rule="evenodd" clip-rule="evenodd" d="M39.5798 10.3501C40.7198 9.91012 41.4598 8.81012 41.4498 7.59012C41.4498 5.10012 39.6899 3.87012 37.2699 3.87012H30.9199V17.3801H37.8198C39.9398 17.3801 42.0299 15.8901 42.0299 13.6201C42.0299 10.9201 39.5898 10.3701 39.5898 10.3401L39.5798 10.3501ZM34.2299 6.68012H36.6898C37.3498 6.64012 37.9198 7.14012 37.9598 7.81012C37.9598 7.86012 37.9598 7.91012 37.9598 7.96012C37.9498 8.65012 37.3798 9.20012 36.6898 9.19012H34.1998L34.2198 6.68012H34.2299ZM36.7198 14.5601H34.2599V11.9101H36.6599C37.8699 11.9101 38.4398 12.4401 38.4398 13.2301C38.4398 14.2101 37.7198 14.5701 36.7198 14.5701V14.5601Z" fill="#CCCCCC"/>
<path fill-rule="evenodd" clip-rule="evenodd" d="M49.3198 3.5293C45.4098 3.5293 43.1199 6.6493 43.1199 10.5993C43.1199 14.5493 45.4098 17.6693 49.3198 17.6693C53.2298 17.6693 55.5199 14.5693 55.5199 10.5993C55.5199 6.6293 53.2498 3.5293 49.3198 3.5293ZM49.3198 14.4493C47.4098 14.4493 46.4498 12.7293 46.4498 10.6093C46.4498 8.4893 47.4098 6.7893 49.3198 6.7893C51.2298 6.7893 52.2098 8.5093 52.2098 10.6093C52.2098 12.7593 51.2298 14.4493 49.3198 14.4493Z" fill="#CCCCCC"/>
<path fill-rule="evenodd" clip-rule="evenodd" d="M62.7299 9.17977L62.2599 9.06977C61.1099 8.83977 60.1998 8.53976 60.1998 7.70976C60.1998 6.81976 61.0698 6.45976 61.8398 6.45976C62.8898 6.47976 63.8999 6.92976 64.5999 7.70976L66.6998 5.62976C65.7398 4.54976 64.1899 3.50977 61.7699 3.50977C58.9199 3.50977 56.7599 5.09977 56.7599 7.75977C56.7599 10.1798 58.4999 11.3698 60.6299 11.8198L61.0999 11.9298C62.8599 12.2898 63.5199 12.5698 63.5199 13.4198C63.5199 14.2698 62.7998 14.7598 61.6898 14.7598C60.3698 14.7598 59.1799 14.1898 58.2699 13.0198L56.1199 15.1398C57.3099 16.5598 58.8199 17.6698 61.7299 17.6698C64.2599 17.6698 66.9498 16.2298 66.9498 13.2698C66.9898 10.1898 64.6598 9.59977 62.7198 9.18977L62.7299 9.17977Z" fill="#CCCCCC"/>
<path fill-rule="evenodd" clip-rule="evenodd" d="M74.5099 14.4498C73.0199 14.4498 71.4698 13.2198 71.4698 10.5198C71.4698 8.11981 72.9099 6.77981 74.4199 6.77981C75.6099 6.77981 76.3099 7.32981 76.8599 8.28981L79.5798 6.4798C78.2198 4.41981 76.6099 3.5498 74.3799 3.5498C70.2999 3.5498 68.0898 6.70981 68.0898 10.5398C68.0898 14.5498 70.5298 17.6998 74.3298 17.6998C77.0098 17.6998 78.2799 16.7698 79.6599 14.7698L76.9199 12.9298C76.3699 13.8198 75.7699 14.4598 74.4999 14.4598L74.5099 14.4498Z" fill="#CCCCCC"/>
<path fill-rule="evenodd" clip-rule="evenodd" d="M88.6598 3.87012V8.84012H84.5598V3.87012H81.0098V17.3801H84.5598V12.0501H88.6598V17.3801H92.2097V3.87012H88.6598Z" fill="#CCCCCC"/>
<path d="M10.48 0.429688C4.82998 0.429688 0.23999 5.00969 0.23999 10.6697C0.23999 16.3297 4.81998 20.9097 10.48 20.9097C16.14 20.9097 20.72 16.3297 20.72 10.6697C20.72 5.00969 16.14 0.429688 10.48 0.429688ZM10.48 19.9497C5.34998 19.9497 1.19995 15.7897 1.19995 10.6697C1.19995 5.54969 5.35998 1.38969 10.48 1.38969C15.6 1.38969 19.76 5.54969 19.76 10.6697C19.76 15.7997 15.6 19.9497 10.48 19.9497Z" fill="#CCCCCC"/>
<path d="M14.7001 4.26953H14.0001V7.76953H6.97012V4.26953H6.25015C2.72015 6.59953 1.75009 11.3495 4.07009 14.8795C4.64009 15.7395 5.38015 16.4795 6.25015 17.0595H6.97012V13.5595H14.0001V17.0595H14.7001C18.2301 14.7295 19.2102 9.97953 16.8802 6.44953C16.3102 5.57953 15.5701 4.83953 14.7001 4.26953ZM5.99014 15.6795C3.22014 13.2195 2.9702 8.97953 5.4302 6.20953C5.6102 6.00953 5.79014 5.82953 5.99014 5.64953V15.6795ZM14.0001 12.5795H6.97012V8.72953H14.0001V12.5795ZM14.9601 15.6595V13.5395V7.77953V5.65953C17.7201 8.13953 17.9501 12.3895 15.4701 15.1495C15.3101 15.3295 15.1401 15.4995 14.9601 15.6595Z" fill="#CCCCCC"/>
</svg>
