<svg width="96" height="16" viewBox="0 0 96 16" fill="none" xmlns="http://www.w3.org/2000/svg">
<path d="M28.5 -0.0078125H0.5V5.23712H28.5V-0.0078125Z" fill="#CB2D42"/>
<path d="M28.5 5.2373H0.5V10.6099H28.5V5.2373Z" fill="white"/>
<path d="M28.5 10.6196H0.5V15.9923H28.5V10.6196Z" fill="#446E4E"/>
<path d="M44.9102 3.46094V5.04883H41.2012V11.9922H39.1504V3.46094H44.9102ZM40.4395 6.39648H42.2734C42.9648 6.39648 43.5664 6.51172 44.0781 6.74219C44.5898 6.97266 44.9844 7.29492 45.2617 7.70898C45.543 8.12305 45.6836 8.60742 45.6836 9.16211C45.6836 9.58008 45.6035 9.96289 45.4434 10.3105C45.2832 10.6543 45.0527 10.9531 44.752 11.207C44.4551 11.457 44.0977 11.6504 43.6797 11.7871C43.2617 11.9238 42.793 11.9922 42.2734 11.9922H39.1562V3.46094H41.2188V10.4102H42.2734C42.5664 10.4102 42.8125 10.3535 43.0117 10.2402C43.2148 10.127 43.3691 9.97656 43.4746 9.78906C43.5801 9.59766 43.6328 9.38477 43.6328 9.15039C43.6328 8.92383 43.5801 8.72266 43.4746 8.54688C43.3691 8.37109 43.2148 8.23242 43.0117 8.13086C42.8125 8.0293 42.5664 7.97852 42.2734 7.97852H40.4395V6.39648ZM53.8691 7.55664V7.90234C53.8691 8.55469 53.7773 9.14062 53.5938 9.66016C53.4141 10.1758 53.1582 10.6172 52.8262 10.9844C52.4941 11.3477 52.1016 11.627 51.6484 11.8223C51.1953 12.0137 50.6953 12.1094 50.1484 12.1094C49.5977 12.1094 49.0938 12.0137 48.6367 11.8223C48.1836 11.627 47.7891 11.3477 47.4531 10.9844C47.1211 10.6172 46.8633 10.1758 46.6797 9.66016C46.5 9.14062 46.4102 8.55469 46.4102 7.90234V7.55664C46.4102 6.9043 46.5 6.31836 46.6797 5.79883C46.8633 5.2793 47.1191 4.83789 47.4473 4.47461C47.7793 4.10742 48.1719 3.82812 48.625 3.63672C49.082 3.44141 49.5859 3.34375 50.1367 3.34375C50.6836 3.34375 51.1836 3.44141 51.6367 3.63672C52.0938 3.82812 52.4883 4.10742 52.8203 4.47461C53.1523 4.83789 53.4102 5.2793 53.5938 5.79883C53.7773 6.31836 53.8691 6.9043 53.8691 7.55664ZM51.7832 7.90234V7.54492C51.7832 7.12305 51.7461 6.75195 51.6719 6.43164C51.6016 6.10742 51.4961 5.83594 51.3555 5.61719C51.2148 5.39844 51.041 5.23438 50.834 5.125C50.6309 5.01172 50.3984 4.95508 50.1367 4.95508C49.8633 4.95508 49.625 5.01172 49.4219 5.125C49.2188 5.23438 49.0488 5.39844 48.9121 5.61719C48.7754 5.83594 48.6719 6.10742 48.6016 6.43164C48.5352 6.75195 48.502 7.12305 48.502 7.54492V7.90234C48.502 8.32031 48.5352 8.69141 48.6016 9.01562C48.6719 9.33594 48.7754 9.60742 48.9121 9.83008C49.0527 10.0527 49.2246 10.2207 49.4277 10.334C49.6348 10.4473 49.875 10.5039 50.1484 10.5039C50.4102 10.5039 50.6426 10.4473 50.8457 10.334C51.0488 10.2207 51.2188 10.0527 51.3555 9.83008C51.4961 9.60742 51.6016 9.33594 51.6719 9.01562C51.7461 8.69141 51.7832 8.32031 51.7832 7.90234ZM60.5371 3.46094V5.04883H56.1309V3.46094H60.5371ZM61.9258 3.46094V11.9922H59.8691V3.46094H61.9258ZM55.9902 3.46094H58.0352L57.8125 7.79688C57.7773 8.45312 57.7109 9.01953 57.6133 9.49609C57.5156 9.96875 57.3848 10.3672 57.2207 10.6914C57.0566 11.0117 56.8594 11.2676 56.6289 11.459C56.3984 11.6504 56.1309 11.7871 55.8262 11.8691C55.5254 11.9512 55.1875 11.9922 54.8125 11.9922H54.3145V10.4102L54.5371 10.3867C54.7168 10.3672 54.875 10.3184 55.0117 10.2402C55.1484 10.1582 55.2656 10.0371 55.3633 9.87695C55.4648 9.7168 55.5488 9.51172 55.6152 9.26172C55.6816 9.01172 55.7344 8.70898 55.7734 8.35352C55.8164 7.99414 55.8457 7.57422 55.8613 7.09375L55.9902 3.46094ZM68.957 3.46094V5.04883H65.248V11.9922H63.1973V3.46094H68.957ZM72.3086 5.25391L70.2285 11.9922H68.0195L71.1543 3.46094H72.5547L72.3086 5.25391ZM74.0312 11.9922L71.9453 5.25391L71.6758 3.46094H73.0938L76.2461 11.9922H74.0312ZM73.9492 8.81055V10.3984H69.5723V8.81055H73.9492ZM80.2773 9.09766H78.1562V7.50977H80.2773C80.5664 7.50977 80.8008 7.46094 80.9805 7.36328C81.1602 7.26562 81.291 7.13086 81.373 6.95898C81.459 6.7832 81.502 6.58594 81.502 6.36719C81.502 6.13281 81.459 5.91602 81.373 5.7168C81.291 5.51758 81.1602 5.35742 80.9805 5.23633C80.8008 5.11133 80.5664 5.04883 80.2773 5.04883H78.9297V11.9922H76.873V3.46094H80.2773C80.9609 3.46094 81.5488 3.58594 82.041 3.83594C82.5371 4.08594 82.918 4.42969 83.1836 4.86719C83.4492 5.30078 83.582 5.79688 83.582 6.35547C83.582 6.90625 83.4492 7.38672 83.1836 7.79688C82.918 8.20703 82.5371 8.52734 82.041 8.75781C81.5488 8.98438 80.9609 9.09766 80.2773 9.09766ZM86.875 3.46094V11.9922H84.8242V3.46094H86.875ZM92.7637 8.99805H90.4844L89.875 8.74609C89.1797 8.52734 88.6504 8.20312 88.2871 7.77344C87.9238 7.33984 87.7422 6.78711 87.7422 6.11523C87.7422 5.5293 87.873 5.04102 88.1348 4.65039C88.3965 4.25586 88.7676 3.95898 89.248 3.75977C89.7285 3.56055 90.2988 3.46094 90.959 3.46094H94.0527V11.9922H91.9902V5.04883H90.959C90.5488 5.04883 90.252 5.15625 90.0684 5.37109C89.8848 5.58203 89.793 5.89062 89.793 6.29688C89.793 6.60938 89.8359 6.85547 89.9219 7.03516C90.0117 7.21484 90.1426 7.34375 90.3145 7.42188C90.4863 7.49609 90.7012 7.5332 90.959 7.5332H92.752L92.7637 8.99805ZM91.1816 8.23047L89.3711 11.9922H87.1328L88.9199 8.23047H91.1816Z" fill="#4D4D4D"/>
</svg>
