<svg width="71" height="70" viewBox="0 0 71 70" fill="none" xmlns="http://www.w3.org/2000/svg">
<path d="M19.0281 57.1812H51.9719V36.389L19.0281 46.8672V57.1812Z" fill="#368DDF"/>
<path d="M30.2172 12.8186L19.0281 23.0124H30.2172V12.8186Z" fill="#368DDF"/>
<path d="M58.1297 0H12.8703C6.04531 0 0.5 5.54531 0.5 12.3703V57.6297C0.5 64.4547 6.04531 70 12.8703 70H58.1297C64.9547 70 70.5 64.4547 70.5 57.6297V12.3703C70.5 5.54531 64.9547 0 58.1297 0ZM12.8703 2.19844H58.1297C63.7406 2.19844 68.3016 6.75938 68.3016 12.3703V25.8016L51.9719 30.9969V12.8188H33.6078V26.1078H19.0391V41.4859L2.70937 46.6813V12.3703C2.69844 6.75938 7.25938 2.19844 12.8703 2.19844ZM58.1297 67.8016H12.8703C7.25938 67.8016 2.69844 63.2406 2.69844 57.6297V49.0109L50.2328 33.8734L51.9719 33.3484V33.3266L68.3016 28.1312V57.6406C68.3016 63.2516 63.7406 67.8125 58.1297 67.8125V67.8016Z" fill="#368DDF"/>
<path d="M58.1297 0H12.8703C6.04531 0 0.5 5.54531 0.5 12.3703V57.6297C0.5 64.4547 6.04531 70 12.8703 70H58.1297C64.9547 70 70.5 64.4547 70.5 57.6297V12.3703C70.5 5.54531 64.9547 0 58.1297 0ZM68.3016 57.6297C68.3016 63.2406 63.7406 67.8016 58.1297 67.8016H12.8703C7.25938 67.8016 2.69844 63.2406 2.69844 57.6297V12.3703C2.69844 6.75938 7.25938 2.19844 12.8703 2.19844H58.1297C63.7406 2.19844 68.3016 6.75938 68.3016 12.3703V57.6297Z" fill="#B3B3B3"/>
</svg>
