<svg width="345" height="150" viewBox="0 0 345 150" fill="none" xmlns="http://www.w3.org/2000/svg">
<path d="M280.681 149.097L12.5958 149.097C5.63859 149.097 3.04108e-07 143.459 0 136.501L-5.38283e-06 13.3566C-5.68694e-06 6.39938 5.63858 0.760803 12.5958 0.760803L280.681 0.760791C289.698 0.760791 298.225 4.93009 303.751 12.0505L338.688 56.996C346.888 67.5448 346.888 82.3131 338.688 92.862L303.751 137.807C298.213 144.928 289.698 149.097 280.681 149.097Z" fill="url(#paint0_linear_16009_484)"/>
<path d="M335.699 76.9131L336.6 76.0108L334.68 74.0942L334.43 76.7955L335.699 76.9131ZM331.266 87.6754L330.26 86.8924L330.259 86.8932L331.266 87.6754ZM296.618 132.269L295.611 131.487L295.611 131.488L296.618 132.269ZM280.682 140.068L280.682 138.793L280.682 140.068ZM12.5001 140.068L12.5001 141.343L12.5001 140.068ZM296.618 17.6137L295.611 18.3962L295.611 18.3962L296.618 17.6137ZM331.555 62.5592L332.562 61.7775L332.562 61.7767L331.555 62.5592ZM335.712 76.9257L334.811 77.8281C335.161 78.177 335.68 78.2927 336.145 78.1248C336.61 77.957 336.935 77.536 336.981 77.0441L335.712 76.9257ZM334.43 76.7955C334.091 80.4488 332.557 83.9403 330.26 86.8924L332.272 88.4585C334.823 85.1817 336.579 81.2389 336.969 77.0308L334.43 76.7955ZM330.259 86.8932L295.611 131.487L297.625 133.052L332.273 88.4577L330.259 86.8932ZM295.611 131.488C292.035 136.098 286.518 138.793 280.682 138.793L280.682 141.343C287.303 141.343 293.566 138.286 297.626 133.051L295.611 131.488ZM280.682 138.793L12.5001 138.793L12.5001 141.343L280.682 141.343L280.682 138.793ZM12.5001 138.793C11.2451 138.793 10.2211 137.769 10.2211 136.514L7.67111 136.514C7.67111 139.177 9.83682 141.343 12.5001 141.343L12.5001 138.793ZM10.2211 136.514L10.2211 13.3691L7.6711 13.3691L7.67111 136.514L10.2211 136.514ZM10.2211 13.3691C10.2211 12.1046 11.2422 11.0902 12.5 11.0902L12.5 8.54019C9.83976 8.54019 7.6711 10.6904 7.6711 13.3691L10.2211 13.3691ZM12.5 11.0902L280.682 11.0902L280.682 8.54018L12.5 8.54019L12.5 11.0902ZM280.682 11.0902C286.567 11.0902 291.998 13.7465 295.611 18.3962L297.625 16.8313C293.528 11.5601 287.354 8.54018 280.682 8.54018L280.682 11.0902ZM295.611 18.3962L330.548 63.3417L332.562 61.7767L297.625 16.8313L295.611 18.3962ZM330.548 63.3409C333.525 67.1775 334.902 71.8785 334.442 76.8072L336.981 77.0441C337.501 71.4743 335.939 66.1289 332.562 61.7775L330.548 63.3409ZM336.613 76.0233L336.6 76.0108L334.799 77.8155L334.811 77.8281L336.613 76.0233Z" fill="#CCCCCC"/>
<defs>
<linearGradient id="paint0_linear_16009_484" x1="266.968" y1="152.802" x2="266.968" y2="-2.94335" gradientUnits="userSpaceOnUse">
<stop stop-color="#3650D1"/>
<stop offset="0.74" stop-color="#3686D3"/>
</linearGradient>
</defs>
</svg>
