<svg width="75" height="60" viewBox="0 0 75 60" fill="none" xmlns="http://www.w3.org/2000/svg">
<path d="M74.5006 13.5728C74.5006 13.5645 74.5004 13.5562 74.5 13.5478C74.3719 10.9859 72.3175 8.91455 69.7268 8.91455H5.15826C2.57197 8.91455 0.5 10.9865 0.5 13.5728V27.2027C0.5 29.2673 1.91371 31.2069 3.99213 31.7292L4.88927 31.9738V54.2314C4.88927 56.5866 6.84574 58.5431 9.20102 58.5431H65.7996C68.1549 58.5431 70.1113 56.5866 70.1113 54.2314V31.9738L71.0032 31.7305C71.0049 31.7301 71.0067 31.7296 71.0085 31.7292C73.079 31.209 74.5006 29.3911 74.5006 27.2027V13.5728ZM66.8012 54.2314C66.8012 54.7638 66.332 55.233 65.7996 55.233H9.20102C8.66861 55.233 8.19942 54.7638 8.19942 54.2314V32.8205L32.7265 39.3684V41.1791C32.7265 43.0723 34.221 44.5667 36.1142 44.5667H38.3088C40.2021 44.5667 41.6965 43.0723 41.6965 41.1791V39.3706L66.8012 32.8168V54.2314ZM36.0367 41.1791V35.8657C36.0367 35.8347 36.0418 35.8168 36.0449 35.8088C36.0452 35.8078 36.0456 35.8069 36.0459 35.8062C36.047 35.8037 36.0479 35.8022 36.0483 35.8016L36.0489 35.8007L36.049 35.8006L36.0491 35.8006L36.0491 35.8005L36.0492 35.8004L36.05 35.7998C36.0509 35.7993 36.0532 35.7979 36.0573 35.7964C36.0653 35.7933 36.0832 35.7882 36.1142 35.7882H38.3088C38.3398 35.7882 38.3578 35.7933 38.3658 35.7964C38.3699 35.7979 38.3721 35.7993 38.373 35.7998L38.3739 35.8004L38.374 35.8005L38.374 35.8006L38.374 35.8006L38.3741 35.8007L38.3747 35.8016C38.3753 35.8025 38.3766 35.8047 38.3782 35.8088C38.3813 35.8168 38.3864 35.8347 38.3864 35.8657V41.1791C38.3864 41.21 38.3813 41.228 38.3782 41.236C38.3766 41.2401 38.3753 41.2423 38.3747 41.2432L38.3741 41.2441L38.374 41.2442L38.374 41.2442L38.374 41.2442L38.3739 41.2443L38.373 41.2449C38.3726 41.2452 38.3718 41.2457 38.3706 41.2463C38.3694 41.2469 38.3678 41.2476 38.3658 41.2484C38.3578 41.2515 38.3398 41.2566 38.3088 41.2566H36.1142C36.0832 41.2566 36.0653 41.2515 36.0573 41.2484C36.0532 41.2468 36.0509 41.2455 36.05 41.2449L36.0492 41.2443L36.0491 41.2442L36.0491 41.2442L36.049 41.2442L36.0489 41.2441L36.0483 41.2432C36.0481 41.2429 36.0478 41.2423 36.0474 41.2416C36.0467 41.2403 36.0458 41.2385 36.0449 41.236C36.0418 41.228 36.0367 41.21 36.0367 41.1791ZM71.0749 27.2027C71.0749 27.7946 70.6399 28.3994 70.0562 28.5687C70.0546 28.5691 70.0531 28.5696 70.0515 28.57L41.6965 36.0258V35.9812C41.6965 34.088 40.2021 32.5935 38.3088 32.5935H36.1142C34.221 32.5935 32.7265 34.088 32.7265 35.9812V36.0231L4.82972 28.5689C4.20989 28.3902 3.81015 27.8744 3.81015 27.3182V13.6883C3.81015 12.9249 4.39484 12.3402 5.15826 12.3402H69.7268C70.4902 12.3402 71.0749 12.9249 71.0749 13.6883V27.2027Z" fill="white" stroke="white" stroke-linejoin="round"/>
<path d="M28.8372 7.19259C29.2973 7.19259 29.7197 7.03703 30.0282 6.7285C30.3367 6.41997 30.4923 5.99767 30.4923 5.53752C30.4923 5.12061 30.846 4.76693 31.2629 4.76693H43.6221C44.039 4.76693 44.3927 5.12061 44.3927 5.53752C44.3927 5.99767 44.5483 6.41997 44.8568 6.7285C45.1653 7.03703 45.5876 7.19259 46.0478 7.19259C46.5079 7.19259 46.9302 7.03703 47.2388 6.7285C47.5473 6.41997 47.7029 5.99767 47.7029 5.53752C47.7029 3.29776 45.8619 1.45679 43.6221 1.45679H31.2629C29.0231 1.45679 27.1821 3.29776 27.1821 5.53752C27.1821 5.9889 27.4028 6.39844 27.6895 6.68519C27.9763 6.97193 28.3858 7.19259 28.8372 7.19259Z" fill="white" stroke="white" stroke-linejoin="round"/>
</svg>
