<svg width="73" height="16" viewBox="0 0 73 16" fill="none" xmlns="http://www.w3.org/2000/svg">
<path fill-rule="evenodd" clip-rule="evenodd" d="M0.5 15.9922H28.5V-0.0078125H0.5V15.9922Z" fill="#C4212B"/>
<path fill-rule="evenodd" clip-rule="evenodd" d="M0.5 7.99219H28.5V-0.0078125H0.5V7.99219Z" fill="white"/>
<path fill-rule="evenodd" clip-rule="evenodd" d="M0.5 -0.0078125V15.9922L12.745 7.99219L0.5 -0.0078125Z" fill="#2A467D"/>
<path d="M39.2852 3.46094H41.3418V6.05664C41.3418 6.40039 41.3965 6.66797 41.5059 6.85938C41.6191 7.05078 41.7871 7.18555 42.0098 7.26367C42.2324 7.3418 42.5098 7.38086 42.8418 7.38086C42.9277 7.38086 43.0508 7.37695 43.2109 7.36914C43.375 7.35742 43.5488 7.3418 43.7324 7.32227C43.916 7.30273 44.0879 7.28125 44.248 7.25781C44.4082 7.23047 44.5273 7.19922 44.6055 7.16406V8.74609C44.5234 8.77734 44.3984 8.80664 44.2305 8.83398C44.0625 8.86133 43.8848 8.88477 43.6973 8.9043C43.5098 8.92383 43.3359 8.93945 43.1758 8.95117C43.0195 8.95898 42.9082 8.96289 42.8418 8.96289C42.127 8.96289 41.502 8.85938 40.9668 8.65234C40.4355 8.44531 40.0215 8.12695 39.7246 7.69727C39.4316 7.26758 39.2852 6.7207 39.2852 6.05664V3.46094ZM44.2012 3.46094H46.2578V11.9922H44.2012V3.46094ZM53.4121 10.4102V11.9922H48.8652V10.4102H53.4121ZM49.5977 3.46094V11.9922H47.541V3.46094H49.5977ZM52.8262 6.84766V8.37695H48.8652V6.84766H52.8262ZM53.4297 3.46094V5.04883H48.8652V3.46094H53.4297ZM56.043 3.46094L57.4375 6.29688L58.832 3.46094H61.1758L58.7969 7.69141L61.2402 11.9922H58.873L57.4375 9.10352L56.002 11.9922H53.6289L56.0781 7.69141L53.6934 3.46094H56.043ZM64.1055 3.46094V11.9922H62.0547V3.46094H64.1055ZM69.9941 8.99805H67.7148L67.1055 8.74609C66.4102 8.52734 65.8809 8.20312 65.5176 7.77344C65.1543 7.33984 64.9727 6.78711 64.9727 6.11523C64.9727 5.5293 65.1035 5.04102 65.3652 4.65039C65.627 4.25586 65.998 3.95898 66.4785 3.75977C66.959 3.56055 67.5293 3.46094 68.1895 3.46094H71.2832V11.9922H69.2207V5.04883H68.1895C67.7793 5.04883 67.4824 5.15625 67.2988 5.37109C67.1152 5.58203 67.0234 5.89062 67.0234 6.29688C67.0234 6.60938 67.0664 6.85547 67.1523 7.03516C67.2422 7.21484 67.373 7.34375 67.5449 7.42188C67.7168 7.49609 67.9316 7.5332 68.1895 7.5332H69.9824L69.9941 8.99805ZM68.4121 8.23047L66.6016 11.9922H64.3633L66.1504 8.23047H68.4121Z" fill="#4D4D4D"/>
</svg>
