<svg width="67" height="16" viewBox="0 0 67 16" fill="none" xmlns="http://www.w3.org/2000/svg">
<path d="M28.5 -0.0078125H0.5V15.9922H28.5V-0.0078125Z" fill="white"/>
<path d="M14.8611 13.5154C14.8611 13.5154 14.831 13.486 14.821 13.4663C14.7808 13.427 14.7407 13.368 14.6906 13.3189C14.6103 13.2108 14.5401 13.1223 14.5201 13.1125L14.5 13.083L14.2894 13.0142L14.139 12.9454L14.2192 12.857L14.5 12.9749L14.7106 13.0142L15.1018 13.2992C15.1018 13.2992 15.0416 13.3484 14.9914 13.3975C14.9714 13.4172 14.9313 13.4466 14.9112 13.4761C14.9112 13.4761 14.8912 13.4958 14.8811 13.5056C14.8811 13.5056 14.8811 13.5253 14.8711 13.5253M13.4169 13.1027C13.2264 13.1027 13.0359 13.0535 12.8754 12.9552C12.8754 12.9552 12.9255 12.8963 12.9556 12.8766C13.0058 12.8373 13.1061 12.798 13.2565 12.7882C13.437 12.7882 13.6576 12.8471 13.9184 12.9651C13.7679 13.0535 13.5874 13.1027 13.4169 13.1027ZM12.6146 12.9258C12.6146 12.9258 12.5545 12.9159 12.5244 12.8864C12.5043 12.8668 12.4943 12.8373 12.4843 12.8078C12.4843 12.7685 12.4742 12.7292 12.4843 12.6997C12.4943 12.6997 12.5144 12.6997 12.5244 12.6997C12.5946 12.6997 12.6447 12.7587 12.6648 12.8176C12.6748 12.8471 12.6848 12.8766 12.6648 12.8963C12.6548 12.9159 12.6247 12.9356 12.6046 12.9356L12.6146 12.9258ZM14.0187 12.7685C13.5473 12.6997 13.3467 12.5326 13.2565 12.4049C13.2063 12.3262 13.1763 12.2378 13.1863 12.1395C13.2063 12.1395 13.2364 12.1395 13.2565 12.1395C13.3869 12.1395 13.7078 12.1985 14.0086 12.7783L14.0187 12.7685ZM13.0459 12.6801C12.8453 12.6801 12.6949 12.6506 12.5846 12.5818C12.5444 12.5523 12.5043 12.513 12.4843 12.4737C12.4843 12.454 12.4742 12.4344 12.4642 12.4245C12.5344 12.395 12.6046 12.3852 12.6748 12.3852C12.6848 12.3852 12.6949 12.3852 12.7049 12.3852C12.8654 12.3852 13.096 12.4344 13.3467 12.6702C13.2465 12.6801 13.1361 12.6899 13.0359 12.6899L13.0459 12.6801ZM12.0731 12.6407C11.8625 12.6407 11.5717 12.5818 11.3811 12.395C11.5215 12.3656 11.6619 12.3459 11.8023 12.3361C11.8124 12.3361 11.8324 12.3361 11.8424 12.3361C12.043 12.3361 12.1934 12.3754 12.2937 12.4442C12.3238 12.4638 12.3439 12.4835 12.3539 12.5228C12.3539 12.5425 12.3539 12.5719 12.3238 12.5818C12.2737 12.6113 12.1934 12.6309 12.0831 12.6309H12.0631L12.0731 12.6407ZM11.3811 12.2968C11.3811 12.2968 11.331 12.2869 11.3109 12.2673C11.2909 12.2476 11.2808 12.228 11.2808 12.1985C11.2808 12.169 11.2808 12.1297 11.2808 12.1002C11.2808 12.1002 11.3009 12.1002 11.3109 12.1002C11.3109 12.1002 11.3611 12.11 11.3811 12.1297C11.4012 12.1493 11.4212 12.169 11.4313 12.1985C11.4313 12.2181 11.4413 12.2476 11.4313 12.2673C11.4313 12.2869 11.4012 12.2968 11.3811 12.2968ZM12.9757 12.2575C12.9757 12.2575 12.9155 12.2476 12.8854 12.2181C12.8654 12.1985 12.8553 12.169 12.8453 12.1395C12.8453 12.1002 12.8353 12.0609 12.8453 12.0314C12.8553 12.0314 12.8754 12.0314 12.8854 12.0314C12.9556 12.0314 13.0058 12.0904 13.0258 12.1493C13.0359 12.1788 13.0459 12.2083 13.0258 12.228C13.0158 12.2476 12.9857 12.2673 12.9657 12.2673L12.9757 12.2575ZM12.2035 12.228C11.7722 12.2083 11.5516 12.0904 11.4413 11.9921C11.3912 11.9528 11.351 11.9036 11.321 11.8447C11.3109 11.825 11.3009 11.8054 11.3009 11.7759C11.3009 11.7759 11.3711 11.7562 11.4112 11.7562C11.5516 11.7562 11.8525 11.8152 12.1934 12.2181L12.2035 12.228ZM12.6648 12.1887C12.3238 12.1395 12.1232 11.9921 12.023 11.884C11.9628 11.8152 11.9126 11.7366 11.8826 11.6481C11.9126 11.6481 11.9528 11.6383 11.9929 11.6383C11.9929 11.6383 11.9929 11.6383 12.0029 11.6383C12.0129 11.6383 12.0029 11.6383 12.023 11.6383C12.1934 11.6383 12.5144 11.7169 12.6748 12.1887H12.6648ZM10.8997 12.0314C10.7894 12.0314 10.6791 12.0216 10.5788 11.9921C10.3983 11.943 10.3181 11.884 10.288 11.8348C10.278 11.8152 10.2679 11.7955 10.2579 11.7661C10.2579 11.7661 10.2579 11.7464 10.2579 11.7366C10.3482 11.7169 10.4485 11.6973 10.5387 11.6973C10.5387 11.6973 10.5487 11.6973 10.5588 11.6973C10.639 11.6973 10.7192 11.6973 10.7894 11.7169C10.9599 11.7562 11.1204 11.8447 11.2307 11.9921C11.1204 12.0216 11.0101 12.0314 10.8997 12.0314ZM11.702 11.7464C11.702 11.7464 11.6419 11.7366 11.6118 11.7071C11.5917 11.6874 11.5817 11.6579 11.5717 11.6285C11.5717 11.5891 11.5616 11.5498 11.5717 11.5204C11.5817 11.5204 11.6018 11.5204 11.6118 11.5204C11.682 11.5204 11.7321 11.5793 11.7522 11.6383C11.7622 11.6678 11.7622 11.6973 11.7522 11.7169C11.7422 11.7366 11.7121 11.7562 11.692 11.7562L11.702 11.7464ZM11.1003 11.6678C10.99 11.6383 10.8797 11.5891 10.7794 11.5302C10.629 11.4417 10.4485 11.2747 10.4184 11.0289C10.4184 11.0289 10.4384 11.0289 10.4485 11.0289C10.4886 11.0289 10.5889 11.0388 10.6992 11.1272C10.8396 11.2353 10.9699 11.4221 11.0903 11.6776L11.1003 11.6678ZM11.4914 11.6579C11.4012 11.6186 11.3109 11.5597 11.2307 11.4909C11.0301 11.3238 10.8697 11.1076 10.7794 10.8717C10.7995 10.8619 10.8295 10.852 10.8596 10.852C10.8596 10.852 10.8596 10.852 10.8697 10.852C10.9399 10.852 11.0401 10.8815 11.1505 10.9995C11.2808 11.1371 11.3912 11.3533 11.4914 11.6579ZM10.4785 11.6285C10.3482 11.6285 10.298 11.5597 10.288 11.5302C10.278 11.5007 10.2679 11.4614 10.2679 11.4319C10.2679 11.4319 10.3081 11.4319 10.3381 11.4319C10.4284 11.4319 10.5086 11.4712 10.5588 11.5302C10.5588 11.54 10.5889 11.5793 10.5688 11.599C10.5588 11.6186 10.5187 11.6285 10.4685 11.6285H10.4785ZM10.1877 11.2648C10.0874 11.2648 9.98714 11.2648 9.88685 11.2353C9.76651 11.2157 9.70634 11.1174 9.66622 11.0388C9.64617 10.9896 9.62611 10.9307 9.61608 10.8717C9.97711 10.8815 10.1476 10.9896 10.2278 11.0683C10.278 11.1174 10.3081 11.1862 10.3181 11.255C10.3181 11.255 10.2679 11.255 10.1877 11.255V11.2648ZM10.5688 10.8914C10.5688 10.8914 10.5287 10.8422 10.4886 10.7832C10.4485 10.7145 10.4083 10.6457 10.4083 10.5965C10.4083 10.5474 10.3983 10.4294 10.3883 10.3705C10.3883 10.2919 10.3682 10.2231 10.3682 10.2132C10.3682 10.2132 10.5989 10.2918 10.5989 10.4982C10.5989 10.7046 10.5788 10.9012 10.5788 10.9012L10.5688 10.8914ZM10.288 10.8717C10.2278 10.8619 10.1075 10.8127 9.98714 10.7439C9.84674 10.6653 9.73642 10.5867 9.66622 10.5081C9.60605 10.4393 9.57597 10.3312 9.55591 10.1936C9.55591 10.1346 9.55591 10.0658 9.55591 10.0068C9.56594 10.0068 9.57597 10.0068 9.59602 10.0068C9.64617 10.0068 9.69631 10.0265 9.76651 10.0756C9.82668 10.1149 9.88685 10.1641 9.94703 10.2231C10.0172 10.2918 10.0774 10.3606 10.1476 10.4393C10.1476 10.4393 10.2178 10.567 10.2679 10.6653C10.288 10.7145 10.3081 10.7636 10.3181 10.8226C10.3181 10.8422 10.3181 10.852 10.3181 10.8717C10.3181 10.8717 10.3181 10.8717 10.3081 10.8815C10.3081 10.8815 10.3081 10.8815 10.298 10.8815L10.288 10.8717Z" fill="#4E5B31"/>
<path d="M14.1389 13.5154C14.1389 13.5154 14.169 13.486 14.179 13.4663C14.2191 13.427 14.2592 13.368 14.3094 13.3189C14.3896 13.2108 14.4598 13.1223 14.4799 13.1125L14.4999 13.083L14.7105 13.0142L14.8609 12.9454L14.7807 12.857L14.4999 12.9749L14.2893 13.0142L13.8982 13.2992C13.8982 13.2992 13.9584 13.3484 14.0085 13.3975C14.0286 13.4172 14.0687 13.4466 14.0887 13.4761C14.0887 13.4761 14.1088 13.4958 14.1188 13.5056C14.1188 13.5056 14.1188 13.5253 14.1289 13.5253M15.583 13.1027C15.7736 13.1027 15.9641 13.0535 16.1246 12.9552C16.1246 12.9552 16.0744 12.8963 16.0443 12.8766C15.9942 12.8373 15.8939 12.798 15.7435 12.7882C15.5629 12.7882 15.3423 12.8471 15.0816 12.9651C15.232 13.0535 15.4125 13.1027 15.583 13.1027ZM16.3853 12.9258C16.3853 12.9258 16.4455 12.9159 16.4756 12.8864C16.4956 12.8668 16.5056 12.8373 16.5157 12.8078C16.5157 12.7685 16.5257 12.7292 16.5157 12.6997C16.5056 12.6997 16.4856 12.6997 16.4756 12.6997C16.4054 12.6997 16.3552 12.7587 16.3352 12.8176C16.3251 12.8471 16.3151 12.8766 16.3352 12.8963C16.3452 12.9159 16.3753 12.9356 16.3953 12.9356L16.3853 12.9258ZM14.9813 12.7685C15.4526 12.6997 15.6532 12.5326 15.7435 12.4049C15.7936 12.3262 15.8237 12.2378 15.8137 12.1395C15.7936 12.1395 15.7635 12.1395 15.7435 12.1395C15.6131 12.1395 15.2922 12.1985 14.9913 12.7783L14.9813 12.7685ZM15.9541 12.6801C16.1546 12.6801 16.3051 12.6506 16.4154 12.5818C16.4555 12.5523 16.4956 12.513 16.5157 12.4737C16.5157 12.454 16.5257 12.4344 16.5357 12.4245C16.4655 12.395 16.3953 12.3852 16.3251 12.3852C16.3151 12.3852 16.3051 12.3852 16.295 12.3852C16.1346 12.3852 15.9039 12.4344 15.6532 12.6702C15.7535 12.6801 15.8638 12.6899 15.9641 12.6899L15.9541 12.6801ZM16.9268 12.6407C17.1374 12.6407 17.4283 12.5818 17.6188 12.395C17.4784 12.3656 17.338 12.3459 17.1976 12.3361C17.1876 12.3361 17.1675 12.3361 17.1575 12.3361C16.9569 12.3361 16.8065 12.3754 16.7062 12.4442C16.6761 12.4638 16.6561 12.4835 16.646 12.5228C16.646 12.5425 16.646 12.5719 16.6761 12.5818C16.7263 12.6113 16.8065 12.6309 16.9168 12.6309H16.9369L16.9268 12.6407ZM17.6188 12.2968C17.6188 12.2968 17.669 12.2869 17.689 12.2673C17.7091 12.2476 17.7191 12.228 17.7191 12.1985C17.7191 12.169 17.7191 12.1297 17.7191 12.1002C17.7191 12.1002 17.6991 12.1002 17.689 12.1002C17.689 12.1002 17.6389 12.11 17.6188 12.1297C17.5988 12.1493 17.5787 12.169 17.5687 12.1985C17.5687 12.2181 17.5587 12.2476 17.5687 12.2673C17.5687 12.2869 17.5988 12.2968 17.6188 12.2968ZM16.0243 12.2575C16.0243 12.2575 16.0844 12.2476 16.1145 12.2181C16.1346 12.1985 16.1446 12.169 16.1546 12.1395C16.1546 12.1002 16.1647 12.0609 16.1546 12.0314C16.1446 12.0314 16.1246 12.0314 16.1145 12.0314C16.0443 12.0314 15.9942 12.0904 15.9741 12.1493C15.9641 12.1788 15.9541 12.2083 15.9741 12.228C15.9842 12.2476 16.0142 12.2673 16.0343 12.2673L16.0243 12.2575ZM16.7965 12.228C17.2277 12.2083 17.4483 12.0904 17.5587 11.9921C17.6088 11.9528 17.6489 11.9036 17.679 11.8447C17.689 11.825 17.6991 11.8054 17.6991 11.7759C17.6991 11.7759 17.6289 11.7562 17.5887 11.7562C17.4483 11.7562 17.1475 11.8152 16.8065 12.2181L16.7965 12.228ZM16.3352 12.1887C16.6761 12.1395 16.8767 11.9921 16.977 11.884C17.0372 11.8152 17.0873 11.7366 17.1174 11.6481C17.0873 11.6481 17.0472 11.6383 17.0071 11.6383C17.0071 11.6383 17.0071 11.6383 16.997 11.6383C16.987 11.6383 16.997 11.6383 16.977 11.6383C16.8065 11.6383 16.4856 11.7169 16.3251 12.1887H16.3352ZM18.1002 12.0314C18.2105 12.0314 18.3208 12.0216 18.4211 11.9921C18.6016 11.943 18.6819 11.884 18.7119 11.8348C18.722 11.8152 18.732 11.7955 18.742 11.7661C18.742 11.7661 18.742 11.7464 18.742 11.7366C18.6518 11.7169 18.5515 11.6973 18.4612 11.6973C18.4612 11.6973 18.4512 11.6973 18.4412 11.6973C18.3609 11.6973 18.2807 11.6973 18.2105 11.7169C18.04 11.7562 17.8796 11.8447 17.7693 11.9921C17.8796 12.0216 17.9899 12.0314 18.1002 12.0314ZM17.2979 11.7464C17.2979 11.7464 17.3581 11.7366 17.3882 11.7071C17.4082 11.6874 17.4183 11.6579 17.4283 11.6285C17.4283 11.5891 17.4383 11.5498 17.4283 11.5204C17.4183 11.5204 17.3982 11.5204 17.3882 11.5204C17.318 11.5204 17.2678 11.5793 17.2478 11.6383C17.2377 11.6678 17.2377 11.6973 17.2478 11.7169C17.2578 11.7366 17.2879 11.7562 17.3079 11.7562L17.2979 11.7464ZM17.8996 11.6678C18.0099 11.6383 18.1203 11.5891 18.2205 11.5302C18.371 11.4417 18.5515 11.2747 18.5816 11.0289C18.5816 11.0289 18.5615 11.0289 18.5515 11.0289C18.5114 11.0289 18.4111 11.0388 18.3008 11.1272C18.1604 11.2353 18.03 11.4221 17.9097 11.6776L17.8996 11.6678ZM17.5085 11.6579C17.5988 11.6186 17.689 11.5597 17.7693 11.4909C17.9698 11.3238 18.1303 11.1076 18.2205 10.8717C18.2005 10.8619 18.1704 10.852 18.1403 10.852C18.1403 10.852 18.1403 10.852 18.1303 10.852C18.0601 10.852 17.9598 10.8815 17.8495 10.9995C17.7191 11.1371 17.6088 11.3533 17.5085 11.6579ZM18.5214 11.6285C18.6518 11.6285 18.7019 11.5597 18.7119 11.5302C18.722 11.5007 18.732 11.4614 18.732 11.4319C18.732 11.4319 18.6919 11.4319 18.6618 11.4319C18.5715 11.4319 18.4913 11.4712 18.4412 11.5302C18.4412 11.54 18.4111 11.5793 18.4311 11.599C18.4412 11.6186 18.4813 11.6285 18.5314 11.6285H18.5214ZM18.8122 11.2648C18.9125 11.2648 19.0128 11.2648 19.1131 11.2353C19.2334 11.2157 19.2936 11.1174 19.3337 11.0388C19.3538 10.9896 19.3738 10.9307 19.3839 10.8717C19.0228 10.8815 18.8523 10.9896 18.7721 11.0683C18.722 11.1174 18.6919 11.1862 18.6819 11.255C18.6819 11.255 18.732 11.255 18.8122 11.255V11.2648ZM18.4311 10.8914C18.4311 10.8914 18.4713 10.8422 18.5114 10.7832C18.5515 10.7145 18.5916 10.6457 18.5916 10.5965C18.5916 10.5474 18.6016 10.4294 18.6117 10.3705C18.6117 10.2919 18.6317 10.2231 18.6317 10.2132C18.6317 10.2132 18.4011 10.2918 18.4011 10.4982C18.4011 10.7046 18.4211 10.9012 18.4211 10.9012L18.4311 10.8914ZM18.7119 10.8717C18.7721 10.8619 18.8925 10.8127 19.0128 10.7439C19.1532 10.6653 19.2635 10.5867 19.3337 10.5081C19.3939 10.4393 19.424 10.3312 19.444 10.1936C19.444 10.1346 19.444 10.0658 19.444 10.0068C19.434 10.0068 19.424 10.0068 19.4039 10.0068C19.3538 10.0068 19.3036 10.0265 19.2334 10.0756C19.1733 10.1149 19.1131 10.1641 19.0529 10.2231C18.9827 10.2918 18.9225 10.3606 18.8523 10.4393C18.8523 10.4393 18.7821 10.567 18.732 10.6653C18.7119 10.7145 18.6919 10.7636 18.6819 10.8226C18.6819 10.8422 18.6819 10.852 18.6819 10.8717C18.6819 10.8717 18.6819 10.8717 18.6919 10.8815C18.6919 10.8815 18.6919 10.8815 18.7019 10.8815L18.7119 10.8717Z" fill="#4E5B31"/>
<path d="M22.0415 2.76367L21.9813 2.79315H21.9512H21.871L21.8008 2.82264L21.6704 2.91109L21.6203 2.93075L21.5802 2.91109H21.5501V2.97006L21.53 3.00937L21.4999 3.02902H21.3997L21.3094 3.08799L21.1991 3.05851L21.1489 3.07817L21.0386 3.17645L20.9785 3.20593H20.9584H20.8782H20.8481L20.7979 3.2649H20.7077L20.6776 3.29438L20.6375 3.38283L20.5873 3.43198H20.5573H20.5272H20.5071L20.4971 3.49094L20.477 3.5106L20.4169 3.53026L20.3667 3.56957L20.3266 3.58922H20.2664H20.2564L20.1962 3.61871H20.0859L20.0458 3.66785L20.0257 3.6875L19.9957 3.70716H19.9555L19.9054 3.72682L19.8853 3.69733L19.8552 3.71699H19.8151L19.765 3.69733L19.7249 3.67768H19.6948L19.6848 3.73664L19.6547 3.78578L19.5945 3.8251L19.5243 3.92338L19.3939 4.05114L19.2836 4.11011L19.1733 4.13959L19.0931 4.19856L18.8825 4.29684L18.5515 4.45409L18.4813 4.47374L18.381 4.4934L18.2106 4.55237L18.0601 4.60151L18.03 4.61134L17.8194 4.6703H17.7191L17.659 4.68013L17.5085 4.66048H17.3982L17.328 4.68013L17.1977 4.7391L16.9871 4.83738L16.9169 4.89635L16.8065 4.95532L16.6762 4.99463V4.94549H16.6361L16.606 4.96514L16.5057 4.9848H16.4154L16.2048 5.0536L15.9641 5.07325L15.8438 5.11257H15.7535L15.6934 5.13222H15.583H15.5429L15.222 5.14205L15.0716 5.12239L15.0014 5.14205L14.881 5.10274L14.7106 5.08308H14.6704L14.5802 5.04377L14.5401 5.06343H14.51L14.4398 5.04377H14.4097L14.3495 5.06343H14.3194L14.2893 5.03394H14.2191L14.169 4.9848L13.9083 5.01428L13.8381 4.99463L13.6074 4.92583H13.5673L13.5171 4.96514L13.4469 4.99463L13.3868 5.01428H13.3065L13.2163 4.99463L13.116 4.94549H13.0759H12.9957H12.9756L12.8252 4.86687L12.6346 4.74893L12.5042 4.68996H12.4541V4.70962L12.4742 4.78824V4.86687V4.93566V4.97497L12.4842 5.01428L12.5343 5.06343L12.5544 5.11257V5.25016L12.5644 5.39758L12.5444 5.62362V5.66293L12.5143 5.78087L12.4942 5.88898L12.3939 6.17399L12.3638 6.2133L12.3037 6.25261L12.1532 6.35089L12.0429 6.40986H12.0128L11.9226 6.42952H11.8724L11.8022 6.39021L11.732 6.37055L11.6418 6.31158L11.5415 6.29193L11.4312 6.23296L11.4011 6.20348H11.3409L11.2607 6.17399H11.2306H11.2106H11.1103L11.01 6.13468H10.9598L10.8896 6.11502L10.8194 6.14451L10.7793 6.16416L10.7292 6.14451H10.6991L10.659 6.20348L10.6289 6.22313H10.5988H10.5687H10.5386L10.4985 6.25261H10.4684L10.4484 6.27227H10.4283H10.4083L10.3681 6.25261H10.3481L10.318 6.23296H10.2979V6.31158L10.2779 6.35089L10.2277 6.40003L10.1776 6.44918L10.1375 6.50814L10.0372 6.73419L9.97703 6.82264L9.95697 6.84229L9.88677 6.91109L9.8266 6.9504L9.69622 7.04868L9.56585 7.09782L9.45554 7.11748H9.40539L9.30511 7.10765L9.21485 7.07817L9.11456 7.0192L9.00425 6.93075L8.84379 6.7735H8.82373V6.75384L8.77359 6.72436H8.73347L8.72345 6.74402V6.7735L8.71342 6.80298L8.69336 6.97006V7.04868L8.8137 7.21576L8.85382 7.30421L8.87388 7.35335L8.89393 7.38283L8.93405 7.5106L8.90396 7.57939V7.62853L8.8839 7.65802V7.69733L8.98419 7.8251L9.00425 7.88406L8.97416 7.96269L8.93405 8.01183H8.92402V8.06097L8.97416 8.10028L9.05439 8.16908L9.09451 8.27719L9.12459 8.30667H9.16471H9.18476H9.21485L9.24494 8.33615H9.26499L9.29508 8.36563L9.32516 8.39512V8.50323L9.38534 8.631V8.69979V8.70961L9.41542 8.75876V8.79807V8.90618L9.45554 8.94549H9.49565H9.52574L9.56585 8.9848L9.616 9.06342H9.66614H9.69622L9.85668 9.20101L9.8968 9.22067L9.92688 9.2305L9.95697 9.25999L10.0071 9.2305H10.0573L10.0773 9.25016L10.1275 9.27964H10.1876L10.318 9.31895H10.3782L10.4985 9.40741L10.5487 9.43689L10.5787 9.45654L10.6189 9.48603L10.6991 9.51551L10.7693 9.53517H10.8094L10.8395 9.55482L10.9799 9.6138L11.0601 9.63345L11.1303 9.66293L11.1805 9.68259H11.2206L11.2707 9.63345H11.3209H11.361H11.4011L11.4713 9.58431V9.56465L11.5315 9.545L11.6919 9.52534L11.7421 9.545L11.8624 9.49586L11.9426 9.51551L12.0128 9.48603L12.1733 9.51551L12.2134 9.545L12.2636 9.59414H12.3137L12.2936 9.63345L12.3638 9.70225L12.424 9.7907L12.4641 9.92829L12.4942 9.97743L12.5143 10.0462V10.0855L12.4742 10.115V10.1347V10.1543H12.4942H12.5243L12.5544 10.1347H12.6146H12.6547L12.7148 10.1052L12.755 10.0855L12.8151 10.115H12.8853L12.9154 10.1248L12.9957 10.1642H13.0358H13.0558V10.1445V10.115L13.0257 10.0757L12.9555 9.99709L12.9255 9.95778L12.9054 9.89881V9.82018L12.8954 9.77104V9.70225L12.9255 9.68259V9.63345H12.9455L12.9856 9.57448L13.0859 9.51551L13.1962 9.41723L13.2865 9.35827L13.3767 9.31895L13.6074 9.24033L13.7077 9.22067L14.3896 9.26981H14.4197L14.4398 9.20101H14.4498V9.18136L14.52 9.15188H14.5501L14.6504 9.17153H14.6905L14.7507 9.14205H14.7908L14.881 9.09291H14.9412H14.9613L15.0716 9.01429L15.1819 8.9848H15.212V8.96514L15.3223 8.90618L15.3925 8.85704L15.4527 8.82755L15.5229 8.8079H15.6934L15.7234 8.7391H15.7936L15.8338 8.68013L15.8839 8.66048L15.924 8.61134L15.9541 8.57202L15.9942 8.55237H16.1346L16.2951 8.5622H16.3151L16.3553 8.41478L16.3954 8.39512L16.4957 8.2477V8.18873V8.1396L16.5157 8.0708V7.95286V7.83493L16.5759 7.6875L16.6361 7.62853L16.7263 7.56957L16.7765 7.54991H16.8467V7.54008H16.8667H17.0974H17.1776H17.2578L17.4484 7.56957H17.4584L17.5286 7.58922L17.6088 7.64819L17.6891 7.72682H17.6991L17.7492 7.76613H17.7693H17.8094L17.8696 7.73664L17.9197 7.69733L17.9799 7.66785L18.02 7.60888V7.58922L18.1504 7.54008H18.2908L18.3108 7.52043L18.351 7.47129H18.3911L18.4813 7.50077H18.5415H18.5916H18.6318L18.702 7.49094L18.7722 7.54008H18.8123L18.9627 7.63836H18.9828H19.0128L19.0329 7.66785H19.053L19.083 7.63836V7.61871H19.063H19.0128L18.9627 7.52043L19.0128 7.47129L18.9426 7.38283H18.9326V7.36318L18.9025 7.32387L18.7722 7.12731L18.6017 6.99954L18.5415 6.9504L18.5214 6.93075L18.4312 6.84229L18.371 6.76367V6.74402L18.351 6.71453L18.3108 6.63591L18.2406 6.58677L18.1905 6.5278L18.0802 6.37055L18.0601 6.34107L18.03 6.32141H17.9699L18 6.29193H18.03L18.0401 6.25261L17.9799 6.08554V6.02657L18.03 5.7907V5.76121L18.1203 5.60397L18.1704 5.56465L18.2206 5.45654L18.2707 5.38775L18.3108 5.34844L18.3911 5.2993H18.4613L18.5214 5.27964L18.6318 5.30913H18.7421H18.7621H18.8123L18.8925 5.27964L18.9326 5.25998L18.9527 5.2305L18.9928 5.09291V5.0536L19.0329 5.00446L19.1733 4.83738L19.2836 4.7391L19.5243 4.5622L19.6446 4.4934L19.7048 4.45409L20.2564 4.21822L20.3968 4.08063L20.467 4.01183L20.5974 3.92338L20.7478 3.86441L20.8782 3.76613L20.9083 3.72682L20.9484 3.60888H20.9785L21.0085 3.54008V3.52043L21.1289 3.4418H21.1389L21.5601 3.22559H21.6203L21.6504 3.18628L21.7707 3.16662H21.7908L21.8209 3.14696L21.851 3.10765V2.98972L21.881 2.96023V2.88161L21.9111 2.86195V2.84229L21.9613 2.82264V2.81281L22.0415 2.76367Z" fill="#D57800"/>
<path d="M41.1895 3.46094V11.9922H39.1387V3.46094H41.1895ZM46.1113 3.46094L43.0469 8.61719H40.832L40.5859 6.75977H41.9863L43.627 3.46094H46.1113ZM43.9785 11.9922L41.9805 8.25977L43.4746 6.88281L46.4043 11.9922H43.9785ZM49.1055 3.46094V11.9922H47.0547V3.46094H49.1055ZM57.7129 3.46094V11.9922H55.6562V5.04883H52.5918V11.9922H50.541V3.46094H57.7129ZM62.4062 9.09766H60.2852V7.50977H62.4062C62.6953 7.50977 62.9297 7.46094 63.1094 7.36328C63.2891 7.26562 63.4199 7.13086 63.502 6.95898C63.5879 6.7832 63.6309 6.58594 63.6309 6.36719C63.6309 6.13281 63.5879 5.91602 63.502 5.7168C63.4199 5.51758 63.2891 5.35742 63.1094 5.23633C62.9297 5.11133 62.6953 5.04883 62.4062 5.04883H61.0586V11.9922H59.002V3.46094H62.4062C63.0898 3.46094 63.6777 3.58594 64.1699 3.83594C64.666 4.08594 65.0469 4.42969 65.3125 4.86719C65.5781 5.30078 65.7109 5.79688 65.7109 6.35547C65.7109 6.90625 65.5781 7.38672 65.3125 7.79688C65.0469 8.20703 64.666 8.52734 64.1699 8.75781C63.6777 8.98438 63.0898 9.09766 62.4062 9.09766Z" fill="#4D4D4D"/>
</svg>
