<svg width="26" height="17" viewBox="0 0 26 17" fill="none" xmlns="http://www.w3.org/2000/svg">
<path d="M20.1757 -0.0119992C21.6244 -0.0119991 22.7992 0.473834 23.7002 1.4455C24.6012 2.41717 25.0517 3.73333 25.0517 5.394C25.0517 6.68367 24.7514 7.9645 24.1507 9.2365C23.5324 10.5085 22.6137 11.7452 21.3947 12.9465C20.1757 14.1655 18.6564 15.305 16.8367 16.365L14.6107 13.3705C16.0064 12.7345 17.2519 11.9483 18.3472 11.012C19.4249 10.0757 20.1757 9.14817 20.5997 8.2295C19.7164 8.2825 18.9125 8.15 18.1882 7.832C17.4462 7.514 16.8632 7.04583 16.4392 6.4275C15.9975 5.82683 15.7767 5.11133 15.7767 4.281C15.7767 3.009 16.1919 1.9755 17.0222 1.1805C17.8349 0.3855 18.886 -0.0119993 20.1757 -0.0119992ZM5.58 -0.0120005C7.02867 -0.0120004 8.2035 0.473833 9.1045 1.4455C10.0055 2.41717 10.456 3.73333 10.456 5.394C10.456 6.68367 10.1557 7.9645 9.555 9.2365C8.93667 10.5085 8.018 11.7452 6.799 12.9465C5.58 14.1655 4.06067 15.305 2.241 16.365L0.0150013 13.3705C1.41067 12.7345 2.65617 11.9483 3.7515 11.012C4.82917 10.0757 5.58 9.14817 6.004 8.2295C5.12067 8.2825 4.31683 8.15 3.5925 7.832C2.8505 7.514 2.2675 7.04583 1.8435 6.4275C1.40184 5.82683 1.181 5.11133 1.181 4.281C1.181 3.009 1.59617 1.9755 2.4265 1.1805C3.23917 0.385499 4.29034 -0.0120006 5.58 -0.0120005Z" fill="#808080"/>
</svg>
