<svg width="96" height="16" viewBox="0 0 96 16" fill="none" xmlns="http://www.w3.org/2000/svg">
<path fill-rule="evenodd" clip-rule="evenodd" d="M0.5 10.6555H28.5V5.31885H0.5V10.6555Z" fill="white"/>
<path fill-rule="evenodd" clip-rule="evenodd" d="M0.5 15.9924H28.5V10.6558H0.5V15.9924Z" fill="#2C3382"/>
<path fill-rule="evenodd" clip-rule="evenodd" d="M0.5 5.31897H28.5V-0.0078125H0.5V5.31897Z" fill="#CC202B"/>
<path fill-rule="evenodd" clip-rule="evenodd" d="M11.2508 5.24022C12.2537 4.89624 13.3669 4.69968 14.45 4.69968C15.5331 4.69968 16.6463 4.86676 17.7394 5.25005L18.5517 3.63826L17.9801 2.65546C17.9801 2.65546 16.9571 3.06823 16.9471 3.06823C16.9371 3.06823 16.225 2.30165 16.225 2.30165L15.3124 2.84219L14.45 2.20337L13.6377 2.84219L12.695 2.30165L12.003 3.09772L10.97 2.66528L10.4185 3.63826L11.2308 5.24022H11.2508Z" fill="white"/>
<path fill-rule="evenodd" clip-rule="evenodd" d="M10.9798 2.69483L10.4583 3.65798L11.2707 5.24028C12.2535 4.87665 13.3566 4.68992 14.4497 4.68992C15.603 4.68992 16.6962 4.87665 17.7291 5.23046L18.5314 3.63832L17.9598 2.685C16.9569 3.10761 16.9569 3.10761 16.9469 3.10761C16.9268 3.10761 16.9268 3.10761 16.2048 2.3312L15.3222 2.88156L14.4397 2.23292L13.6575 2.87174L12.6847 2.34102L12.0228 3.13709L10.9598 2.71449L10.9798 2.69483ZM17.7492 5.2796H17.7291C16.6962 4.90613 15.603 4.72923 14.4698 4.72923C13.3566 4.72923 12.2535 4.91596 11.2506 5.26977L10.4082 3.65798L10.9598 2.66535L12.0228 3.08795L12.6847 2.29188L13.6575 2.8226L14.4397 2.1936L15.3323 2.83242L16.2148 2.29188C16.5157 2.59655 16.9369 3.03881 16.9669 3.05847C16.9669 3.04864 17.699 2.7538 17.9698 2.64569L18.5715 3.62849L17.7492 5.2796Z" fill="#CC202B"/>
<path fill-rule="evenodd" clip-rule="evenodd" d="M16.4756 4.79819L16.9468 3.1864L17.9493 2.78345L18.4806 3.64831L17.7287 5.16183C17.2976 4.99475 17.0671 4.91612 16.4956 4.78836L16.4756 4.79819Z" fill="#3A7AA1"/>
<path fill-rule="evenodd" clip-rule="evenodd" d="M17.9395 2.78351L16.947 3.18646L16.4858 4.79825C17.0573 4.91619 17.2878 4.99481 17.7189 5.16189L18.4708 3.64837L17.9395 2.78351ZM17.7189 5.17171C17.2878 5.00464 17.0673 4.92602 16.4858 4.79825L16.947 3.17663L17.9495 2.77368L18.4808 3.64837L17.7189 5.17171Z" fill="#5471B7"/>
<path fill-rule="evenodd" clip-rule="evenodd" d="M13.8481 4.62098L13.6877 2.95022L14.4797 2.33105L15.3118 2.95022L15.1614 4.63081C14.7003 4.61115 14.3795 4.61115 13.8381 4.63081L13.8481 4.62098Z" fill="#3A7AA1"/>
<path fill-rule="evenodd" clip-rule="evenodd" d="M14.4797 2.33136L13.6978 2.95053L13.8582 4.62129C14.3795 4.5918 14.7103 4.5918 15.1714 4.62129L15.3218 2.95053L14.4897 2.34119L14.4797 2.33136ZM15.1714 4.63111C14.7203 4.61146 14.3895 4.61146 13.8582 4.63111L13.6978 2.95053L14.4897 2.32153L15.3318 2.9407L15.1815 4.63111H15.1714Z" fill="#5471B7"/>
<path fill-rule="evenodd" clip-rule="evenodd" d="M11.2907 5.16183L10.5488 3.62866L11.0401 2.78345L12.0626 3.22571L12.4937 4.80802C12.0225 4.9063 11.7819 4.98492 11.2807 5.17165L11.2907 5.16183Z" fill="#3A7AA1"/>
<path fill-rule="evenodd" clip-rule="evenodd" d="M11.0501 2.79328L10.5589 3.63848L11.3007 5.16183C11.7819 4.98492 12.0325 4.89647 12.5137 4.79819L12.0726 3.22571L11.0501 2.79328ZM11.2907 5.18148L10.5488 3.63848L11.0401 2.78345L12.0726 3.21588L12.5137 4.80802C12.0325 4.9063 11.7819 4.99475 11.3007 5.17165L11.2907 5.18148Z" fill="#5471B7"/>
<path fill-rule="evenodd" clip-rule="evenodd" d="M11.1404 4.39526C11.371 4.41491 11.5314 4.39526 11.7218 4.33629C11.9524 4.22818 12.0226 4.11024 12.0928 4.01196C12.1429 4.20852 12.1229 4.38543 11.8622 4.53285C11.6216 4.65079 11.2908 4.61147 11.1304 4.39526H11.1404Z" fill="white"/>
<path fill-rule="evenodd" clip-rule="evenodd" d="M11.5715 4.61135C11.381 4.61135 11.2206 4.53272 11.1304 4.40496C11.2005 4.40496 11.2607 4.40496 11.3208 4.40496C11.4612 4.40496 11.5715 4.3853 11.7118 4.33616C11.9224 4.23788 12.0026 4.12977 12.0727 4.03149C12.0026 4.1396 11.9224 4.24771 11.7118 4.34599C11.5213 4.41479 11.3609 4.42462 11.1304 4.40496C11.2807 4.59169 11.6116 4.66049 11.8622 4.53272C12.0727 4.41479 12.1229 4.26737 12.1128 4.1396C12.1329 4.26737 12.0928 4.41479 11.8722 4.54255C11.782 4.59169 11.6817 4.61135 11.5815 4.61135H11.5715Z" fill="white"/>
<path fill-rule="evenodd" clip-rule="evenodd" d="M14.7006 3.20596L14.6605 3.22561V3.29441L14.6004 3.31406L14.5703 3.38286L14.5904 3.40252L14.5703 3.45166L14.5803 3.47131L14.6004 3.51062L14.6305 3.52045L14.6505 3.56959L14.7006 3.57942L14.7608 3.61873V3.63839H14.8209L14.861 3.65804L15.0114 3.63839L15.0315 3.60891V3.56959H15.1117L15.1217 3.5008H15.1618L15.1518 3.432H15.1919L15.1818 3.39269L15.1618 3.37303L15.1518 3.32389L15.0916 3.26492L15.0816 3.1863L15.0415 3.16664V3.1175L15.0816 3.05854V3.02905H15.0415L15.0114 3.05854H14.9713V3.07819L14.9813 3.1175H14.9312V3.05854L14.861 3.02905L14.8009 3.06836L14.7909 3.1175L14.7608 3.12733L14.7307 3.07819L14.6806 3.05854H14.6505V3.09785L14.7107 3.16664L14.7006 3.20596Z" fill="#F4EB38"/>
<path fill-rule="evenodd" clip-rule="evenodd" d="M14.8207 3.62862H14.8608H15.0012V3.60897V3.57948L15.0914 3.55983V3.51069L15.1415 3.50086L15.1215 3.44189H15.1716L15.1315 3.39275V3.34361L15.0613 3.29447L15.0413 3.20602C15.0413 3.20602 15.0012 3.20602 15.0012 3.18636V3.13722L15.0513 3.06843H15.0212L15.0012 3.08808C15.0012 3.08808 14.9611 3.08808 14.9511 3.08808C14.9511 3.08808 14.9578 3.10119 14.9711 3.1274H14.911L14.8909 3.06843L14.8308 3.04877C14.8308 3.04877 14.7907 3.07825 14.7806 3.08808V3.1274L14.7405 3.14705L14.6904 3.09791L14.6403 3.07825V3.09791L14.6804 3.15688V3.20602L14.6202 3.22567V3.29447L14.5701 3.31413L14.54 3.38292C14.54 3.38292 14.5601 3.40258 14.5501 3.43206C14.54 3.43206 14.54 3.43206 14.5501 3.46155L14.5701 3.51069H14.6002L14.6202 3.56966H14.6704L14.7305 3.60897V3.63845H14.7806L14.8207 3.62862ZM14.8608 3.66794H14.7506V3.6188L14.7004 3.58931H14.6503L14.6303 3.52052H14.6102L14.5801 3.42224L14.6002 3.39275H14.5701L14.6002 3.29447L14.6704 3.27482V3.20602L14.7105 3.18636V3.15688L14.6503 3.09791V3.0586V3.04877H14.6904L14.7506 3.06843L14.7907 3.11757V3.06843C14.7907 3.06843 14.7907 3.06843 14.8709 3.01929L14.9511 3.04877V3.11757L14.9811 3.10774V3.08808C14.9811 3.08808 14.9811 3.04877 15.0212 3.04877L15.0513 3.02912H15.1014H15.1115V3.06843L15.0714 3.13722V3.18636H15.1115L15.1315 3.27482L15.1917 3.32395L15.2318 3.44189H15.1816L15.2017 3.51069L15.1415 3.53034V3.57948L15.0513 3.59914V3.62862V3.66794L14.8909 3.68759L14.8608 3.66794Z" fill="#C0A12E"/>
<path fill-rule="evenodd" clip-rule="evenodd" d="M14.5904 3.39273H14.6505L14.6706 3.4517L14.6906 3.47135V3.56963L14.7107 3.57946L14.7207 3.54015L14.7708 3.53032L14.7808 3.61877L14.7708 3.6286V3.63843H14.831L14.841 3.61877H14.8811L14.8911 3.63843L14.9011 3.60895L14.9312 3.59912L14.9613 3.63843L15.0014 3.6286L14.9813 3.60895L14.9613 3.54998L15.0214 3.52049L15.0515 3.55981H15.0716L15.0415 3.51067V3.42221L15.0916 3.36325L15.1518 3.35342V3.32393L15.0916 3.27479L15.0716 3.18634L15.0415 3.17651L15.0315 3.18634H14.9914L15.0315 3.24531V3.28462L15.0515 3.29445L15.0415 3.39273L15.0014 3.40256L14.9914 3.46153L14.9713 3.48118L14.9513 3.54015L14.9212 3.56963H14.8711L14.841 3.54998V3.50084H14.8209L14.8109 3.4517L14.7708 3.43204V3.41239L14.7407 3.39273L14.7307 3.37307L14.7207 3.36325L14.7107 3.29445H14.7407L14.7307 3.27479L14.7207 3.25514V3.23548L14.7508 3.21583L14.7006 3.206L14.6605 3.22565V3.30428L14.6104 3.31411L14.5703 3.3829L14.5904 3.39273Z" fill="#C0A12E"/>
<path fill-rule="evenodd" clip-rule="evenodd" d="M15.0315 3.18616L14.9914 3.20582L15.0415 3.24513L15.0615 3.39255L15.0816 3.35324H15.1518L15.0816 3.28444L15.0615 3.19599H15.0315V3.18616ZM15.0014 3.40238V3.45152L14.9713 3.49083C14.9713 3.49083 14.9613 3.53997 14.9513 3.5498L15.0114 3.51048L15.0315 3.53014V3.43186L15.0415 3.4122C15.0315 3.4122 15.0114 3.4122 15.0014 3.4122V3.40238ZM14.9613 3.63825L14.9212 3.58911H14.9011L14.9312 3.57928C14.9412 3.58911 14.9613 3.62842 14.9613 3.62842H14.9914L14.9613 3.61859L14.9412 3.55962L14.9212 3.58911H14.861L14.8209 3.55962V3.52031C14.8209 3.52031 14.7909 3.52031 14.7808 3.47117H14.7508V3.42203H14.7207V3.38272C14.7207 3.38272 14.714 3.35651 14.7006 3.3041L14.7407 3.28444L14.7708 3.3041H14.7207C14.7207 3.3041 14.7207 3.35324 14.7207 3.36306L14.7708 3.40238V3.43186H14.8009C14.8009 3.43186 14.8209 3.47117 14.8209 3.481C14.841 3.481 14.851 3.53014 14.851 3.53014L14.8811 3.5498H14.9212C14.9212 3.5498 14.9412 3.51048 14.9513 3.51048V3.47117L14.9813 3.44169V3.39255C14.9813 3.39255 14.9813 3.38272 15.0415 3.37289L15.0114 3.2353L14.9713 3.18616L15.0214 3.1665H15.0716L15.0916 3.26478L15.1618 3.31392V3.34341L15.0816 3.36306L15.0415 3.42203V3.50066C15.0415 3.50066 15.0615 3.53997 15.0716 3.53997L15.0415 3.55962L15.0114 3.51048L14.9713 3.5498L15.0114 3.60877L14.9613 3.63825ZM14.7608 3.63825V3.61859V3.52031L14.7307 3.53997V3.56945V3.58911H14.6906L14.6806 3.46135L14.6505 3.39255H14.5904H14.5703L14.6104 3.31392L14.6605 3.29427V3.2353C14.6806 3.21564 14.7006 3.20582 14.7107 3.20582C14.7307 3.20582 14.7608 3.20582 14.7608 3.20582L14.7407 3.27461H14.7207L14.7407 3.22547H14.7207C14.7207 3.22547 14.7006 3.2353 14.6906 3.24513C14.6906 3.24513 14.6906 3.27461 14.6906 3.31392L14.6305 3.34341L14.6004 3.40238H14.6706L14.6906 3.46135L14.7207 3.58911V3.55962L14.7808 3.53997L14.8009 3.63825H14.861V3.66773H14.7808L14.7608 3.63825Z" fill="#C0A12E"/>
<path fill-rule="evenodd" clip-rule="evenodd" d="M14.8411 3.50068L14.8711 3.48102V3.44171H14.8411H14.8311H14.8611H14.9011L14.9211 3.43188C14.9211 3.45154 14.9111 3.44171 14.9111 3.44171L14.8911 3.45154V3.48102H14.9711V3.50068L14.8911 3.48102L14.8411 3.51051V3.49085V3.50068Z" fill="#613F22"/>
<path fill-rule="evenodd" clip-rule="evenodd" d="M14.821 3.53023V3.49091L14.871 3.47126V3.44178L14.901 3.42212L14.881 3.44178V3.47126C14.9344 3.47126 14.961 3.47126 14.961 3.47126C14.961 3.47126 14.951 3.49091 14.871 3.47126L14.811 3.51057L14.821 3.53023Z" fill="#C0A12E"/>
<path fill-rule="evenodd" clip-rule="evenodd" d="M15.0306 3.28456L14.9906 3.31404L14.9606 3.36318H14.9406L14.9006 3.31404H14.8506L14.8206 3.38284H14.8006L14.7506 3.32387C14.7506 3.32387 14.7306 3.29438 14.7406 3.29438C14.7506 3.29438 14.8706 3.29438 14.8706 3.29438V3.23541C14.8706 3.23541 14.8506 3.23541 14.8406 3.22559H14.9106L14.8806 3.24524V3.29438H15.0306V3.28456Z" fill="#C0A12E"/>
<path fill-rule="evenodd" clip-rule="evenodd" d="M14.8807 3.29444H14.7407L14.8107 3.36324C14.8107 3.36324 14.8107 3.33376 14.8307 3.30427H14.8707V3.29444H14.8807ZM14.8307 3.39272H14.8107L14.7407 3.32393V3.28462H14.8707V3.2453C14.8707 3.2453 14.8607 3.2453 14.8507 3.2453C14.8407 3.21582 14.8607 3.21582 14.9007 3.21582H14.9407L14.8807 3.25513V3.29444L15.0207 3.27479L14.9607 3.37307H14.9307L14.8907 3.32393H14.8607C14.8607 3.32393 14.8507 3.38289 14.8407 3.39272H14.8307Z" fill="#C0A12E"/>
<path fill-rule="evenodd" clip-rule="evenodd" d="M14.9412 3.30444H14.9512V3.32444H14.9412V3.30444Z" fill="#613F22"/>
<path fill-rule="evenodd" clip-rule="evenodd" d="M14.7407 3.22565H14.7307V3.206C14.7707 3.18634 14.8107 3.17651 14.8607 3.17651C14.9207 3.17651 14.9607 3.17651 15.0107 3.18634C14.9607 3.206 14.9207 3.19617 14.8707 3.206C14.8207 3.206 14.7907 3.22565 14.7507 3.23548L14.7407 3.22565Z" fill="#C0A12E"/>
<path fill-rule="evenodd" clip-rule="evenodd" d="M14.7506 3.12733H14.7206L14.6606 3.06836H14.6906L14.7306 3.08802L14.7506 3.12733Z" fill="#C0A12E"/>
<path fill-rule="evenodd" clip-rule="evenodd" d="M14.7804 3.13728H14.7204L14.6304 3.04883L14.7404 3.07831L14.7804 3.13728Z" fill="#C0A12E"/>
<path fill-rule="evenodd" clip-rule="evenodd" d="M14.9812 3.09785L15.0712 3.03888L15.0412 3.02905L15.0112 3.06836H14.9712L14.9812 3.09785Z" fill="#C0A12E"/>
<path fill-rule="evenodd" clip-rule="evenodd" d="M14.9308 3.11813H14.8008V3.10813L14.8508 3.09813V3.07812H14.8708L14.8808 3.09813L14.9308 3.10813V3.11813Z" fill="#C0A12E"/>
<path fill-rule="evenodd" clip-rule="evenodd" d="M14.7808 3.12789L14.7908 3.10789L14.8508 3.08789L14.8208 3.10789L14.8608 3.09789V3.08789H14.9308L14.9408 3.11789L14.9308 3.12789H14.7808Z" fill="#C0A12E"/>
<path fill-rule="evenodd" clip-rule="evenodd" d="M14.9211 3.06906H14.8811L14.8711 3.03906L14.9211 3.06906Z" fill="#C0A12E"/>
<path fill-rule="evenodd" clip-rule="evenodd" d="M14.8508 3.03906L14.8408 3.06906L14.8008 3.07906L14.8508 3.03906Z" fill="#C0A12E"/>
<path fill-rule="evenodd" clip-rule="evenodd" d="M14.5903 3.49086L14.6203 3.43189L14.5903 3.39258L14.5703 3.45155L14.5903 3.49086Z" fill="#C0A12E"/>
<path fill-rule="evenodd" clip-rule="evenodd" d="M14.6404 3.52046L14.6704 3.45166L14.6104 3.51063L14.6404 3.52046Z" fill="#C0A12E"/>
<path fill-rule="evenodd" clip-rule="evenodd" d="M14.6404 3.54017L14.6104 3.52052L14.6504 3.45172L14.6204 3.51069L14.6404 3.52052L14.6304 3.51069L14.6604 3.44189L14.6404 3.54017Z" fill="#C0A12E"/>
<path fill-rule="evenodd" clip-rule="evenodd" d="M13.9585 3.2355H13.9184V3.32395H13.8682L13.8281 3.40257L13.8482 3.42223L13.8281 3.47137V3.49102L13.8582 3.53034H13.8983V3.58931H13.9585L14.0086 3.63844V3.6581H14.0788H14.1189H14.2692L14.2893 3.62862V3.58931H14.3695V3.52051H14.4196V3.45171H14.4497V3.4124L14.4196 3.38292V3.34361L14.3494 3.28464V3.20601L14.2993 3.18636V3.13722L14.3494 3.07825V3.05859H14.2993L14.2692 3.07825H14.2291V3.13722H14.189V3.08808L14.1189 3.05859L14.0587 3.0979V3.14704H14.0286L13.9986 3.10773L13.9484 3.08808H13.9184V3.11756L13.9785 3.18636V3.22567L13.9585 3.2355Z" fill="#F4EB38"/>
<path fill-rule="evenodd" clip-rule="evenodd" d="M14.0888 3.6484H14.1289H14.2693V3.62874V3.59926L14.3595 3.5796V3.53046L14.4096 3.52063L14.3896 3.46167H14.4397L14.3996 3.41253V3.36339L14.3394 3.31425L14.3194 3.22579C14.3194 3.22579 14.2793 3.21597 14.2793 3.20614V3.157L14.3194 3.0882H14.2893L14.2693 3.10786C14.2693 3.10786 14.2292 3.10786 14.2191 3.10786C14.2191 3.10786 14.2258 3.12096 14.2392 3.14717H14.179L14.159 3.09803L14.0988 3.07837C14.0988 3.07837 14.0587 3.10786 14.0487 3.11769V3.157L14.0086 3.17665L13.9585 3.12751L13.9084 3.10786V3.12751L13.9485 3.19631V3.24545L13.8883 3.26511V3.3339L13.8382 3.35356L13.8081 3.41253C13.8081 3.41253 13.8382 3.43218 13.8181 3.47149C13.8181 3.47149 13.8181 3.47149 13.8181 3.49115L13.8382 3.54029H13.8582L13.8783 3.59926H13.9284L13.9986 3.63857V3.66805H14.0487L14.0888 3.6484ZM14.1289 3.68771L14.0186 3.66805V3.63857L13.9685 3.60909H13.9184L13.8983 3.54029H13.8683L13.8382 3.45184C13.8382 3.44201 13.8382 3.42235 13.8482 3.42235L13.8282 3.39287L13.8683 3.32407L13.9384 3.30442V3.23562L13.9785 3.21597V3.18648L13.9184 3.12751V3.0882V3.06855H13.9585L14.0186 3.0882L14.0587 3.13734V3.0882C14.0587 3.0882 14.0587 3.0882 14.1389 3.03906L14.2191 3.06855V3.13734L14.2492 3.12751V3.10786C14.2492 3.10786 14.2392 3.06855 14.2893 3.06855L14.3094 3.04889H14.3595H14.3695V3.07837L14.3294 3.14717V3.18648H14.3695L14.3896 3.27493L14.4497 3.32407L14.4898 3.44201H14.4397L14.4597 3.51081L14.4096 3.53046V3.5796L14.3194 3.58943V3.61892V3.65823L14.159 3.67788L14.1289 3.68771Z" fill="#C0A12E"/>
<path fill-rule="evenodd" clip-rule="evenodd" d="M13.8482 3.42209L13.9184 3.41226L13.9284 3.47123L13.9484 3.49088L13.9585 3.58916L13.9785 3.59899V3.55968H14.0286L14.0387 3.6383L14.0286 3.64813L14.0387 3.65796H14.0888L14.1088 3.6383H14.1389L14.159 3.65796V3.62848L14.1991 3.61865L14.2191 3.65796L14.2692 3.64813L14.2392 3.62848L14.2291 3.57934L14.2893 3.54003L14.3093 3.57934H14.3394L14.3093 3.54003V3.44175L14.3595 3.38278L14.4196 3.37295V3.35329L14.3595 3.29433L14.3394 3.2157L14.2993 3.19604L14.2893 3.20587H14.2492L14.2893 3.26484V3.30415L14.3093 3.31398V3.41226L14.2592 3.42209V3.48106L14.2291 3.51054L14.2091 3.55968L14.189 3.59899H14.1389L14.1088 3.56951L14.0988 3.5302L14.0788 3.52037L14.0687 3.48106L14.0387 3.4614V3.43192L13.9986 3.42209V3.3926L13.9785 3.38278V3.32381L14.0086 3.31398L13.9885 3.29433V3.27467V3.25501L14.0086 3.23536H13.9685L13.9184 3.24518V3.32381L13.8682 3.34346L13.8281 3.40243L13.8482 3.42209Z" fill="#C0A12E"/>
<path fill-rule="evenodd" clip-rule="evenodd" d="M14.2993 3.206L14.2592 3.22565L14.3093 3.26497L14.3294 3.41239L14.3595 3.37307H14.4296L14.3595 3.30428L14.3394 3.21583H14.3093L14.2993 3.206ZM14.2291 3.65809L14.189 3.60895H14.169L14.1991 3.59912L14.2392 3.64826H14.2692L14.2392 3.63843L14.2191 3.57946L14.2893 3.53032L14.3093 3.54998V3.4517L14.3194 3.43204C14.3093 3.43204 14.2893 3.43204 14.2793 3.43204V3.48118L14.2492 3.52049C14.2358 3.55981 14.2258 3.57946 14.2191 3.57946L14.1991 3.60895H14.1389C14.1389 3.60895 14.0988 3.57946 14.0988 3.56963V3.53032C14.0988 3.53032 14.0687 3.53032 14.0587 3.48118H14.0286V3.43204H13.9986V3.40256C13.9986 3.40256 13.9919 3.37635 13.9785 3.32393L14.0186 3.30428L14.0487 3.32393H14.0086C14.0086 3.32393 14.0086 3.37307 14.0086 3.3829L14.0587 3.42221V3.4517H14.0888C14.0888 3.4517 14.0988 3.49101 14.1088 3.50084C14.1289 3.50084 14.1389 3.54998 14.1389 3.54998L14.159 3.56963H14.1991L14.2191 3.53032V3.48118L14.2492 3.4517V3.40256C14.2492 3.40256 14.2492 3.39273 14.3093 3.3829L14.2793 3.24531L14.2392 3.19617L14.2893 3.17651H14.3394L14.3595 3.27479L14.4296 3.33376V3.36325L14.3494 3.3829L14.3093 3.44187V3.53032C14.3093 3.53032 14.3394 3.55981 14.3394 3.56963L14.3093 3.58929L14.2692 3.54015L14.2291 3.57946L14.2692 3.63843L14.2191 3.66791L14.2291 3.65809ZM14.0286 3.65809V3.63843V3.54015L13.9986 3.55981V3.58929V3.60895L13.9585 3.58929V3.47135L13.9083 3.40256L13.8482 3.42221L13.8281 3.40256L13.8682 3.32393L13.9184 3.30428C13.9184 3.30428 13.9184 3.24531 13.9184 3.23548C13.9284 3.21583 13.9585 3.206 13.9685 3.206C13.9885 3.206 14.0186 3.206 14.0186 3.206L13.9986 3.27479H13.9785L13.9986 3.22565H13.9785C13.9785 3.22565 13.9585 3.23548 13.9484 3.24531V3.31411L13.8883 3.34359L13.8582 3.40256H13.9284L13.9484 3.46153L13.9785 3.58929V3.55981L14.0387 3.54998L14.0587 3.64826H14.1189V3.67774H14.0387L14.0286 3.65809Z" fill="#C0A12E"/>
<path fill-rule="evenodd" clip-rule="evenodd" d="M14.1089 3.52046L14.1389 3.5008V3.46149H14.1089H14.0989H14.1289H14.1689L14.1789 3.45166C14.1789 3.47132 14.1689 3.47131 14.1689 3.47131L14.1489 3.48114V3.52046H14.2289V3.54011L14.1489 3.52046L14.0989 3.54994V3.53028L14.1089 3.52046Z" fill="#613F22"/>
<path fill-rule="evenodd" clip-rule="evenodd" d="M14.0788 3.55977L14.0988 3.52046L14.1288 3.5008V3.47131L14.1588 3.45166L14.1388 3.47131V3.5008C14.1922 3.5008 14.2188 3.5008 14.2188 3.5008C14.2188 3.5008 14.2088 3.52046 14.1288 3.5008L14.0688 3.54011L14.0788 3.55977Z" fill="#C0A12E"/>
<path fill-rule="evenodd" clip-rule="evenodd" d="M14.2886 3.30433L14.2486 3.33381L14.2186 3.38295H14.1986L14.1586 3.33381H14.1086L14.0786 3.40261H14.0587L14.0086 3.34364C14.0086 3.34364 13.9886 3.31416 13.9986 3.31416H14.1286V3.25519C14.1286 3.25519 14.1086 3.25519 14.0986 3.24536H14.1686L14.1386 3.26502V3.31416H14.2486H14.2886V3.30433Z" fill="#C0A12E"/>
<path fill-rule="evenodd" clip-rule="evenodd" d="M14.1385 3.32399H13.9985L14.0685 3.39278C14.0685 3.39278 14.0785 3.3633 14.0885 3.33381H14.1285V3.32399H14.1385ZM14.0885 3.42227H14.0685L13.9985 3.35347V3.31416H14.1285V3.27485C14.1285 3.27485 14.1285 3.27485 14.1185 3.27485C14.1085 3.24536 14.1285 3.24536 14.1685 3.24536H14.2085L14.1485 3.28467V3.32399L14.2885 3.30433L14.2285 3.40261H14.1985L14.1585 3.35347H14.1285L14.1085 3.41244H14.0985L14.0885 3.42227Z" fill="#C0A12E"/>
<path fill-rule="evenodd" clip-rule="evenodd" d="M14.209 3.3335H14.219V3.3535H14.209V3.3335Z" fill="#613F22"/>
<path fill-rule="evenodd" clip-rule="evenodd" d="M14.0088 3.24604H13.9888V3.22604C14.0288 3.20604 14.0588 3.19604 14.1188 3.19604C14.1788 3.19604 14.2188 3.19604 14.2588 3.19604C14.2088 3.21604 14.1688 3.20605 14.1188 3.21605C14.0688 3.21605 14.0388 3.23604 13.9988 3.24604H14.0088Z" fill="#C0A12E"/>
<path fill-rule="evenodd" clip-rule="evenodd" d="M14.0182 3.14686H13.9782L13.9282 3.08789L13.9582 3.09772L13.9882 3.10755L14.0182 3.14686Z" fill="#C0A12E"/>
<path fill-rule="evenodd" clip-rule="evenodd" d="M14.0482 3.15681H13.9782L13.8882 3.06836L13.9982 3.09784L14.0482 3.15681Z" fill="#C0A12E"/>
<path fill-rule="evenodd" clip-rule="evenodd" d="M14.2492 3.12739L14.3292 3.05859H14.2992L14.2692 3.08808H14.2292L14.2492 3.12739Z" fill="#C0A12E"/>
<path fill-rule="evenodd" clip-rule="evenodd" d="M14.1986 3.13767H14.0586V3.12767H14.1086L14.1186 3.10767H14.1286L14.1386 3.12767H14.1886L14.1986 3.13767Z" fill="#C0A12E"/>
<path fill-rule="evenodd" clip-rule="evenodd" d="M14.0488 3.15767V3.12767L14.1088 3.10767L14.0888 3.12767H14.1288L14.1188 3.10767L14.1888 3.11767L14.2088 3.13767L14.1988 3.14767L14.0488 3.15767Z" fill="#C0A12E"/>
<path fill-rule="evenodd" clip-rule="evenodd" d="M14.1889 3.08836H14.1389V3.06836L14.1889 3.08836Z" fill="#C0A12E"/>
<path fill-rule="evenodd" clip-rule="evenodd" d="M14.1086 3.06836V3.08836L14.0586 3.09836L14.1086 3.06836Z" fill="#C0A12E"/>
<path fill-rule="evenodd" clip-rule="evenodd" d="M13.8581 3.51057L13.8781 3.4516L13.8581 3.42212L13.8381 3.47126L13.8581 3.51057Z" fill="#C0A12E"/>
<path fill-rule="evenodd" clip-rule="evenodd" d="M13.8982 3.54017L13.9282 3.4812L13.8782 3.53034L13.8982 3.54017Z" fill="#C0A12E"/>
<path fill-rule="evenodd" clip-rule="evenodd" d="M13.9082 3.55989L13.8682 3.54023L13.9182 3.47144L13.8882 3.54023H13.8982H13.8882L13.9182 3.47144L13.9082 3.55989Z" fill="#C0A12E"/>
<path fill-rule="evenodd" clip-rule="evenodd" d="M15.1819 4.62109L15.3323 2.9405L16.2445 2.42944L16.9463 3.17637L16.4751 4.798C16.024 4.70954 15.7633 4.67023 15.1919 4.62109H15.1819Z" fill="#2C3382"/>
<path fill-rule="evenodd" clip-rule="evenodd" d="M16.2345 2.43933L15.3322 2.95039L15.1919 4.62115C15.7633 4.65064 16.024 4.69978 16.4751 4.78823L16.9363 3.17643L16.2345 2.43933ZM16.4751 4.80788C16.024 4.71943 15.7633 4.68012 15.1919 4.63098L15.3322 2.94056L16.2445 2.41968L16.9563 3.16661L16.4851 4.79806L16.4751 4.80788Z" fill="#2A2875"/>
<path fill-rule="evenodd" clip-rule="evenodd" d="M14.3493 3.86447L14.2992 3.8743V3.95292L14.2491 3.96275L14.209 4.03154L14.229 4.0512L14.219 4.11017L14.229 4.11999L14.2491 4.16913H14.2792L14.2892 4.21828L14.3493 4.2281L14.3995 4.26742L14.4095 4.28707L14.4696 4.2969L14.5097 4.30673L14.6601 4.28707L14.6802 4.25759V4.21828H14.7604V4.14948H14.8105L14.8005 4.08068H14.8406L14.8305 4.0512L14.8105 4.02172L14.8005 3.97257L14.7403 3.91361L14.7303 3.83498L14.6902 3.81533L14.6802 3.76619L14.7303 3.70722L14.7203 3.68756H14.6802L14.6501 3.70722H14.61V3.72687L14.62 3.76619H14.5799L14.5699 3.70722L14.5097 3.67773L14.4396 3.71705V3.76619L14.4095 3.77601L14.3794 3.7367L14.3193 3.71705L14.2992 3.70722V3.74653L14.3493 3.81533V3.86447Z" fill="#F4EB38"/>
<path fill-rule="evenodd" clip-rule="evenodd" d="M14.4699 4.2773H14.51H14.6504V4.25765V4.22816L14.7406 4.20851V4.15937L14.7907 4.14954L14.7707 4.09057H14.8208L14.7807 4.04143V3.99229L14.7105 3.94315L14.6905 3.8547C14.6905 3.8547 14.6504 3.84487 14.6504 3.83504V3.78591L14.6905 3.71711H14.6604L14.6404 3.73676C14.6404 3.73676 14.6003 3.73676 14.5902 3.73676C14.5902 3.73676 14.5969 3.74987 14.6103 3.77608H14.5501L14.5301 3.72694L14.4699 3.70728C14.4699 3.70728 14.4298 3.73676 14.4198 3.74659V3.78591L14.3797 3.80556L14.3296 3.75642L14.2794 3.73676V3.75642L14.3195 3.81539V3.86453L14.2594 3.88418V3.95298L14.2093 3.97264L14.1792 4.0316C14.1792 4.0316 14.2093 4.05126 14.1892 4.08075C14.1792 4.08075 14.1792 4.08075 14.1892 4.11023L14.2093 4.15937H14.2393L14.2594 4.21834H14.3095L14.3797 4.25765V4.28713H14.4298L14.4699 4.2773ZM14.51 4.31662L14.3997 4.29696V4.26748L14.3496 4.238H14.2995L14.2794 4.1692H14.2594L14.2193 4.07092V4.02178L14.2494 3.95298L14.3195 3.93333V3.86453L14.3596 3.84487V3.81539L14.2995 3.74659V3.70728V3.69745H14.3396L14.3997 3.71711L14.4399 3.76625V3.71711C14.4399 3.71711 14.4399 3.71711 14.5201 3.66797L14.6003 3.69745V3.76625L14.6303 3.75642V3.73676C14.6303 3.73676 14.6203 3.70728 14.6704 3.69745L14.6905 3.6778H14.7406H14.7506V3.71711L14.7105 3.78591V3.82522H14.7506L14.7707 3.91367L14.8308 3.96281L14.8709 4.08075L14.8208 4.1004L14.8409 4.15937H14.7807V4.22816L14.6905 4.24782V4.2773L14.6805 4.31662L14.5201 4.33627L14.51 4.31662Z" fill="#C0A12E"/>
<path fill-rule="evenodd" clip-rule="evenodd" d="M14.2391 4.05099L14.2992 4.04117L14.3092 4.10013L14.3293 4.11979L14.3393 4.21807L14.3594 4.2279V4.18859H14.4095L14.4195 4.26721L14.4095 4.27704L14.4195 4.28687H14.4696L14.4897 4.26721H14.5198L14.5398 4.28687L14.5498 4.25738L14.5799 4.24756L14.6 4.28687L14.6501 4.27704L14.62 4.25738L14.61 4.19842L14.6701 4.16893L14.6902 4.20824H14.7203L14.6902 4.1591V4.07065L14.7403 4.01168L14.8005 4.00186V3.9822L14.7403 3.92323L14.7203 3.84461L14.6802 3.82495L14.6701 3.83478H14.63L14.6701 3.89375V3.93306L14.6902 3.94289V4.04117L14.6401 4.05099V4.10996L14.61 4.13945L14.5899 4.18859L14.5699 4.21807H14.5198L14.4897 4.19842L14.4797 4.1591L14.4596 4.14928L14.4496 4.10996L14.4195 4.09031V4.06083L14.3794 4.05099V4.02151L14.3594 4.01168V3.95272L14.3894 3.94289L14.3694 3.92323V3.90358V3.88392L14.3894 3.86426L14.3493 3.85444L14.3092 3.87409V3.95272L14.2591 3.96254L14.209 4.03134L14.2391 4.05099Z" fill="#C0A12E"/>
<path fill-rule="evenodd" clip-rule="evenodd" d="M14.6804 3.83478L14.6403 3.85444L14.6904 3.89375L14.7105 4.04117L14.7305 4.01168H14.8007L14.7305 3.94289L14.7105 3.85444H14.6804V3.83478ZM14.6102 4.28687L14.5701 4.23773L14.5501 4.28687L14.51 4.25738H14.4899L14.52 4.23773V4.25738L14.5401 4.27704V4.23773C14.5701 4.2279 14.5701 4.2279 14.5802 4.2279C14.5902 4.23773 14.6203 4.27704 14.6203 4.27704H14.6503L14.6203 4.26721L14.6002 4.20824L14.6704 4.1591L14.6904 4.17876V4.08048L14.7005 4.06083C14.6904 4.06083 14.6704 4.06083 14.6604 4.06083V4.10996L14.6303 4.13945C14.6169 4.17876 14.6069 4.19842 14.6002 4.19842L14.5802 4.2279H14.52L14.4799 4.19842V4.1591C14.4799 4.1591 14.4599 4.1591 14.4498 4.10996L14.4198 4.09031V4.06083H14.3897V4.03134C14.3897 4.03134 14.3596 4.03134 14.3596 3.95272L14.3997 3.93306L14.4298 3.95272H14.3797C14.3797 3.95272 14.3797 4.00185 14.3797 4.01168C14.3997 4.01168 14.3997 4.01168 14.3997 4.04117H14.4298V4.08048H14.4599C14.4599 4.08048 14.4699 4.12962 14.4799 4.13945C14.5 4.13945 14.51 4.18859 14.51 4.18859L14.5401 4.20824H14.5802C14.5802 4.20824 14.6002 4.16893 14.6102 4.16893V4.12962L14.6403 4.10013V4.05099C14.6403 4.05099 14.6403 4.04117 14.7005 4.03134L14.6804 3.89375L14.6403 3.84461L14.6904 3.82495H14.7406L14.7606 3.92323L14.8308 3.9822V4.01168L14.7506 4.03134L14.7105 4.09031V4.17876C14.7105 4.17876 14.7305 4.20825 14.7406 4.21807L14.7105 4.23773L14.6804 4.18859L14.6403 4.2279L14.6804 4.28687L14.6303 4.31635L14.6102 4.28687ZM14.4097 4.28687V4.26721V4.16893L14.3696 4.18859V4.21807V4.23773H14.3295L14.3195 4.10996L14.2894 4.04117H14.2293H14.1992L14.2393 3.96254L14.2894 3.94289V3.88392C14.3095 3.86426 14.3295 3.85444 14.3396 3.85444C14.3596 3.85444 14.3897 3.85444 14.3897 3.85444L14.3696 3.92323L14.3496 3.90358L14.3696 3.87409H14.3496C14.3496 3.87409 14.3295 3.87409 14.3195 3.89375C14.3195 3.89375 14.3195 3.92323 14.3195 3.96254L14.2594 3.99203L14.2293 4.05099H14.2995L14.3295 4.10996L14.3596 4.23773V4.20824L14.4198 4.18859L14.4398 4.28687H14.5V4.31635H14.4198L14.4097 4.28687Z" fill="#C0A12E"/>
<path fill-rule="evenodd" clip-rule="evenodd" d="M14.49 4.1493L14.52 4.12964V4.09033H14.49H14.48H14.51H14.55H14.57C14.57 4.10999 14.56 4.10016 14.56 4.10016L14.53 4.10999V4.1493H14.61V4.15913L14.53 4.13947L14.48 4.16895V4.1493H14.49Z" fill="#613F22"/>
<path fill-rule="evenodd" clip-rule="evenodd" d="M14.47 4.18861L14.49 4.1493L14.52 4.12964V4.10016L14.55 4.09033L14.53 4.10999V4.13947C14.5833 4.13947 14.61 4.14275 14.61 4.1493C14.61 4.1493 14.6 4.16896 14.52 4.1493L14.46 4.18861H14.47Z" fill="#C0A12E"/>
<path fill-rule="evenodd" clip-rule="evenodd" d="M14.6798 3.93317L14.6398 3.96266L14.6098 4.0118H14.5898L14.5498 3.96266H14.4998L14.4698 4.03145H14.4498L14.3998 3.98231C14.3998 3.98231 14.3798 3.95283 14.3898 3.95283H14.5198V3.89386C14.5198 3.89386 14.4998 3.89386 14.4898 3.88403H14.5598L14.5298 3.90369V3.95283H14.6398H14.6798V3.93317Z" fill="#C0A12E"/>
<path fill-rule="evenodd" clip-rule="evenodd" d="M14.5296 3.94301H14.3896L14.4596 4.0118C14.4596 4.0118 14.4696 3.99215 14.4896 3.95284H14.5296V3.94301ZM14.4696 4.02163H14.4496L14.3796 3.95284V3.91352H14.5096V3.87421C14.5096 3.87421 14.4996 3.87421 14.4896 3.87421C14.4796 3.84473 14.4996 3.84473 14.5396 3.84473H14.5796L14.5196 3.88404V3.92335L14.6596 3.90369L14.5996 4.00197H14.5696L14.5296 3.95284H14.4996C14.4996 3.95284 14.4796 4.0118 14.4796 4.02163H14.4696Z" fill="#C0A12E"/>
<path fill-rule="evenodd" clip-rule="evenodd" d="M14.4497 3.96265H14.4597V3.98265H14.4497V3.96265Z" fill="#613F22"/>
<path fill-rule="evenodd" clip-rule="evenodd" d="M14.5903 3.95288H14.6003V3.97288H14.5903V3.95288Z" fill="#613F22"/>
<path fill-rule="evenodd" clip-rule="evenodd" d="M14.3896 3.87415H14.3796V3.84467C14.4196 3.82501 14.4596 3.81519 14.5096 3.81519C14.5696 3.81519 14.6096 3.81519 14.6596 3.82501C14.6096 3.84467 14.5696 3.82501 14.5196 3.84467C14.4696 3.84467 14.4396 3.86433 14.3996 3.87415H14.3896Z" fill="#C0A12E"/>
<path fill-rule="evenodd" clip-rule="evenodd" d="M14.3996 3.77601H14.3596L14.3096 3.71704L14.3396 3.72687L14.3696 3.7367L14.3996 3.77601Z" fill="#C0A12E"/>
<path fill-rule="evenodd" clip-rule="evenodd" d="M14.4293 3.78572H14.3593L14.2693 3.69727L14.3793 3.72675L14.4293 3.78572Z" fill="#C0A12E"/>
<path fill-rule="evenodd" clip-rule="evenodd" d="M14.6301 3.7563L14.7101 3.6875H14.6801L14.6501 3.71698H14.6201L14.6301 3.7563Z" fill="#C0A12E"/>
<path fill-rule="evenodd" clip-rule="evenodd" d="M14.5799 3.76681H14.4399L14.4499 3.75681L14.4899 3.74681L14.4999 3.72681H14.5099L14.5199 3.74681L14.5699 3.75681L14.5799 3.76681Z" fill="#C0A12E"/>
<path fill-rule="evenodd" clip-rule="evenodd" d="M14.4297 3.78682V3.75682L14.4897 3.73682L14.4697 3.75682H14.5097L14.4997 3.73682L14.5797 3.74682L14.5897 3.76682L14.5797 3.77682L14.4297 3.78682Z" fill="#C0A12E"/>
<path fill-rule="evenodd" clip-rule="evenodd" d="M14.57 3.7175H14.52V3.6875L14.57 3.7175Z" fill="#C0A12E"/>
<path fill-rule="evenodd" clip-rule="evenodd" d="M14.4899 3.6875V3.7175L14.4399 3.7275L14.4899 3.6875Z" fill="#C0A12E"/>
<path fill-rule="evenodd" clip-rule="evenodd" d="M14.2392 4.13978L14.2592 4.08082L14.2392 4.0415L14.2192 4.10047L14.2392 4.13978Z" fill="#C0A12E"/>
<path fill-rule="evenodd" clip-rule="evenodd" d="M14.2793 4.16907L14.3093 4.11011L14.2593 4.15925L14.2793 4.16907Z" fill="#C0A12E"/>
<path fill-rule="evenodd" clip-rule="evenodd" d="M14.2893 4.18861L14.2493 4.16895L14.2993 4.10016L14.2693 4.16895H14.2793H14.2693L14.2993 4.09033L14.2893 4.18861Z" fill="#C0A12E"/>
<path fill-rule="evenodd" clip-rule="evenodd" d="M15.4025 4.32617L15.3625 4.37531V4.41462H15.4625C15.4925 4.41462 15.5025 4.39497 15.5025 4.38514C15.5025 4.36548 15.5025 4.36548 15.5025 4.34582L15.4025 4.32617Z" fill="#CC202B"/>
<path fill-rule="evenodd" clip-rule="evenodd" d="M15.3625 4.42451V4.37538L15.4025 4.31641L15.5125 4.33606V4.3852C15.5125 4.39503 15.4925 4.40486 15.4625 4.41468H15.3625V4.42451Z" fill="#D3202B"/>
<path fill-rule="evenodd" clip-rule="evenodd" d="M15.623 4.44434L15.583 4.47382V4.51313H15.663C15.693 4.51313 15.693 4.51313 15.703 4.49348C15.713 4.48365 15.703 4.48365 15.713 4.46399L15.623 4.44434Z" fill="#CC202B"/>
<path fill-rule="evenodd" clip-rule="evenodd" d="M15.663 4.53279H15.583V4.48365L15.633 4.44434L15.733 4.46399V4.5033C15.733 4.51313 15.723 4.52296 15.683 4.52296L15.663 4.53279Z" fill="#D3202B"/>
<path fill-rule="evenodd" clip-rule="evenodd" d="M16.0041 4.33618L15.9641 4.38532V4.4148H16.0541C16.0841 4.4148 16.0741 4.41481 16.0841 4.39515C16.0841 4.3755 16.0841 4.37549 16.0841 4.35584L15.9941 4.33618H16.0041Z" fill="#CC202B"/>
<path fill-rule="evenodd" clip-rule="evenodd" d="M16.0441 4.42463H15.9541V4.38532L16.0041 4.33618L16.1041 4.35584V4.39515C16.1041 4.41481 16.0941 4.4148 16.0641 4.4148L16.0441 4.42463Z" fill="#D3202B"/>
<path fill-rule="evenodd" clip-rule="evenodd" d="M16.2648 4.41486L16.2148 4.45417V4.49348H16.3048C16.3048 4.49348 16.3348 4.49348 16.3448 4.47383C16.3448 4.464 16.3448 4.45417 16.3448 4.43451L16.2548 4.40503L16.2648 4.41486Z" fill="#CC202B"/>
<path fill-rule="evenodd" clip-rule="evenodd" d="M16.3048 4.51314H16.2048V4.45417L16.2548 4.40503L16.3548 4.43451V4.48366C16.3548 4.48366 16.3348 4.50331 16.3048 4.51314Z" fill="#D3202B"/>
<path fill-rule="evenodd" clip-rule="evenodd" d="M15.623 3.32405L15.8035 3.44198C15.8035 3.44198 15.9037 3.44198 15.9338 3.44198C15.9839 3.45181 16.014 3.4813 16.0642 3.49112C16.1444 3.51078 16.2346 3.52061 16.3048 3.52061C16.3749 3.52061 16.4351 3.47147 16.4852 3.45181V3.43216H16.4551C16.395 3.45181 16.3148 3.45181 16.2546 3.44198C16.1945 3.44198 16.1744 3.40267 16.0842 3.38302V3.36336C16.1845 3.36336 16.2145 3.36336 16.2546 3.3437C16.2947 3.33388 16.3148 3.30439 16.3449 3.28474V3.26508H16.3148C16.2747 3.29456 16.2446 3.29457 16.1845 3.29457C16.1243 3.29457 16.0742 3.25525 16.0341 3.25525C15.994 3.25525 15.994 3.2356 15.9539 3.2356C15.8837 3.2356 15.8235 3.2356 15.7534 3.25525C15.6732 3.27491 15.6631 3.29456 15.6331 3.33388L15.623 3.32405Z" fill="#CC202B"/>
<path fill-rule="evenodd" clip-rule="evenodd" d="M16.2649 3.51061C16.2048 3.51061 16.1346 3.51061 16.0644 3.48112C16.0444 3.48112 16.0243 3.4713 15.9942 3.46147C15.9742 3.46147 15.9541 3.44181 15.9341 3.44181C15.8739 3.42216 15.8338 3.42216 15.8038 3.44181L15.6133 3.32388C15.6534 3.27474 15.6734 3.25508 15.7436 3.23542C15.8138 3.21577 15.884 3.20594 15.9441 3.21577C15.9642 3.21577 15.9742 3.21577 15.9842 3.2256C15.9842 3.2256 16.0043 3.2256 16.0243 3.2256C16.0444 3.2256 16.0644 3.2256 16.0945 3.24525C16.1145 3.24525 16.1446 3.26491 16.1747 3.26491C16.2348 3.26491 16.2649 3.26491 16.305 3.24525H16.3351V3.27474C16.3351 3.27474 16.285 3.30422 16.2549 3.31405C16.2248 3.3337 16.1947 3.3337 16.1446 3.3337C16.1446 3.3337 16.2148 3.31405 16.2449 3.30422C16.2749 3.30422 16.295 3.27474 16.315 3.26491L16.3351 3.24525C16.2549 3.26491 16.2348 3.27474 16.1747 3.26491C16.1446 3.26491 16.1145 3.25508 16.0845 3.24525C16.0644 3.24525 16.0444 3.2256 16.0243 3.2256C15.9942 3.2256 15.9842 3.2256 15.9742 3.21577C15.9742 3.21577 15.9541 3.21577 15.9341 3.21577C15.8739 3.21577 15.8038 3.21577 15.7336 3.23542C15.6734 3.25508 15.6534 3.27474 15.6233 3.29439L15.7837 3.41233C15.7837 3.41233 15.8439 3.39267 15.914 3.41233C15.9341 3.41233 15.9541 3.43199 15.9742 3.43199C15.9942 3.43199 16.0143 3.45164 16.0343 3.45164C16.1246 3.4713 16.2148 3.48112 16.2749 3.4713C16.3351 3.4713 16.3852 3.44181 16.4353 3.41233V3.39267C16.3551 3.42216 16.285 3.41233 16.2248 3.4025C16.1947 3.4025 16.1747 3.39267 16.1446 3.37302C16.1246 3.37302 16.0945 3.35336 16.0544 3.34353H16.0744C16.0744 3.34353 16.1346 3.36319 16.1546 3.37302C16.1847 3.37302 16.1947 3.39267 16.2348 3.39267C16.285 3.39267 16.3551 3.4025 16.4253 3.38285H16.4654L16.4454 3.42216C16.3952 3.44181 16.3451 3.4713 16.285 3.48112C16.2749 3.48112 16.2549 3.48112 16.2449 3.48112L16.2649 3.51061Z" fill="#BA2025"/>
<path fill-rule="evenodd" clip-rule="evenodd" d="M15.6633 3.29467C15.6633 3.29467 15.7033 3.29467 15.7133 3.31467C15.7233 3.31467 15.7233 3.31467 15.7333 3.33467C15.7333 3.31467 15.7333 3.32467 15.7233 3.31467C15.7233 3.30467 15.7033 3.29467 15.6833 3.28467L15.6533 3.30467L15.6633 3.29467Z" fill="#84373C"/>
<path fill-rule="evenodd" clip-rule="evenodd" d="M15.8137 3.42213C15.8137 3.42213 15.8137 3.39265 15.7937 3.38282C15.7937 3.37299 15.7937 3.36316 15.7737 3.34351C15.7837 3.34351 15.7937 3.34351 15.8037 3.36316C15.8137 3.37299 15.8137 3.39265 15.8137 3.4123V3.42213Z" fill="#84373C"/>
<path fill-rule="evenodd" clip-rule="evenodd" d="M15.844 3.2356C15.844 3.2356 15.854 3.25525 15.864 3.27491C15.864 3.29456 15.864 3.32405 15.864 3.32405C15.864 3.31422 15.864 3.29456 15.864 3.27491C15.864 3.25525 15.864 3.24542 15.854 3.2356H15.834H15.844Z" fill="#84373C"/>
<path fill-rule="evenodd" clip-rule="evenodd" d="M15.9941 3.24536V3.33381L16.0041 3.24536H15.9941Z" fill="#84373C"/>
<path fill-rule="evenodd" clip-rule="evenodd" d="M15.9541 3.41212C15.9541 3.41212 15.9541 3.38264 15.9541 3.37281C15.9541 3.36298 15.9541 3.35315 15.9441 3.3335C15.9641 3.34332 15.9641 3.35315 15.9741 3.37281C15.9741 3.39247 15.9741 3.40229 15.9541 3.41212Z" fill="#84373C"/>
<path fill-rule="evenodd" clip-rule="evenodd" d="M16.1045 3.38281C16.1045 3.38281 16.1045 3.4123 16.1045 3.43195C16.1045 3.45161 16.1045 3.45161 16.0845 3.46144C16.1045 3.45161 16.1145 3.44178 16.1245 3.43195C16.1245 3.4123 16.1245 3.38281 16.1245 3.38281H16.1045Z" fill="#84373C"/>
<path fill-rule="evenodd" clip-rule="evenodd" d="M16.1347 3.3534C16.1347 3.3534 16.1247 3.31409 16.1147 3.29443C16.1147 3.29443 16.1147 3.29443 16.1347 3.29443C16.1347 3.29443 16.1347 3.33374 16.1347 3.34357V3.3534Z" fill="#84373C"/>
<path fill-rule="evenodd" clip-rule="evenodd" d="M16.2349 3.33444V3.30444H16.2449V3.33444H16.2349Z" fill="#84373C"/>
<path fill-rule="evenodd" clip-rule="evenodd" d="M16.2248 3.43188C16.2248 3.43188 16.2448 3.45154 16.2448 3.4712C16.2448 3.48102 16.2448 3.49085 16.2348 3.51051H16.2548C16.2548 3.51051 16.2648 3.49085 16.2548 3.4712C16.2548 3.46137 16.2548 3.45154 16.2348 3.44171H16.2148L16.2248 3.43188Z" fill="#84373C"/>
<path fill-rule="evenodd" clip-rule="evenodd" d="M16.2549 3.51069H16.2349V3.47138L16.2249 3.44189C16.2249 3.44189 16.2249 3.44189 16.2349 3.44189L16.2649 3.47138C16.2649 3.47138 16.2649 3.49103 16.2649 3.50086C16.2649 3.49103 16.2649 3.48121 16.2649 3.47138V3.44189C16.2649 3.44189 16.2649 3.46155 16.2749 3.47138C16.2749 3.48121 16.2749 3.49103 16.2649 3.51069H16.2549Z" fill="#84363D"/>
<path fill-rule="evenodd" clip-rule="evenodd" d="M16.3452 3.44189L16.3552 3.49189L16.3652 3.48189V3.44189H16.3452Z" fill="#84373C"/>
<path fill-rule="evenodd" clip-rule="evenodd" d="M15.6131 3.33356C15.6131 3.33356 15.553 3.36304 15.5329 3.3827L15.4226 3.32373C15.4226 3.32373 15.4026 3.36304 15.4026 3.3827C15.4026 3.40236 15.4427 3.44167 15.4728 3.4515C15.4728 3.48098 15.4527 3.50064 15.4427 3.53012C15.4327 3.5596 15.4026 3.59892 15.4026 3.60874C15.4026 3.61857 15.4026 3.64805 15.4226 3.65788C15.4427 3.65788 15.5129 3.65788 15.5329 3.65788C15.5329 3.66771 15.5229 3.68737 15.5329 3.6972C15.5329 3.6972 15.5329 3.70702 15.563 3.70702C15.563 3.71685 15.5429 3.72668 15.553 3.73651C15.573 3.73651 15.583 3.73651 15.5931 3.73651C15.5931 3.73651 15.573 3.75616 15.563 3.76599C15.5429 3.78565 15.5129 3.81513 15.5028 3.82496C15.4828 3.85444 15.4828 3.8741 15.5229 3.8741C15.5028 3.89376 15.4928 3.90358 15.5028 3.91341C15.5028 3.93307 15.5028 3.93307 15.5329 3.93307C15.5229 3.96255 15.5329 4.00186 15.5329 4.03135C15.5229 4.06083 15.5329 4.08049 15.5229 4.10997C15.4928 4.12963 15.4928 4.13946 15.4728 4.17877C15.4527 4.20825 15.4327 4.21808 15.4126 4.28688L15.5129 4.31636C15.5129 4.31636 15.5329 4.2967 15.5329 4.27705C15.5329 4.26722 15.5329 4.24756 15.5329 4.22791C15.553 4.19842 15.5931 4.13946 15.6131 4.10997C15.6332 4.10014 15.6532 4.09032 15.6733 4.09032C15.6933 4.09032 15.7033 4.09032 15.7134 4.10997C15.7134 4.13946 15.6833 4.16894 15.6833 4.20825V4.31636C15.6833 4.31636 15.6532 4.34584 15.6332 4.42447L15.7234 4.44412C15.7234 4.44412 15.7635 4.41464 15.7735 4.40481V4.2967C15.7936 4.24756 15.8637 4.20825 15.8637 4.14929C15.8838 4.14929 15.9038 4.14929 15.9139 4.14929C15.9239 4.14929 15.9339 4.13946 15.9439 4.12963C15.9439 4.14928 15.964 4.14929 15.974 4.14929C15.984 4.14929 16.0041 4.12963 16.0141 4.12963C16.0141 4.12963 16.0241 4.14929 16.0342 4.14929C16.0442 4.14929 16.0843 4.14929 16.1043 4.14929L16.0241 4.27705C16.0241 4.27705 16.0241 4.29671 16.0241 4.30653C16.0241 4.31636 16.0041 4.32619 16.0041 4.33602L16.0943 4.35567V4.31636C16.0943 4.31636 16.1444 4.30653 16.1545 4.2967C16.1545 4.28688 16.1545 4.26722 16.1645 4.24756C16.1946 4.22791 16.2447 4.17877 16.2748 4.13946C16.2948 4.13946 16.3249 4.15911 16.3449 4.18859C16.3449 4.21808 16.3449 4.26722 16.3449 4.30653L16.2848 4.39499L16.375 4.43429L16.4352 4.39499V4.33602C16.4352 4.33602 16.5053 4.25739 16.5454 4.22791V4.15911C16.5454 4.15911 16.5254 4.15911 16.5254 4.13946C16.5254 4.12963 16.5254 4.09032 16.5254 4.07066C16.5254 4.07066 16.5454 4.06083 16.5454 4.051C16.5254 4.03135 16.5354 3.99203 16.5454 3.96255C16.5454 3.92324 16.5956 3.88393 16.6056 3.85444V3.81513V3.79548C16.6056 3.79548 16.6056 3.77582 16.6256 3.76599V3.74634V3.64805C16.6256 3.63823 16.6156 3.61857 16.6056 3.61857C16.6056 3.61857 16.5855 3.61857 16.5755 3.63823L16.5254 3.67754C16.5254 3.67754 16.4853 3.67754 16.4352 3.67754H16.365C16.365 3.67754 16.3149 3.68737 16.2848 3.67754H16.2447C16.2447 3.67754 16.2146 3.6972 16.2046 3.6972C16.1946 3.6972 16.1745 3.6972 16.1645 3.6972C16.0642 3.6972 16.0843 3.70702 16.0642 3.71685C16.0442 3.71685 16.0442 3.6972 15.964 3.6972H15.9239C15.9239 3.6972 15.8437 3.60874 15.8136 3.5596C15.9038 3.53012 15.9439 3.50064 15.974 3.44167H15.8437L15.6632 3.32373L15.6131 3.33356Z" fill="#F4EB38"/>
<path fill-rule="evenodd" clip-rule="evenodd" d="M15.5531 3.72674L15.523 3.70709C15.523 3.70709 15.523 3.68743 15.523 3.66777C15.523 3.66777 15.5029 3.66777 15.4929 3.66777C15.4728 3.66777 15.4528 3.66777 15.4428 3.66777C15.3926 3.65795 15.4027 3.61863 15.4027 3.60881C15.4027 3.60881 15.4027 3.58915 15.4227 3.56949C15.4227 3.55967 15.4428 3.54001 15.4428 3.53018C15.4528 3.5007 15.4628 3.48104 15.4728 3.45156C15.4528 3.44173 15.4127 3.40242 15.4027 3.38276C15.4027 3.36311 15.4027 3.33362 15.4227 3.31396L15.5029 3.35328L15.4327 3.32379C15.4327 3.32379 15.4127 3.35328 15.4327 3.37293C15.4327 3.39259 15.4728 3.4319 15.5029 3.44173C15.5029 3.48104 15.4929 3.5007 15.4829 3.53018C15.4829 3.54001 15.4628 3.55967 15.4628 3.56949C15.4628 3.57932 15.4428 3.59898 15.4428 3.60881C15.4428 3.62846 15.4428 3.64812 15.4528 3.65795C15.4829 3.65795 15.5029 3.65795 15.523 3.65795C15.543 3.65795 15.5531 3.65795 15.5631 3.65795L15.5831 3.72674H15.5531ZM15.4829 3.88399C15.4829 3.88399 15.4829 3.86433 15.4829 3.84468C15.4829 3.83485 15.5129 3.81519 15.523 3.79554L15.5731 3.7464C15.5731 3.7464 15.543 3.7464 15.533 3.7464V3.71691H15.5531L15.5831 3.73657L15.5631 3.77588C15.5631 3.77588 15.5029 3.83485 15.4929 3.84468C15.4929 3.85451 15.4829 3.86433 15.4829 3.87416V3.88399ZM15.5029 4.12969C15.5029 4.12969 15.5029 4.07072 15.5029 4.05107C15.5029 4.01175 15.4829 3.98227 15.5029 3.95279C15.4728 3.96261 15.4728 3.95279 15.4628 3.94296C15.4628 3.93313 15.4628 3.9233 15.4728 3.91347C15.4728 3.93313 15.4728 3.93313 15.4728 3.94296H15.4829L15.5029 3.96261C15.4929 3.9921 15.5029 4.01176 15.5029 4.04124C15.5029 4.08055 15.5029 4.10021 15.5029 4.11003C15.5029 4.11003 15.5029 4.11986 15.4929 4.12969H15.5029ZM16.0242 4.29677V4.25745L16.1044 4.12969C16.1044 4.12969 16.0744 4.14935 16.0543 4.14935L16.0142 4.12969C16.0142 4.12969 15.9541 4.169 15.934 4.12969H15.9641C15.9641 4.12969 15.9741 4.12969 16.0042 4.11986L16.0343 4.13952C16.0343 4.13952 16.0844 4.13952 16.1044 4.13952L16.0242 4.3066V4.29677ZM16.3551 4.44419L16.2648 4.4147L16.325 4.3066C16.325 4.3066 16.335 4.2378 16.325 4.18866C16.325 4.169 16.2849 4.14935 16.2648 4.14935C16.2448 4.17883 16.1947 4.22797 16.1646 4.25745V4.3066C16.1646 4.3066 16.1345 4.32625 16.1145 4.32625L16.0944 4.36556L16.0042 4.34591L16.0242 4.31642V4.33608L16.0944 4.35574V4.32625C16.0944 4.32625 16.1345 4.3066 16.1445 4.3066L16.1646 4.25745C16.1646 4.25745 16.2448 4.18866 16.2749 4.14935C16.3049 4.14935 16.335 4.169 16.3551 4.19849C16.3551 4.25746 16.3551 4.29677 16.3551 4.31642L16.2949 4.40487L16.3751 4.44419L16.4252 4.40487V4.34591C16.4252 4.34591 16.4854 4.27711 16.5155 4.24763C16.5355 4.18866 16.5355 4.17883 16.5355 4.17883C16.5155 4.14935 16.5155 4.11003 16.5155 4.1002C16.5155 4.07072 16.5155 4.02158 16.5255 3.98227C16.5255 3.95279 16.5455 3.93313 16.5656 3.90365C16.5656 3.89382 16.5856 3.88399 16.5856 3.87416V3.83485C16.5856 3.83485 16.5856 3.79554 16.5856 3.77588V3.65795H16.5556L16.5054 3.68743C16.4854 3.68743 16.4553 3.69726 16.4152 3.68743H16.3551C16.3551 3.68743 16.3049 3.69726 16.2648 3.68743H16.2247C16.2247 3.68743 16.1947 3.70709 16.1846 3.70709H16.1445C16.0744 3.70709 16.0643 3.70709 16.0643 3.71691H16.0242C16.0242 3.71691 15.9942 3.71691 15.934 3.71691H15.8939C15.8939 3.71691 15.8137 3.63829 15.7836 3.57932C15.8839 3.54984 15.914 3.52035 15.944 3.46139H15.8137L15.6232 3.35328C15.5932 3.35328 15.5831 3.37293 15.5631 3.39259C15.5631 3.39259 15.5932 3.35328 15.6333 3.34345L15.8237 3.46139H15.9541C15.924 3.53018 15.8939 3.54984 15.7937 3.57932C15.8338 3.62846 15.8638 3.66777 15.9039 3.69726H15.934C15.9942 3.69726 16.0142 3.71691 16.0242 3.71691C16.0543 3.71691 16.0643 3.70709 16.1445 3.69726H16.1846C16.1846 3.69726 16.2047 3.69726 16.2147 3.68743H16.2648C16.2648 3.68743 16.315 3.68743 16.345 3.68743H16.4152C16.4152 3.68743 16.4754 3.68743 16.5054 3.68743L16.5556 3.64812C16.5556 3.64812 16.5756 3.62846 16.5856 3.62846C16.6057 3.62846 16.6157 3.65795 16.6157 3.65795V3.75623L16.5856 3.80537V3.86433C16.5856 3.86433 16.5856 3.88399 16.5756 3.89382C16.5556 3.91347 16.5355 3.94296 16.5355 3.96261C16.5355 3.98227 16.5355 4.04124 16.5355 4.05107C16.5155 4.09038 16.5155 4.12969 16.5155 4.13952C16.5355 4.15917 16.5355 4.15918 16.5355 4.21814C16.4854 4.26728 16.4553 4.29677 16.4252 4.33608V4.39505L16.3651 4.44419H16.3551ZM15.7235 4.46384L15.6232 4.44419C15.6232 4.38522 15.6433 4.36556 15.6533 4.35574V4.22797C15.6533 4.22797 15.6734 4.17883 15.6834 4.15917L15.6533 4.11986C15.6533 4.11986 15.6232 4.11986 15.6032 4.13952C15.5932 4.169 15.553 4.22797 15.533 4.25745C15.533 4.25745 15.533 4.28694 15.533 4.3066L15.5029 4.34591L15.4027 4.32625C15.4027 4.26728 15.4227 4.24763 15.4428 4.2378L15.4728 4.18866C15.4728 4.18866 15.4929 4.15918 15.5029 4.14935C15.4929 4.169 15.4829 4.18866 15.4829 4.19849C15.4628 4.22797 15.4628 4.2378 15.4528 4.24763C15.4428 4.26728 15.4227 4.27711 15.4127 4.32625L15.513 4.34591V4.31642C15.513 4.31642 15.533 4.28694 15.533 4.26728C15.553 4.2378 15.5932 4.17883 15.6132 4.14935C15.6533 4.11986 15.6834 4.11986 15.7135 4.13952C15.7235 4.15917 15.7135 4.169 15.7135 4.18866C15.7135 4.20831 15.6934 4.22797 15.6934 4.24763V4.35574C15.6934 4.35574 15.6533 4.4147 15.6433 4.46384L15.7235 4.4835C15.7235 4.4835 15.7536 4.46384 15.7536 4.45401L15.7736 4.33608C15.7736 4.33608 15.7937 4.28694 15.8137 4.26728C15.8338 4.24763 15.8538 4.21814 15.8538 4.18866H15.8839H15.9039H15.8538C15.8538 4.18866 15.8338 4.24763 15.8137 4.27711C15.7937 4.29677 15.7836 4.31642 15.7736 4.34591V4.45401C15.7736 4.45401 15.7235 4.4835 15.7135 4.49333L15.7235 4.46384Z" fill="#E9D62A"/>
<path fill-rule="evenodd" clip-rule="evenodd" d="M15.573 3.4912L15.613 3.5112C15.613 3.5112 15.623 3.5212 15.633 3.5212C15.643 3.5212 15.633 3.5212 15.653 3.5212L15.683 3.5012C15.683 3.5012 15.653 3.4812 15.633 3.4812C15.613 3.4812 15.593 3.4912 15.573 3.5012V3.4912Z" fill="#624F1F"/>
<path fill-rule="evenodd" clip-rule="evenodd" d="M15.623 3.52144L15.563 3.49144C15.593 3.47144 15.603 3.47144 15.613 3.47144L15.643 3.49144H15.613H15.563L15.613 3.51144L15.643 3.48144L15.593 3.52144H15.623Z" fill="#624F1F"/>
<path fill-rule="evenodd" clip-rule="evenodd" d="M15.633 3.92329C15.633 3.88398 15.623 3.8545 15.603 3.81519C15.623 3.83484 15.633 3.88398 15.633 3.92329Z" fill="#C0A12E"/>
<path fill-rule="evenodd" clip-rule="evenodd" d="M15.8738 3.92341C15.8738 3.92341 15.8738 3.90376 15.8738 3.89393C15.8638 3.86444 15.8538 3.84479 15.8438 3.83496C15.8438 3.85462 15.8638 3.92341 15.8738 3.92341Z" fill="#C0A12E"/>
<path fill-rule="evenodd" clip-rule="evenodd" d="M15.9741 3.91347H15.9541C15.9541 3.90364 15.9341 3.81519 15.9341 3.81519C15.9341 3.81519 15.9541 3.84467 15.9541 3.8545C15.9541 3.8545 15.9641 3.89381 15.9741 3.92329V3.91347Z" fill="#C0A12E"/>
<path fill-rule="evenodd" clip-rule="evenodd" d="M15.9641 4.08071C15.9641 4.08071 15.9741 4.08071 15.9841 4.08071C16.0041 4.06105 16.0241 4.03157 16.0241 4.02174L16.0441 3.94312C16.0441 3.94312 16.0241 3.9726 16.0041 4.01191C15.9841 4.05122 15.9641 4.08071 15.9641 4.08071Z" fill="#C0A12E"/>
<path fill-rule="evenodd" clip-rule="evenodd" d="M15.9641 4.09053C15.9641 4.09053 15.9641 4.08071 16.0041 4.00208C15.9741 4.06105 15.9641 4.07088 15.9641 4.07088L16.0041 4.02174C16.0041 4.02174 16.0241 3.96277 16.0341 3.94312C16.0441 3.94312 16.0341 4.00208 16.0341 4.00208L15.9741 4.07088L15.9641 4.09053Z" fill="#C0A12E"/>
<path fill-rule="evenodd" clip-rule="evenodd" d="M16.0845 4.05105C16.0845 4.05105 16.0945 3.99208 16.0945 3.98225C16.0945 3.9626 16.0945 3.93311 16.1145 3.8938C16.1145 3.95277 16.1145 4.01173 16.0845 4.05105Z" fill="#C0A12E"/>
<path fill-rule="evenodd" clip-rule="evenodd" d="M16.0845 4.06088C16.0845 4.06088 16.0845 4.04122 16.0845 4.00191L16.1045 3.8938C16.1245 3.95277 16.1045 4.01173 16.0845 4.05105V4.06088Z" fill="#C0A12E"/>
<path fill-rule="evenodd" clip-rule="evenodd" d="M16.1546 3.86451C16.1546 3.86451 16.0946 3.78589 16.1046 3.78589C16.1046 3.78589 16.1446 3.83503 16.1546 3.84486C16.1546 3.84486 16.1546 3.85468 16.1546 3.86451Z" fill="#C0A12E"/>
<path fill-rule="evenodd" clip-rule="evenodd" d="M16.2749 3.92342C16.2749 3.92342 16.2749 3.89393 16.2749 3.86445C16.2749 3.83497 16.2549 3.80548 16.2549 3.79565C16.2549 3.79565 16.2649 3.79565 16.2749 3.79565C16.2749 3.81531 16.2849 3.87428 16.2949 3.91359L16.2749 3.92342Z" fill="#C0A12E"/>
<path fill-rule="evenodd" clip-rule="evenodd" d="M16.3555 3.84473C16.3555 3.84473 16.3655 3.87421 16.3755 3.91352C16.3855 3.95283 16.3955 4.02163 16.3955 4.02163C16.3955 4.02163 16.3955 4.0118 16.4155 4.0118C16.4255 4.0118 16.4755 4.0118 16.4655 4.0118C16.4355 3.99214 16.4155 3.96266 16.3955 3.94301C16.3755 3.91352 16.3655 3.88404 16.3555 3.85455V3.84473Z" fill="#C0A12E"/>
<path fill-rule="evenodd" clip-rule="evenodd" d="M16.4052 4.03151V4.00203C16.4052 4.00203 16.3952 3.95289 16.3852 3.93324C16.3852 3.91358 16.3752 3.89392 16.3652 3.88409C16.3652 3.88409 16.3652 3.8841 16.3652 3.87427C16.3652 3.87427 16.3852 3.89392 16.3852 3.90375C16.3952 3.91358 16.4052 3.93324 16.4152 3.95289C16.4352 3.97255 16.4452 3.9922 16.4752 4.01186L16.4152 4.05117L16.4052 4.03151Z" fill="#C0A12E"/>
<path fill-rule="evenodd" clip-rule="evenodd" d="M16.7865 3.72681C17.0471 3.77595 17.2777 3.84474 17.5183 3.91354C17.7589 3.99216 17.9795 4.08062 18.21 4.1789L17.8291 4.93565C17.6085 4.85703 17.398 4.78823 17.1875 4.71944C16.977 4.65064 16.7664 4.59167 16.5559 4.5327L16.7865 3.72681Z" fill="white"/>
<path fill-rule="evenodd" clip-rule="evenodd" d="M16.7865 3.72687L16.5659 4.53277L16.7564 4.58191C16.8967 4.62122 17.0471 4.67036 17.1875 4.70967L17.2777 4.73915C17.4581 4.79812 17.6386 4.85709 17.8191 4.91606L18.2 4.1593C18.0095 4.08068 17.7689 3.9824 17.5083 3.90377C17.2777 3.82515 17.0371 3.76618 16.7764 3.71704L16.7865 3.72687ZM17.8291 4.93572C17.6486 4.86692 17.4682 4.80795 17.2877 4.74898L17.1975 4.7195C17.0571 4.67036 16.9068 4.63105 16.7664 4.59173L16.5659 4.53277L16.7965 3.71704C17.0672 3.76618 17.2977 3.82515 17.5383 3.90377C17.799 3.9824 18.0296 4.08068 18.2301 4.16913L17.8491 4.94554L17.8291 4.93572Z" fill="white"/>
<path fill-rule="evenodd" clip-rule="evenodd" d="M16.7363 3.90363C16.7363 3.90363 17.0972 3.98225 17.4381 4.09036C17.7789 4.19847 18.1198 4.33606 18.1198 4.33606L17.8992 4.76849C17.6887 4.68987 17.4681 4.61124 17.2576 4.54245C17.037 4.47365 16.8265 4.40486 16.5959 4.35572L16.7263 3.8938L16.7363 3.90363Z" fill="#CC202B"/>
<path fill-rule="evenodd" clip-rule="evenodd" d="M17.9092 4.77832C17.7087 4.6997 17.4881 4.62107 17.2676 4.55228C17.0571 4.48348 16.8365 4.42451 16.616 4.36554L16.7463 3.8938C16.7463 3.8938 17.1172 3.97243 17.4581 4.08053C17.6886 4.14933 18.0796 4.29675 18.1398 4.33606C18.1097 4.33606 17.7889 4.19847 17.4581 4.10019C17.1172 3.99208 16.7563 3.91346 16.7563 3.91346L16.626 4.37537C16.8566 4.41468 17.0671 4.48348 17.2776 4.55228C17.5082 4.62107 17.7187 4.6997 17.9192 4.77832C18.1097 4.39503 18.1298 4.34589 18.1398 4.34589C18.1398 4.35571 17.9794 4.66039 17.9192 4.77832H17.9092Z" fill="#D3202B"/>
<path fill-rule="evenodd" clip-rule="evenodd" d="M16.7667 4.11976C16.7667 4.11976 16.8268 4.1001 16.8469 4.06079H16.9772V4.10993C16.9772 4.10993 17.0273 4.13941 17.0574 4.15907C17.0875 4.17873 17.1376 4.18855 17.1677 4.19838L17.4383 4.21804C17.4383 4.21804 17.5286 4.23769 17.5586 4.25735C17.5887 4.277 17.6088 4.29666 17.6288 4.32615C17.689 4.3458 17.7391 4.35563 17.7992 4.36546C17.8594 4.36546 17.9296 4.37529 17.9797 4.37529C18.0098 4.37529 18.0098 4.39494 17.9997 4.4146C17.9997 4.4146 17.9697 4.45391 17.8794 4.45391C17.7992 4.45391 17.699 4.40477 17.6589 4.4146C17.6589 4.43425 17.699 4.49322 17.7491 4.51288V4.63081L17.7291 4.65047L17.709 4.63081C17.709 4.63081 17.719 4.57185 17.709 4.54236C17.689 4.52271 17.689 4.50305 17.6489 4.50305C17.6088 4.50305 17.5787 4.48339 17.5286 4.44408H17.5085C17.5085 4.44408 17.4885 4.48339 17.4584 4.49322H17.4083L17.288 4.46374V4.44408C17.288 4.44408 17.3281 4.44408 17.3381 4.44408C17.3682 4.44408 17.4183 4.44408 17.4183 4.44408V4.39494H17.4985C17.4784 4.33598 17.4784 4.30649 17.3982 4.28683H17.1576V4.32615C17.0975 4.32615 16.9872 4.32615 16.9271 4.32615C16.897 4.32615 16.8469 4.3458 16.8268 4.3458H16.7967C16.7967 4.3458 16.7767 4.32615 16.7967 4.31632C16.897 4.31632 16.917 4.29666 16.9471 4.28683C16.9471 4.28683 16.9371 4.25735 16.9271 4.25735C16.8569 4.25735 16.8068 4.25735 16.7967 4.25735C16.7667 4.25735 16.7266 4.2377 16.7266 4.2377V4.21804L16.7667 4.22787C16.8068 4.22787 16.887 4.22787 16.907 4.22787V4.19838C16.907 4.19838 16.897 4.1689 16.887 4.1689C16.887 4.1689 16.8168 4.1689 16.7867 4.1689C16.7466 4.1689 16.7566 4.13941 16.7566 4.11976H16.7667Z" fill="#000101"/>
<path fill-rule="evenodd" clip-rule="evenodd" d="M16.8469 4.34586C16.907 4.32621 16.9271 4.32621 16.9471 4.30656L16.887 4.2869H16.7967C16.7967 4.2869 16.7266 4.26724 16.7266 4.25741H16.7366C16.7366 4.25741 16.7767 4.26724 16.7967 4.27707H16.8368H16.8769H16.9271C16.9271 4.27707 16.9471 4.30655 16.9471 4.31638C16.917 4.33604 16.907 4.33604 16.8368 4.34586H16.8469ZM17.4885 4.40483C17.4684 4.35569 17.4584 4.32621 17.3882 4.31638H17.1476V4.34586C17.1175 4.34586 17.0774 4.34586 17.0474 4.34586C16.9972 4.34586 16.9471 4.34587 16.917 4.36552C16.897 4.36552 16.887 4.36552 16.8669 4.36552C16.8469 4.36552 16.8268 4.36552 16.8168 4.36552L16.7767 4.34586C16.7767 4.34586 16.7867 4.34586 16.7967 4.34586L16.8268 4.36552C16.8268 4.36552 16.8569 4.36552 16.8769 4.3557C16.897 4.3557 16.917 4.35569 16.9271 4.34586C16.9672 4.33604 17.0273 4.33604 17.0574 4.33604C17.0975 4.33604 17.1276 4.33604 17.1576 4.33604V4.30656L17.3982 4.29673C17.4784 4.30655 17.4885 4.34587 17.4985 4.39501L17.4885 4.40483ZM17.4584 4.51294H17.3982C17.3114 4.49329 17.2679 4.48018 17.2679 4.47363C17.2679 4.47363 17.2679 4.44415 17.318 4.44415C17.3481 4.44415 17.3982 4.44415 17.3982 4.44415V4.40483V4.45397C17.3982 4.45397 17.3381 4.45397 17.308 4.45397C17.288 4.45397 17.2679 4.45397 17.2679 4.45397C17.2679 4.4638 17.3882 4.49329 17.3882 4.49329H17.4383C17.4383 4.49329 17.4684 4.47363 17.4784 4.45397C17.4784 4.45397 17.4885 4.45397 17.4985 4.45397C17.4784 4.47363 17.4684 4.48346 17.4383 4.50311L17.4584 4.51294ZM17.7291 4.66036L17.699 4.64071C17.699 4.64071 17.709 4.57191 17.699 4.55226C17.6789 4.52277 17.6789 4.52277 17.6489 4.52277C17.6088 4.52277 17.5787 4.50311 17.5386 4.47363C17.5987 4.49329 17.6188 4.50312 17.6589 4.51294C17.689 4.51294 17.699 4.52277 17.709 4.54243C17.7291 4.58174 17.7291 4.62105 17.709 4.65053H17.7291L17.7491 4.63088V4.51294C17.7491 4.51294 17.6589 4.44414 17.6589 4.41466C17.689 4.41466 17.719 4.41466 17.7491 4.41466C17.7892 4.42449 17.8393 4.43432 17.8794 4.43432C17.9596 4.43432 17.9897 4.39501 17.9897 4.39501C17.9195 4.36552 17.8494 4.36552 17.7892 4.3557C17.7291 4.3557 17.6789 4.33604 17.6188 4.31638C17.5987 4.2869 17.5787 4.25741 17.5486 4.24759C17.5185 4.22793 17.4684 4.2181 17.4283 4.20827L17.1576 4.18862C17.1576 4.18862 17.1175 4.16896 17.1075 4.16896C17.0875 4.16896 17.0674 4.15914 17.0574 4.14931C17.0373 4.14931 17.0273 4.12965 17.0173 4.12965C17.0073 4.12965 16.9972 4.11982 16.9772 4.10999V4.06086H16.8469C16.8469 4.08051 16.8168 4.09034 16.7967 4.10999C16.7767 4.13948 16.7767 4.14931 16.7967 4.15913C16.7967 4.15913 16.887 4.15913 16.897 4.15913C16.897 4.15913 16.917 4.17879 16.917 4.19845V4.22793C16.917 4.22793 16.8068 4.24759 16.7667 4.23776H16.7466V4.2181C16.8469 4.23776 16.887 4.2181 16.907 4.2181V4.18862C16.907 4.18862 16.8268 4.15913 16.7967 4.15913C16.7566 4.15913 16.7566 4.12965 16.7566 4.10999L16.7867 4.09034C16.8068 4.08051 16.8268 4.07068 16.8368 4.05103H16.9672V4.10016C16.9772 4.10016 16.9872 4.10017 17.0073 4.11982C17.0173 4.11982 17.0373 4.13948 17.0474 4.13948C17.0574 4.13948 17.0774 4.14931 17.0975 4.15913C17.1175 4.15913 17.1376 4.16896 17.1476 4.17879L17.4183 4.19845C17.4183 4.19845 17.5085 4.2181 17.5386 4.23776C17.5687 4.25742 17.5887 4.27707 17.6088 4.30656C17.6589 4.32621 17.719 4.33604 17.7692 4.34586C17.8293 4.34586 17.8995 4.3557 17.9496 4.3557L17.9697 4.37535C17.9697 4.37535 17.9296 4.44415 17.8393 4.44415C17.7892 4.44415 17.7491 4.43432 17.699 4.42449C17.6689 4.42449 17.6388 4.40483 17.6288 4.40483C17.6288 4.42449 17.6689 4.47363 17.719 4.49329V4.62105L17.699 4.65053L17.7291 4.66036Z" fill="#000101"/>
<path fill-rule="evenodd" clip-rule="evenodd" d="M17.2977 4.39509C17.2977 4.39509 17.3577 4.40492 17.4177 4.41475H17.4977C17.4777 4.35578 17.4777 4.31647 17.3977 4.30664H17.1577V4.34595C17.2277 4.37543 17.2677 4.38526 17.2877 4.39509H17.2977Z" fill="white"/>
<path fill-rule="evenodd" clip-rule="evenodd" d="M17.4077 4.41457C17.3577 4.41457 17.3277 4.41457 17.2877 4.39491C17.2477 4.37526 17.2077 4.36543 17.1577 4.34577V4.30646L17.3977 4.29663C17.4777 4.30646 17.4877 4.34577 17.4977 4.39491C17.4977 4.39491 17.4677 4.31629 17.3977 4.30646H17.1577V4.33594C17.2077 4.3556 17.2477 4.36543 17.2677 4.37526C17.3177 4.39491 17.3477 4.39491 17.3977 4.39491H17.4577L17.3977 4.40474L17.4077 4.41457Z" fill="#000101"/>
<path fill-rule="evenodd" clip-rule="evenodd" d="M12.5243 4.798L12.0933 3.21569L12.7549 2.42944L13.6872 2.95033L13.8476 4.63092C13.3765 4.6604 13.0657 4.70954 12.5344 4.798H12.5243Z" fill="#2C3382"/>
<path fill-rule="evenodd" clip-rule="evenodd" d="M12.7447 2.42951L12.093 3.21575L12.5241 4.78823C13.0454 4.69978 13.3562 4.65064 13.8374 4.61132L13.677 2.94056L12.7547 2.41968L12.7447 2.42951ZM12.5141 4.80788L12.083 3.21575L12.7447 2.41968L13.677 2.94056L13.8374 4.63098C13.3562 4.67029 13.0354 4.71943 12.5141 4.80788Z" fill="#2A2875"/>
<path fill-rule="evenodd" clip-rule="evenodd" d="M10.96 3.47135L11.1204 3.59911L11.0903 3.8055L11.3008 3.72688L11.4612 3.84481L11.4813 3.64825L11.6517 3.58928L11.5113 3.45169L11.5414 3.26496L11.3409 3.33376L11.1905 3.21582L11.1605 3.39272L10.96 3.47135Z" fill="#F4EB38"/>
<path fill-rule="evenodd" clip-rule="evenodd" d="M11.3008 3.71711L11.4612 3.83505L11.4813 3.65814L11.6517 3.58935L11.5113 3.47141L11.5414 3.27485C11.3509 3.35347 11.3509 3.35347 11.3509 3.35347C11.3509 3.35347 11.2106 3.23554 11.2006 3.23554L11.1805 3.41244L10.98 3.49107L11.1404 3.59917L11.1103 3.81539L11.3008 3.72694V3.71711ZM11.4712 3.8547L11.3008 3.72694L11.1003 3.81539L11.1204 3.59917L10.96 3.48124L11.1605 3.39279C11.1905 3.21588 11.1905 3.21588 11.1905 3.20605L11.3509 3.32399L11.5414 3.25519L11.5214 3.46158L11.6617 3.58935L11.4913 3.66797L11.4712 3.87436V3.8547Z" fill="#F3C527"/>
<path fill-rule="evenodd" clip-rule="evenodd" d="M10.97 3.4812L11.6517 3.58931L11.4812 3.65811L11.3208 3.54017C11.3208 3.54017 11.4712 3.84484 11.4612 3.84484C11.4612 3.84484 11.3108 3.73673 11.3008 3.7269V3.54017L11.1003 3.80553L11.1304 3.59914L10.97 3.4812Z" fill="#F3C327"/>
<path fill-rule="evenodd" clip-rule="evenodd" d="M11.1604 3.40255L11.3204 3.53032L11.1904 3.21582L11.1604 3.40255Z" fill="#F3C527"/>
<path fill-rule="evenodd" clip-rule="evenodd" d="M11.3408 3.33369L11.3208 3.53025C11.3408 3.51059 11.5508 3.26489 11.5508 3.26489L11.3508 3.33369H11.3408Z" fill="#F3C527"/>
<path fill-rule="evenodd" clip-rule="evenodd" d="M17.4584 3.20582L17.4986 3.39255L17.3281 3.53997L17.5387 3.60877L17.5788 3.80532L17.7291 3.66773L17.8996 3.7267L17.8795 3.53997L18.0299 3.4122L17.8294 3.34341L17.7993 3.1665L17.6489 3.28444L17.4484 3.22547L17.4584 3.20582Z" fill="#F4EB38"/>
<path fill-rule="evenodd" clip-rule="evenodd" d="M17.4582 3.21577L17.5083 3.4025L17.3379 3.54992L17.5484 3.60889L17.5885 3.79562L17.7289 3.66786L17.9093 3.717L17.8792 3.54009L18.0396 3.4025C17.906 3.36319 17.8391 3.34026 17.8391 3.33371C17.8391 3.33371 17.8091 3.16663 17.8091 3.14697L17.6687 3.26491L17.4582 3.20594V3.21577ZM17.5885 3.81528L17.5484 3.60889L17.3379 3.54992L17.4983 3.39267L17.4582 3.20594L17.6687 3.26491C17.8091 3.14697 17.8091 3.14697 17.8091 3.14697L17.8492 3.33371C17.8592 3.33371 18.0497 3.39267 18.0497 3.39267L17.8993 3.53027L17.9193 3.717L17.7389 3.66786L17.5885 3.80545V3.81528Z" fill="#F3C527"/>
<path fill-rule="evenodd" clip-rule="evenodd" d="M17.4582 3.20605L17.9093 3.70728L17.7289 3.65814L17.6787 3.47141L17.5885 3.79574L17.5484 3.609L17.6787 3.48124L17.3379 3.55004L17.5083 3.41244L17.4682 3.22571L17.4582 3.20605Z" fill="#F3C527"/>
<path fill-rule="evenodd" clip-rule="evenodd" d="M17.6589 3.26491L17.6889 3.4713L17.8089 3.14697L17.6589 3.26491Z" fill="#F3C527"/>
<path fill-rule="evenodd" clip-rule="evenodd" d="M17.839 3.3335C17.839 3.3335 17.689 3.46126 17.689 3.47109C17.719 3.47109 18.039 3.41212 18.039 3.41212L17.839 3.34332V3.3335Z" fill="#F3C527"/>
<path fill-rule="evenodd" clip-rule="evenodd" d="M12.0933 3.21586C12.3339 3.10775 12.5945 3.0193 12.8752 2.97998C13.1459 2.94067 13.4166 2.94067 13.6872 2.94067L13.7273 3.35345C13.5068 3.35345 13.3464 3.35345 12.9654 3.40259C12.5845 3.45173 12.4241 3.50087 12.1935 3.58932L12.0933 3.21586Z" fill="#CC202B"/>
<path fill-rule="evenodd" clip-rule="evenodd" d="M13.677 2.94049H13.6269C13.3462 2.94049 13.1056 2.95032 12.865 2.9798C12.6043 3.01912 12.3437 3.09774 12.083 3.21568L12.1833 3.56948C12.4138 3.49086 12.5642 3.44172 12.9452 3.39258C13.296 3.35327 13.4564 3.34344 13.6469 3.34344H13.7071L13.667 2.93066L13.677 2.94049ZM12.1833 3.58914L12.083 3.21568C12.3437 3.08791 12.6043 3.00929 12.865 2.96998C13.1056 2.94049 13.3462 2.93066 13.6269 2.93066H13.677L13.7171 3.35327H13.6469C13.4564 3.35327 13.296 3.35327 12.9452 3.40241C12.5642 3.45155 12.4038 3.50069 12.1833 3.58914Z" fill="#D3202B"/>
<path fill-rule="evenodd" clip-rule="evenodd" d="M12.2937 3.95286L12.414 4.3853C12.6446 4.32633 12.8752 4.28701 13.1057 4.25753C13.3363 4.22805 13.5869 4.20839 13.8075 4.18873L13.7674 3.76613C13.5368 3.7563 13.2661 3.7563 13.0155 3.78579C12.7749 3.81527 12.5343 3.87424 12.2937 3.95286Z" fill="#CC202B"/>
<path fill-rule="evenodd" clip-rule="evenodd" d="M13.4666 3.76619C13.3062 3.76619 13.1559 3.76619 13.0155 3.79568C12.7749 3.82516 12.5443 3.88413 12.2937 3.96275C12.2937 3.96275 12.3739 4.21828 12.414 4.38536C12.6346 4.32639 12.8551 4.28708 13.0957 4.25759C13.3263 4.22811 13.5769 4.20846 13.7975 4.19863L13.7473 3.77602C13.6571 3.77602 13.5569 3.77602 13.4566 3.77602L13.4666 3.76619ZM12.414 4.39519C12.2937 3.95293 12.2937 3.95293 12.2937 3.9431C12.5443 3.86447 12.7849 3.80551 13.0155 3.77602C13.2361 3.74654 13.5168 3.74654 13.7674 3.75637L13.8075 4.1888C13.5869 4.20845 13.3363 4.22811 13.1057 4.25759C12.8651 4.28708 12.6346 4.33622 12.414 4.38536V4.39519Z" fill="#D3202B"/>
<path fill-rule="evenodd" clip-rule="evenodd" d="M11.2107 5.29932H17.7995V9.43691C17.6291 11.0487 16.0546 12.2575 14.6104 12.2477C13.056 12.3165 11.3311 11.0684 11.2007 9.42708V5.29932H11.2107Z" fill="white"/>
<path fill-rule="evenodd" clip-rule="evenodd" d="M17.7693 5.2995L11.2005 5.31916V9.41744C11.3409 11.1079 13.116 12.2774 14.5902 12.2184C15.9641 12.2184 17.5887 11.0685 17.7592 9.42727V5.28968L17.7693 5.2995ZM14.4799 12.2676C13.0157 12.2676 11.3008 11.098 11.1704 9.41744V5.28968L17.7993 5.27002L17.8194 9.42727C17.6489 11.098 15.9942 12.2577 14.6203 12.2577C14.5601 12.2577 14.52 12.2577 14.4799 12.2577V12.2676Z" fill="#CC202B"/>
<path fill-rule="evenodd" clip-rule="evenodd" d="M11.3409 5.44678H17.6489V9.41729C17.4884 10.9603 15.9741 12.12 14.5901 12.1102C13.0959 12.1691 11.4411 10.9701 11.3208 9.40746V5.4566H11.3308L11.3409 5.44678Z" fill="#CC202B"/>
<path fill-rule="evenodd" clip-rule="evenodd" d="M17.6291 5.44666L11.3411 5.46631V9.39752C11.4715 11.0191 13.1864 12.1395 14.5904 12.0806C15.9042 12.0806 17.4686 10.9798 17.6291 9.40734V5.44666ZM14.4801 12.1297C13.0761 12.1297 11.4314 11.0093 11.311 9.39752V5.44666L17.6592 5.427L17.6792 9.41717C17.5087 11.0191 15.9342 12.1297 14.6105 12.1297C14.5603 12.1297 14.5202 12.1297 14.4801 12.1297Z" fill="#CC202B"/>
<path fill-rule="evenodd" clip-rule="evenodd" d="M12.6147 5.46655H13.8679V6.79333H12.6147V5.46655Z" fill="white"/>
<path fill-rule="evenodd" clip-rule="evenodd" d="M16.3853 9.43701V10.7441H17.097C17.4379 10.2429 17.5883 9.75151 17.6183 9.43701C17.6183 9.43701 16.3953 9.43701 16.3853 9.43701Z" fill="white"/>
<path fill-rule="evenodd" clip-rule="evenodd" d="M16.3853 9.44684V10.7441H17.087C17.5081 10.125 17.5883 9.58443 17.6083 9.43701H16.9667H16.3853V9.44684ZM17.097 10.754H16.3853V9.43701H16.9767H17.6284C17.6284 9.59426 17.5381 10.1348 17.1071 10.754H17.097Z" fill="white"/>
<path fill-rule="evenodd" clip-rule="evenodd" d="M15.1318 10.7637V12.0217C15.6732 11.9135 16.1243 11.6482 16.3749 11.4713V10.7735H15.1318V10.7637Z" fill="white"/>
<path fill-rule="evenodd" clip-rule="evenodd" d="M16.3649 10.7637H15.1319V12.0118C15.6532 11.9037 16.0943 11.658 16.3649 11.4615V10.7637ZM15.1218 12.0315V10.7637H16.3649V11.4615C16.0842 11.658 15.6431 11.9135 15.1218 12.0217V12.0315Z" fill="white"/>
<path fill-rule="evenodd" clip-rule="evenodd" d="M12.6248 10.7637V11.4615C13.0558 11.7563 13.5471 11.9332 13.8679 12.002V10.7637H12.6248Z" fill="white"/>
<path fill-rule="evenodd" clip-rule="evenodd" d="M13.8578 10.7637H12.6248V11.4615C13.0558 11.7564 13.537 11.9333 13.8578 11.9922V10.7539V10.7637ZM13.8779 12.0119C13.5671 11.9431 13.0759 11.7662 12.6348 11.4714V10.7637H13.8779V12.0217V12.0119Z" fill="white"/>
<path fill-rule="evenodd" clip-rule="evenodd" d="M11.3711 9.44678C11.4112 9.95783 11.6418 10.4197 11.8824 10.7342L12.6142 10.7539V9.44678H11.3711Z" fill="white"/>
<path fill-rule="evenodd" clip-rule="evenodd" d="M12.6042 9.43701H11.3711C11.4212 10.0169 11.7119 10.4886 11.8824 10.7245H12.6042V9.43701ZM12.6142 10.754L11.8824 10.7343C11.7019 10.4984 11.4112 10.0169 11.3711 9.43701H12.6142V10.7441V10.754Z" fill="white"/>
<path fill-rule="evenodd" clip-rule="evenodd" d="M11.3611 6.79321H12.6142V8.11017H11.3611V6.79321Z" fill="white"/>
<path fill-rule="evenodd" clip-rule="evenodd" d="M13.8682 6.79321H15.1213V8.11017H13.8682V6.79321Z" fill="white"/>
<path fill-rule="evenodd" clip-rule="evenodd" d="M15.1218 5.45654H16.375V6.78333H15.1218V5.45654Z" fill="white"/>
<path fill-rule="evenodd" clip-rule="evenodd" d="M16.3853 6.79321H17.6384V8.11017H16.3853V6.79321Z" fill="white"/>
<path fill-rule="evenodd" clip-rule="evenodd" d="M12.6147 8.11011H13.8679V9.43689H12.6147V8.11011Z" fill="white"/>
<path fill-rule="evenodd" clip-rule="evenodd" d="M15.1218 8.11011H16.375V9.43689H15.1218V8.11011Z" fill="white"/>
<path fill-rule="evenodd" clip-rule="evenodd" d="M13.8682 9.43701H15.1213V10.754H13.8682V9.43701Z" fill="white"/>
<path fill-rule="evenodd" clip-rule="evenodd" d="M15.7436 3.90383C15.7436 3.90383 15.7236 3.84486 15.7236 3.83503C15.7236 3.81538 15.7136 3.78589 15.7036 3.74658C15.7336 3.79572 15.7536 3.85469 15.7436 3.90383Z" fill="#C0A12E"/>
<path fill-rule="evenodd" clip-rule="evenodd" d="M15.7434 3.9136C15.7434 3.9136 15.7434 3.9136 15.7234 3.86446L15.6934 3.75635C15.6934 3.75635 15.7534 3.85463 15.7434 3.9136Z" fill="#C0A12E"/>
<path d="M40.9375 3.46094L42.332 6.29688L43.7266 3.46094H46.0703L43.6914 7.69141L46.1348 11.9922H43.7676L42.332 9.10352L40.8965 11.9922H38.5234L40.9727 7.69141L38.5879 3.46094H40.9375ZM53.8809 7.55664V7.90234C53.8809 8.55469 53.7891 9.14062 53.6055 9.66016C53.4258 10.1758 53.1699 10.6172 52.8379 10.9844C52.5059 11.3477 52.1133 11.627 51.6602 11.8223C51.207 12.0137 50.707 12.1094 50.1602 12.1094C49.6094 12.1094 49.1055 12.0137 48.6484 11.8223C48.1953 11.627 47.8008 11.3477 47.4648 10.9844C47.1328 10.6172 46.875 10.1758 46.6914 9.66016C46.5117 9.14062 46.4219 8.55469 46.4219 7.90234V7.55664C46.4219 6.9043 46.5117 6.31836 46.6914 5.79883C46.875 5.2793 47.1309 4.83789 47.459 4.47461C47.791 4.10742 48.1836 3.82812 48.6367 3.63672C49.0938 3.44141 49.5977 3.34375 50.1484 3.34375C50.6953 3.34375 51.1953 3.44141 51.6484 3.63672C52.1055 3.82812 52.5 4.10742 52.832 4.47461C53.1641 4.83789 53.4219 5.2793 53.6055 5.79883C53.7891 6.31836 53.8809 6.9043 53.8809 7.55664ZM51.7949 7.90234V7.54492C51.7949 7.12305 51.7578 6.75195 51.6836 6.43164C51.6133 6.10742 51.5078 5.83594 51.3672 5.61719C51.2266 5.39844 51.0527 5.23438 50.8457 5.125C50.6426 5.01172 50.4102 4.95508 50.1484 4.95508C49.875 4.95508 49.6367 5.01172 49.4336 5.125C49.2305 5.23438 49.0605 5.39844 48.9238 5.61719C48.7871 5.83594 48.6836 6.10742 48.6133 6.43164C48.5469 6.75195 48.5137 7.12305 48.5137 7.54492V7.90234C48.5137 8.32031 48.5469 8.69141 48.6133 9.01562C48.6836 9.33594 48.7871 9.60742 48.9238 9.83008C49.0645 10.0527 49.2363 10.2207 49.4395 10.334C49.6465 10.4473 49.8867 10.5039 50.1602 10.5039C50.4219 10.5039 50.6543 10.4473 50.8574 10.334C51.0605 10.2207 51.2305 10.0527 51.3672 9.83008C51.5078 9.60742 51.6133 9.33594 51.6836 9.01562C51.7578 8.69141 51.7949 8.32031 51.7949 7.90234ZM58.3516 9.09766H56.2305V7.50977H58.3516C58.6406 7.50977 58.875 7.46094 59.0547 7.36328C59.2344 7.26562 59.3652 7.13086 59.4473 6.95898C59.5332 6.7832 59.5762 6.58594 59.5762 6.36719C59.5762 6.13281 59.5332 5.91602 59.4473 5.7168C59.3652 5.51758 59.2344 5.35742 59.0547 5.23633C58.875 5.11133 58.6406 5.04883 58.3516 5.04883H57.0039V11.9922H54.9473V3.46094H58.3516C59.0352 3.46094 59.623 3.58594 60.1152 3.83594C60.6113 4.08594 60.9922 4.42969 61.2578 4.86719C61.5234 5.30078 61.6562 5.79688 61.6562 6.35547C61.6562 6.90625 61.5234 7.38672 61.2578 7.79688C60.9922 8.20703 60.6113 8.52734 60.1152 8.75781C59.623 8.98438 59.0352 9.09766 58.3516 9.09766ZM66.2441 8.36523H64.0469L64.0352 7.01758H65.8164C66.1367 7.01758 66.3926 6.98242 66.584 6.91211C66.7754 6.83789 66.9141 6.73047 67 6.58984C67.0898 6.44922 67.1348 6.27344 67.1348 6.0625C67.1348 5.82031 67.0898 5.625 67 5.47656C66.9102 5.32812 66.7676 5.2207 66.5723 5.1543C66.3809 5.08398 66.1328 5.04883 65.8281 5.04883H64.8203V11.9922H62.7637V3.46094H65.8281C66.3555 3.46094 66.8262 3.50977 67.2402 3.60742C67.6543 3.70117 68.0059 3.8457 68.2949 4.04102C68.5879 4.23633 68.8105 4.48242 68.9629 4.7793C69.1152 5.07227 69.1914 5.41797 69.1914 5.81641C69.1914 6.16406 69.1172 6.49023 68.9688 6.79492C68.8203 7.09961 68.5723 7.34766 68.2246 7.53906C67.8809 7.72656 67.4102 7.82422 66.8125 7.83203L66.2441 8.36523ZM66.1621 11.9922H63.5488L64.252 10.4102H66.1621C66.4434 10.4102 66.668 10.3672 66.8359 10.2812C67.0078 10.1914 67.1309 10.0742 67.2051 9.92969C67.2832 9.78125 67.3223 9.61719 67.3223 9.4375C67.3223 9.21875 67.2852 9.0293 67.2109 8.86914C67.1406 8.70898 67.0273 8.58594 66.8711 8.5C66.7148 8.41016 66.5059 8.36523 66.2441 8.36523H64.5156L64.5273 7.01758H66.5957L67.0762 7.55664C67.6465 7.5332 68.0977 7.61328 68.4297 7.79688C68.7656 7.98047 69.0059 8.22266 69.1504 8.52344C69.2949 8.82422 69.3672 9.13867 69.3672 9.4668C69.3672 10.0254 69.2461 10.4922 69.0039 10.8672C68.7656 11.2422 68.4082 11.5234 67.9316 11.7109C67.4551 11.8984 66.8652 11.9922 66.1621 11.9922ZM74.125 5.25391L72.0449 11.9922H69.8359L72.9707 3.46094H74.3711L74.125 5.25391ZM75.8477 11.9922L73.7617 5.25391L73.4922 3.46094H74.9102L78.0625 11.9922H75.8477ZM75.7656 8.81055V10.3984H71.3887V8.81055H75.7656ZM82.1172 3.46094V11.9922H80.0605V3.46094H82.1172ZM84.6836 3.46094V5.04883H77.5527V3.46094H84.6836ZM87.7422 3.46094V11.9922H85.6914V3.46094H87.7422ZM93.6309 8.99805H91.3516L90.7422 8.74609C90.0469 8.52734 89.5176 8.20312 89.1543 7.77344C88.791 7.33984 88.6094 6.78711 88.6094 6.11523C88.6094 5.5293 88.7402 5.04102 89.002 4.65039C89.2637 4.25586 89.6348 3.95898 90.1152 3.75977C90.5957 3.56055 91.166 3.46094 91.8262 3.46094H94.9199V11.9922H92.8574V5.04883H91.8262C91.416 5.04883 91.1191 5.15625 90.9355 5.37109C90.752 5.58203 90.6602 5.89062 90.6602 6.29688C90.6602 6.60938 90.7031 6.85547 90.7891 7.03516C90.8789 7.21484 91.0098 7.34375 91.1816 7.42188C91.3535 7.49609 91.5684 7.5332 91.8262 7.5332H93.6191L93.6309 8.99805ZM92.0488 8.23047L90.2383 11.9922H88L89.7871 8.23047H92.0488Z" fill="#4D4D4D"/>
</svg>
