<svg width="76" height="16" viewBox="0 0 76 16" fill="none" xmlns="http://www.w3.org/2000/svg">
<path d="M28.5 -0.0078125H0.5V15.9922H28.5V-0.0078125Z" fill="#C60C30"/>
<path d="M13.1662 6.86757H9.60602V6.40594V-0.0078125H7.31948V6.40594V6.86757H0.5V9.12663H7.31948V9.61772V15.9922H9.60602V9.61772V9.12663H13.1662H28.5V6.86757H13.1662Z" fill="white"/>
<path d="M45.9473 10.4102V11.9922H39.9531V10.4102H45.9473ZM40.6328 10.4102V14.084H38.7285L38.5879 10.4102H40.6328ZM47.3477 10.4102L47.1309 14.0898H45.2852V10.4102H47.3477ZM45.0508 3.46094V5.04883H40.7676V3.46094H45.0508ZM46.4336 3.46094V11.9922H44.3887V3.46094H46.4336ZM40.6328 3.46094H42.6836L42.4316 6.95898C42.3887 7.55664 42.3203 8.07617 42.2266 8.51758C42.1328 8.95898 42.0215 9.33984 41.8926 9.66016C41.7637 9.98047 41.623 10.2559 41.4707 10.4863C41.3184 10.7168 41.1582 10.918 40.9902 11.0898C40.8262 11.2617 40.6621 11.418 40.498 11.5586C40.334 11.6992 40.1758 11.8438 40.0234 11.9922H38.7754V10.4102H39.1855C39.3066 10.3242 39.4277 10.209 39.5488 10.0645C39.6738 9.91602 39.791 9.71484 39.9004 9.46094C40.0098 9.20703 40.1055 8.87695 40.1875 8.4707C40.2695 8.06445 40.332 7.56055 40.375 6.95898L40.6328 3.46094ZM51.7656 5.25391L49.6855 11.9922H47.4766L50.6113 3.46094H52.0117L51.7656 5.25391ZM53.4883 11.9922L51.4023 5.25391L51.1328 3.46094H52.5508L55.7031 11.9922H53.4883ZM53.4062 8.81055V10.3984H49.0293V8.81055H53.4062ZM62.0781 6.84766V8.42969H57.7012V6.84766H62.0781ZM58.3867 3.46094V11.9922H56.3301V3.46094H58.3867ZM63.4609 3.46094V11.9922H61.4102V3.46094H63.4609ZM66.9531 3.46094V11.9922H64.9023V3.46094H66.9531ZM72.8418 8.99805H70.5625L69.9531 8.74609C69.2578 8.52734 68.7285 8.20312 68.3652 7.77344C68.002 7.33984 67.8203 6.78711 67.8203 6.11523C67.8203 5.5293 67.9512 5.04102 68.2129 4.65039C68.4746 4.25586 68.8457 3.95898 69.3262 3.75977C69.8066 3.56055 70.377 3.46094 71.0371 3.46094H74.1309V11.9922H72.0684V5.04883H71.0371C70.627 5.04883 70.3301 5.15625 70.1465 5.37109C69.9629 5.58203 69.8711 5.89062 69.8711 6.29688C69.8711 6.60938 69.9141 6.85547 70 7.03516C70.0898 7.21484 70.2207 7.34375 70.3926 7.42188C70.5645 7.49609 70.7793 7.5332 71.0371 7.5332H72.8301L72.8418 8.99805ZM71.2598 8.23047L69.4492 11.9922H67.2109L68.998 8.23047H71.2598Z" fill="#4D4D4D"/>
</svg>
