<svg width="71" height="70" viewBox="0 0 71 70" fill="none" xmlns="http://www.w3.org/2000/svg">
<path d="M58.1297 0H12.8704C6.04536 0 0.500015 5.54531 0.500015 12.3703V57.6297C0.500015 64.4547 6.04536 70 12.8704 70H58.1297C64.9547 70 70.5 64.4547 70.5 57.6297V12.3703C70.5 5.54531 64.9547 0 58.1297 0ZM68.3016 57.6297C68.3016 63.2406 63.7406 67.8016 58.1297 67.8016H12.8704C7.25942 67.8016 2.69846 63.2406 2.69846 57.6297V12.3703C2.69846 6.75938 7.25942 2.19844 12.8704 2.19844H58.1297C63.7406 2.19844 68.3016 6.75938 68.3016 12.3703V57.6297Z" fill="#B3B3B3"/>
<path d="M46.2625 25.6812C47.2469 25.6812 47.5969 25.3422 47.5969 24.3688C47.5969 22.5422 47.5969 20.7156 47.5969 18.8891C47.5969 17.9375 47.2578 17.5984 46.3062 17.5984C44.2609 17.5984 42.2156 17.5984 40.1593 17.5984H39.5359V16.9312C39.5359 14.8969 39.5359 12.8734 39.5359 10.8391C39.5359 9.86563 39.1859 9.51562 38.2125 9.51562C36.4078 9.51562 34.5922 9.51562 32.7875 9.51562C31.814 9.51562 31.4641 9.86563 31.4641 10.8391C31.4641 12.8844 31.4641 14.9297 31.4641 16.9859V17.5984H30.7859C28.7406 17.5984 26.6953 17.5984 24.639 17.5984C23.764 17.5984 23.414 17.9484 23.4031 18.8344C23.4031 20.6937 23.4031 22.5641 23.4031 24.4234C23.4031 25.3203 23.7641 25.6703 24.6719 25.6812C26.7062 25.6812 28.7297 25.6812 30.7641 25.6812H31.4531V26.3922C31.4531 32.1125 31.4531 36.5094 31.4531 42.2406C31.4531 43.1812 31.8141 43.5312 32.7437 43.5312C34.5375 43.5312 36.3312 43.5312 38.114 43.5312C39.1968 43.5312 39.525 43.2141 39.525 42.1312C39.525 36.4438 39.525 32.0797 39.525 26.3922V25.6703C41.8219 25.6703 44.0312 25.6703 46.2406 25.6703L46.2625 25.6812Z" fill="#368DDF"/>
<path d="M30.064 46.211C28.4234 44.4938 26.7281 42.8313 25.0328 41.1688C24.3547 40.5126 23.239 40.7204 22.7687 41.5298C22.4187 42.1313 22.5172 42.8532 23.0531 43.4001C24.0156 44.3845 25.0328 45.3251 25.9515 46.3532C26.914 47.4142 26.7937 48.9782 25.7656 49.9188C24.7484 50.8485 23.2281 50.8157 22.2218 49.8204C19.9578 47.5673 17.7156 45.3032 15.4515 43.0501C15.1453 42.7438 15.025 42.4048 15.025 41.9782C15.0468 40.3485 15.025 38.7079 15.025 37.0782C15.025 35.2517 15.0359 33.4251 15.025 31.5985C15.014 30.2313 13.8984 29.1267 12.6077 29.2032C12.6077 29.3454 12.5859 29.4876 12.5859 29.6298C12.5859 34.7485 12.5859 39.8673 12.5859 44.997C12.5859 45.7298 12.8046 46.3532 13.2859 46.911C15.714 49.7767 18.1312 52.6532 20.5593 55.5188C21.2593 56.3501 21.6093 57.3017 21.5984 58.3845C21.5984 58.4282 21.5984 58.461 21.5984 58.4938C21.5984 58.5376 21.5984 58.6032 21.5984 58.7235C21.5984 58.8548 21.6202 58.9751 21.6312 59.0954H31.4093C31.4093 55.1688 31.4312 53.3204 31.3984 49.4485C31.3874 48.2345 30.9281 47.097 30.075 46.211H30.064Z" fill="#368DDF"/>
<path d="M16.8187 42.0765C16.8187 42.0765 16.9172 42.1749 16.9609 42.2296L17.0703 42.3499C17.4422 42.7437 17.8359 43.1265 18.2406 43.5421L20.3406 45.6421C20.7234 46.0249 21.1172 46.4187 21.5765 46.8671L23.3156 48.6171C23.3156 48.6171 23.3265 48.6171 23.3375 48.639L23.4687 48.7702V48.7483C23.7749 48.989 24.2234 49.0218 24.5624 48.7812C24.9562 48.4968 25.1203 47.928 24.8031 47.5671C24.4969 47.228 24.1578 46.9218 23.8078 46.6155L21.4343 44.0233C20.7343 42.8749 20.7343 41.7265 21.4343 40.578C21.5109 40.4577 21.5765 40.3155 21.5875 40.1733C21.5875 38.6421 21.6094 37.1218 21.5875 35.5905C21.5765 34.9343 21.2484 34.3218 20.7781 33.9171L20.7015 33.8515C20.6469 33.8077 20.6031 33.7749 20.5484 33.7421L20.45 33.6655L17.4203 31.3796C17.114 31.1499 16.6875 31.3687 16.6875 31.7405C16.6875 33.8515 16.6875 39.0577 16.6875 41.7155C16.6875 41.8358 16.7312 41.989 16.8187 42.0765Z" fill="#368DDF"/>
<path d="M58.3814 29.214C57.0908 29.1483 55.9751 30.253 55.9642 31.6093C55.9423 33.4358 55.9642 35.2624 55.9642 37.089C55.9642 38.7186 55.9642 40.3593 55.9642 41.989C55.9642 42.4155 55.8439 42.7546 55.5376 43.0608C53.2736 45.314 51.0314 47.578 48.7673 49.8312C47.7611 50.8265 46.2408 50.8593 45.2236 49.9296C44.1954 48.989 44.0752 47.4249 45.0377 46.364C45.9673 45.3468 46.9736 44.3952 47.9361 43.4108C48.4721 42.864 48.5814 42.1421 48.2204 41.5405C47.7501 40.7312 46.6346 40.5124 45.9564 41.1796C44.2502 42.8312 42.5658 44.5046 40.9251 46.2218C40.083 47.1077 39.6236 48.2452 39.6017 49.4593C39.5579 53.3312 39.5908 55.1796 39.5908 59.1062H49.3689C49.3689 58.9858 49.3908 58.8546 49.4017 58.7343C49.4017 58.614 49.4017 58.5483 49.4017 58.5046C49.4017 58.4718 49.4017 58.439 49.4017 58.3952C49.4017 57.3124 49.7408 56.3608 50.4408 55.5296C52.8689 52.664 55.2861 49.7874 57.7142 46.9218C58.1846 46.364 58.4142 45.7405 58.4142 45.0077C58.4142 39.889 58.4142 34.7702 58.4142 29.6405C58.4142 29.4983 58.4033 29.3561 58.3924 29.214H58.3814Z" fill="#368DDF"/>
<path d="M49.5547 40.5782C50.2438 41.7266 50.2438 42.8751 49.5547 44.0235L47.1813 46.6157C46.8313 46.922 46.4922 47.2282 46.1859 47.5673C45.8688 47.9173 46.0329 48.497 46.4266 48.7813C46.7657 49.022 47.2032 48.9891 47.5094 48.7485V48.7704L47.6407 48.6391C47.6407 48.6391 47.6516 48.6391 47.6626 48.6173L49.4016 46.8673C49.861 46.4188 50.2547 46.0251 50.6375 45.6423L52.7375 43.5423C53.1531 43.1266 53.5359 42.7438 53.9078 42.3501L54.0172 42.2407C54.0172 42.2407 54.1157 42.1423 54.1594 42.0876C54.236 42.0001 54.2907 41.847 54.2907 41.7266C54.2907 39.0688 54.2907 33.8626 54.2907 31.7516C54.2907 31.3798 53.8641 31.161 53.5578 31.3907L50.5282 33.6766L50.4297 33.7532C50.4297 33.7532 50.3313 33.8298 50.2766 33.8626L50.2 33.9173C49.7297 34.3329 49.4016 34.9454 49.3906 35.6016C49.3578 37.1329 49.3797 38.6532 49.3906 40.1845C49.3906 40.3157 49.4672 40.4688 49.5328 40.5891L49.5547 40.5782Z" fill="#368DDF"/>
</svg>
