<svg width="89" height="16" viewBox="0 0 89 16" fill="none" xmlns="http://www.w3.org/2000/svg">
<path d="M28.5 -0.0078125H0.5V15.9922H28.5V-0.0078125Z" fill="#242424"/>
<path d="M28.5 -0.0078125H0.5V5.32552H28.5V-0.0078125Z" fill="#2B83DB"/>
<path d="M28.5 10.6587H0.5V15.992H28.5V10.6587Z" fill="white"/>
<path d="M45.0215 10.4102V11.9922H40.4746V10.4102H45.0215ZM41.207 3.46094V11.9922H39.1504V3.46094H41.207ZM44.4355 6.84766V8.37695H40.4746V6.84766H44.4355ZM45.0391 3.46094V5.04883H40.4746V3.46094H45.0391ZM50.7168 9.10352H52.7676C52.7402 9.69727 52.5801 10.2207 52.2871 10.6738C51.9941 11.127 51.5879 11.4805 51.0684 11.7344C50.5527 11.9844 49.9434 12.1094 49.2402 12.1094C48.6699 12.1094 48.1602 12.0137 47.7109 11.8223C47.2656 11.6309 46.8867 11.3555 46.5742 10.9961C46.2656 10.6367 46.0293 10.2012 45.8652 9.68945C45.7051 9.17773 45.625 8.60156 45.625 7.96094V7.49805C45.625 6.85742 45.709 6.28125 45.877 5.76953C46.0488 5.25391 46.291 4.81641 46.6035 4.45703C46.9199 4.09375 47.2988 3.81641 47.7402 3.625C48.1816 3.43359 48.6719 3.33789 49.2109 3.33789C49.9531 3.33789 50.5801 3.4707 51.0918 3.73633C51.6035 4.00195 52 4.36719 52.2812 4.83203C52.5625 5.29297 52.7285 5.81836 52.7793 6.4082H50.7285C50.7207 6.08789 50.666 5.82031 50.5645 5.60547C50.4629 5.38672 50.3027 5.22266 50.084 5.11328C49.8652 5.00391 49.5742 4.94922 49.2109 4.94922C48.957 4.94922 48.7363 4.99609 48.5488 5.08984C48.3613 5.18359 48.2051 5.33203 48.0801 5.53516C47.9551 5.73828 47.8613 6.00195 47.7988 6.32617C47.7402 6.64648 47.7109 7.0332 47.7109 7.48633V7.96094C47.7109 8.41406 47.7383 8.80078 47.793 9.12109C47.8477 9.44141 47.9355 9.70312 48.0566 9.90625C48.1777 10.1094 48.334 10.2598 48.5254 10.3574C48.7207 10.4512 48.959 10.498 49.2402 10.498C49.5527 10.498 49.8164 10.4492 50.0312 10.3516C50.2461 10.25 50.4121 10.0977 50.5293 9.89453C50.6465 9.6875 50.709 9.42383 50.7168 9.10352ZM57.6953 3.46094V11.9922H55.6387V3.46094H57.6953ZM60.2617 3.46094V5.04883H53.1309V3.46094H60.2617ZM68.1895 7.55664V7.90234C68.1895 8.55469 68.0977 9.14062 67.9141 9.66016C67.7344 10.1758 67.4785 10.6172 67.1465 10.9844C66.8145 11.3477 66.4219 11.627 65.9688 11.8223C65.5156 12.0137 65.0156 12.1094 64.4688 12.1094C63.918 12.1094 63.4141 12.0137 62.957 11.8223C62.5039 11.627 62.1094 11.3477 61.7734 10.9844C61.4414 10.6172 61.1836 10.1758 61 9.66016C60.8203 9.14062 60.7305 8.55469 60.7305 7.90234V7.55664C60.7305 6.9043 60.8203 6.31836 61 5.79883C61.1836 5.2793 61.4395 4.83789 61.7676 4.47461C62.0996 4.10742 62.4922 3.82812 62.9453 3.63672C63.4023 3.44141 63.9062 3.34375 64.457 3.34375C65.0039 3.34375 65.5039 3.44141 65.957 3.63672C66.4141 3.82812 66.8086 4.10742 67.1406 4.47461C67.4727 4.83789 67.7305 5.2793 67.9141 5.79883C68.0977 6.31836 68.1895 6.9043 68.1895 7.55664ZM66.1035 7.90234V7.54492C66.1035 7.12305 66.0664 6.75195 65.9922 6.43164C65.9219 6.10742 65.8164 5.83594 65.6758 5.61719C65.5352 5.39844 65.3613 5.23438 65.1543 5.125C64.9512 5.01172 64.7188 4.95508 64.457 4.95508C64.1836 4.95508 63.9453 5.01172 63.7422 5.125C63.5391 5.23438 63.3691 5.39844 63.2324 5.61719C63.0957 5.83594 62.9922 6.10742 62.9219 6.43164C62.8555 6.75195 62.8223 7.12305 62.8223 7.54492V7.90234C62.8223 8.32031 62.8555 8.69141 62.9219 9.01562C62.9922 9.33594 63.0957 9.60742 63.2324 9.83008C63.373 10.0527 63.5449 10.2207 63.748 10.334C63.9551 10.4473 64.1953 10.5039 64.4688 10.5039C64.7305 10.5039 64.9629 10.4473 65.166 10.334C65.3691 10.2207 65.5391 10.0527 65.6758 9.83008C65.8164 9.60742 65.9219 9.33594 65.9922 9.01562C66.0664 8.69141 66.1035 8.32031 66.1035 7.90234ZM75.0039 6.84766V8.42969H70.627V6.84766H75.0039ZM71.3125 3.46094V11.9922H69.2559V3.46094H71.3125ZM76.3867 3.46094V11.9922H74.3359V3.46094H76.3867ZM79.8789 3.46094V11.9922H77.8281V3.46094H79.8789ZM85.7676 8.99805H83.4883L82.8789 8.74609C82.1836 8.52734 81.6543 8.20312 81.291 7.77344C80.9277 7.33984 80.7461 6.78711 80.7461 6.11523C80.7461 5.5293 80.877 5.04102 81.1387 4.65039C81.4004 4.25586 81.7715 3.95898 82.252 3.75977C82.7324 3.56055 83.3027 3.46094 83.9629 3.46094H87.0566V11.9922H84.9941V5.04883H83.9629C83.5527 5.04883 83.2559 5.15625 83.0723 5.37109C82.8887 5.58203 82.7969 5.89062 82.7969 6.29688C82.7969 6.60938 82.8398 6.85547 82.9258 7.03516C83.0156 7.21484 83.1465 7.34375 83.3184 7.42188C83.4902 7.49609 83.7051 7.5332 83.9629 7.5332H85.7559L85.7676 8.99805ZM84.1855 8.23047L82.375 11.9922H80.1367L81.9238 8.23047H84.1855Z" fill="#4D4D4D"/>
</svg>
