<svg width="18" height="19" viewBox="0 0 18 19" fill="none" xmlns="http://www.w3.org/2000/svg">
<g clip-path="url(#clip0_10102_1165)">
<path d="M18 9.75C18 4.77947 13.9705 0.75 9 0.75C4.02947 0.75 0 4.77947 0 9.75C0 14.2421 3.29119 17.9655 7.59375 18.6407V12.3516H5.30859V9.75H7.59375V7.76719C7.59375 5.51156 8.93742 4.26562 10.9932 4.26562C11.9779 4.26562 13.0078 4.44141 13.0078 4.44141V6.65625H11.873C10.7549 6.65625 10.4062 7.35002 10.4062 8.0618V9.75H12.9023L12.5033 12.3516H10.4062V18.6407C14.7088 17.9655 18 14.2422 18 9.75Z" fill="#1877F2"/>
<path d="M12.5033 12.3516L12.9023 9.75H10.4062V8.0618C10.4062 7.34995 10.7549 6.65625 11.873 6.65625H13.0078V4.44141C13.0078 4.44141 11.9779 4.26562 10.9931 4.26562C8.93742 4.26562 7.59375 5.51156 7.59375 7.76719V9.75H5.30859V12.3516H7.59375V18.6407C8.05895 18.7136 8.52912 18.7501 9 18.75C9.47088 18.7501 9.94105 18.7136 10.4062 18.6407V12.3516H12.5033Z" fill="white"/>
</g>
<defs>
<clipPath id="clip0_10102_1165">
<rect width="18" height="18" fill="white" transform="translate(0 0.75)"/>
</clipPath>
</defs>
</svg>
