<svg width="105" height="16" viewBox="0 0 105 16" fill="none" xmlns="http://www.w3.org/2000/svg">
<path d="M28.5 -0.0078125H0.5V15.9922H28.5V-0.0078125Z" fill="white"/>
<path d="M28.4699 5.81661H12.1892V0.00200409L7.82832 -0.0078125V5.81661H0.5V10.1678H7.82832V15.9922H12.1892V10.1678H28.4699V5.81661Z" fill="#003580"/>
<path d="M42.4844 4.1875H44.6172C45.1328 4.1875 45.6074 4.27148 46.041 4.43945C46.4746 4.60742 46.8516 4.84766 47.1719 5.16016C47.4922 5.47266 47.7402 5.84961 47.916 6.29102C48.0918 6.73242 48.1797 7.22852 48.1797 7.7793C48.1797 8.31055 48.0918 8.79102 47.916 9.2207C47.7402 9.65039 47.4922 10.0176 47.1719 10.3223C46.8516 10.627 46.4746 10.8613 46.041 11.0254C45.6074 11.1855 45.1328 11.2656 44.6172 11.2656H42.4844C41.9648 11.2656 41.4863 11.1855 41.0488 11.0254C40.6113 10.8613 40.2305 10.6289 39.9062 10.3281C39.5859 10.0234 39.3359 9.6582 39.1562 9.23242C38.9805 8.80273 38.8926 8.32227 38.8926 7.79102C38.8926 7.24023 38.9805 6.74414 39.1562 6.30273C39.3359 5.86133 39.5859 5.48242 39.9062 5.16602C40.2305 4.84961 40.6113 4.60742 41.0488 4.43945C41.4863 4.27148 41.9648 4.1875 42.4844 4.1875ZM42.4844 5.83984C42.1719 5.83984 41.8906 5.91016 41.6406 6.05078C41.3906 6.19141 41.1934 6.40625 41.0488 6.69531C40.9043 6.98047 40.832 7.3457 40.832 7.79102C40.832 8.09961 40.875 8.36914 40.9609 8.59961C41.0469 8.83008 41.166 9.01953 41.3184 9.16797C41.4707 9.31641 41.6465 9.42773 41.8457 9.50195C42.0449 9.57617 42.2578 9.61328 42.4844 9.61328H44.6289C44.9336 9.61328 45.207 9.54688 45.4492 9.41406C45.6914 9.27734 45.8828 9.07227 46.0234 8.79883C46.168 8.52539 46.2402 8.18555 46.2402 7.7793C46.2402 7.44727 46.1992 7.16016 46.1172 6.91797C46.0352 6.67578 45.9199 6.47461 45.7715 6.31445C45.627 6.1543 45.457 6.03516 45.2617 5.95703C45.0664 5.87891 44.8555 5.83984 44.6289 5.83984H42.4844ZM44.5352 3.10938V12.3438H42.5605V3.10938H44.5352ZM51.3906 3.46094V11.9922H49.3398V3.46094H51.3906ZM58.5859 6.84766V8.42969H54.209V6.84766H58.5859ZM54.8945 3.46094V11.9922H52.8379V3.46094H54.8945ZM59.9688 3.46094V11.9922H57.918V3.46094H59.9688ZM67.1699 3.46094V5.04883H62.7637V3.46094H67.1699ZM68.5586 3.46094V11.9922H66.502V3.46094H68.5586ZM62.623 3.46094H64.668L64.4453 7.79688C64.4102 8.45312 64.3438 9.01953 64.2461 9.49609C64.1484 9.96875 64.0176 10.3672 63.8535 10.6914C63.6895 11.0117 63.4922 11.2676 63.2617 11.459C63.0312 11.6504 62.7637 11.7871 62.459 11.8691C62.1582 11.9512 61.8203 11.9922 61.4453 11.9922H60.9473V10.4102L61.1699 10.3867C61.3496 10.3672 61.5078 10.3184 61.6445 10.2402C61.7812 10.1582 61.8984 10.0371 61.9961 9.87695C62.0977 9.7168 62.1816 9.51172 62.248 9.26172C62.3145 9.01172 62.3672 8.70898 62.4062 8.35352C62.4492 7.99414 62.4785 7.57422 62.4941 7.09375L62.623 3.46094ZM74.2832 8.99805H72.0039L71.3945 8.74609C70.6992 8.52734 70.1699 8.20312 69.8066 7.77344C69.4434 7.33984 69.2617 6.78711 69.2617 6.11523C69.2617 5.5293 69.3926 5.04102 69.6543 4.65039C69.916 4.25586 70.2871 3.95898 70.7676 3.75977C71.248 3.56055 71.8184 3.46094 72.4785 3.46094H75.5723V11.9922H73.5098V5.04883H72.4785C72.0684 5.04883 71.7715 5.15625 71.5879 5.37109C71.4043 5.58203 71.3125 5.89062 71.3125 6.29688C71.3125 6.60938 71.3555 6.85547 71.4414 7.03516C71.5312 7.21484 71.6621 7.34375 71.834 7.42188C72.0059 7.49609 72.2207 7.5332 72.4785 7.5332H74.2715L74.2832 8.99805ZM72.7012 8.23047L70.8906 11.9922H68.6523L70.4395 8.23047H72.7012ZM82.457 6.84766V8.42969H78.0801V6.84766H82.457ZM78.7656 3.46094V11.9922H76.709V3.46094H78.7656ZM83.8398 3.46094V11.9922H81.7891V3.46094H83.8398ZM92.0723 10.4102V11.9922H86.0781V10.4102H92.0723ZM86.7578 10.4102V14.084H84.8535L84.7129 10.4102H86.7578ZM93.4727 10.4102L93.2559 14.0898H91.4102V10.4102H93.4727ZM91.1758 3.46094V5.04883H86.8926V3.46094H91.1758ZM92.5586 3.46094V11.9922H90.5137V3.46094H92.5586ZM86.7578 3.46094H88.8086L88.5566 6.95898C88.5137 7.55664 88.4453 8.07617 88.3516 8.51758C88.2578 8.95898 88.1465 9.33984 88.0176 9.66016C87.8887 9.98047 87.748 10.2559 87.5957 10.4863C87.4434 10.7168 87.2832 10.918 87.1152 11.0898C86.9512 11.2617 86.7871 11.418 86.623 11.5586C86.459 11.6992 86.3008 11.8438 86.1484 11.9922H84.9004V10.4102H85.3105C85.4316 10.3242 85.5527 10.209 85.6738 10.0645C85.7988 9.91602 85.916 9.71484 86.0254 9.46094C86.1348 9.20703 86.2305 8.87695 86.3125 8.4707C86.3945 8.06445 86.457 7.56055 86.5 6.95898L86.7578 3.46094ZM96.3672 3.46094V11.9922H94.3164V3.46094H96.3672ZM102.256 8.99805H99.9766L99.3672 8.74609C98.6719 8.52734 98.1426 8.20312 97.7793 7.77344C97.416 7.33984 97.2344 6.78711 97.2344 6.11523C97.2344 5.5293 97.3652 5.04102 97.627 4.65039C97.8887 4.25586 98.2598 3.95898 98.7402 3.75977C99.2207 3.56055 99.791 3.46094 100.451 3.46094H103.545V11.9922H101.482V5.04883H100.451C100.041 5.04883 99.7441 5.15625 99.5605 5.37109C99.377 5.58203 99.2852 5.89062 99.2852 6.29688C99.2852 6.60938 99.3281 6.85547 99.4141 7.03516C99.5039 7.21484 99.6348 7.34375 99.8066 7.42188C99.9785 7.49609 100.193 7.5332 100.451 7.5332H102.244L102.256 8.99805ZM100.674 8.23047L98.8633 11.9922H96.625L98.4121 8.23047H100.674Z" fill="#4D4D4D"/>
</svg>
