<svg width="93" height="16" viewBox="0 0 93 16" fill="none" xmlns="http://www.w3.org/2000/svg">
<path fill-rule="evenodd" clip-rule="evenodd" d="M0.5 15.9922H9.83668V-0.0078125H0.5V15.9922Z" fill="#334094"/>
<path fill-rule="evenodd" clip-rule="evenodd" d="M9.83667 15.9922H19.1633V-0.0078125H9.83667V15.9922Z" fill="#F4F4F4"/>
<path fill-rule="evenodd" clip-rule="evenodd" d="M19.1633 15.9922H28.5V-0.0078125H19.1633V15.9922Z" fill="#D61E34"/>
<path d="M42.4844 4.1875H44.6172C45.1328 4.1875 45.6074 4.27148 46.041 4.43945C46.4746 4.60742 46.8516 4.84766 47.1719 5.16016C47.4922 5.47266 47.7402 5.84961 47.916 6.29102C48.0918 6.73242 48.1797 7.22852 48.1797 7.7793C48.1797 8.31055 48.0918 8.79102 47.916 9.2207C47.7402 9.65039 47.4922 10.0176 47.1719 10.3223C46.8516 10.627 46.4746 10.8613 46.041 11.0254C45.6074 11.1855 45.1328 11.2656 44.6172 11.2656H42.4844C41.9648 11.2656 41.4863 11.1855 41.0488 11.0254C40.6113 10.8613 40.2305 10.6289 39.9062 10.3281C39.5859 10.0234 39.3359 9.6582 39.1562 9.23242C38.9805 8.80273 38.8926 8.32227 38.8926 7.79102C38.8926 7.24023 38.9805 6.74414 39.1562 6.30273C39.3359 5.86133 39.5859 5.48242 39.9062 5.16602C40.2305 4.84961 40.6113 4.60742 41.0488 4.43945C41.4863 4.27148 41.9648 4.1875 42.4844 4.1875ZM42.4844 5.83984C42.1719 5.83984 41.8906 5.91016 41.6406 6.05078C41.3906 6.19141 41.1934 6.40625 41.0488 6.69531C40.9043 6.98047 40.832 7.3457 40.832 7.79102C40.832 8.09961 40.875 8.36914 40.9609 8.59961C41.0469 8.83008 41.166 9.01953 41.3184 9.16797C41.4707 9.31641 41.6465 9.42773 41.8457 9.50195C42.0449 9.57617 42.2578 9.61328 42.4844 9.61328H44.6289C44.9336 9.61328 45.207 9.54688 45.4492 9.41406C45.6914 9.27734 45.8828 9.07227 46.0234 8.79883C46.168 8.52539 46.2402 8.18555 46.2402 7.7793C46.2402 7.44727 46.1992 7.16016 46.1172 6.91797C46.0352 6.67578 45.9199 6.47461 45.7715 6.31445C45.627 6.1543 45.457 6.03516 45.2617 5.95703C45.0664 5.87891 44.8555 5.83984 44.6289 5.83984H42.4844ZM44.5352 3.10938V12.3438H42.5605V3.10938H44.5352ZM52.6094 9.09766H50.4883V7.50977H52.6094C52.8984 7.50977 53.1328 7.46094 53.3125 7.36328C53.4922 7.26562 53.623 7.13086 53.7051 6.95898C53.791 6.7832 53.834 6.58594 53.834 6.36719C53.834 6.13281 53.791 5.91602 53.7051 5.7168C53.623 5.51758 53.4922 5.35742 53.3125 5.23633C53.1328 5.11133 52.8984 5.04883 52.6094 5.04883H51.2617V11.9922H49.2051V3.46094H52.6094C53.293 3.46094 53.8809 3.58594 54.373 3.83594C54.8691 4.08594 55.25 4.42969 55.5156 4.86719C55.7812 5.30078 55.9141 5.79688 55.9141 6.35547C55.9141 6.90625 55.7812 7.38672 55.5156 7.79688C55.25 8.20703 54.8691 8.52734 54.373 8.75781C53.8809 8.98438 53.293 9.09766 52.6094 9.09766ZM59.5938 5.25391L57.5137 11.9922H55.3047L58.4395 3.46094H59.8398L59.5938 5.25391ZM61.3164 11.9922L59.2305 5.25391L58.9609 3.46094H60.3789L63.5312 11.9922H61.3164ZM61.2344 8.81055V10.3984H56.8574V8.81055H61.2344ZM69.9062 6.84766V8.42969H65.5293V6.84766H69.9062ZM66.2148 3.46094V11.9922H64.1582V3.46094H66.2148ZM71.2891 3.46094V11.9922H69.2383V3.46094H71.2891ZM80.9277 10.4277L80.8105 14.0488H78.8711V11.9922H78.2383V10.4277H80.9277ZM72.4492 11.9922V3.46094H74.5V10.4102H77.5645V3.46094H79.627V11.9922H72.4492ZM84.0391 3.46094V11.9922H81.9883V3.46094H84.0391ZM89.9277 8.99805H87.6484L87.0391 8.74609C86.3438 8.52734 85.8145 8.20312 85.4512 7.77344C85.0879 7.33984 84.9062 6.78711 84.9062 6.11523C84.9062 5.5293 85.0371 5.04102 85.2988 4.65039C85.5605 4.25586 85.9316 3.95898 86.4121 3.75977C86.8926 3.56055 87.4629 3.46094 88.123 3.46094H91.2168V11.9922H89.1543V5.04883H88.123C87.7129 5.04883 87.416 5.15625 87.2324 5.37109C87.0488 5.58203 86.957 5.89062 86.957 6.29688C86.957 6.60938 87 6.85547 87.0859 7.03516C87.1758 7.21484 87.3066 7.34375 87.4785 7.42188C87.6504 7.49609 87.8652 7.5332 88.123 7.5332H89.916L89.9277 8.99805ZM88.3457 8.23047L86.5352 11.9922H84.2969L86.084 8.23047H88.3457Z" fill="#4D4D4D"/>
</svg>
