<svg width="71" height="70" viewBox="0 0 71 70" fill="none" xmlns="http://www.w3.org/2000/svg">
<path d="M58.1297 0H12.8703C6.04528 0 0.499969 5.54531 0.499969 12.3703V57.6297C0.499969 64.4547 6.04528 70 12.8703 70H58.1297C64.9547 70 70.5 64.4547 70.5 57.6297V12.3703C70.5 5.54531 64.9547 0 58.1297 0ZM68.3016 57.6297C68.3016 63.2406 63.7406 67.8016 58.1297 67.8016H12.8703C7.25934 67.8016 2.69842 63.2406 2.69842 57.6297V12.3703C2.69842 6.75938 7.25934 2.19844 12.8703 2.19844H58.1297C63.7406 2.19844 68.3016 6.75938 68.3016 12.3703V57.6297Z" fill="#B3B3B3"/>
<path d="M58.9827 25.5609C51.2936 21.6781 43.6155 17.7843 35.9592 13.8468C35.0733 13.3875 34.3623 13.4312 33.4873 13.8797C25.8201 17.8062 18.1421 21.7 10.464 25.5937C9.88428 25.889 9.32644 26.1953 9.33738 26.9609C9.33738 27.7265 9.90611 28.0218 10.4858 28.3172C18.1967 32.2328 25.8968 36.1375 33.5859 40.075C34.4062 40.4906 35.0733 40.5015 35.8827 40.075C40.1155 37.8875 44.3702 35.7437 48.614 33.5781C51.2827 32.2218 53.9405 30.8765 56.7624 29.4437C56.7624 31.1281 56.7624 32.6156 56.7624 34.0922C56.7624 36.9031 56.7514 39.714 56.7624 42.525C56.7624 43.6625 57.4843 44.4172 58.4577 44.4281C59.4421 44.4281 60.1092 43.6843 60.142 42.5468C60.142 42.4484 60.142 42.3609 60.142 42.2625C60.142 37.3297 60.1202 32.4078 60.1639 27.475C60.1639 26.5234 59.8139 25.9765 58.9718 25.55L58.9827 25.5609Z" fill="#368DDF"/>
<path d="M52.836 35.361C52.836 35.1423 52.8141 34.9126 52.7922 34.5954C52.3876 34.7923 52.0704 34.9345 51.7532 35.0985C46.9189 37.5485 42.0845 39.9876 37.261 42.4704C35.5548 43.3454 33.9142 43.3673 32.2298 42.4704C30.1954 41.3985 28.15 40.3813 26.1047 39.3423C22.9985 37.7673 19.9033 36.1923 16.6439 34.5298C16.6439 38.2376 16.6658 42.9626 16.6329 46.5063C16.622 47.8407 17.1798 48.672 18.3829 49.2188C23.4032 51.4938 28.4016 53.8017 33.4001 56.1204C34.3079 56.547 35.1501 56.5579 36.047 56.1423C41.0673 53.8126 46.0985 51.4938 51.1407 49.197C52.311 48.661 52.8579 47.8407 52.836 46.5392C52.8032 43.2032 52.836 38.686 52.8251 35.3392L52.836 35.361Z" fill="#368DDF"/>
</svg>
