<svg width="71" height="70" viewBox="0 0 71 70" fill="none" xmlns="http://www.w3.org/2000/svg">
<path d="M58.1297 0H12.8703C6.04531 0 0.5 5.54531 0.5 12.3703V57.6297C0.5 64.4547 6.04531 70 12.8703 70H58.1297C64.9547 70 70.5 64.4547 70.5 57.6297V12.3703C70.5 5.54531 64.9547 0 58.1297 0ZM68.3015 57.6297C68.3015 63.2406 63.7406 67.8016 58.1297 67.8016H12.8703C7.25937 67.8016 2.69844 63.2406 2.69844 57.6297V12.3703C2.69844 6.75937 7.25937 2.19843 12.8703 2.19843H58.1297C63.7406 2.19843 68.3015 6.75937 68.3015 12.3703V57.6297Z" fill="#B3B3B3"/>
<path d="M21.6202 31.3358C21.8609 32.0577 22.1562 32.7687 22.4952 33.4468C22.878 34.2015 23.3374 34.9015 23.7968 35.6124C25.2187 37.8218 26.6296 40.0311 28.0515 42.2405C29.1562 43.9686 30.2609 45.6968 31.3655 47.4249C32.3609 48.9671 33.3562 50.5202 34.3405 52.0624C34.8437 52.8499 35.839 52.8718 36.353 52.4015C36.4952 52.2702 36.6155 52.1171 36.714 51.953C37.0968 51.3733 37.4577 50.7827 37.8405 50.1921C39.2952 47.928 40.7499 45.664 42.2046 43.3999C43.8671 40.8077 45.5296 38.2155 47.1921 35.6233C47.739 34.7702 48.2968 33.928 48.7234 33.0093C49.139 32.1015 49.4671 31.1608 49.6968 30.1983C49.8499 29.5312 49.9484 28.853 50.014 28.164C50.1452 26.7749 50.0359 25.3968 49.7843 24.0296C49.653 23.3515 49.4562 22.6843 49.2155 22.028C48.7562 20.7374 48.1218 19.5343 47.3343 18.4186C46.8749 17.7624 46.3499 17.1499 45.7812 16.5921C44.8624 15.6843 43.8562 14.9077 42.7296 14.2624C41.7124 13.6827 40.6405 13.2343 39.514 12.9062C38.7484 12.6765 37.9718 12.5343 37.1843 12.4358C36.6374 12.3593 36.0796 12.3593 35.5546 12.3374C34.6687 12.3702 33.8265 12.414 32.9952 12.5671C32.853 12.5999 32.6999 12.5999 32.5468 12.6437C31.803 12.8296 31.0484 13.0265 30.3265 13.2999C29.7468 13.5187 29.189 13.7702 28.6421 14.0546C27.6249 14.6015 26.6843 15.2577 25.8202 16.0233C24.9015 16.8327 24.103 17.7405 23.4249 18.7468C22.8234 19.6327 22.3093 20.5733 21.9374 21.5796C21.8062 21.9405 21.653 22.3015 21.5546 22.6733C21.4015 23.2421 21.2812 23.8218 21.1718 24.4015C21.0952 24.828 21.0515 25.2546 20.9968 25.6811C20.9749 25.8343 20.9749 25.9765 20.964 26.1296C20.8765 27.2015 20.964 28.2624 21.128 29.3233C21.2374 30.0124 21.4124 30.6796 21.6312 31.3468L21.6202 31.3358ZM35.489 20.278C39.1312 20.278 42.1062 23.2093 42.1062 26.8952C42.1062 30.5702 39.1312 33.5124 35.489 33.5124C31.8249 33.5124 28.8718 30.5374 28.8609 26.8952C28.8609 23.2421 31.8249 20.278 35.478 20.278H35.489Z" fill="#368DDF"/>
<path d="M54.8703 47.0313C54.2469 46.2766 53.4703 45.6969 52.6281 45.1938C51.6547 44.6141 50.6156 44.1656 49.5437 43.7719C48.4937 43.3891 47.4109 43.1156 46.3391 42.8094C46.2078 42.7766 46.1312 42.8094 46.0656 42.9188C46.0328 42.9734 46 43.0281 45.9672 43.0828C44.8625 44.8219 43.7469 46.55 42.6422 48.2891C41.9531 49.3719 41.2641 50.4656 40.5641 51.5484C40.1156 52.2484 39.6672 52.9594 39.2078 53.6484C38.6172 54.5234 37.7969 55.125 36.7797 55.4203C36.2 55.5844 35.6094 55.6281 34.9969 55.5734C34.4172 55.5188 33.8703 55.3438 33.3672 55.0813C32.6234 54.6875 32.0656 54.1078 31.6172 53.4078C30.6656 51.9203 29.7141 50.4328 28.7625 48.9453C27.9094 47.6219 27.0672 46.2875 26.2141 44.9641C25.7875 44.2969 25.35 43.6297 24.9234 42.9516C24.8359 42.8203 24.7484 42.7875 24.6062 42.8313C24.4312 42.8859 24.2562 42.9297 24.0812 42.9844C23.4578 43.1703 22.8234 43.3344 22.2 43.5313C21.2375 43.8375 20.2969 44.1875 19.4 44.6359C18.2297 45.2266 17.1359 45.9266 16.2391 46.9109C15.7031 47.5016 15.2984 48.1797 15.1125 48.9562C14.9047 49.8531 15.025 50.7281 15.4078 51.5594C15.7359 52.2594 16.25 52.8172 16.8187 53.3312C17.4859 53.9437 18.2406 54.425 19.0391 54.8297C19.9687 55.3 20.9203 55.7266 21.9156 56.0328C22.725 56.2844 23.5453 56.525 24.3656 56.7547C24.6828 56.8422 25 56.8969 25.3172 56.9734C25.6562 57.05 25.9844 57.1375 26.3234 57.1922C26.9687 57.3016 27.6141 57.4109 28.2594 57.4984C29.1891 57.6188 30.1187 57.7609 31.0484 57.8266C32.525 57.9469 34.0125 58.0344 35.4891 58.0453C36.375 58.0016 37.2719 57.9578 38.1578 57.9359C39.3828 57.9031 40.6078 57.7828 41.8219 57.6188C42.8609 57.4766 43.9 57.3016 44.9391 57.1047C45.5953 56.9844 46.2516 56.8094 46.9078 56.6672C47.7609 56.4812 48.5922 56.2188 49.4125 55.9234C50.0578 55.6938 50.6922 55.4094 51.3156 55.1359C52.114 54.775 52.8797 54.3375 53.5797 53.8016C54.1594 53.3641 54.6844 52.8609 55.1219 52.2813C55.5812 51.6688 55.8437 50.9688 55.9422 50.2141C55.9859 49.8641 55.9422 49.5141 55.8875 49.1531C55.7453 48.3438 55.3625 47.6547 54.8375 47.0313H54.8703Z" fill="#368DDF"/>
</svg>
