<svg width="110" height="16" viewBox="0 0 110 16" fill="none" xmlns="http://www.w3.org/2000/svg">
<path fill-rule="evenodd" clip-rule="evenodd" d="M0.5 5.31897H28.5V-0.0078125H0.5V5.31897Z" fill="#000101"/>
<path fill-rule="evenodd" clip-rule="evenodd" d="M0.5 10.6555H28.5V5.31885H0.5V10.6555Z" fill="#DF1E26"/>
<path fill-rule="evenodd" clip-rule="evenodd" d="M0.5 15.9924H28.5V10.6558H0.5V15.9924Z" fill="#F6D92A"/>
<path d="M44.8984 6.84766V8.42969H40.5215V6.84766H44.8984ZM41.207 3.46094V11.9922H39.1504V3.46094H41.207ZM46.2812 3.46094V11.9922H44.2305V3.46094H46.2812ZM49.7734 3.46094V11.9922H47.7227V3.46094H49.7734ZM52.2402 3.46094H53.916L55.8203 9.39648L57.7246 3.46094H59.4004L56.5 11.9922H55.1406L52.2402 3.46094ZM51.2207 3.46094H52.9551L53.2773 10V11.9922H51.2207V3.46094ZM58.6855 3.46094H60.4258V11.9922H58.3633V10L58.6855 3.46094ZM67.6152 10.4102V11.9922H63.0684V10.4102H67.6152ZM63.8008 3.46094V11.9922H61.7441V3.46094H63.8008ZM67.0293 6.84766V8.37695H63.0684V6.84766H67.0293ZM67.6328 3.46094V5.04883H63.0684V3.46094H67.6328ZM68.5938 3.46094H70.6504V6.05664C70.6504 6.40039 70.7051 6.66797 70.8145 6.85938C70.9277 7.05078 71.0957 7.18555 71.3184 7.26367C71.541 7.3418 71.8184 7.38086 72.1504 7.38086C72.2363 7.38086 72.3594 7.37695 72.5195 7.36914C72.6836 7.35742 72.8574 7.3418 73.041 7.32227C73.2246 7.30273 73.3965 7.28125 73.5566 7.25781C73.7168 7.23047 73.8359 7.19922 73.9141 7.16406V8.74609C73.832 8.77734 73.707 8.80664 73.5391 8.83398C73.3711 8.86133 73.1934 8.88477 73.0059 8.9043C72.8184 8.92383 72.6445 8.93945 72.4844 8.95117C72.3281 8.95898 72.2168 8.96289 72.1504 8.96289C71.4355 8.96289 70.8105 8.85938 70.2754 8.65234C69.7441 8.44531 69.3301 8.12695 69.0332 7.69727C68.7402 7.26758 68.5938 6.7207 68.5938 6.05664V3.46094ZM73.5098 3.46094H75.5664V11.9922H73.5098V3.46094ZM76.8203 3.46094H78.877V6.05664C78.877 6.40039 78.9316 6.66797 79.041 6.85938C79.1543 7.05078 79.3223 7.18555 79.5449 7.26367C79.7676 7.3418 80.0449 7.38086 80.377 7.38086C80.4629 7.38086 80.5859 7.37695 80.7461 7.36914C80.9102 7.35742 81.084 7.3418 81.2676 7.32227C81.4512 7.30273 81.623 7.28125 81.7832 7.25781C81.9434 7.23047 82.0625 7.19922 82.1406 7.16406V8.74609C82.0586 8.77734 81.9336 8.80664 81.7656 8.83398C81.5977 8.86133 81.4199 8.88477 81.2324 8.9043C81.0449 8.92383 80.8711 8.93945 80.7109 8.95117C80.5547 8.95898 80.4434 8.96289 80.377 8.96289C79.6621 8.96289 79.0371 8.85938 78.502 8.65234C77.9707 8.44531 77.5566 8.12695 77.2598 7.69727C76.9668 7.26758 76.8203 6.7207 76.8203 6.05664V3.46094ZM81.7363 3.46094H83.793V11.9922H81.7363V3.46094ZM87.0156 8.8457L90.0801 3.46094H92.1367V11.9922H90.0801V6.61328L87.0156 11.9922H84.959V3.46094H87.0156V8.8457ZM99.1445 6.84766V8.42969H94.7676V6.84766H99.1445ZM95.4531 3.46094V11.9922H93.3965V3.46094H95.4531ZM100.527 3.46094V11.9922H98.4766V3.46094H100.527ZM105.555 5.25391L103.475 11.9922H101.266L104.4 3.46094H105.801L105.555 5.25391ZM107.277 11.9922L105.191 5.25391L104.922 3.46094H106.34L109.492 11.9922H107.277ZM107.195 8.81055V10.3984H102.818V8.81055H107.195Z" fill="#4D4D4D"/>
</svg>
