<svg width="71" height="70" viewBox="0 0 71 70" fill="none" xmlns="http://www.w3.org/2000/svg">
<path d="M58.1297 0H12.8703C6.04531 0 0.5 5.54531 0.5 12.3703V57.6297C0.5 64.4547 6.04531 70 12.8703 70H58.1297C64.9547 70 70.5 64.4547 70.5 57.6297V12.3703C70.5 5.54531 64.9547 0 58.1297 0ZM68.3015 57.6297C68.3015 63.2406 63.7406 67.8016 58.1297 67.8016H12.8703C7.25937 67.8016 2.69845 63.2406 2.69845 57.6297V12.3703C2.69845 6.75937 7.25937 2.19843 12.8703 2.19843H58.1297C63.7406 2.19843 68.3015 6.75937 68.3015 12.3703V57.6297Z" fill="#B3B3B3"/>
<path d="M58.9827 17.9482L58.7749 15.9904C58.7202 15.4654 58.6655 14.9295 58.6108 14.4045C58.5343 13.6717 58.5233 13.5842 58.5124 13.4857C58.5124 13.3982 58.5014 13.2998 58.4249 12.5888C58.3155 11.5279 57.6921 10.8279 56.7405 10.6529C55.6687 10.456 54.6405 11.1451 54.4108 12.217C54.3233 12.6435 54.378 13.081 54.4327 13.5404C54.4546 13.7045 54.4765 13.8795 54.4874 14.0435C54.4874 14.0763 54.4874 14.1201 54.4874 14.1529C54.5093 14.2404 54.5202 14.3498 54.5311 14.4701C54.6186 15.2138 54.6952 15.9467 54.7718 16.6904L54.914 18.0467C54.9577 18.506 55.0124 18.9654 55.0671 19.4357C55.0999 19.7529 55.0343 20.0373 54.8483 20.3107C53.3061 22.5967 51.7749 24.8826 50.2546 27.1795C50.0249 27.5185 49.7296 27.6607 49.3358 27.6717C47.1155 27.6607 44.8843 27.6717 42.664 27.6607C42.3577 27.6607 42.0624 27.5623 41.7561 27.4639C41.5811 27.4092 41.4171 27.3217 41.264 27.2451C41.1655 27.2014 41.078 27.1467 40.9796 27.1138L38.9124 26.2279C37.8624 25.7795 36.8124 25.331 35.7624 24.8717C34.9093 24.4998 34.0671 24.1279 33.214 23.756C32.5905 23.4826 31.9562 23.1982 31.3327 22.9248C31.1796 22.8592 31.0265 22.8045 30.8734 22.7388C30.4796 24.106 29.7577 25.2435 28.653 26.1842H28.664C29.2108 26.4357 29.7577 26.6873 30.3046 26.9279L31.9452 27.6498C32.7108 27.9888 33.4765 28.317 34.2311 28.656C35.0296 29.017 35.828 29.3779 36.6265 29.7279L38.4093 30.5264C39.0327 30.8107 39.6561 31.0842 40.2796 31.3576C40.6405 31.5107 40.8046 31.7842 40.7608 32.156C40.7608 32.2217 40.7608 32.2873 40.7608 32.342V32.4513V57.017C40.7608 58.0123 41.4937 58.9748 42.478 59.2592C43.6155 59.5873 44.7421 59.1498 45.3436 58.1435C45.5952 57.7388 45.6937 57.2685 45.6937 56.5795V49.3717V44.8107C45.6937 44.6357 45.8358 44.4935 46.0109 44.4935H47.2358C47.4108 44.4935 47.553 44.6357 47.553 44.8107V55.2998C47.553 55.5076 47.553 55.6826 47.553 55.8248C47.553 55.8248 47.553 56.0107 47.553 56.0982C47.553 56.2513 47.553 56.4373 47.553 56.6779V56.7654C47.553 57.0388 47.553 57.3123 47.6187 57.542C47.9249 58.5373 48.5812 59.1388 49.5655 59.3357C50.2655 59.467 50.9655 59.3029 51.5343 58.8654C52.0921 58.4279 52.4421 57.7935 52.4858 57.1045C52.4968 56.8857 52.4968 56.6779 52.4968 56.4592V56.3279V31.806V31.6857C52.4968 31.5763 52.4858 31.456 52.4968 31.3248C52.5296 31.1498 52.5624 30.9201 52.6936 30.7342C53.5468 29.4545 54.3999 28.1748 55.253 26.906L56.2483 25.4295C57.1015 24.1607 57.9546 22.881 58.7968 21.6123C59.1249 21.131 59.2452 20.5951 59.1687 19.9935C59.0812 19.3154 59.0046 18.6263 58.9389 17.9373L58.9827 17.9482Z" fill="#368DDF"/>
<path d="M38.3765 32.8453C37.775 32.6047 37.1843 32.3422 36.5828 32.0797L26.8484 27.8359C26.5531 27.7047 26.2797 27.65 26.0062 27.65C25.3719 27.65 24.7484 27.65 24.114 27.65C23.3047 27.65 22.4953 27.65 21.6859 27.65C21.2593 27.65 20.9422 27.486 20.7015 27.125C19.1922 24.85 17.6828 22.586 16.1515 20.3219C15.9437 20.0156 15.8672 19.7094 15.9109 19.3703C15.9984 18.6375 16.0859 17.9047 16.1625 17.1719C16.2062 16.7453 16.25 16.3188 16.2937 15.8922C16.3484 15.3344 16.4031 14.7656 16.4687 14.2078C16.5453 13.5406 16.5453 13.5078 16.5672 13.4641C16.5672 13.4422 16.5781 13.3328 16.6328 12.8188C16.7312 11.8781 16.239 11.0688 15.375 10.7516C14.7406 10.511 14.0953 10.5547 13.5703 10.8828C13.0344 11.211 12.6953 11.7688 12.6078 12.4578C12.4547 13.6938 12.4328 13.9016 12.3781 14.3938C12.3453 14.6781 12.3125 15.05 12.2359 15.761C12.1703 16.3516 12.1156 16.9313 12.05 17.5219C11.9625 18.3531 11.875 19.1844 11.7875 20.0156C11.7219 20.6172 11.8531 21.1531 12.2031 21.6672L13.7015 23.8766C15.1562 26.0203 16.6 28.1641 18.0656 30.2969C18.339 30.7016 18.4703 31.1063 18.4703 31.5984V35.6235C18.4703 39.8344 18.4703 41.4969 18.4703 55.9016C18.4703 56.3063 18.4703 56.7 18.4922 57.1047C18.525 58.0672 19.3781 59.0516 20.3953 59.2812C21.139 59.4562 21.9156 59.2812 22.5172 58.8C23.0969 58.3406 23.4359 57.6516 23.4359 56.9297V45.3359C23.4359 45.2156 23.4359 45.0953 23.4578 44.9641V44.7781C23.4687 44.6141 23.6109 44.4719 23.775 44.4719H24.9781C25.1531 44.4719 25.2953 44.6141 25.2953 44.7891V56.4047C25.2953 56.6891 25.2953 56.9734 25.339 57.2359C25.4593 58.0781 25.9953 58.7781 26.7719 59.1281C27.5484 59.4781 28.4343 59.4016 29.1453 58.9313C29.8672 58.4391 30.239 57.75 30.239 56.8531C30.239 55.4422 30.239 55.3109 30.25 55.2125C30.25 55.1141 30.25 55.0375 30.25 53.5828C30.25 43.8156 30.25 40.7422 30.239 38.3578V34.0922C30.239 33.9938 30.2828 33.8953 30.3594 33.8406C30.4359 33.786 30.5453 33.7641 30.6328 33.7859L30.8625 33.8516C31.0156 33.8953 31.1469 33.9281 31.2672 33.9828C33.039 34.65 34.8109 35.3063 36.5828 35.9734C37.3156 36.2469 37.9718 36.2031 38.5734 35.8203V35.175C38.5734 34.475 38.5734 33.775 38.5734 33.075C38.5734 32.9219 38.5625 32.8891 38.3875 32.8125L38.3765 32.8453Z" fill="#368DDF"/>
<path d="M24.3656 25.2767C27.1219 25.2767 29.2 23.0673 29.2109 20.4532C29.2219 17.8282 27.0672 15.6407 24.4203 15.6298C21.7078 15.6189 19.5531 17.7954 19.5422 20.4314C19.5422 23.122 21.6531 25.2767 24.3656 25.2876V25.2767Z" fill="#368DDF"/>
<path d="M46.6125 25.2875C49.336 25.2875 51.4469 23.1766 51.4469 20.4422C51.4469 17.7187 49.2485 15.6406 46.6344 15.6297C43.9438 15.6078 41.7563 17.8391 41.7891 20.4422C41.7672 23.0891 43.8891 25.2984 46.6125 25.2875Z" fill="#368DDF"/>
</svg>
