<svg width="80" height="16" viewBox="0 0 80 16" fill="none" xmlns="http://www.w3.org/2000/svg">
<path d="M28.5 -0.0078125H0.5V15.9922H28.5V-0.0078125Z" fill="white"/>
<path d="M28.5 3.55005H0.5V5.35842H28.5V3.55005Z" fill="#0D5EAF"/>
<path d="M28.5 7.0979H0.5V8.90625H28.5V7.0979Z" fill="#0D5EAF"/>
<path d="M28.5 10.6455H0.5V12.4539H28.5V10.6455Z" fill="#0D5EAF"/>
<path d="M28.5 14.1741H0.5V15.9824H28.5V14.1741Z" fill="#0D5EAF"/>
<path d="M28.5 -0.0078125H0.5V1.80054H28.5V-0.0078125Z" fill="#0D5EAF"/>
<path d="M9.54585 -0.0078125H0.5V7.25509H9.54585V-0.0078125Z" fill="#0D5EAF"/>
<path d="M9.54585 3.55957H0.5V5.36792H9.54585V3.55957Z" fill="white"/>
<path d="M5.93494 -0.0078125H4.09033V9.00448H5.93494V-0.0078125Z" fill="white"/>
<path d="M44.8984 3.46094V5.04883H41.1895V11.9922H39.1387V3.46094H44.8984ZM49.2461 9.09766H47.125V7.50977H49.2461C49.5352 7.50977 49.7695 7.46094 49.9492 7.36328C50.1289 7.26562 50.2598 7.13086 50.3418 6.95898C50.4277 6.7832 50.4707 6.58594 50.4707 6.36719C50.4707 6.13281 50.4277 5.91602 50.3418 5.7168C50.2598 5.51758 50.1289 5.35742 49.9492 5.23633C49.7695 5.11133 49.5352 5.04883 49.2461 5.04883H47.8984V11.9922H45.8418V3.46094H49.2461C49.9297 3.46094 50.5176 3.58594 51.0098 3.83594C51.5059 4.08594 51.8867 4.42969 52.1523 4.86719C52.418 5.30078 52.5508 5.79688 52.5508 6.35547C52.5508 6.90625 52.418 7.38672 52.1523 7.79688C51.8867 8.20703 51.5059 8.52734 51.0098 8.75781C50.5176 8.98438 49.9297 9.09766 49.2461 9.09766ZM59.5293 10.4102V11.9922H54.9824V10.4102H59.5293ZM55.7148 3.46094V11.9922H53.6582V3.46094H55.7148ZM58.9434 6.84766V8.37695H54.9824V6.84766H58.9434ZM59.5469 3.46094V5.04883H54.9824V3.46094H59.5469ZM68.7051 10.4277L68.5879 14.0488H66.6484V11.9922H66.0156V10.4277H68.7051ZM60.2266 11.9922V3.46094H62.2773V10.4102H65.3418V3.46094H67.4043V11.9922H60.2266ZM71.8164 3.46094V11.9922H69.7656V3.46094H71.8164ZM77.7051 8.99805H75.4258L74.8164 8.74609C74.1211 8.52734 73.5918 8.20312 73.2285 7.77344C72.8652 7.33984 72.6836 6.78711 72.6836 6.11523C72.6836 5.5293 72.8145 5.04102 73.0762 4.65039C73.3379 4.25586 73.709 3.95898 74.1895 3.75977C74.6699 3.56055 75.2402 3.46094 75.9004 3.46094H78.9941V11.9922H76.9316V5.04883H75.9004C75.4902 5.04883 75.1934 5.15625 75.0098 5.37109C74.8262 5.58203 74.7344 5.89062 74.7344 6.29688C74.7344 6.60938 74.7773 6.85547 74.8633 7.03516C74.9531 7.21484 75.084 7.34375 75.2559 7.42188C75.4277 7.49609 75.6426 7.5332 75.9004 7.5332H77.6934L77.7051 8.99805ZM76.123 8.23047L74.3125 11.9922H72.0742L73.8613 8.23047H76.123Z" fill="#4D4D4D"/>
</svg>
