<svg width="71" height="70" viewBox="0 0 71 70" fill="none" xmlns="http://www.w3.org/2000/svg">
<path d="M58.1297 0H12.8703C6.04531 0 0.5 5.54531 0.5 12.3703V57.6297C0.5 64.4547 6.04531 70 12.8703 70H58.1297C64.9547 70 70.5 64.4547 70.5 57.6297V12.3703C70.5 5.54531 64.9547 0 58.1297 0ZM68.3016 57.6297C68.3016 63.2406 63.7406 67.8016 58.1297 67.8016H12.8703C7.25937 67.8016 2.69845 63.2406 2.69845 57.6297V12.3703C2.69845 6.75938 7.25937 2.19844 12.8703 2.19844H58.1297C63.7406 2.19844 68.3016 6.75938 68.3016 12.3703V57.6297Z" fill="#B3B3B3"/>
<path d="M55.2313 29.1047C54.8266 27.7484 54.2797 26.425 53.6235 25.2L53.5907 25.1344L55.6797 19.1297L51.3704 14.8203L45.3657 16.9094L45.3 16.8766C44.0641 16.2094 42.7516 15.6734 41.3954 15.2688L41.3188 15.2469L38.5407 9.51562H32.4485L29.6813 15.2359L29.6047 15.2578C28.2594 15.6625 26.936 16.1984 25.6891 16.8766L25.6235 16.9094L19.6188 14.8203L15.3094 19.1297L17.3985 25.1344L17.3657 25.2C16.6985 26.4359 16.1625 27.7484 15.7579 29.1047L15.736 29.1812L9.99377 31.9594V36.6844H23.1953L27.0235 32.8563C26.6735 32.2328 26.4875 31.5328 26.4875 30.8219C26.4875 28.5359 28.3469 26.6766 30.6329 26.6766C32.9188 26.6766 34.7782 28.5359 34.7782 30.8219C34.7782 33.1078 32.9188 34.9672 30.6329 34.9672C30.0204 34.9672 29.4407 34.8359 28.8829 34.5734L24.6172 38.8391C24.3766 39.0797 24.0594 39.2109 23.7204 39.2109H12.4219L15.736 40.8078L15.7579 40.8844C15.9657 41.5734 16.2172 42.2844 16.5235 43.0062H28.2047L34.0563 37.1656C34.2969 36.925 34.6141 36.7937 34.9532 36.7937H42.5766C43.1235 35.0875 44.7313 33.9172 46.5251 33.9172C48.811 33.9172 50.6703 35.7766 50.6703 38.0625C50.6703 40.3484 48.811 42.2078 46.5251 42.2078C44.7313 42.2078 43.1235 41.0266 42.5766 39.3312H35.4782L29.6266 45.1719C29.3969 45.4125 29.0688 45.5437 28.7297 45.5437H17.1797L15.3204 50.8812L19.6297 55.1906L25.6344 53.1016L25.7 53.1344C26.936 53.8016 28.2485 54.3375 29.6047 54.7422L29.6813 54.7641L32.4594 60.5062H38.5516L41.3297 54.7641L41.4063 54.7422C42.7735 54.3375 44.086 53.7906 45.311 53.1344L45.3766 53.1016L51.3813 55.1906L55.6906 50.8812L53.6016 44.8766L53.6344 44.8109C54.3016 43.575 54.8376 42.2625 55.2422 40.9062L55.2641 40.8297L61.0063 38.0516V31.9594L55.2641 29.1812L55.2422 29.1047H55.2313Z" fill="#368DDF"/>
</svg>
