<svg width="70" height="70" viewBox="0 0 70 70" fill="none" xmlns="http://www.w3.org/2000/svg">
<path d="M57.63 0H12.37C5.53825 0 0 5.53824 0 12.37V57.63C0 64.4618 5.53825 70 12.37 70H57.63C64.4618 70 70 64.4618 70 57.63V12.37C70 5.53824 64.4618 0 57.63 0Z" fill="#1D7ECE"/>
<path d="M46.1699 36.5499C46.0699 39.9499 45.6599 43.1799 44.9399 46.1499L44.9099 46.2699H54.2399L54.2699 46.2199C55.9799 43.2899 57.0099 39.9399 57.2499 36.5499V36.4399H46.1699V36.5399V36.5499Z" fill="white"/>
<path d="M44.0399 20.7599L44.0598 20.8299H52.2098L52.0699 20.6699C48.9599 16.9599 44.6499 14.3299 39.9499 13.2599L39.6099 13.1799L39.8499 13.4299C41.5099 15.0899 42.9499 17.6299 44.0199 20.7599H44.0399Z" fill="white"/>
<path d="M25.95 20.7599C27.03 17.6199 28.47 15.0899 30.12 13.4299L30.36 13.1799L30.02 13.2599C25.32 14.3299 21.02 16.9599 17.9 20.6699L17.76 20.8299H25.91L25.93 20.7599H25.95Z" fill="white"/>
<path d="M26.6799 36.56C26.7899 40.03 27.2299 43.27 28.0099 46.21L28.0299 46.28H41.9599L41.9799 46.21C42.7599 43.27 43.2099 40.03 43.3099 36.56V36.46H26.6699V36.56H26.6799Z" fill="white"/>
<path d="M41.04 49.1899H28.96L29.01 49.3299C30.62 53.4699 32.91 56.0499 35 56.0499C37.09 56.0499 39.38 53.4799 40.98 49.3299L41.03 49.1899H41.04Z" fill="white"/>
<path d="M25.95 49.2499L25.93 49.1799H17.78L17.92 49.3399C21.03 53.0499 25.34 55.6799 30.04 56.7499L30.38 56.8299L30.14 56.5799C28.48 54.9199 27.04 52.3799 25.97 49.2499H25.95Z" fill="white"/>
<path d="M44.0399 49.2499C42.9599 52.3899 41.5199 54.9199 39.8699 56.5799L39.6299 56.8299L39.9699 56.7499C44.6699 55.6799 48.9699 53.0499 52.0899 49.3399L52.2299 49.1799H44.0799L44.0599 49.2499H44.0399Z" fill="white"/>
<path d="M25.05 46.16C24.33 43.19 23.92 39.96 23.82 36.56V36.46H12.73V36.57C12.97 39.96 14 43.31 15.71 46.24L15.74 46.29H25.07L25.04 46.17L25.05 46.16Z" fill="white"/>
<path d="M28.96 20.82H41.04L40.99 20.68C39.38 16.54 37.09 13.96 35.01 13.96C32.93 13.96 30.63 16.53 29.02 20.68L28.97 20.82H28.96Z" fill="white"/>
<path d="M23.82 33.46C23.92 30.06 24.33 26.83 25.05 23.86L25.08 23.74H15.75L15.72 23.79C14.01 26.72 12.98 30.07 12.74 33.46V33.57H23.82V33.47V33.46Z" fill="white"/>
<path d="M43.3199 33.45C43.2099 29.98 42.77 26.73 41.99 23.8L41.9699 23.73H28.0399L28.02 23.8C27.24 26.73 26.7899 29.98 26.6899 33.45V33.55H43.33V33.45H43.3199Z" fill="white"/>
<path d="M44.95 23.85C45.67 26.82 46.0799 30.05 46.1799 33.45V33.55H57.27V33.44C57.03 30.05 55.9999 26.7 54.2899 23.77L54.2599 23.72H44.9299L44.9599 23.84L44.95 23.85Z" fill="white"/>
</svg>
