<svg width="70" height="70" viewBox="0 0 70 70" fill="none" xmlns="http://www.w3.org/2000/svg">
<path d="M57.63 0H12.37C5.53824 0 0 5.53823 0 12.37V57.63C0 64.4618 5.53824 70 12.37 70H57.63C64.4618 70 70 64.4618 70 57.63V12.37C70 5.53823 64.4618 0 57.63 0Z" fill="#1D7ECE"/>
<path d="M35 12.21L13.79 19.88V35.39C13.79 46.14 20.86 55.6 31.16 58.65L35 59.79L38.84 58.65C49.14 55.6 56.21 46.13 56.21 35.39V19.88L35 12.21ZM52.51 35.33C52.51 44.15 46.6 52.07 38.14 54.58L35 55.51L31.86 54.58C23.4 52.07 17.49 44.16 17.49 35.33V22.84L35 16.51L52.51 22.84V35.33Z" fill="white"/>
<path d="M35.0001 19.53L20.3301 24.83V35.33C20.3301 42.91 25.4001 49.7 32.6701 51.85L35.0001 52.54L37.3301 51.85C44.5901 49.7 49.6701 42.9 49.6701 35.33V24.83L35.0001 19.53ZM33.7201 41.64L27.0201 36.72L28.7001 34.43L33.4401 37.91L40.9801 30.37L42.9901 32.38L33.7301 41.64H33.7201Z" fill="white"/>
</svg>
