<svg width="70" height="70" viewBox="0 0 70 70" fill="none" xmlns="http://www.w3.org/2000/svg">
<path d="M57.63 0H12.37C5.53824 0 0 5.53823 0 12.37V57.63C0 64.4618 5.53824 70 12.37 70H57.63C64.4618 70 70 64.4618 70 57.63V12.37C70 5.53823 64.4618 0 57.63 0Z" fill="#1D7ECE"/>
<path d="M59.23 25.56C51.54 21.68 43.87 17.78 36.2 13.85C35.31 13.39 34.6 13.44 33.73 13.88C26.07 17.81 18.38 21.7 10.71 25.59C10.13 25.88 9.56997 26.19 9.57997 26.96C9.57997 27.72 10.15 28.02 10.73 28.31C18.44 32.22 26.14 36.13 33.84 40.07C34.66 40.49 35.33 40.5 36.14 40.07C40.37 37.88 44.62 35.74 48.87 33.58C51.53 32.23 54.2 30.87 57.02 29.44C57.02 31.12 57.02 32.61 57.02 34.09C57.02 36.9 57.01 39.71 57.02 42.52C57.02 43.66 57.74 44.41 58.71 44.42C59.69 44.42 60.37 43.67 60.4 42.53C60.4 42.44 60.4 42.34 60.4 42.25C60.4 37.32 60.38 32.39 60.42 27.47C60.42 26.51 60.07 25.97 59.23 25.55V25.56Z" fill="white"/>
<path d="M53.08 35.37C53.08 35.15 53.06 34.92 53.04 34.61C52.64 34.81 52.32 34.95 52.01 35.11C47.18 37.56 42.34 40 37.52 42.48C35.82 43.36 34.18 43.38 32.48 42.48C30.45 41.41 28.4 40.39 26.35 39.35C23.25 37.77 20.15 36.2 16.89 34.54C16.89 38.25 16.91 42.97 16.88 46.52C16.87 47.86 17.43 48.69 18.63 49.23C23.65 51.51 28.65 53.81 33.65 56.14C34.56 56.56 35.39 56.58 36.3 56.16C41.33 53.83 46.36 51.51 51.4 49.21C52.57 48.68 53.11 47.85 53.1 46.55C53.07 43.21 53.09 38.69 53.09 35.35L53.08 35.37Z" fill="white"/>
</svg>
