<svg width="70" height="70" viewBox="0 0 70 70" fill="none" xmlns="http://www.w3.org/2000/svg">
<path d="M57.63 0H12.37C5.53823 0 0 5.53824 0 12.37V57.63C0 64.4618 5.53823 70 12.37 70H57.63C64.4618 70 70 64.4618 70 57.63V12.37C70 5.53824 64.4618 0 57.63 0Z" fill="#1D7ECE"/>
<path d="M40.8301 42.06C43.5101 47.57 46.2001 53.09 48.8801 58.6C49.2001 59.26 49.3701 59.29 49.9101 58.8C50.4801 58.28 51.0501 57.77 51.6101 57.24C53.1801 55.77 53.7401 53.98 53.2701 51.87C52.0001 46.23 50.7301 40.6 49.4601 34.96C49.1601 33.64 48.8601 32.32 48.5501 30.97C45.5101 33.63 42.4501 36.32 39.3501 39.03C39.8401 40.04 40.3301 41.05 40.8301 42.06Z" fill="white"/>
<path d="M33.36 19.2301C28.68 17.7101 23.99 16.1801 19.3 14.6701C17.26 14.0101 15.44 14.4201 13.85 15.8401C13.26 16.3601 12.69 16.9001 12.11 17.4301C11.62 17.8801 11.64 18.0601 12.21 18.4101C18.43 22.1801 24.65 25.9501 30.86 29.7201C33.91 26.8301 36.85 24.0301 39.73 21.3001C37.61 20.6101 35.49 19.9201 33.36 19.2301Z" fill="white"/>
<path d="M21.6801 40.7701C21.6801 40.7701 21.65 40.7701 21.64 40.7701C18.56 40.6901 15.48 40.6401 12.41 40.5601C12.39 40.5601 12.37 40.5601 12.35 40.5601C11.93 40.5601 11.6 40.6801 11.29 40.9901C10.81 41.4701 10.28 41.9201 9.78005 42.3801C9.26005 42.8601 9.30005 43.0901 9.98005 43.3601C13.35 44.7301 16.72 46.1101 20.1 47.4701C20.46 47.6201 20.64 47.8201 20.75 48.1901C21.78 51.6801 22.83 55.1701 23.88 58.6601C23.98 59.0101 24.1101 59.1701 24.3001 59.1701C24.4301 59.1701 24.5801 59.0901 24.7701 58.9201C25.3101 58.4401 25.8201 57.9401 26.3701 57.4701C26.7001 57.1901 26.85 56.8701 26.88 56.4401C27.09 53.3501 27.3101 50.2601 27.5501 47.1801C27.5701 46.9301 27.7 46.6201 27.88 46.4601C37.71 37.8301 47.55 29.2001 57.39 20.5801C59.15 19.0401 60.1901 17.1201 60.5501 14.8201C60.9001 12.5601 59.6101 10.9101 57.1501 10.8201C55.0301 10.8501 52.88 11.5701 51.13 13.2401C41.57 22.3001 32.0301 31.3701 22.4901 40.4401C22.2501 40.6701 22.02 40.7601 21.69 40.7601L21.6801 40.7701Z" fill="white"/>
</svg>
