<svg width="70" height="70" viewBox="0 0 70 70" fill="none" xmlns="http://www.w3.org/2000/svg">
<path d="M57.63 0H12.37C5.53824 0 0 5.53824 0 12.37V57.63C0 64.4618 5.53824 70 12.37 70H57.63C64.4618 70 70 64.4618 70 57.63V12.37C70 5.53824 64.4618 0 57.63 0Z" fill="#1D7ECE"/>
<path d="M9.55005 30.0402C10.13 27.9902 11.71 26.9202 13.48 26.0702C15.92 24.8902 18.53 24.3602 21.21 24.1202C23.36 23.9202 25.51 23.9502 27.66 24.2102C27.7701 24.2202 27.8801 24.2402 28.0201 24.2602V38.3002C27.4401 38.3602 26.8701 38.4302 26.2901 38.4702C22.0401 38.7202 17.87 38.3702 13.91 36.6702C13.36 36.4302 12.83 36.1502 12.32 35.8402C11.01 35.0502 9.95005 34.0302 9.55005 32.4902V30.0602V30.0402Z" fill="white"/>
<path d="M9.55004 44.7402C9.64004 44.4902 9.73004 44.2402 9.84004 43.9402C11.34 46.3202 13.7 47.3002 16.17 48.0302C20.03 49.1702 23.98 49.3202 28.04 48.8402C28.08 50.1902 27.91 51.5602 28.62 52.9002C27.57 52.9902 26.62 53.1102 25.68 53.1602C22.02 53.3502 18.43 53.0102 14.96 51.7502C14.16 51.4602 13.38 51.0902 12.63 50.6802C11.19 49.8902 10.01 48.8402 9.54004 47.1802C9.54004 46.3702 9.54004 45.5602 9.54004 44.7502L9.55004 44.7402Z" fill="white"/>
<path d="M9.55005 37.3401C9.64005 37.1101 9.74005 36.8801 9.85005 36.6201C11.29 38.9301 13.57 39.9001 15.96 40.6301C19.75 41.7901 23.63 41.9701 27.56 41.5501C27.7 41.5301 27.85 41.5301 28.0201 41.5201V45.6501C27.08 45.7201 26.13 45.8201 25.19 45.8501C21.3 45.9801 17.49 45.5501 13.87 43.9801C13.37 43.7601 12.88 43.5001 12.41 43.2201C11.08 42.4301 10.01 41.4101 9.55005 39.8701C9.55005 39.0301 9.55005 38.1801 9.55005 37.3401Z" fill="white"/>
<path d="M44.92 12.8701C48.48 12.9101 51.96 13.3601 55.25 14.8501C56.32 15.3301 57.31 15.9401 58.14 16.7901C58.96 17.6201 59.31 18.6101 59.4 19.8001C59.57 22.0501 58.51 23.5301 56.72 24.6501C54.67 25.9401 52.39 26.6101 50.03 27.0001C45.64 27.7201 41.28 27.5901 36.98 26.3501C35.32 25.8701 33.79 25.1401 32.35 24.1501C29.71 22.3401 29.72 17.9401 32.37 16.1201C34.18 14.8701 36.16 14.1001 38.27 13.6001C40.46 13.0801 42.68 12.8701 44.93 12.8701H44.92Z" fill="white"/>
<path d="M59.0499 32.8301C59.1099 32.9301 59.1699 33 59.1799 33.07C59.5499 34.96 59.6099 36.7801 58.0499 38.2601C56.6199 39.6101 54.8799 40.38 53.0399 40.94C49.4399 42.03 45.7599 42.2901 42.0199 41.9501C39.3199 41.7101 36.6999 41.15 34.2499 39.96C33.0899 39.4 32.0199 38.7001 31.2099 37.6701C30.6899 36.9901 30.3999 36.2401 30.4099 35.3801C30.4099 34.8301 30.4099 34.28 30.4499 33.73C30.4699 33.44 30.5799 33.15 30.6599 32.8C32.4499 35.51 35.1899 36.5 38.0599 37.18C43.2599 38.41 48.4399 38.29 53.5599 36.66C54.0999 36.49 54.6299 36.2801 55.1399 36.0401C56.6999 35.3201 58.1399 34.4301 59.0399 32.8301H59.0499Z" fill="white"/>
<path d="M59.09 25.4202C59.18 25.7302 59.26 25.9102 59.28 26.1002C59.54 28.7002 59.5 29.9602 57.13 31.6902C55.51 32.8802 53.65 33.5502 51.71 33.9802C46.33 35.1802 41 35.1002 35.76 33.2602C34.87 32.9502 34.01 32.5002 33.18 32.0302C31.05 30.8402 30.08 29.0302 30.44 26.5702C30.47 26.3902 30.48 26.2102 30.52 26.0402C30.56 25.8702 30.63 25.7002 30.7 25.5002C30.99 25.8802 31.23 26.2502 31.53 26.5802C32.76 27.9202 34.36 28.6602 36.03 29.2602C37.93 29.9402 39.9 30.3202 41.91 30.5002C45.72 30.8402 49.49 30.6102 53.16 29.4602C53.99 29.2002 54.81 28.8702 55.59 28.4902C57 27.8202 58.25 26.9402 59.1 25.4202H59.09Z" fill="white"/>
<path d="M59.0499 47.8801C59.1099 47.9701 59.1599 48.0101 59.1699 48.0701C59.5599 49.9801 59.6299 51.8101 58.0599 53.3001C56.7899 54.5101 55.2499 55.2601 53.6099 55.8101C49.9599 57.0301 46.1999 57.3101 42.3799 57.0301C39.7499 56.8301 37.1699 56.3601 34.7599 55.2301C33.7599 54.7601 32.8099 54.1401 31.9299 53.4601C30.8699 52.6301 30.3199 51.4901 30.4099 50.1001C30.4599 49.3701 30.4999 48.6301 30.6299 47.8801C31.8399 49.7801 33.6399 50.7801 35.6199 51.4601C37.1299 51.9801 38.6899 52.3901 40.2699 52.6401C44.2499 53.2701 48.2199 53.1301 52.1299 52.1101C53.1399 51.8401 54.1499 51.5001 55.1099 51.0801C56.6999 50.3901 58.1399 49.4701 59.0499 47.8701V47.8801Z" fill="white"/>
<path d="M30.7201 40.53C31.9301 42.56 33.8301 43.52 35.8701 44.24C39.3401 45.48 42.9301 45.82 46.5901 45.63C49.0601 45.5 51.4901 45.12 53.8201 44.28C55.9001 43.53 57.8501 42.57 59.0701 40.54C59.1201 40.65 59.1701 40.72 59.1901 40.79C59.6201 43 59.5301 44.73 57.8101 46.21C56.6201 47.23 55.2501 47.91 53.7901 48.42C50.2801 49.63 46.6501 49.96 42.9601 49.74C40.1501 49.58 37.4001 49.07 34.8001 47.94C33.6801 47.45 32.6301 46.84 31.7501 45.98C30.8601 45.11 30.3601 44.09 30.4201 42.82C30.4601 42.07 30.3501 41.3 30.7201 40.53Z" fill="white"/>
</svg>
