<svg width="70" height="70" viewBox="0 0 70 70" fill="none" xmlns="http://www.w3.org/2000/svg">
<path d="M57.63 0H12.37C5.53824 0 0 5.53824 0 12.37V57.63C0 64.4618 5.53824 70 12.37 70H57.63C64.4618 70 70 64.4618 70 57.63V12.37C70 5.53824 64.4618 0 57.63 0Z" fill="#1D7ECE"/>
<path d="M12.8201 25.29V33.81C14.2201 34.28 28.74 39.34 34.61 41.39C34.73 41.43 34.86 41.45 35 41.45C35.14 41.45 35.27 41.42 35.39 41.39C41.26 39.34 55.7901 34.28 57.1801 33.81V25.29C57.1801 24.45 56.5001 23.77 55.6501 23.77C48.8301 23.77 21.1701 23.77 14.3401 23.77C13.5001 23.77 12.8101 24.45 12.8101 25.29H12.8201Z" fill="white"/>
<path d="M35.4801 44.2902C35.3101 44.3402 35.1601 44.3702 34.9901 44.3702C34.8201 44.3702 34.67 44.3402 34.5 44.2902C27.39 41.7902 12.9301 36.7202 12.8101 36.6602V52.5902C12.8101 53.4302 13.49 54.1102 14.33 54.1102C21.15 54.1102 48.82 54.1102 55.64 54.1102C56.48 54.1102 57.16 53.4302 57.16 52.5902V36.6602C57.03 36.7102 42.58 41.7802 35.47 44.2902H35.4801Z" fill="white"/>
<path d="M39.7502 13.8401H30.2602C28.0002 13.8401 26.1802 15.6701 26.1802 17.9201V20.4501H29.4602V19.1101C29.4602 18.0501 30.3102 17.1901 31.3802 17.1901H38.6402C39.7102 17.1901 40.5602 18.0501 40.5602 19.1101V20.4501H43.8402V17.9201C43.8402 15.6701 42.0202 13.8401 39.7602 13.8401H39.7502Z" fill="white"/>
</svg>
