<svg width="51" height="50" viewBox="0 0 51 50" fill="none" xmlns="http://www.w3.org/2000/svg">
<path d="M40.7734 36.11C43.0034 38.34 46.9934 42.28 49.1834 44.48C50.4734 45.78 50.4734 46.71 49.1634 48.02C48.7834 48.4 48.4034 48.8 48.0134 49.17C47.0134 50.12 45.9734 50.13 44.9934 49.16C42.9134 47.1 39.0534 43.28 36.9834 41.21C36.7734 41 36.5534 40.8 36.3034 40.57C30.5934 44.64 24.3234 46.01 17.5034 44.4C12.0634 43.12 7.71341 40.11 4.46341 35.57C-2.08659 26.42 -0.76659 13.87 7.53341 6.08998C15.5934 -1.48002 28.3934 -1.85002 36.9634 5.12998C45.8234 12.34 48.3034 25.79 40.7734 36.12V36.11ZM6.42341 22.58C6.40341 31.55 13.7834 38.94 22.7834 38.95C31.7434 38.95 39.1534 31.61 39.1734 22.69C39.1934 13.59 31.9034 6.21998 22.8534 6.18998C13.7934 6.16998 6.44341 13.49 6.42341 22.58Z" fill="#1D7ED1"/>
<path d="M32.0734 19.6899H13.5234V25.4799H32.0734V19.6899Z" fill="#1D7ED1"/>
<path d="M25.6934 31.8599V13.3099H19.9034V31.8599H25.6934Z" fill="#1D7ED1"/>
</svg>
