<svg width="75" height="58" viewBox="0 0 75 58" fill="none" xmlns="http://www.w3.org/2000/svg">
<path d="M70.0733 1.2981H4.81174C2.45647 1.2981 0.5 3.25456 0.5 5.60984V44.4203C0.5 46.7755 2.45647 48.732 4.81174 48.732H27.2977V53.3919H21.4448C20.9846 53.3919 20.5623 53.5474 20.2538 53.856C19.9453 54.1645 19.7897 54.5868 19.7897 55.0469C19.7897 55.5071 19.9453 55.9294 20.2538 56.2379C20.5623 56.5465 20.9846 56.702 21.4448 56.702H28.7217H28.8372H46.0478H46.1633H53.4403C53.9004 56.702 54.3228 56.5465 54.6313 56.2379C54.9398 55.9294 55.0954 55.5071 55.0954 55.0469C55.0954 54.5868 54.9398 54.1645 54.6313 53.856C54.3228 53.5474 53.9004 53.3919 53.4403 53.3919H47.5874V48.732H70.0733C72.4286 48.732 74.3851 46.7755 74.3851 44.4203V5.60984C74.3851 3.25456 72.4286 1.2981 70.0733 1.2981ZM4.81174 4.60824H70.0733C70.6058 4.60824 71.0749 5.07742 71.0749 5.60984V33.5246H3.81015V5.60984C3.81015 5.07743 4.27933 4.60824 4.81174 4.60824ZM44.3928 53.3919H30.4923V48.732H44.3928V53.3919ZM70.0733 45.3064H46.0478H28.8372H4.81174C4.27933 45.3064 3.81015 44.8372 3.81015 44.3048V36.7193H71.0749V44.3048C71.0749 44.9276 70.6316 45.3064 70.0733 45.3064Z" fill="white" stroke="white" stroke-linejoin="round"/>
<path d="M41.0914 25.2501L45.0516 21.3056L47.0001 19.3572L45.0516 17.4088L41.0914 13.4644L39.1429 15.4048L43.1032 19.3572L39.1429 23.3096L41.0914 25.2501Z" fill="white"/>
<path d="M32.9087 25.2501L28.9485 21.3056L27 19.3572L28.9485 17.4088L32.9087 13.4644L34.8572 15.4048L30.8969 19.3572L34.8572 23.3096L32.9087 25.2501Z" fill="white"/>
<path d="M37.3848 38.7603C36.3453 38.7603 35.6522 39.5688 35.6522 40.4929C35.6522 41.4169 36.4608 42.2255 37.3848 42.2255C38.4244 42.2255 39.1174 41.4169 39.1174 40.4929C39.1174 39.5688 38.4244 38.7603 37.3848 38.7603Z" fill="white"/>
</svg>
