<svg width="107" height="16" viewBox="0 0 107 16" fill="none" xmlns="http://www.w3.org/2000/svg">
<path fill-rule="evenodd" clip-rule="evenodd" d="M0.5 15.9922H28.5V-0.0078125H0.5V15.9922Z" fill="#BB1F33"/>
<path fill-rule="evenodd" clip-rule="evenodd" d="M0.5 15.9923H28.5V5.32886H0.5V15.9923Z" fill="white"/>
<path fill-rule="evenodd" clip-rule="evenodd" d="M0.5 15.9924H28.5V10.6558H0.5V15.9924Z" fill="#3D9348"/>
<path d="M41.8516 8.77539L43.8672 3.46094H46.041L43.1641 10.2285C43.0547 10.4785 42.9277 10.7168 42.7832 10.9434C42.6426 11.1699 42.4746 11.3711 42.2793 11.5469C42.0879 11.7227 41.8613 11.8613 41.5996 11.9629C41.3379 12.0645 41.0312 12.1152 40.6797 12.1152C40.5938 12.1152 40.4883 12.1133 40.3633 12.1094C40.2422 12.1094 40.1367 12.1074 40.0469 12.1035L40.0117 10.5098C40.0625 10.5215 40.1328 10.5293 40.2227 10.5332C40.3125 10.5332 40.377 10.5332 40.416 10.5332C40.6504 10.5332 40.8359 10.5059 40.9727 10.4512C41.1094 10.3926 41.2168 10.3066 41.2949 10.1934C41.377 10.0762 41.4473 9.92773 41.5059 9.74805L41.8516 8.77539ZM40.709 3.46094L42.4551 7.16406L43.123 9.53125H41.6465L38.5234 3.46094H40.709ZM52.4922 3.46094V5.04883H48.7832V11.9922H46.7324V3.46094H52.4922ZM60.2559 7.55664V7.90234C60.2559 8.55469 60.1641 9.14062 59.9805 9.66016C59.8008 10.1758 59.5449 10.6172 59.2129 10.9844C58.8809 11.3477 58.4883 11.627 58.0352 11.8223C57.582 12.0137 57.082 12.1094 56.5352 12.1094C55.9844 12.1094 55.4805 12.0137 55.0234 11.8223C54.5703 11.627 54.1758 11.3477 53.8398 10.9844C53.5078 10.6172 53.25 10.1758 53.0664 9.66016C52.8867 9.14062 52.7969 8.55469 52.7969 7.90234V7.55664C52.7969 6.9043 52.8867 6.31836 53.0664 5.79883C53.25 5.2793 53.5059 4.83789 53.834 4.47461C54.166 4.10742 54.5586 3.82812 55.0117 3.63672C55.4688 3.44141 55.9727 3.34375 56.5234 3.34375C57.0703 3.34375 57.5703 3.44141 58.0234 3.63672C58.4805 3.82812 58.875 4.10742 59.207 4.47461C59.5391 4.83789 59.7969 5.2793 59.9805 5.79883C60.1641 6.31836 60.2559 6.9043 60.2559 7.55664ZM58.1699 7.90234V7.54492C58.1699 7.12305 58.1328 6.75195 58.0586 6.43164C57.9883 6.10742 57.8828 5.83594 57.7422 5.61719C57.6016 5.39844 57.4277 5.23438 57.2207 5.125C57.0176 5.01172 56.7852 4.95508 56.5234 4.95508C56.25 4.95508 56.0117 5.01172 55.8086 5.125C55.6055 5.23438 55.4355 5.39844 55.2988 5.61719C55.1621 5.83594 55.0586 6.10742 54.9883 6.43164C54.9219 6.75195 54.8887 7.12305 54.8887 7.54492V7.90234C54.8887 8.32031 54.9219 8.69141 54.9883 9.01562C55.0586 9.33594 55.1621 9.60742 55.2988 9.83008C55.4395 10.0527 55.6113 10.2207 55.8145 10.334C56.0215 10.4473 56.2617 10.5039 56.5352 10.5039C56.7969 10.5039 57.0293 10.4473 57.2324 10.334C57.4355 10.2207 57.6055 10.0527 57.7422 9.83008C57.8828 9.60742 57.9883 9.33594 58.0586 9.01562C58.1328 8.69141 58.1699 8.32031 58.1699 7.90234ZM64.7266 9.09766H62.6055V7.50977H64.7266C65.0156 7.50977 65.25 7.46094 65.4297 7.36328C65.6094 7.26562 65.7402 7.13086 65.8223 6.95898C65.9082 6.7832 65.9512 6.58594 65.9512 6.36719C65.9512 6.13281 65.9082 5.91602 65.8223 5.7168C65.7402 5.51758 65.6094 5.35742 65.4297 5.23633C65.25 5.11133 65.0156 5.04883 64.7266 5.04883H63.3789V11.9922H61.3223V3.46094H64.7266C65.4102 3.46094 65.998 3.58594 66.4902 3.83594C66.9863 4.08594 67.3672 4.42969 67.6328 4.86719C67.8984 5.30078 68.0312 5.79688 68.0312 6.35547C68.0312 6.90625 67.8984 7.38672 67.6328 7.79688C67.3672 8.20703 66.9863 8.52734 66.4902 8.75781C65.998 8.98438 65.4102 9.09766 64.7266 9.09766ZM80.7344 10.4746L80.6172 14.043H78.7598V11.9863H78.1035V10.4746H80.7344ZM69.0918 3.46094H71.1543V10.4102H73.2754V3.46094H75.332V10.4102H77.4238V3.46094H79.4746V11.9922H69.0918V3.46094ZM83.6406 8.8457L86.7051 3.46094H88.7617V11.9922H86.7051V6.61328L83.6406 11.9922H81.584V3.46094H83.6406V8.8457ZM95.7695 6.84766V8.42969H91.3926V6.84766H95.7695ZM92.0781 3.46094V11.9922H90.0215V3.46094H92.0781ZM97.1523 3.46094V11.9922H95.1016V3.46094H97.1523ZM102.18 5.25391L100.1 11.9922H97.8906L101.025 3.46094H102.426L102.18 5.25391ZM103.902 11.9922L101.816 5.25391L101.547 3.46094H102.965L106.117 11.9922H103.902ZM103.82 8.81055V10.3984H99.4434V8.81055H103.82Z" fill="#4D4D4D"/>
</svg>
