<svg width="71" height="70" viewBox="0 0 71 70" fill="none" xmlns="http://www.w3.org/2000/svg">
<path d="M58.1297 0H12.8703C6.04532 0 0.500015 5.54531 0.500015 12.3703V57.6297C0.500015 64.4547 6.04532 70 12.8703 70H58.1297C64.9547 70 70.5 64.4547 70.5 57.6297V12.3703C70.5 5.54531 64.9547 0 58.1297 0ZM68.3015 57.6297C68.3015 63.2406 63.7406 67.8016 58.1297 67.8016H12.8703C7.25939 67.8016 2.6984 63.2406 2.6984 57.6297V12.3703C2.6984 6.75937 7.25939 2.19843 12.8703 2.19843H58.1297C63.7406 2.19843 68.3015 6.75937 68.3015 12.3703V57.6297Z" fill="#B3B3B3"/>
<path d="M57.714 25.7906C57.6156 24.7187 56.7624 23.9202 55.6906 23.8874C55.5265 23.8874 55.3625 23.8874 55.1875 23.8874C55.1109 23.8874 55.0343 23.8546 54.9359 23.8437C54.9359 23.6687 54.9359 23.5265 54.9359 23.3734C54.9359 22.1921 54.9359 21.0109 54.9359 19.8296C54.9359 19.1077 54.7171 18.4624 54.2796 17.8937C54.1484 17.7296 54.0171 17.5656 53.875 17.4124C53.3937 16.9093 52.8359 16.4937 52.2343 16.1437C50.9437 15.378 49.5656 14.8421 48.1437 14.4046C46.6453 13.9452 45.1031 13.6281 43.5609 13.3765C41.5375 13.0593 39.514 12.8734 37.4687 12.7968C35.7187 12.7312 33.9687 12.753 32.2187 12.8624C30.0094 13.0046 27.8219 13.2562 25.6562 13.7155C23.9937 14.0655 22.364 14.4921 20.789 15.1484C19.9578 15.4874 19.1375 15.8921 18.3828 16.3843C17.7703 16.789 17.2015 17.2593 16.7421 17.8499C16.425 18.2656 16.1843 18.714 16.0968 19.239C16.064 19.4577 16.0531 19.6765 16.0531 19.9062C16.0531 21.0984 16.0531 22.2905 16.0531 23.4937C16.0531 23.6249 16.0969 23.778 15.9547 23.9202C15.725 23.9202 15.4734 23.9093 15.2328 23.9202C14.4343 23.9749 13.8547 24.3687 13.4828 25.0796C13.3078 25.4077 13.264 25.7577 13.264 26.1296C13.264 27.4859 13.264 28.853 13.264 30.2093C13.264 31.1171 13.264 32.014 13.264 32.9218C13.264 34.0812 14.2046 35.0218 15.364 35.0109C15.5718 35.0109 15.7796 35.0109 16.0421 35.0109C16.0421 35.2296 16.0531 35.3937 16.0531 35.5577C16.0531 39.8671 16.0531 44.1656 16.0531 48.4749C16.0531 48.6499 16.0531 48.8359 16.0531 49.0218C16.0859 50.1593 16.8077 51.1437 17.8796 51.5156C18.164 51.614 18.4703 51.6577 18.7765 51.7343C18.8421 51.8437 18.8093 51.9859 18.8093 52.1171C18.8093 52.8937 18.8093 53.6702 18.8093 54.4468C18.8093 54.8952 18.9078 55.3327 19.1265 55.7265C19.6515 56.678 20.4719 57.1812 21.5547 57.2359C22.0687 57.2577 22.5828 57.2359 23.0968 57.2359C23.5453 57.2359 23.9828 57.2577 24.4312 57.2359C25.5906 57.1702 26.4218 56.6124 26.914 55.5624C27.0781 55.2015 27.1437 54.8187 27.1437 54.4249C27.1437 53.6155 27.1437 52.8171 27.1437 52.0077C27.1437 51.8984 27.1109 51.778 27.2421 51.6796H43.2984C43.3859 51.6796 43.4625 51.6796 43.55 51.6796C43.6265 51.6796 43.7031 51.7015 43.8015 51.7124C43.8015 51.8655 43.8124 52.0077 43.8124 52.139C43.8124 52.9155 43.8124 53.6921 43.8124 54.4687C43.8343 55.9671 44.9937 57.1702 46.5031 57.214C47.4875 57.2468 48.4718 57.2468 49.4562 57.214C50.4405 57.1812 51.2062 56.7109 51.7312 55.8796C52.0156 55.4312 52.1359 54.939 52.1359 54.414C52.1359 53.6046 52.1359 52.8062 52.1359 51.9968C52.1359 51.8874 52.1031 51.7671 52.2015 51.6796C52.2124 51.6796 52.2343 51.6687 52.2453 51.6687C52.4203 51.6687 52.6062 51.6687 52.7812 51.6468C53.8093 51.614 54.6078 50.9577 54.8265 49.9515C54.8812 49.6999 54.8921 49.4265 54.8921 49.164C54.8921 44.9968 54.8921 40.8296 54.8921 36.6624C54.8921 36.2031 54.8921 35.7437 54.8921 35.2843C54.8921 35.1859 54.914 35.0984 54.9249 34.978C55.1874 34.978 55.439 34.9781 55.6906 34.9671C56.489 34.9124 57.0797 34.5296 57.4515 33.8187C57.6375 33.4796 57.6812 33.1077 57.6812 32.7359C57.6812 30.5265 57.6812 28.3171 57.6812 26.1077C57.6812 25.9984 57.6812 25.889 57.6812 25.7796L57.714 25.7906ZM22.9765 47.4905C21.3687 47.4796 20.2093 46.1343 20.2312 44.6796C20.264 43.1593 21.489 41.9343 23.0093 41.9452C24.5406 41.9452 25.7765 43.1921 25.7656 44.7452C25.7656 46.2874 24.5078 47.5124 22.9656 47.5015L22.9765 47.4905ZM35.4562 37.7671C31.8577 37.7671 28.2593 37.7671 24.6718 37.7671C24.3656 37.7671 24.0593 37.7562 23.764 37.6906C22.6484 37.4499 21.6969 36.4437 21.6203 35.1312C21.6203 35.0327 21.6203 34.9343 21.6203 34.8359C21.6203 31.2374 21.6203 27.639 21.6203 24.0515C21.6203 23.6577 21.6531 23.2749 21.8062 22.914C22.2546 21.8421 23.0531 21.2406 24.2015 21.1202C24.3547 21.0984 24.5078 21.1093 24.6609 21.1093C31.8906 21.1093 39.1312 21.1093 46.3609 21.1093C46.7656 21.1093 47.1593 21.1421 47.5531 21.2734C48.4062 21.5687 49.3468 22.4656 49.4015 23.8109C49.4015 23.9093 49.4015 24.0077 49.4015 24.1062C49.4015 27.6609 49.4015 31.2155 49.4015 34.7702C49.4015 34.989 49.3906 35.2187 49.3578 35.4374C49.2265 36.4546 48.3624 37.6468 46.7984 37.7671C46.6234 37.778 46.4374 37.7671 46.2624 37.7671C42.664 37.7671 39.0656 37.7671 35.4781 37.7671H35.4562ZM47.9796 47.4905C46.4484 47.4905 45.2124 46.2327 45.2234 44.6905C45.2343 43.1702 46.4703 41.9452 47.9906 41.9452C49.5218 41.9452 50.7687 43.1921 50.7687 44.7343C50.7687 46.2655 49.5218 47.5124 47.9796 47.5015V47.4905Z" fill="#368DDF"/>
</svg>
