<svg width="18" height="19" viewBox="0 0 18 19" fill="none" xmlns="http://www.w3.org/2000/svg">
<g clip-path="url(#clip0_10102_1168)">
<path d="M13.7812 0.25H4.21875C1.8888 0.25 0 2.1388 0 4.46875V14.0312C0 16.3612 1.8888 18.25 4.21875 18.25H13.7812C16.1112 18.25 18 16.3612 18 14.0312V4.46875C18 2.1388 16.1112 0.25 13.7812 0.25Z" fill="url(#paint0_radial_10102_1168)"/>
<path d="M13.7812 0.25H4.21875C1.8888 0.25 0 2.1388 0 4.46875V14.0312C0 16.3612 1.8888 18.25 4.21875 18.25H13.7812C16.1112 18.25 18 16.3612 18 14.0312V4.46875C18 2.1388 16.1112 0.25 13.7812 0.25Z" fill="url(#paint1_radial_10102_1168)"/>
<path d="M9.00063 2.21875C7.09109 2.21875 6.85139 2.22712 6.10144 2.26122C5.35289 2.29553 4.84193 2.41401 4.39488 2.58789C3.93237 2.76747 3.54009 3.00773 3.1493 3.39866C2.75815 3.78953 2.51789 4.1818 2.33775 4.64411C2.16338 5.0913 2.04476 5.60247 2.01108 6.35066C1.97754 7.10069 1.96875 7.34045 1.96875 9.25007C1.96875 11.1597 1.97719 11.3986 2.01122 12.1486C2.04567 12.8971 2.16415 13.4081 2.33789 13.8551C2.51761 14.3176 2.75787 14.7099 3.1488 15.1007C3.53953 15.4919 3.9318 15.7327 4.39397 15.9122C4.84137 16.0861 5.3524 16.2046 6.1008 16.2389C6.85083 16.273 7.09031 16.2814 8.99979 16.2814C10.9095 16.2814 11.1485 16.273 11.8984 16.2389C12.647 16.2046 13.1585 16.0861 13.6059 15.9122C14.0682 15.7327 14.4599 15.4919 14.8506 15.1007C15.2417 14.7099 15.4819 14.3176 15.6621 13.8553C15.8349 13.4081 15.9536 12.897 15.9888 12.1487C16.0225 11.3987 16.0312 11.1597 16.0312 9.25007C16.0312 7.34045 16.0225 7.10083 15.9888 6.3508C15.9536 5.60226 15.8349 5.09137 15.6621 4.64432C15.4819 4.1818 15.2417 3.78953 14.8506 3.39866C14.4595 3.00759 14.0683 2.76733 13.6055 2.58796C13.1572 2.41401 12.646 2.29546 11.8974 2.26122C11.1474 2.22712 10.9086 2.21875 8.99845 2.21875H9.00063ZM8.36986 3.48585C8.5571 3.48557 8.766 3.48585 9.00063 3.48585C10.878 3.48585 11.1005 3.4926 11.8419 3.52628C12.5274 3.55764 12.8995 3.67218 13.1474 3.76844C13.4755 3.89584 13.7095 4.04821 13.9554 4.29438C14.2015 4.54047 14.3538 4.77482 14.4816 5.10297C14.5778 5.35047 14.6925 5.72256 14.7237 6.40811C14.7574 7.14934 14.7647 7.37195 14.7647 9.24845C14.7647 11.125 14.7574 11.3476 14.7237 12.0888C14.6924 12.7743 14.5778 13.1464 14.4816 13.394C14.3542 13.7222 14.2015 13.9558 13.9554 14.2018C13.7093 14.4479 13.4757 14.6001 13.1474 14.7276C12.8998 14.8243 12.5274 14.9386 11.8419 14.9699C11.1007 15.0036 10.878 15.0109 9.00063 15.0109C7.12315 15.0109 6.90061 15.0036 6.15945 14.9699C5.4739 14.9383 5.1018 14.8237 4.85374 14.7275C4.52566 14.6 4.29124 14.4477 4.04515 14.2016C3.79905 13.9555 3.64676 13.7217 3.519 13.3934C3.42274 13.1459 3.30806 12.7738 3.27684 12.0882C3.24316 11.347 3.23641 11.1244 3.23641 9.2467C3.23641 7.369 3.24316 7.14759 3.27684 6.40635C3.3082 5.7208 3.42274 5.34871 3.519 5.10086C3.64648 4.77271 3.79905 4.53836 4.04522 4.29227C4.29138 4.04617 4.52566 3.8938 4.85381 3.76612C5.10166 3.66944 5.4739 3.55518 6.15945 3.52368C6.80808 3.49436 7.05945 3.48557 8.36986 3.48409V3.48585ZM12.7539 4.65332C12.2881 4.65332 11.9102 5.0309 11.9102 5.49679C11.9102 5.96261 12.2881 6.34054 12.7539 6.34054C13.2197 6.34054 13.5977 5.96261 13.5977 5.49679C13.5977 5.03097 13.2197 4.65304 12.7539 4.65304V4.65332ZM9.00063 5.63917C7.00657 5.63917 5.3898 7.25594 5.3898 9.25007C5.3898 11.2442 7.00657 12.8602 9.00063 12.8602C10.9948 12.8602 12.611 11.2442 12.611 9.25007C12.611 7.25601 10.9946 5.63917 9.00049 5.63917H9.00063ZM9.00063 6.90627C10.295 6.90627 11.3444 7.95555 11.3444 9.25007C11.3444 10.5445 10.295 11.5939 9.00063 11.5939C7.70625 11.5939 6.65691 10.5445 6.65691 9.25007C6.65691 7.95555 7.70618 6.90627 9.00063 6.90627Z" fill="white"/>
</g>
<defs>
<radialGradient id="paint0_radial_10102_1168" cx="0" cy="0" r="1" gradientUnits="userSpaceOnUse" gradientTransform="translate(4.78125 19.6364) rotate(-90) scale(17.8393 16.592)">
<stop stop-color="#FFDD55"/>
<stop offset="0.1" stop-color="#FFDD55"/>
<stop offset="0.5" stop-color="#FF543E"/>
<stop offset="1" stop-color="#C837AB"/>
</radialGradient>
<radialGradient id="paint1_radial_10102_1168" cx="0" cy="0" r="1" gradientUnits="userSpaceOnUse" gradientTransform="translate(-3.01507 1.54663) rotate(78.681) scale(7.97428 32.8702)">
<stop stop-color="#3771C8"/>
<stop offset="0.128" stop-color="#3771C8"/>
<stop offset="1" stop-color="#6600FF" stop-opacity="0"/>
</radialGradient>
<clipPath id="clip0_10102_1168">
<rect width="18" height="18" fill="white" transform="translate(0 0.25)"/>
</clipPath>
</defs>
</svg>
