<svg width="96" height="16" viewBox="0 0 96 16" fill="none" xmlns="http://www.w3.org/2000/svg">
<path fill-rule="evenodd" clip-rule="evenodd" d="M0.5 15.9922H28.5V-0.0078125H0.5V15.9922Z" fill="#273A8F"/>
<path fill-rule="evenodd" clip-rule="evenodd" d="M6.84814 15.9922H10.4785V-0.0078125H6.84814V15.9922Z" fill="white"/>
<path fill-rule="evenodd" clip-rule="evenodd" d="M0.5 9.77479H28.5V6.21924H0.5V9.77479Z" fill="white"/>
<path fill-rule="evenodd" clip-rule="evenodd" d="M7.76074 15.9922H9.57528V-0.0078125H7.76074V15.9922Z" fill="#C52034"/>
<path fill-rule="evenodd" clip-rule="evenodd" d="M0.5 8.88081H28.5V7.10303H0.5V8.88081Z" fill="#C52034"/>
<path d="M41.3359 3.46094V11.9922H39.2852V3.46094H41.3359ZM47.6348 9.10352H49.6855C49.6582 9.69727 49.498 10.2207 49.2051 10.6738C48.9121 11.127 48.5059 11.4805 47.9863 11.7344C47.4707 11.9844 46.8613 12.1094 46.1582 12.1094C45.5879 12.1094 45.0781 12.0137 44.6289 11.8223C44.1836 11.6309 43.8047 11.3555 43.4922 10.9961C43.1836 10.6367 42.9473 10.2012 42.7832 9.68945C42.623 9.17773 42.543 8.60156 42.543 7.96094V7.49805C42.543 6.85742 42.627 6.28125 42.7949 5.76953C42.9668 5.25391 43.209 4.81641 43.5215 4.45703C43.8379 4.09375 44.2168 3.81641 44.6582 3.625C45.0996 3.43359 45.5898 3.33789 46.1289 3.33789C46.8711 3.33789 47.498 3.4707 48.0098 3.73633C48.5215 4.00195 48.918 4.36719 49.1992 4.83203C49.4805 5.29297 49.6465 5.81836 49.6973 6.4082H47.6465C47.6387 6.08789 47.584 5.82031 47.4824 5.60547C47.3809 5.38672 47.2207 5.22266 47.002 5.11328C46.7832 5.00391 46.4922 4.94922 46.1289 4.94922C45.875 4.94922 45.6543 4.99609 45.4668 5.08984C45.2793 5.18359 45.123 5.33203 44.998 5.53516C44.873 5.73828 44.7793 6.00195 44.7168 6.32617C44.6582 6.64648 44.6289 7.0332 44.6289 7.48633V7.96094C44.6289 8.41406 44.6562 8.80078 44.7109 9.12109C44.7656 9.44141 44.8535 9.70312 44.9746 9.90625C45.0957 10.1094 45.252 10.2598 45.4434 10.3574C45.6387 10.4512 45.877 10.498 46.1582 10.498C46.4707 10.498 46.7344 10.4492 46.9492 10.3516C47.1641 10.25 47.3301 10.0977 47.4473 9.89453C47.5645 9.6875 47.627 9.42383 47.6348 9.10352ZM56.4473 3.46094V5.04883H52.041V3.46094H56.4473ZM57.8359 3.46094V11.9922H55.7793V3.46094H57.8359ZM51.9004 3.46094H53.9453L53.7227 7.79688C53.6875 8.45312 53.6211 9.01953 53.5234 9.49609C53.4258 9.96875 53.2949 10.3672 53.1309 10.6914C52.9668 11.0117 52.7695 11.2676 52.5391 11.459C52.3086 11.6504 52.041 11.7871 51.7363 11.8691C51.4355 11.9512 51.0977 11.9922 50.7227 11.9922H50.2246V10.4102L50.4473 10.3867C50.627 10.3672 50.7852 10.3184 50.9219 10.2402C51.0586 10.1582 51.1758 10.0371 51.2734 9.87695C51.375 9.7168 51.459 9.51172 51.5254 9.26172C51.5918 9.01172 51.6445 8.70898 51.6836 8.35352C51.7266 7.99414 51.7559 7.57422 51.7715 7.09375L51.9004 3.46094ZM62.8398 5.25391L60.7598 11.9922H58.5508L61.6855 3.46094H63.0859L62.8398 5.25391ZM64.5625 11.9922L62.4766 5.25391L62.207 3.46094H63.625L66.7773 11.9922H64.5625ZM64.4805 8.81055V10.3984H60.1035V8.81055H64.4805ZM73.1523 6.84766V8.42969H68.7754V6.84766H73.1523ZM69.4609 3.46094V11.9922H67.4043V3.46094H69.4609ZM74.5352 3.46094V11.9922H72.4844V3.46094H74.5352ZM82.7676 10.4102V11.9922H76.7734V10.4102H82.7676ZM77.4531 10.4102V14.084H75.5488L75.4082 10.4102H77.4531ZM84.168 10.4102L83.9512 14.0898H82.1055V10.4102H84.168ZM81.8711 3.46094V5.04883H77.5879V3.46094H81.8711ZM83.2539 3.46094V11.9922H81.209V3.46094H83.2539ZM77.4531 3.46094H79.5039L79.252 6.95898C79.209 7.55664 79.1406 8.07617 79.0469 8.51758C78.9531 8.95898 78.8418 9.33984 78.7129 9.66016C78.584 9.98047 78.4434 10.2559 78.291 10.4863C78.1387 10.7168 77.9785 10.918 77.8105 11.0898C77.6465 11.2617 77.4824 11.418 77.3184 11.5586C77.1543 11.6992 76.9961 11.8438 76.8438 11.9922H75.5957V10.4102H76.0059C76.127 10.3242 76.248 10.209 76.3691 10.0645C76.4941 9.91602 76.6113 9.71484 76.7207 9.46094C76.8301 9.20703 76.9258 8.87695 77.0078 8.4707C77.0898 8.06445 77.1523 7.56055 77.1953 6.95898L77.4531 3.46094ZM87.0625 3.46094V11.9922H85.0117V3.46094H87.0625ZM92.9512 8.99805H90.6719L90.0625 8.74609C89.3672 8.52734 88.8379 8.20312 88.4746 7.77344C88.1113 7.33984 87.9297 6.78711 87.9297 6.11523C87.9297 5.5293 88.0605 5.04102 88.3223 4.65039C88.584 4.25586 88.9551 3.95898 89.4355 3.75977C89.916 3.56055 90.4863 3.46094 91.1465 3.46094H94.2402V11.9922H92.1777V5.04883H91.1465C90.7363 5.04883 90.4395 5.15625 90.2559 5.37109C90.0723 5.58203 89.9805 5.89062 89.9805 6.29688C89.9805 6.60938 90.0234 6.85547 90.1094 7.03516C90.1992 7.21484 90.3301 7.34375 90.502 7.42188C90.6738 7.49609 90.8887 7.5332 91.1465 7.5332H92.9395L92.9512 8.99805ZM91.3691 8.23047L89.5586 11.9922H87.3203L89.1074 8.23047H91.3691Z" fill="#4D4D4D"/>
</svg>
