<svg width="77" height="16" viewBox="0 0 77 16" fill="none" xmlns="http://www.w3.org/2000/svg">
<path fill-rule="evenodd" clip-rule="evenodd" d="M0.5 15.9919H9.83668V-0.00805664H0.5V15.9919Z" fill="#3D9348"/>
<path fill-rule="evenodd" clip-rule="evenodd" d="M9.83667 15.9919H19.1633V-0.00805664H9.83667V15.9919Z" fill="#F4F4F4"/>
<path fill-rule="evenodd" clip-rule="evenodd" d="M19.1633 15.9919H28.5V-0.00805664H19.1633V15.9919Z" fill="#D61E34"/>
<path d="M41.3359 3.46069V11.9919H39.2852V3.46069H41.3359ZM46.7383 3.46069V11.9919H44.6816V3.46069H46.7383ZM49.3047 3.46069V5.04858H42.1738V3.46069H49.3047ZM53.0781 5.25366L50.998 11.9919H48.7891L51.9238 3.46069H53.3242L53.0781 5.25366ZM54.8008 11.9919L52.7148 5.25366L52.4453 3.46069H53.8633L57.0156 11.9919H54.8008ZM54.7188 8.8103V10.3982H50.3418V8.8103H54.7188ZM63.5371 3.46069V5.04858H59.1309V3.46069H63.5371ZM64.9258 3.46069V11.9919H62.8691V3.46069H64.9258ZM58.9902 3.46069H61.0352L60.8125 7.79663C60.7773 8.45288 60.7109 9.01929 60.6133 9.49585C60.5156 9.96851 60.3848 10.3669 60.2207 10.6912C60.0566 11.0115 59.8594 11.2673 59.6289 11.4587C59.3984 11.6501 59.1309 11.7869 58.8262 11.8689C58.5254 11.9509 58.1875 11.9919 57.8125 11.9919H57.3145V10.4099L57.5371 10.3865C57.7168 10.3669 57.875 10.3181 58.0117 10.24C58.1484 10.158 58.2656 10.0369 58.3633 9.87671C58.4648 9.71655 58.5488 9.51147 58.6152 9.26147C58.6816 9.01147 58.7344 8.70874 58.7734 8.35327C58.8164 7.9939 58.8457 7.57397 58.8613 7.09351L58.9902 3.46069ZM68.3945 3.46069V11.9919H66.3438V3.46069H68.3945ZM74.2832 8.9978H72.0039L71.3945 8.74585C70.6992 8.5271 70.1699 8.20288 69.8066 7.77319C69.4434 7.3396 69.2617 6.78687 69.2617 6.11499C69.2617 5.52905 69.3926 5.04077 69.6543 4.65015C69.916 4.25562 70.2871 3.95874 70.7676 3.75952C71.248 3.5603 71.8184 3.46069 72.4785 3.46069H75.5723V11.9919H73.5098V5.04858H72.4785C72.0684 5.04858 71.7715 5.15601 71.5879 5.37085C71.4043 5.58179 71.3125 5.89038 71.3125 6.29663C71.3125 6.60913 71.3555 6.85522 71.4414 7.03491C71.5312 7.2146 71.6621 7.34351 71.834 7.42163C72.0059 7.49585 72.2207 7.53296 72.4785 7.53296H74.2715L74.2832 8.9978ZM72.7012 8.23022L70.8906 11.9919H68.6523L70.4395 8.23022H72.7012Z" fill="#4D4D4D"/>
</svg>
