<svg width="71" height="37" viewBox="0 0 71 37" fill="none" xmlns="http://www.w3.org/2000/svg">
<path d="M47.54 15.25C48.59 16.34 50.24 16.42 50.24 16.42L51.8101 16.53C52.9701 16.61 53.21 17.17 53.21 17.17C54.21 18.93 56.72 19.88 56.72 19.88C55.12 18.96 53.97 16.93 53.97 16.93C53.21 15.81 51.38 15.81 51.38 15.81H50.3C48.9 15.81 47.55 15.25 47.55 15.25H47.54Z" fill="#CCCCCC"/>
<path d="M59.08 20.54C58.27 20.17 57.24 20.09 57.24 20.09C58.22 20.44 58.5699 20.73 58.5699 20.73C59.3099 21.18 58.8101 21.98 58.8101 21.98C58.1801 23.09 55.71 22.54 55.71 22.54C58.34 24.29 59.45 22.98 59.45 22.98C60.13 22.17 59.97 21.77 59.78 21.26C59.78 21.26 62.17 22.03 64.65 19.75C64.65 19.75 61.99 21.88 59.1 20.55L59.08 20.54Z" fill="#CCCCCC"/>
<path d="M13.96 1.82031C13.96 1.82031 12.4 2.01031 11.66 1.99031C11.66 1.99031 11.5 2.02031 11.5 2.12031C11.5 2.12031 11.55 2.31031 11.89 2.31031C11.89 2.31031 13.27 2.27031 13.96 1.82031Z" fill="#CCCCCC"/>
<path d="M30.1801 13.21C30.1801 13.21 32.28 13.39 35.74 13.23C36.59 13.19 37.02 13.32 37.02 13.32C38.57 13.55 38.8101 14.28 38.8101 14.28C38.8101 14.28 41.56 19.94 46.98 19.8H49.54C51.85 19.81 54.9399 22.09 54.9399 22.09C54.2999 21.61 53 20.36 53 20.36C51.35 18.9 48.6899 18.89 48.6899 18.89L46 18.87C40.87 18.82 39.53 14.2 39.53 14.2C38.86 12.76 37.34 12.84 37.34 12.84C37.22 12.84 37.11 12.84 36.99 12.84C31.94 13.09 30.29 12.69 30.29 12.69C29.27 12.4 28.09 11.98 26.96 11.36C26.96 11.36 27.2 10.22 26.72 9.26004C26.72 9.26004 28.58 10 30.28 9.61004C30.28 9.61004 27.54 8.92004 25.6 7.54004C25.6 7.54004 26.53 10.23 25.76 11.24C25.76 11.24 25.26 13.1 20.63 11.59C20.63 11.59 18.72 10.85 17.23 10.85C17.23 10.85 16.03 10.9 16.03 11.51C16.03 11.51 16.0299 11.8 16.3199 11.94C16.3199 11.94 16.67 12.18 16.45 12.71C16.45 12.71 16.93 12.36 16.8 11.86C16.8 11.86 16.75 11.59 16.99 11.54C16.99 11.54 17.6299 11.27 19.4399 11.94C19.4399 11.94 22.36 13.27 24.04 13.27C24.04 13.27 25.85 13.16 26.51 12.37C26.51 12.37 28.0399 12.99 30.1899 13.24L30.1801 13.21Z" fill="#CCCCCC"/>
<path d="M9.30003 8.55019C9.90003 8.57019 10.4 8.0002 10.4 8.0002C11.69 6.6102 13.51 6.5002 13.51 6.5002C15.85 6.3402 18.6999 8.6102 18.6999 8.6102C16.6899 5.9302 14.56 5.7502 14.56 5.7502C14.03 5.6602 13.8199 5.1102 13.8199 5.1102C13.1399 3.8602 12.37 3.8002 12.37 3.8002C12.75 4.3202 12.7099 5.0302 12.7099 5.0302C12.7099 6.3402 10.76 6.5302 10.76 6.5302C9.97999 8.0702 9.32994 7.9802 9.32994 7.9802C8.97994 7.9802 8.89 7.7802 8.89 7.7802C8.81 7.6602 8.93992 7.5502 8.93992 7.5502C9.14992 7.4202 9.34996 7.2402 9.34996 7.2402C10.68 6.2202 10.6899 5.0602 10.6899 5.0602C10.5199 3.7202 9.39 3.69019 9.39 3.69019C8.87 3.69019 8.65001 4.0102 8.65001 4.0102C8.45001 4.2502 7.93004 5.1802 7.93004 5.1802C7.54004 5.8202 7.19993 5.7202 7.19993 5.7202C6.76993 5.7502 6.45994 5.3502 6.45994 5.3502C6.43994 5.3302 6.43003 5.3202 6.42003 5.3002C6.26003 5.1002 6.37999 4.8702 6.37999 4.8702C6.88999 4.0602 7.94993 3.86019 7.94993 3.86019C7.98993 3.85019 8.02004 3.8402 8.06004 3.8302C8.06004 3.8302 8.14999 3.8102 8.25999 3.7702C9.63999 3.2802 9.74998 2.5602 9.74998 2.5602C9.28998 2.2902 8.84996 2.3102 8.84996 2.3102C8.00996 2.3602 7.72996 3.19019 7.72996 3.19019L7.53001 2.98019C7.53001 2.98019 7.43994 2.87019 7.57994 2.7402C7.57994 2.7402 8.20999 1.9702 10.51 1.6202C10.51 1.6202 12.3999 1.30019 14.8399 1.61019C14.8399 1.61019 13.32 3.1902 11.5 2.53019C11.5 2.53019 11.4699 3.1102 13.0699 3.4102C13.0699 3.4102 14.74 3.5802 16.86 5.6002C16.86 5.6002 16.3 4.3802 14.49 2.9902C14.49 2.9902 14.34 2.9002 14.48 2.7602C14.48 2.7602 15.26 1.8602 16.31 1.8702C16.31 1.8702 21.75 2.1502 24.8 5.3402C24.8 5.3402 24.69 4.81019 24.23 4.0402C24.23 4.0402 24.1399 3.9502 24.1899 3.8802C24.1899 3.8802 24.23 3.7502 24.76 3.8502C24.76 3.8502 26.6999 4.1702 31.2099 5.8202L36.0899 7.5602C36.0899 7.5602 37.79 8.1802 38.74 8.6102C38.74 8.6102 36.8399 8.54019 35.8299 9.06019C35.8299 9.06019 35.79 9.0902 35.81 9.1202C35.81 9.1202 35.82 9.1502 35.9 9.14019C35.9 9.14019 37.5 8.70019 39.05 9.38019C39.05 9.38019 40.63 10.0202 41.88 11.0202C41.88 11.0202 42.73 11.7602 43.27 12.3602C43.27 12.3602 44.53 13.5402 45.98 14.3702C45.98 14.3702 44.7999 13.2502 43.8299 12.2202C43.8299 12.2202 42.43 10.5502 41.8 9.9902C41.8 9.9902 46.6099 12.2502 50.9499 14.7002C51.7299 15.1402 54.24 16.5902 54.24 16.5902C56.68 18.1002 59.06 19.0702 59.06 19.0702C61.24 20.0502 63.05 19.0202 63.05 19.0202L63.14 18.9802C64.31 18.3702 64.5799 18.5602 64.5799 18.5602C65.1599 18.7802 64.99 19.3802 64.99 19.3802C65.49 18.8602 65.4499 18.5802 65.4499 18.5802C65.4299 17.6902 64.4599 17.7602 64.4599 17.7602C64.2099 17.7902 63.3699 18.2502 62.8399 18.5602L62.68 18.6602C61.27 19.3902 59.3 18.7102 59.3 18.7102C56.69 17.6702 54.42 16.2602 54.42 16.2602C54.42 16.2602 49.95 13.6102 46.11 11.6702C46.11 11.6702 41.31 9.1802 34.86 6.3902C34.86 6.3902 22.58 0.710195 13.53 0.710195C13.53 0.710195 8.83998 0.650195 7.24998 2.4502C7.24998 2.4502 7.06997 2.7302 7.10997 2.9702C7.10997 2.9702 7.12993 3.0502 7.06993 3.1002C7.06993 3.1002 6.37003 3.5602 5.80003 4.2202C5.80003 4.2202 5.45997 4.5502 5.73997 5.0002C5.73997 5.0002 5.93998 5.3202 6.11998 5.5602C6.19998 5.6702 6.67999 6.2602 7.37999 6.2102C7.37999 6.2102 7.58004 6.2102 7.68004 6.2602C7.68004 6.2602 7.85994 6.4202 8.07994 6.5002H8.41002C8.41002 6.5002 8.47997 6.5002 8.48997 6.4302C8.48997 6.4302 8.47004 6.2502 8.43004 6.1302C8.43004 6.1302 8.23993 5.8802 8.31993 5.5802C8.31993 5.5802 8.39994 5.0802 8.70994 4.7202C8.70994 4.7202 9.04993 4.40019 9.44993 4.69019C9.44993 4.69019 10.2099 5.3502 9.81993 6.1402C9.81993 6.1402 9.50001 6.7402 9.15001 6.7402C9.15001 6.7402 8.98003 6.7902 8.80003 6.6202L8.56993 6.5902C8.56993 6.5902 8.49998 6.5902 8.49998 6.6502V6.8202C8.49998 6.8202 8.51004 6.9202 8.56004 6.9702C8.56004 6.9702 8.65003 7.0802 8.55003 7.2202C8.55003 7.2202 8.32992 7.4202 8.43992 7.7102C8.43992 7.7102 8.63993 8.55019 9.31993 8.55019H9.30003ZM9.04002 2.78019C9.04002 2.78019 8.70997 3.30019 8.10997 3.23019C8.10997 3.23019 8.26002 2.59019 9.04002 2.78019ZM7.25999 3.3802C7.48999 3.2902 7.52 3.4202 7.52 3.4202C7.52 3.5302 7.40001 3.57019 7.40001 3.57019C6.77001 3.95019 6.24998 4.5402 6.24998 4.5402C6.15998 4.6402 6.09996 4.5902 6.09996 4.5902C5.98996 4.4902 6.09996 4.36019 6.09996 4.36019C6.58996 3.82019 7.25999 3.3802 7.25999 3.3802Z" fill="#CCCCCC"/>
<path d="M19.5602 5.94043C18.2802 7.75043 19.2902 9.02043 19.2902 9.02043C15.8602 8.91043 14.8802 9.87043 14.8802 9.87043C13.2102 11.1704 13.8201 12.6904 13.8201 12.6904C14.7801 14.2104 15.8902 13.1404 15.8902 13.1404C14.2902 13.4604 14.3201 12.0504 14.3201 12.0504C14.6701 9.60043 17.8601 9.71043 17.8601 9.71043C20.6001 9.71043 24.8501 10.4804 24.8501 10.4804C21.6301 9.74043 20.6502 8.94043 20.6502 8.94043C19.2902 8.12043 19.5602 5.94043 19.5602 5.94043Z" fill="#CCCCCC"/>
<path d="M44.8899 32.1699C44.9999 31.7199 45.0499 31.2299 45.0499 30.3499V25.6699H44.0199V30.6999C44.0199 31.3099 43.9699 31.6999 43.8999 32.0199C43.6099 33.4099 42.5598 33.9299 40.9698 33.9299C40.2198 33.9299 39.3298 33.7599 38.8198 33.1599C38.3698 32.6499 38.2699 31.9599 38.2699 30.7999V25.6699H36.5898V30.8899C36.5898 31.9599 36.6998 32.9499 37.4398 33.6799C38.1198 34.3599 39.4398 34.6599 40.9398 34.6599C43.1498 34.6599 44.4699 33.9199 44.8999 32.1699H44.8899Z" fill="#CCCCCC"/>
<path d="M56.6399 34.4599H58.6399L54.3499 25.6699H53.3099L48.9199 34.4599H49.9899L51.1799 31.9899H55.5399L56.6499 34.4599H56.6399ZM53.3999 27.3299L55.2499 31.3899H51.4498L53.3999 27.3299Z" fill="#CCCCCC"/>
<path d="M16.5999 34.4599H18.5999L14.3099 25.6699H13.2699L8.87988 34.4599H9.94983L11.1399 31.9899H15.4999L16.6099 34.4599H16.5999ZM13.3599 27.3299L15.2098 31.3899H11.4099L13.3499 27.3299H13.3599Z" fill="#CCCCCC"/>
<path d="M27.7599 34.6598C28.8399 34.6598 30.2399 34.4498 31.2299 34.0098V30.4298H29.5499V33.6398C29.0099 33.8498 28.2199 33.9498 27.6499 33.9498C25.4099 33.9498 23.9598 32.4198 23.9598 30.1798C23.9598 27.7098 25.6099 26.2098 27.9999 26.2098C29.0499 26.2098 30.1198 26.6298 30.9398 27.2398V26.1898C30.0398 25.7298 28.8799 25.5098 27.8799 25.5098C26.2299 25.5098 24.4798 26.0098 23.3198 27.2598C22.5798 28.0698 22.0999 29.1898 22.0999 30.2898C22.0999 33.6698 24.8599 34.6698 27.7599 34.6698V34.6598Z" fill="#CCCCCC"/>
<path d="M68.6898 34.4602H70.6299L68.0499 30.8902C68.9599 30.5702 69.9899 29.7402 69.9899 28.3802C69.9899 27.6402 69.7899 27.0602 69.4099 26.6402C68.6899 25.8502 67.3999 25.6602 66.1099 25.6602H62.9299V34.4502H64.6099V31.0702H66.3699L68.6998 34.4502L68.6898 34.4602ZM65.8298 26.2802C67.1798 26.2802 68.2599 26.8402 68.2599 28.3302C68.2599 29.0702 67.9899 29.6202 67.5499 29.9802C67.1299 30.3202 66.5799 30.4902 65.6799 30.4902H64.5999V26.2802H65.8398H65.8298Z" fill="#CCCCCC"/>
<path d="M1.77991 36.2699C3.30991 35.5199 3.92993 33.9499 3.92993 32.3299V25.6699H2.24988V31.1999C2.24988 31.9799 2.2499 32.7599 2.1499 33.5299C1.9799 34.9299 1.49984 35.7799 0.339844 36.6099C0.839844 36.6099 1.3299 36.4699 1.7699 36.2599L1.77991 36.2699Z" fill="#CCCCCC"/>
</svg>
