<svg width="56" height="28" viewBox="0 0 56 28" fill="none" xmlns="http://www.w3.org/2000/svg">
<path d="M26.66 27.5395C24.84 27.4895 22.8401 27.3295 21.0601 27.0895C13.5001 26.0695 7.17002 23.4795 3.65002 19.9595C2.16002 18.4695 1.21001 16.8295 0.890015 15.1795C0.790015 14.6395 0.76001 14.3795 0.76001 13.7995C0.76001 13.2195 0.780015 12.9595 0.890015 12.4195C1.10001 11.3395 1.59996 10.2195 2.32996 9.18946C3.98996 6.84946 6.91 4.76946 10.75 3.18946C17.14 0.559457 25.5 -0.490543 33.64 0.329457C43.2 1.28946 51.0601 4.77946 54.1801 9.43946C55.6101 11.5695 55.9599 13.8795 55.1899 16.1395C54.7499 17.4495 53.8899 18.7495 52.6899 19.9495C49.3499 23.2795 43.47 25.7995 36.42 26.9095C33.26 27.4095 30.01 27.6095 26.66 27.5195V27.5395ZM30.83 25.7795C34.66 25.5395 37.89 24.9795 41.03 23.9995C43.53 23.2195 45.86 22.1495 47.64 20.9495C48.54 20.3495 49.17 19.8295 49.87 19.1295C50.71 18.2895 51.2499 17.5495 51.6899 16.6495C52.1799 15.6395 52.37 14.8495 52.37 13.8095C52.37 12.7695 52.17 11.9295 51.67 10.9295C51.24 10.0595 50.69 9.30946 49.87 8.48946C48.67 7.27946 47.24 6.28946 45.35 5.33946C41.81 3.56946 37.38 2.40946 32.45 1.95946C29.72 1.70946 26.61 1.70946 23.87 1.95946C16.94 2.57946 10.98 4.63946 7.30005 7.68946C6.83005 8.07946 6.00002 8.91946 5.65002 9.34946C4.40002 10.9095 3.80995 12.5995 3.94995 14.2295C4.09995 15.9995 4.88995 17.5595 6.44995 19.1195C7.62995 20.2995 9.02998 21.2795 10.85 22.1995C15 24.2995 20.09 25.4995 26.08 25.7895C26.76 25.8195 30.1599 25.7995 30.8199 25.7595L30.83 25.7795ZM11.39 20.7595C11.39 20.7595 11.3 20.7095 11.27 20.6695C11.21 20.5995 11.21 20.5595 11.2 14.2095V7.80946L11.11 7.72946C11.04 7.64946 11.01 7.64946 10.73 7.63946H10.4301V6.81946H12.6L14.77 6.79946L14.86 6.87946L14.95 6.95946V9.26946C14.95 11.7995 14.95 11.7095 15.13 11.7095C15.24 11.7095 15.28 11.6595 15.91 10.7695C17.58 8.39946 18.5 7.10946 18.58 7.01946C18.78 6.79946 18.69 6.80946 20.8 6.80946H22.6899L22.76 6.87946C22.85 6.96946 22.88 7.08946 22.84 7.17946C22.81 7.22946 22 8.44946 19.14 12.6795C18.83 13.1395 18.74 13.2895 18.74 13.3695C18.74 13.4495 18.9401 13.7495 19.8101 14.9795C23.6401 20.3795 23.65 20.3995 23.66 20.5095C23.66 20.5895 23.66 20.6395 23.6 20.6995L23.53 20.7895H21.55C19.6 20.8095 19.5701 20.8095 19.4301 20.7395C19.3501 20.7095 19.25 20.6395 19.21 20.5995C19.17 20.5595 18.27 19.2995 17.21 17.8195C16.15 16.3295 15.26 15.0995 15.24 15.0795C15.17 15.0195 15.03 15.0495 14.99 15.1295C14.96 15.1895 14.95 15.7995 14.95 17.9095V20.6195L14.88 20.6995L14.8101 20.7795H13.13C12.2 20.7795 11.42 20.7795 11.39 20.7695V20.7595ZM26.39 20.7495C26.39 20.7495 26.28 20.6695 26.26 20.6295C26.23 20.5695 26.22 19.1495 26.22 14.1795V7.80946L26.13 7.71946C26.05 7.63946 26.03 7.62946 25.76 7.62946H25.47V6.78946H29.89L29.99 6.87946L30.09 6.96946V20.5995L30.01 20.6795L29.9301 20.7595H28.21C26.83 20.7695 26.47 20.7595 26.39 20.7295V20.7495ZM32.8101 20.7495C32.7201 20.6995 32.6801 20.6295 32.6801 20.5295C32.6801 20.4795 33.1 19.1695 33.62 17.6195C34.14 16.0695 34.9599 13.6095 35.45 12.1395C35.94 10.6795 36.46 9.13946 36.6 8.71946C36.74 8.29946 36.86 7.91946 36.86 7.87946C36.86 7.83946 36.83 7.76946 36.8 7.72946C36.75 7.66946 36.7099 7.65946 36.45 7.63946H36.16V7.20946V6.79946H38.8C40.5401 6.79946 41.4901 6.80946 41.5601 6.82946C41.6201 6.84946 41.69 6.88946 41.7 6.91946C41.74 6.98946 42.0299 7.86946 43.4399 12.0495C45.7199 18.8595 46.24 20.4295 46.24 20.4995C46.24 20.6095 46.18 20.7095 46.1 20.7495C46.05 20.7695 45.52 20.7795 44.36 20.7795C42.83 20.7795 42.69 20.7795 42.59 20.7295C42.53 20.6995 42.4601 20.6395 42.4301 20.5995C42.4001 20.5595 42.17 19.8795 41.91 19.0895C39.5 11.5695 39.56 11.7795 39.51 11.7195C39.45 11.6495 39.4 11.6495 39.34 11.7195C39.29 11.7695 39.2 12.0595 37.89 16.1895C37.51 17.3895 37.1 18.6795 36.98 19.0595C36.86 19.4395 36.7 19.9295 36.64 20.1395C36.51 20.5695 36.45 20.6695 36.29 20.7295C36.16 20.7795 32.89 20.7895 32.8 20.7295L32.8101 20.7495Z" fill="#CCCCCC"/>
</svg>
