<svg width="56" height="30" viewBox="0 0 56 30" fill="none" xmlns="http://www.w3.org/2000/svg">
<path d="M32.24 15.5902L29.85 20.2802H29.8L29.68 15.5902H27.68L27.6 15.7602L27.77 15.8602C27.94 15.9802 27.98 16.0902 28 16.4202L28.27 22.1102H30.5L34.09 15.5802H32.23L32.24 15.5902ZM25.13 18.9702C24.91 19.6102 24.73 20.0202 24.47 20.3002C24.27 20.5102 24 20.6702 23.38 20.6702C22.89 20.6702 22.62 20.4702 22.62 20.1002C22.62 19.8602 22.68 19.4902 22.94 18.7702C23.16 18.1302 23.34 17.7202 23.6 17.4402C23.8 17.2302 24.07 17.0702 24.69 17.0702C25.18 17.0702 25.45 17.2702 25.44 17.6402C25.44 17.8902 25.38 18.2502 25.12 18.9702M25.02 15.5102H24.81C23.58 15.5102 22.88 15.8402 22.3 16.4502C21.58 17.2102 20.91 19.2602 20.92 20.3402C20.93 21.4502 21.65 22.2102 23.15 22.2102H23.37C24.6 22.2102 25.31 21.8802 25.88 21.2702C26.6 20.5102 27.26 18.4602 27.24 17.3802C27.23 16.2702 26.51 15.5102 25.01 15.5102M18.97 17.9602C18.86 18.2402 18.73 18.3102 18.57 18.3702C18.46 18.4102 18.23 18.4302 18.01 18.4302H17.15L17.62 17.0802H18.66C18.97 17.0802 19.1 17.2402 19.1 17.4302C19.1 17.5502 19.05 17.7602 18.97 17.9602ZM18.82 15.5902H16L15.94 15.7602L16.05 15.8702C16.17 15.9902 16.17 16.1302 16.06 16.4302L14.09 22.1202H15.89L16.66 19.8602H17.27L17.95 22.1202H19.76L18.91 19.8102C19.4 19.7302 19.65 19.5902 19.9 19.3702C20.24 19.0602 20.47 18.6202 20.67 17.9802C20.95 17.0502 20.78 16.5202 20.6 16.2502C20.35 15.8702 19.82 15.5902 18.82 15.5902ZM37.7 19.5002L38.2 18.1402H35.91L36.27 17.1002H38.75L39.3 15.5902H34.61L34.54 15.7802L34.65 15.8902C34.77 16.0102 34.77 16.1502 34.66 16.4502L32.71 22.1202H37.09L37.62 20.6002H35.06L35.44 19.5002H37.7ZM42.96 17.9602C42.85 18.2402 42.72 18.3102 42.56 18.3702C42.45 18.4102 42.22 18.4302 42 18.4302H41.14L41.6 17.0802H42.64C42.95 17.0802 43.08 17.2402 43.08 17.4302C43.08 17.5502 43.03 17.7602 42.95 17.9602M42.79 15.5902H39.97L39.92 15.7602L40.03 15.8702C40.15 15.9902 40.14 16.1302 40.04 16.4302L38.07 22.1202H39.87L40.64 19.8602H41.25L41.93 22.1202H43.74L42.89 19.8102C43.38 19.7302 43.63 19.5902 43.88 19.3702C44.22 19.0602 44.46 18.6202 44.65 17.9802C44.93 17.0502 44.76 16.5202 44.58 16.2502C44.33 15.8702 43.8 15.5902 42.8 15.5902M46.49 24.3502C41.55 26.9002 34.95 28.3102 27.92 28.3102C20.89 28.3102 14.3 26.9002 9.35004 24.3502C4.60004 21.8902 1.98004 18.6902 1.98004 15.3402C1.98004 11.9902 4.60004 8.79016 9.35004 6.33016C14.29 3.78016 20.89 2.37016 27.92 2.37016C34.95 2.37016 41.55 3.78016 46.49 6.33016C51.25 8.79016 53.86 11.9902 53.86 15.3402C53.86 18.6902 51.24 21.8902 46.49 24.3502ZM47.16 5.03016C42.01 2.37016 35.18 0.910156 27.92 0.910156C20.66 0.910156 13.83 2.37016 8.68002 5.03016C5.63002 6.61016 0.52002 10.0402 0.52002 15.3402C0.52002 20.6402 5.64002 24.0702 8.68002 25.6402C13.83 28.3002 20.66 29.7602 27.92 29.7602C35.18 29.7602 42.01 28.3002 47.16 25.6402C50.21 24.0602 55.32 20.6302 55.32 15.3402C55.32 10.0502 50.21 6.61016 47.16 5.03016ZM45.8 23.0102C40.48 25.7602 33.87 26.8002 27.92 26.8002C21.97 26.8002 15.36 25.7602 10.04 23.0102C7.23004 21.5502 3.48004 18.8702 3.48004 15.3402C3.48004 11.8102 7.22004 9.12016 10.04 7.67016C15.36 4.92016 21.97 3.88016 27.92 3.88016C33.87 3.88016 40.48 4.92016 45.8 7.67016C48.62 9.12016 52.36 11.8002 52.36 15.3402C52.36 18.8802 48.62 21.5502 45.8 23.0102ZM46.08 7.13016C40.68 4.34016 33.96 3.27016 27.93 3.27016C21.9 3.27016 15.18 4.34016 9.78003 7.13016C6.75003 8.70016 2.90002 11.5202 2.90002 15.3402C2.90002 19.1602 6.75003 21.9802 9.78003 23.5502C15.18 26.3402 21.91 27.4102 27.93 27.4102C33.95 27.4102 40.68 26.3402 46.08 23.5502C49.11 21.9802 52.96 19.1502 52.96 15.3402C52.96 11.5302 49.11 8.70016 46.08 7.13016ZM14.31 16.4302L9.39005 18.0502L8.79004 19.7002H13.13L13.7 18.1402H10.69L14.11 16.9802L14.32 16.4202L14.31 16.4302ZM33.9 9.20016H34.61C35.1 9.20016 35.36 9.36016 35.37 9.74016C35.37 9.98016 35.31 10.3102 35.06 11.0302C34.84 11.6702 34.66 12.0402 34.41 12.3102C34.21 12.5202 33.94 12.6202 33.32 12.6202H32.72L33.9 9.20016ZM32.34 8.49016L30.39 14.1802H33.26C34.49 14.1802 35.2 13.9102 35.77 13.2902C36.49 12.5302 37.14 10.5602 37.12 9.48016C37.1 8.37016 36.38 7.65016 34.88 7.65016H32.27L32.22 7.82016L32.33 7.93016C32.45 8.05016 32.45 8.19016 32.34 8.49016ZM43.19 9.99016H38.85L38.28 11.5402H41.29L37.87 12.7002L37.66 13.2602L42.58 11.6402L43.18 9.99016H43.19ZM23.78 14.1702H25.42L26.85 9.95016L27.68 14.1702H29.32L31.55 7.65016H29.84L28.65 11.2002L27.97 7.65016H25.66L25.6 7.82016L25.71 7.93016C25.83 8.05016 25.83 8.19016 25.72 8.49016L23.77 14.1702H23.78ZM12.05 14.1702H16.5L17.04 12.6102H14.45L16.16 7.64016H13.93L13.87 7.81016L13.98 7.92016C14.1 8.04016 14.1 8.18016 13.99 8.48016L12.04 14.1702H12.05ZM21.52 9.45016H21.58L21.61 11.4202H20.41L21.52 9.45016ZM16.96 14.1702H18.85L19.67 12.7302H21.63L21.65 14.1702H23.37L23 7.65016H20.43L20.37 7.82016L20.45 7.90016C20.59 8.03016 20.53 8.22016 20.03 9.02016L16.95 14.1702H16.96Z" fill="#CCCCCC"/>
</svg>
