<svg width="81" height="16" viewBox="0 0 81 16" fill="none" xmlns="http://www.w3.org/2000/svg">
<path fill-rule="evenodd" clip-rule="evenodd" d="M0.5 6.37032H28.5V-0.00805664H0.5V6.37032Z" fill="#9D2235"/>
<path fill-rule="evenodd" clip-rule="evenodd" d="M0.5 9.6136H28.5V6.37036H0.5V9.6136Z" fill="white"/>
<path fill-rule="evenodd" clip-rule="evenodd" d="M0.5 15.9919H28.5V9.61353H0.5V15.9919Z" fill="#9D2235"/>
<path d="M44.9395 3.46069V5.04858H40.5332V3.46069H44.9395ZM46.3281 3.46069V11.9919H44.2715V3.46069H46.3281ZM40.3926 3.46069H42.4375L42.2148 7.79663C42.1797 8.45288 42.1133 9.01929 42.0156 9.49585C41.918 9.96851 41.7871 10.3669 41.623 10.6912C41.459 11.0115 41.2617 11.2673 41.0312 11.4587C40.8008 11.6501 40.5332 11.7869 40.2285 11.8689C39.9277 11.9509 39.5898 11.9919 39.2148 11.9919H38.7168V10.4099L38.9395 10.3865C39.1191 10.3669 39.2773 10.3181 39.4141 10.24C39.5508 10.158 39.668 10.0369 39.7656 9.87671C39.8672 9.71655 39.9512 9.51147 40.0176 9.26147C40.084 9.01147 40.1367 8.70874 40.1758 8.35327C40.2188 7.9939 40.248 7.57397 40.2637 7.09351L40.3926 3.46069ZM51.332 5.25366L49.252 11.9919H47.043L50.1777 3.46069H51.5781L51.332 5.25366ZM53.0547 11.9919L50.9688 5.25366L50.6992 3.46069H52.1172L55.2695 11.9919H53.0547ZM52.9727 8.8103V10.3982H48.5957V8.8103H52.9727ZM59.3242 3.46069V11.9919H57.2676V3.46069H59.3242ZM61.8906 3.46069V5.04858H54.7598V3.46069H61.8906ZM66.2441 8.36499H64.0469L64.0352 7.01733H65.8164C66.1367 7.01733 66.3926 6.98218 66.584 6.91187C66.7754 6.83765 66.9141 6.73022 67 6.5896C67.0898 6.44897 67.1348 6.27319 67.1348 6.06226C67.1348 5.82007 67.0898 5.62476 67 5.47632C66.9102 5.32788 66.7676 5.22046 66.5723 5.15405C66.3809 5.08374 66.1328 5.04858 65.8281 5.04858H64.8203V11.9919H62.7637V3.46069H65.8281C66.3555 3.46069 66.8262 3.50952 67.2402 3.60718C67.6543 3.70093 68.0059 3.84546 68.2949 4.04077C68.5879 4.23608 68.8105 4.48218 68.9629 4.77905C69.1152 5.07202 69.1914 5.41772 69.1914 5.81616C69.1914 6.16382 69.1172 6.48999 68.9688 6.79468C68.8203 7.09937 68.5723 7.34741 68.2246 7.53882C67.8809 7.72632 67.4102 7.82397 66.8125 7.83179L66.2441 8.36499ZM66.1621 11.9919H63.5488L64.252 10.4099H66.1621C66.4434 10.4099 66.668 10.3669 66.8359 10.281C67.0078 10.1912 67.1309 10.074 67.2051 9.92944C67.2832 9.78101 67.3223 9.61694 67.3223 9.43726C67.3223 9.21851 67.2852 9.02905 67.2109 8.8689C67.1406 8.70874 67.0273 8.58569 66.8711 8.49976C66.7148 8.40991 66.5059 8.36499 66.2441 8.36499H64.5156L64.5273 7.01733H66.5957L67.0762 7.5564C67.6465 7.53296 68.0977 7.61304 68.4297 7.79663C68.7656 7.98022 69.0059 8.22241 69.1504 8.52319C69.2949 8.82397 69.3672 9.13843 69.3672 9.46655C69.3672 10.0251 69.2461 10.4919 69.0039 10.8669C68.7656 11.2419 68.4082 11.5232 67.9316 11.7107C67.4551 11.8982 66.8652 11.9919 66.1621 11.9919ZM72.6953 3.46069V11.9919H70.6445V3.46069H72.6953ZM78.584 8.9978H76.3047L75.6953 8.74585C75 8.5271 74.4707 8.20288 74.1074 7.77319C73.7441 7.3396 73.5625 6.78687 73.5625 6.11499C73.5625 5.52905 73.6934 5.04077 73.9551 4.65015C74.2168 4.25562 74.5879 3.95874 75.0684 3.75952C75.5488 3.5603 76.1191 3.46069 76.7793 3.46069H79.873V11.9919H77.8105V5.04858H76.7793C76.3691 5.04858 76.0723 5.15601 75.8887 5.37085C75.7051 5.58179 75.6133 5.89038 75.6133 6.29663C75.6133 6.60913 75.6562 6.85522 75.7422 7.03491C75.832 7.2146 75.9629 7.34351 76.1348 7.42163C76.3066 7.49585 76.5215 7.53296 76.7793 7.53296H78.5723L78.584 8.9978ZM77.002 8.23022L75.1914 11.9919H72.9531L74.7402 8.23022H77.002Z" fill="#4D4D4D"/>
</svg>
