<svg width="125" height="16" viewBox="0 0 125 16" fill="none" xmlns="http://www.w3.org/2000/svg">
<mask id="mask0_14047_422" style="mask-type:luminance" maskUnits="userSpaceOnUse" x="0" y="-1" width="29" height="17">
<path d="M0.5 -0.0078125H28.5V15.9922H0.5V-0.0078125Z" fill="white"/>
</mask>
<g mask="url(#mask0_14047_422)">
<path fill-rule="evenodd" clip-rule="evenodd" d="M0.5 -0.0078125V15.9922H28.5V-0.0078125H0.5Z" fill="#E31D1C"/>
<mask id="mask1_14047_422" style="mask-type:luminance" maskUnits="userSpaceOnUse" x="0" y="-1" width="29" height="17">
<path fill-rule="evenodd" clip-rule="evenodd" d="M0.5 -0.0078125V15.9922H28.5V-0.0078125H0.5Z" fill="white"/>
</mask>
<g mask="url(#mask1_14047_422)">
<path fill-rule="evenodd" clip-rule="evenodd" d="M0.5 -0.0078125V7.99219H28.5V-0.0078125H0.5Z" fill="#2E42A5"/>
<path d="M4.39999 3.80698L4.27729 3.87812L4.31834 3.94843H4.39999H9.12768H9.23171L9.26306 3.8496L9.12768 3.80698C9.26306 3.8496 9.26306 3.84965 9.26306 3.8496L9.26351 3.84811L9.26448 3.84494L9.26783 3.83377C9.27067 3.82423 9.27459 3.81054 9.2793 3.79316C9.28867 3.75842 9.30116 3.70876 9.31417 3.64771C9.33995 3.52599 9.36794 3.35709 9.37572 3.16968C9.39094 2.8029 9.33018 2.3247 8.97287 2.01522C8.60881 1.69985 8.14684 1.74894 7.74831 1.84818C7.61265 1.88196 7.47437 1.9244 7.34484 1.96414C7.28368 1.98291 7.22448 2.00108 7.16845 2.01745C6.98599 2.07075 6.83389 2.10611 6.71148 2.10611C6.58966 2.10611 6.45538 2.07346 6.29772 2.024C6.24991 2.009 6.19913 1.99216 6.14631 1.97463C6.0329 1.93701 5.91006 1.89625 5.78684 1.86394C5.41272 1.76584 4.9809 1.72878 4.50226 1.99888C4.25297 2.13956 4.11044 2.33538 4.04295 2.54999C3.97678 2.7604 3.98507 2.98069 4.0203 3.1738C4.05568 3.36773 4.11983 3.54305 4.17425 3.66874C4.20161 3.73194 4.22688 3.78343 4.2455 3.81946C4.25483 3.8375 4.2625 3.85171 4.26798 3.86163L4.27449 3.87325L4.27638 3.87655L4.27696 3.87756L4.27729 3.87812C4.27732 3.87818 4.27729 3.87812 4.39999 3.80698Z" fill="#FFD83D"/>
<path d="M4.27729 3.87812L4.39999 3.80698C4.27729 3.87812 4.27732 3.87818 4.27729 3.87812ZM4.27729 3.87812L4.31834 3.94843H4.39999H9.12768H9.23171L9.26306 3.8496M4.27729 3.87812L4.27696 3.87756L4.27638 3.87655L4.27449 3.87325L4.26798 3.86163C4.2625 3.85171 4.25483 3.8375 4.2455 3.81946C4.22688 3.78343 4.20161 3.73194 4.17425 3.66874C4.11983 3.54305 4.05568 3.36773 4.0203 3.1738C3.98507 2.98069 3.97678 2.7604 4.04295 2.54999C4.11044 2.33538 4.25297 2.13956 4.50226 1.99888C4.9809 1.72878 5.41272 1.76584 5.78684 1.86394C5.91006 1.89625 6.0329 1.93701 6.14631 1.97463C6.19913 1.99216 6.24991 2.009 6.29772 2.024C6.45538 2.07346 6.58966 2.10611 6.71148 2.10611C6.83389 2.10611 6.98599 2.07075 7.16845 2.01745C7.22448 2.00108 7.28368 1.98291 7.34484 1.96414C7.47437 1.9244 7.61265 1.88196 7.74831 1.84818C8.14684 1.74894 8.60881 1.69985 8.97287 2.01522C9.33018 2.3247 9.39094 2.8029 9.37572 3.16968C9.36794 3.35709 9.33995 3.52599 9.31417 3.64771C9.30116 3.70876 9.28867 3.75842 9.2793 3.79316C9.27459 3.81054 9.27067 3.82423 9.26783 3.83377L9.26448 3.84494L9.26351 3.84811L9.26306 3.8496M9.26306 3.8496L9.12768 3.80698C9.26306 3.8496 9.26306 3.84965 9.26306 3.8496Z" stroke="black" stroke-width="0.573589"/>
<path d="M3.84127 3.89991L3.90746 4.02506C3.84127 3.89991 3.84121 3.89995 3.84127 3.89991L3.84185 3.89961L3.84278 3.89912L3.84566 3.89765L3.85551 3.89273C3.86391 3.88861 3.87595 3.88282 3.89166 3.87563C3.92307 3.86124 3.96913 3.84119 4.02992 3.8174C4.1515 3.7698 4.33197 3.70723 4.572 3.64497C5.05218 3.52041 5.77013 3.39722 6.73119 3.39722C7.69223 3.39722 8.41019 3.52041 8.89039 3.64497C9.13043 3.70723 9.3109 3.7698 9.43248 3.8174C9.49324 3.84119 9.53929 3.86124 9.5707 3.87563C9.58643 3.88282 9.59847 3.88861 9.60687 3.89273L9.61675 3.89765L9.61959 3.89912L9.62056 3.89961C9.62061 3.89964 9.62113 3.89991 9.55491 4.02506L9.62113 3.89991L9.73169 3.95797L9.68791 4.07461L9.01503 5.86736L8.96813 5.99229L3.84127 3.89991ZM3.84127 3.89991L3.73169 3.95745L3.77405 4.07343L4.42878 5.86617L4.4745 5.99139L4.60263 5.95342L3.84127 3.89991ZM8.84019 5.95297L4.60263 5.95342L4.6052 5.95263L4.61388 5.95014C4.62167 5.94793 4.63342 5.94459 4.64887 5.94029C4.67977 5.93181 4.72543 5.91947 4.78377 5.9047C4.9005 5.87511 5.06777 5.83556 5.26887 5.79595C5.67199 5.71662 6.20701 5.638 6.74195 5.638C7.27675 5.638 7.80171 5.71656 8.19451 5.79584C8.39054 5.83539 8.55273 5.87488 8.66562 5.90442C8.72201 5.91919 8.76608 5.93147 8.79583 5.93995C8.81071 5.9442 8.82201 5.94754 8.82951 5.94974L8.8378 5.95223L8.84019 5.95297Z" fill="#FFD83D"/>
<path d="M3.84127 3.89991L3.90746 4.02506C3.84127 3.89991 3.84121 3.89995 3.84127 3.89991ZM3.84127 3.89991L3.84185 3.89961L3.84278 3.89912L3.84566 3.89765L3.85551 3.89273C3.86391 3.88861 3.87595 3.88282 3.89166 3.87563C3.92307 3.86124 3.96913 3.84119 4.02992 3.8174C4.1515 3.7698 4.33197 3.70723 4.572 3.64497C5.05218 3.52041 5.77013 3.39722 6.73119 3.39722C7.69223 3.39722 8.41019 3.52041 8.89039 3.64497C9.13043 3.70723 9.3109 3.7698 9.43248 3.8174C9.49324 3.84119 9.53929 3.86124 9.5707 3.87563C9.58643 3.88282 9.59847 3.88861 9.60687 3.89273L9.61675 3.89765L9.61959 3.89912L9.62056 3.89961C9.62061 3.89964 9.62113 3.89991 9.55491 4.02506L9.62113 3.89991L9.73169 3.95797L9.68791 4.07461L9.01503 5.86736L8.96813 5.99229L3.84127 3.89991ZM3.84127 3.89991L3.73169 3.95745L3.77405 4.07343L4.42878 5.86617L4.4745 5.99139L4.60263 5.95342M3.84127 3.89991L4.60263 5.95342M4.60263 5.95342L8.84019 5.95297L8.8378 5.95223L8.82951 5.94974C8.82201 5.94754 8.81071 5.9442 8.79583 5.93995C8.76608 5.93147 8.72201 5.91919 8.66562 5.90442C8.55273 5.87488 8.39054 5.83539 8.19451 5.79584C7.80171 5.71656 7.27675 5.638 6.74195 5.638C6.20701 5.638 5.67199 5.71662 5.26887 5.79595C5.06777 5.83556 4.9005 5.87511 4.78377 5.9047C4.72543 5.91947 4.67977 5.93181 4.64887 5.94029C4.63342 5.94459 4.62167 5.94793 4.61388 5.95014L4.6052 5.95263L4.60263 5.95342Z" stroke="black" stroke-width="0.573589"/>
<path d="M6.67388 2.4055C6.99173 2.4055 7.19761 2.0961 7.19761 1.78576C7.19761 1.47542 6.99173 1.16602 6.67388 1.16602C6.35603 1.16602 6.15015 1.47542 6.15015 1.78576C6.15015 2.0961 6.35603 2.4055 6.67388 2.4055Z" fill="#FFD83D" stroke="black" stroke-width="0.573589"/>
<path fill-rule="evenodd" clip-rule="evenodd" d="M6.81655 -0.0078125H6.53022L6.56708 0.514291L6.2439 0.470474V0.829191L6.57204 0.784151L6.53022 1.6064H6.81655L6.77415 0.78277L7.10287 0.829191V0.470474L6.78011 0.516636L6.81655 -0.0078125Z" fill="#FFD83D"/>
</g>
</g>
<path d="M44.9395 3.46094V5.04883H40.5332V3.46094H44.9395ZM46.3281 3.46094V11.9922H44.2715V3.46094H46.3281ZM40.3926 3.46094H42.4375L42.2148 7.79688C42.1797 8.45312 42.1133 9.01953 42.0156 9.49609C41.918 9.96875 41.7871 10.3672 41.623 10.6914C41.459 11.0117 41.2617 11.2676 41.0312 11.459C40.8008 11.6504 40.5332 11.7871 40.2285 11.8691C39.9277 11.9512 39.5898 11.9922 39.2148 11.9922H38.7168V10.4102L38.9395 10.3867C39.1191 10.3672 39.2773 10.3184 39.4141 10.2402C39.5508 10.1582 39.668 10.0371 39.7656 9.87695C39.8672 9.7168 39.9512 9.51172 40.0176 9.26172C40.084 9.01172 40.1367 8.70898 40.1758 8.35352C40.2188 7.99414 40.248 7.57422 40.2637 7.09375L40.3926 3.46094ZM49.7969 3.46094V11.9922H47.7461V3.46094H49.7969ZM53.1367 3.46094L54.5312 6.29688L55.9258 3.46094H58.2695L55.8906 7.69141L58.334 11.9922H55.9668L54.5312 9.10352L53.0957 11.9922H50.7227L53.1719 7.69141L50.7871 3.46094H53.1367ZM63.1445 3.46094V11.9922H61.0879V3.46094H63.1445ZM65.7109 3.46094V5.04883H58.5801V3.46094H65.7109ZM72.4551 10.4102V11.9922H67.9082V10.4102H72.4551ZM68.6406 3.46094V11.9922H66.584V3.46094H68.6406ZM71.8691 6.84766V8.37695H67.9082V6.84766H71.8691ZM72.4727 3.46094V5.04883H67.9082V3.46094H72.4727ZM79.0469 6.84766V8.42969H74.6699V6.84766H79.0469ZM75.3555 3.46094V11.9922H73.2988V3.46094H75.3555ZM80.4297 3.46094V11.9922H78.3789V3.46094H80.4297ZM81.6895 3.46094H83.752V10.4102H85.873V3.46094H87.9297V10.4102H90.0215V3.46094H92.0723V11.9922H81.6895V3.46094ZM97.293 3.46094V11.9922H95.2363V3.46094H97.293ZM99.8594 3.46094V5.04883H92.7285V3.46094H99.8594ZM106.604 10.4102V11.9922H102.057V10.4102H106.604ZM102.789 3.46094V11.9922H100.732V3.46094H102.789ZM106.018 6.84766V8.37695H102.057V6.84766H106.018ZM106.621 3.46094V5.04883H102.057V3.46094H106.621ZM109.387 8.8457L112.451 3.46094H114.508V11.9922H112.451V6.61328L109.387 11.9922H107.33V3.46094H109.387V8.8457ZM111.748 1.16406H113.102C113.102 1.51562 113.012 1.82812 112.832 2.10156C112.656 2.37109 112.406 2.58203 112.082 2.73438C111.758 2.88672 111.375 2.96289 110.934 2.96289C110.266 2.96289 109.736 2.79688 109.346 2.46484C108.955 2.12891 108.76 1.69531 108.76 1.16406H110.107C110.107 1.35547 110.17 1.52734 110.295 1.67969C110.42 1.83203 110.633 1.9082 110.934 1.9082C111.234 1.9082 111.445 1.83203 111.566 1.67969C111.688 1.52734 111.748 1.35547 111.748 1.16406ZM121.516 6.84766V8.42969H117.139V6.84766H121.516ZM117.824 3.46094V11.9922H115.768V3.46094H117.824ZM122.898 3.46094V11.9922H120.848V3.46094H122.898Z" fill="#4D4D4D"/>
</svg>
