<svg width="48" height="48" viewBox="0 0 48 48" fill="none" xmlns="http://www.w3.org/2000/svg">
<path d="M4.19999 30.3801C0.999988 28.4201 0.0199871 25.0401 0.749987 22.2201C1.62999 18.7901 4.55999 16.7601 7.61999 16.6601C10.92 16.5501 14.01 18.6401 15.01 22.1601H33.13C33.56 20.5501 34.44 19.2301 35.75 18.2101C37.06 17.1901 38.56 16.7001 40.23 16.6501C40.23 16.5601 40.25 16.4701 40.25 16.3901C40.25 14.7701 40.25 13.1501 40.25 11.5401C40.25 10.7201 39.83 10.1501 39.1 9.81013C38.87 9.71013 38.59 9.68013 38.33 9.68013C36.05 9.68013 33.78 9.68013 31.5 9.68013C31.39 9.68013 31.29 9.69013 31.18 9.70013C30.58 11.7701 29.36 13.3301 27.48 14.3401C26.01 15.1301 24.42 15.4101 22.79 15.0801C19.01 14.3301 16.57 11.2501 16.72 7.44013C16.86 3.96013 19.5 1.15013 22.79 0.580133C26.61 -0.069867 30.16 2.29013 31.18 5.99013C31.28 5.99013 31.4 5.99013 31.51 5.99013C33.79 5.99013 36.06 5.99013 38.34 5.99013C38.87 5.99013 39.38 6.04013 39.88 6.19013C41.45 6.67013 42.63 7.63013 43.36 9.11013C43.73 9.87013 43.92 10.6701 43.92 11.5201C43.92 13.4301 43.92 15.3401 43.92 17.2601C43.92 17.5301 43.98 17.6901 44.23 17.8401C45.24 18.4801 46.04 19.3201 46.63 20.3601C47.11 21.1901 47.39 22.0801 47.54 23.0301C47.73 24.2401 47.57 25.4201 47.15 26.5501C46.62 27.9801 45.73 29.1401 44.48 30.0201C43.95 30.3901 43.38 30.6901 42.78 30.9201C42.46 31.0401 42.12 31.0901 41.79 31.1901C41.23 31.3601 40.65 31.3701 40.07 31.3601C39.4 31.3601 38.75 31.2201 38.11 31.0401C37.05 30.7301 36.12 30.1901 35.31 29.4501C34.59 28.8001 34 28.0301 33.61 27.1301C33.47 26.8001 33.34 26.4601 33.22 26.1201C33.13 25.8601 33.13 25.8601 32.85 25.8601C32.8 25.8601 32.75 25.8601 32.7 25.8601C26.94 25.8601 21.19 25.8601 15.43 25.8601H15.04C13.88 29.3101 11.52 31.1501 7.90999 31.4101C7.90999 31.4801 7.88999 31.5501 7.88999 31.6301C7.88999 33.2601 7.88999 34.8901 7.88999 36.5101C7.88999 37.3201 8.42999 38.0701 9.26999 38.3001C9.39999 38.3401 9.53999 38.3501 9.67999 38.3501C12.03 38.3501 14.39 38.3501 16.74 38.3501C16.81 38.3501 16.88 38.3401 16.96 38.3301C17.47 36.4701 18.53 35.0101 20.15 33.9801C21.52 33.1001 23.03 32.7201 24.65 32.8501C27.82 33.1201 30.37 35.2901 31.19 38.3001C31.42 38.3601 40.49 38.3901 41.26 38.3301C41.23 38.2001 41.11 38.1301 41.04 38.0401C40.88 37.8501 40.69 37.6701 40.55 37.4601C39.99 36.6001 40.25 35.2601 41.45 34.7901C42.21 34.4901 42.91 34.7001 43.49 35.2801C44.03 35.8201 44.57 36.3601 45.1 36.9001C45.74 37.5401 46.38 38.1801 47.02 38.8301C47.28 39.0901 47.46 39.4001 47.56 39.7501C47.68 40.1701 47.61 40.5601 47.44 40.9501C47.3 41.2601 47.07 41.5001 46.84 41.7301C45.76 42.8101 44.68 43.9001 43.59 44.9701C43.4 45.1601 43.19 45.3501 42.95 45.4801C42.27 45.8601 41.6 45.7801 40.99 45.3201C40.39 44.8701 40.17 44.2401 40.29 43.5001C40.36 43.0901 40.58 42.7601 40.87 42.4701C41 42.3401 41.12 42.2101 41.25 42.0701C41 42.0001 31.47 42.0001 31.21 42.0501C31.04 42.4801 30.88 42.9101 30.69 43.3301C30.24 44.3301 29.56 45.1501 28.73 45.8501C28.07 46.4001 27.33 46.8101 26.53 47.1001C26.22 47.2101 25.89 47.2601 25.57 47.3501C24.92 47.5401 24.26 47.5401 23.59 47.5101C23.03 47.4801 22.49 47.3601 21.95 47.2101C21.08 46.9601 20.3 46.5501 19.59 46.0101C18.88 45.4701 18.29 44.8301 17.83 44.0701C17.49 43.5201 17.21 42.9401 17.03 42.3201C16.95 42.0301 16.94 42.0301 16.62 42.0301C14.37 42.0301 12.13 42.0301 9.87999 42.0301C9.45999 42.0301 9.02999 42.0101 8.61999 41.9201C8.09999 41.8101 7.58999 41.6401 7.10999 41.3801C5.80999 40.6601 4.90999 39.6001 4.44999 38.1801C4.26999 37.6301 4.17999 37.0601 4.17999 36.4801C4.17999 34.5701 4.17999 32.6601 4.17999 30.7401C4.17999 30.6201 4.17999 30.5101 4.17999 30.3801H4.19999ZM11.55 24.0201C11.57 22.0101 9.88999 20.3401 7.88999 20.3401C5.86999 20.3401 4.18999 21.9801 4.19999 24.0201C4.19999 26.0701 5.84999 27.6901 7.86999 27.6901C9.90999 27.6901 11.55 26.0301 11.55 24.0201ZM40.24 20.3401C38.23 20.3301 36.56 21.9701 36.57 24.0001C36.57 26.0501 38.21 27.6701 40.23 27.6801C42.28 27.6901 43.92 26.0101 43.92 23.9901C43.92 21.9901 42.25 20.3001 40.24 20.3301V20.3401ZM27.73 40.2001C27.75 38.1901 26.08 36.5201 24.07 36.5101C22.05 36.5101 20.37 38.1501 20.38 40.1901C20.38 42.2401 22.03 43.8601 24.05 43.8701C26.09 43.8701 27.73 42.2101 27.73 40.2001ZM24.07 4.15013C22.06 4.13013 20.39 5.78013 20.38 7.80013C20.38 9.85013 22.01 11.4801 24.03 11.5001C26.08 11.5201 27.72 9.85013 27.73 7.83013C27.73 5.82014 26.06 4.14013 24.06 4.16013L24.07 4.15013Z" fill="white"/>
<path d="M8.56001 5.88027C8.42001 5.76027 8.26002 5.65027 8.13001 5.52027C7.60001 5.00027 7.39002 4.39027 7.58002 3.65027C7.81002 2.74027 8.71002 2.17027 9.65001 2.32027C10.06 2.39027 10.41 2.59027 10.69 2.87027C11.9 4.08027 13.11 5.29027 14.31 6.50027C15.03 7.23027 15.05 8.37027 14.31 9.10027C13.47 9.94027 12.64 10.7903 11.8 11.6303C11.4 12.0303 11.01 12.4403 10.6 12.8203C9.59001 13.7503 8.13001 13.3503 7.64001 12.1703C7.34001 11.4403 7.51001 10.7203 8.10001 10.1203C8.23001 9.98027 8.37002 9.85027 8.49002 9.65027C8.38002 9.65027 8.26002 9.65027 8.15002 9.65027C6.24002 9.65027 4.33001 9.65027 2.41001 9.65027C1.87001 9.65027 1.40001 9.47027 1.02001 9.07027C0.230014 8.24027 0.340014 6.82027 1.50001 6.17027C1.77001 6.02027 2.08001 5.96027 2.41001 5.96027C4.33001 5.96027 6.25001 5.96027 8.17001 5.96027C8.28001 5.96027 8.38002 5.96027 8.49002 5.96027C8.51002 5.93027 8.53001 5.89027 8.56001 5.86027V5.88027Z" fill="white"/>
</svg>
