<svg width="71" height="70" viewBox="0 0 71 70" fill="none" xmlns="http://www.w3.org/2000/svg">
<path d="M58.1297 0H12.8703C6.04532 0 0.500015 5.54531 0.500015 12.3703V57.6297C0.500015 64.4547 6.04532 70 12.8703 70H58.1297C64.9547 70 70.5 64.4547 70.5 57.6297V12.3703C70.5 5.54531 64.9547 0 58.1297 0ZM68.3015 57.6297C68.3015 63.2406 63.7406 67.8016 58.1297 67.8016H12.8703C7.25939 67.8016 2.69846 63.2406 2.69846 57.6297V12.3703C2.69846 6.75937 7.25939 2.19843 12.8703 2.19843H58.1297C63.7406 2.19843 68.3015 6.75937 68.3015 12.3703V57.6297Z" fill="#B3B3B3"/>
<path d="M48.8438 34.6938C48.9204 34.6938 48.9969 34.6938 49.0844 34.6938C49.4235 34.6938 49.7626 34.6938 50.1235 34.7157C50.4735 34.7266 50.8236 34.7376 51.1845 34.7704C51.4579 34.7922 51.7204 34.8141 51.9939 34.8469L52.2344 34.8688H52.3657C52.5735 34.9016 52.7704 34.9235 52.9782 34.9454C53.1641 34.9672 53.3501 35.0001 53.547 35.0219L53.7329 35.0548H53.8313C53.9626 35.0876 54.0829 35.1094 54.2032 35.1313C54.3236 35.1532 54.4329 35.1751 54.5532 35.1969L54.772 35.2407L54.8923 35.2626C54.9907 35.2735 55.0891 35.2954 55.1766 35.3063C55.3407 35.3391 55.5157 35.3719 55.6798 35.4157L55.9532 35.4813C56.2376 35.5469 56.5329 35.6235 56.8173 35.7001L37.7095 16.3298L35.9594 14.5579L34.2095 12.786L30.7095 16.3298L8.56104 38.6641L12.1048 42.1641L34.2095 19.8845L48.8438 34.7266V34.6938Z" fill="#368DDF"/>
<path d="M40.389 35.9077C40.4874 35.8858 40.5749 35.853 40.6624 35.8202C40.8155 35.7655 40.9796 35.7218 41.1437 35.678C41.3296 35.6233 41.5155 35.5796 41.6905 35.5358L41.8655 35.4921L42.0624 35.4374C42.1827 35.4046 42.314 35.3718 42.4343 35.339C42.5983 35.2952 42.7733 35.2624 42.9483 35.2296C43.0358 35.2187 43.1233 35.1968 43.2218 35.1858L43.3749 35.164L43.5718 35.1311L43.7467 35.0983C43.8452 35.0874 43.9327 35.0655 44.0311 35.0546L44.1733 35.0327C44.3374 35.0108 44.5124 34.978 44.6765 34.9562C44.928 34.9233 45.1796 34.8905 45.4311 34.8687C45.4421 34.8687 45.453 34.8687 45.4639 34.8687L34.253 23.5483L15.5718 42.4483V57.203H35.6093C35.0296 56.678 34.5811 56.0546 34.2858 55.3546C34.0671 54.8405 33.9577 54.2827 33.9468 53.7249C33.9468 53.1124 33.9468 52.4999 33.9468 51.8874V51.439C33.9468 51.1546 33.9796 50.9358 34.0014 50.7827C34.0452 50.5093 34.1327 50.2468 34.2421 49.9952C34.0452 49.4702 33.9358 48.9124 33.9468 48.3546C33.9468 47.764 33.9468 47.1843 33.9468 46.6046V45.828C33.9468 45.7296 33.9468 45.6421 33.9468 45.5218V45.4999C33.9687 45.0515 34.0889 44.614 34.2749 44.2202C34.2749 44.2202 34.2749 44.1983 34.2639 44.1874C34.0124 43.5093 33.903 42.8093 33.9468 42.0983C33.9905 41.3218 34.2312 40.5561 34.6358 39.8343C34.9749 39.2327 35.4234 38.6858 36.014 38.1718C36.4077 37.8218 36.8452 37.5046 37.3046 37.2311C37.8733 36.8921 38.4749 36.5968 39.153 36.3233C39.4812 36.1921 39.8968 36.028 40.378 35.8858L40.389 35.9077Z" fill="#368DDF"/>
<path d="M55.9751 38.6533C55.8985 38.6424 55.8219 38.6314 55.7454 38.6205C55.6798 38.6205 55.6141 38.5986 55.5485 38.5877C55.4829 38.5767 55.4173 38.5658 55.3516 38.5549C55.2204 38.533 55.0891 38.5111 54.9578 38.4892C54.8813 38.4783 54.8048 38.4674 54.7391 38.4564C54.6735 38.4564 54.597 38.4346 54.5313 38.4236C54.2907 38.3908 54.0391 38.358 53.7985 38.3252C53.7438 38.3252 53.6891 38.3252 53.6344 38.3142C53.6126 38.3142 53.5907 38.3142 53.5579 38.3142C53.4048 38.3033 53.2516 38.2814 53.0876 38.2705C52.9454 38.2596 52.8032 38.2486 52.661 38.2377C52.4532 38.2158 52.2454 38.1939 52.0485 38.183C51.6985 38.1611 51.3485 38.1502 50.9985 38.1392C50.6813 38.1392 50.3532 38.1283 50.036 38.1283C49.8938 38.1283 49.7407 38.1283 49.5985 38.1283C49.5766 38.1283 49.5548 38.1283 49.5329 38.1283C49.3907 38.1283 49.2594 38.1283 49.1173 38.1283C48.636 38.1392 48.1547 38.1502 47.6735 38.172C47.6407 38.172 47.6078 38.172 47.575 38.172C47.2032 38.2049 46.8423 38.2377 46.4704 38.2705C46.361 38.2705 46.2517 38.2924 46.1313 38.3033C46.0001 38.3142 45.8797 38.3252 45.7485 38.347C45.5407 38.3689 45.3438 38.4017 45.136 38.4345C45.0922 38.4345 45.0485 38.4455 45.0047 38.4564C44.961 38.4564 44.9282 38.4564 44.8845 38.4783C44.8298 38.4783 44.7751 38.5002 44.7204 38.5002C44.6219 38.5111 44.5344 38.533 44.436 38.5439C44.2938 38.5658 44.1407 38.5877 43.9985 38.6095C43.9766 38.6095 43.9657 38.6095 43.9438 38.6095C43.8673 38.6205 43.7907 38.6314 43.7141 38.6533C43.5173 38.697 43.3204 38.7517 43.1235 38.7955C42.9595 38.8392 42.7844 38.872 42.6204 38.9158C42.5657 38.9267 42.511 38.9377 42.4563 38.9595C42.1829 39.0361 41.9094 39.1236 41.636 39.1892C41.5047 39.222 41.3625 39.2658 41.2313 39.3095C41.1766 39.3314 41.1329 39.3424 41.0782 39.3642C40.936 39.408 40.8048 39.4627 40.6626 39.5174C40.2907 39.6596 39.9297 39.8127 39.5797 39.9877C39.4485 40.0533 39.3172 40.108 39.186 40.1846C38.8797 40.3596 38.5845 40.5455 38.322 40.7642C38.1798 40.8736 38.0485 40.9939 37.9282 41.1252C37.9063 41.1471 37.8845 41.1799 37.8626 41.2127C37.7751 41.3221 37.6876 41.4205 37.611 41.5408C37.5235 41.683 37.4579 41.8252 37.4141 41.9783C37.3813 42.0877 37.3485 42.197 37.3376 42.3174V42.3392C37.3266 42.5142 37.3594 42.6783 37.4032 42.8533C37.4251 42.9189 37.436 42.9736 37.4579 43.0392C37.5344 43.2361 37.6548 43.4111 37.786 43.5861C37.8517 43.6736 37.9173 43.7611 37.9938 43.8377C38.2017 44.0455 38.4532 44.2314 38.7047 44.4064C38.7594 44.4502 38.8142 44.483 38.8798 44.5267C39.1751 44.7127 39.4813 44.8658 39.7985 45.0189C39.9297 45.0845 40.0719 45.1502 40.2141 45.2049C40.3454 45.2595 40.4876 45.3033 40.6298 45.358C40.8266 45.4345 41.0235 45.5111 41.2204 45.5767C41.3516 45.6205 41.4939 45.6533 41.6251 45.697C41.7564 45.7299 41.8985 45.7736 42.0298 45.8064C42.2813 45.872 42.5329 45.9596 42.7954 46.0142C43.1672 46.1017 43.5391 46.1674 43.911 46.2439C44.0094 46.2658 44.1188 46.2767 44.2173 46.2986C44.2938 46.3095 44.3594 46.3314 44.436 46.3424C44.5125 46.3642 44.5891 46.3752 44.6657 46.3861C44.8188 46.408 44.9719 46.4189 45.125 46.4408C45.1579 46.4408 45.2016 46.4408 45.2345 46.4517C45.2454 46.4517 45.2672 46.4517 45.2782 46.4517C45.486 46.4845 45.6829 46.5174 45.8907 46.5392C45.8907 46.5392 45.8907 46.5392 45.9016 46.5392C46.1313 46.5611 46.361 46.583 46.6016 46.6049C46.6126 46.6049 46.6235 46.6049 46.6344 46.6049C46.886 46.6267 47.1376 46.6486 47.3891 46.6705C47.4985 46.6705 47.6079 46.6924 47.7063 46.6924C48.1329 46.7142 48.5595 46.7252 48.986 46.7361C49.2704 46.7361 49.5657 46.758 49.8501 46.7689C50.4735 46.747 51.086 46.7361 51.6875 46.7033C52.0704 46.6924 52.4532 46.6595 52.8469 46.6377C53.0438 46.6267 53.2517 46.5939 53.4485 46.583C53.4813 46.583 53.5141 46.583 53.536 46.572C53.5688 46.572 53.6126 46.5721 53.6454 46.5611C53.7876 46.5392 53.9298 46.5283 54.061 46.5064C54.0938 46.5064 54.1266 46.5064 54.1594 46.4955C54.2797 46.4845 54.4001 46.4517 54.5204 46.4408C54.7063 46.4189 54.8923 46.397 55.0782 46.3752C55.0782 46.3752 55.1 46.3752 55.111 46.3752C55.2641 46.3423 55.4063 46.3096 55.5595 46.2877C55.7016 46.2658 55.8329 46.2439 55.9751 46.222C56.0735 46.2002 56.1829 46.1892 56.2813 46.1674C56.4891 46.1127 56.7079 46.0689 56.9157 46.0142C56.9813 45.9924 57.0579 45.9814 57.1235 45.9595C57.4188 45.883 57.7141 45.8174 58.0094 45.7299C58.2829 45.6533 58.5454 45.5658 58.8079 45.4674C58.8735 45.4455 58.9282 45.4236 58.9829 45.3908C59.2673 45.2814 59.5407 45.183 59.8141 45.0627C60.3063 44.8439 60.7657 44.5924 61.1813 44.2861C61.3782 44.1439 61.5532 43.9908 61.7063 43.8267C61.8157 43.7174 61.925 43.5971 62.0125 43.4658C62.111 43.3236 62.2094 43.1814 62.2532 43.0174C62.286 42.908 62.3188 42.8095 62.3407 42.7002C62.3407 42.6564 62.3625 42.6127 62.3625 42.5689C62.3625 42.5252 62.3625 42.4924 62.3625 42.4486C62.3625 42.4049 62.3625 42.372 62.3625 42.3283C62.3625 42.2955 62.3516 42.2627 62.3407 42.2408C62.3407 42.1861 62.3297 42.1424 62.3079 42.0877C62.2751 42.0111 62.2641 41.9345 62.2313 41.858C62.2313 41.847 62.2313 41.8252 62.2204 41.8142C62.2204 41.8033 62.2203 41.7814 62.2094 41.7705C62.1766 41.7049 62.1329 41.6392 62.0891 41.5736C61.9688 41.3767 61.8375 41.2017 61.6625 41.0267C61.3563 40.7205 60.9954 40.4689 60.6126 40.2392C60.2735 40.0423 59.9235 39.8674 59.5626 39.7252C59.1907 39.5721 58.8188 39.4189 58.4141 39.3095C58.2063 39.2549 57.9985 39.1892 57.8016 39.1236C57.6813 39.0799 57.55 39.047 57.4188 39.0142C57.2875 38.9814 57.1563 38.9486 57.025 38.9267C56.7625 38.8611 56.5001 38.8064 56.2376 38.7408C56.1282 38.7189 56.0297 38.697 55.9203 38.6752L55.9751 38.6533Z" fill="#368DDF"/>
<path d="M37.6109 49.153C37.7202 49.3062 37.8515 49.4374 37.9937 49.5577C38.1359 49.678 38.3 49.7874 38.464 49.8858C38.5953 49.9733 38.7484 50.039 38.8906 50.1155C39.1969 50.2687 39.514 50.4108 39.8422 50.5312C40.1484 50.6405 40.4546 50.7499 40.7718 50.8483C40.8703 50.8812 40.9687 50.903 41.0672 50.9249C41.1875 50.9577 41.3187 50.9905 41.439 51.0233C41.5374 51.0452 41.6249 51.0671 41.7234 51.089C41.9312 51.1327 42.139 51.1874 42.3578 51.2312C42.5765 51.2749 42.7952 51.3187 43.014 51.3515C43.0796 51.3624 43.1452 51.3733 43.2109 51.3843C43.2546 51.3843 43.2984 51.4062 43.3421 51.4062C43.4405 51.428 43.539 51.439 43.6484 51.4608C43.7031 51.4608 43.7468 51.4827 43.8015 51.4827C43.8672 51.4827 43.9218 51.4937 43.9874 51.5046C44.1078 51.5155 44.2171 51.5374 44.3375 51.5483C44.3375 51.5483 44.3593 51.5483 44.3702 51.5483C44.3702 51.5483 44.3702 51.5483 44.3812 51.5483C44.4468 51.5483 44.5234 51.5702 44.589 51.5812C44.7312 51.603 44.8624 51.6249 45.0046 51.6468C45.2453 51.6796 45.4859 51.6905 45.7156 51.7124C45.8578 51.7233 46.0109 51.7452 46.1531 51.7562C46.3171 51.778 46.4812 51.7999 46.6453 51.7999C47.3015 51.8437 47.9687 51.8765 48.6249 51.8983C49.4452 51.9202 50.2765 51.9093 51.0968 51.8983C51.5562 51.8983 52.0156 51.8655 52.464 51.8436C52.6171 51.8436 52.7702 51.8218 52.9234 51.8218C53.0874 51.8218 53.2625 51.7999 53.4265 51.778C53.5906 51.7671 53.7656 51.7562 53.9297 51.7343C53.9844 51.7343 54.039 51.7233 54.1046 51.7124C54.2249 51.7124 54.3453 51.6905 54.4656 51.6796C54.6625 51.6577 54.8703 51.6249 55.0671 51.5921C55.1984 51.5702 55.3406 51.5483 55.4718 51.5374C55.7234 51.5046 55.9749 51.4827 56.2156 51.428C56.5218 51.3733 56.8281 51.3187 57.1234 51.264C57.2656 51.2312 57.4078 51.1983 57.55 51.1765C57.6593 51.1546 57.7797 51.1327 57.889 51.0999C58.0531 51.0671 58.2062 51.0233 58.3703 50.9905C58.5343 50.9577 58.6984 50.914 58.8515 50.8702C59.1468 50.7936 59.4421 50.6952 59.7265 50.5858C59.989 50.4983 60.2406 50.3999 60.4922 50.2905C60.7437 50.1812 60.9843 50.0608 61.214 49.9296C61.5421 49.7436 61.8374 49.5249 62.078 49.2624C62.1765 49.153 62.264 49.0327 62.3187 48.9015C62.3515 48.8359 62.3734 48.7593 62.3953 48.6827C62.4062 48.628 62.4171 48.5624 62.4171 48.4968C62.4171 48.3108 62.4171 48.1249 62.4171 47.939C62.4171 47.8296 62.4171 47.7202 62.4171 47.6108C62.4171 46.9983 62.4171 46.3858 62.4171 45.7843C62.4171 45.7624 62.4172 45.7405 62.3953 45.7077C62.3953 45.7077 62.3953 45.7077 62.3953 45.6968C62.3734 45.6968 62.3515 45.7077 62.3405 45.7187C61.9687 45.9593 61.575 46.178 61.1703 46.3749C60.8203 46.5499 60.4483 46.6921 60.0874 46.8452C59.9671 46.889 59.8468 46.9437 59.7156 46.9874C59.5187 47.064 59.3109 47.1296 59.1031 47.1843C59.0265 47.2062 58.9609 47.239 58.8843 47.2609C58.4687 47.3812 58.0422 47.4905 57.6156 47.5999C57.5718 47.6108 57.5281 47.6218 57.4734 47.6327C57.4297 47.6327 57.3859 47.6546 57.3422 47.6655C57.1125 47.7202 56.8828 47.764 56.6531 47.8187C56.5328 47.8405 56.4234 47.8624 56.3031 47.8843C56.15 47.9171 55.9859 47.9499 55.8328 47.9718C55.7234 47.9937 55.614 48.0046 55.5046 48.0155C55.3296 48.0374 55.1656 48.0702 54.9906 48.0921C54.9249 48.0921 54.8484 48.114 54.7828 48.1249C54.7171 48.1249 54.6515 48.1468 54.5749 48.1468C54.4109 48.1687 54.2359 48.2015 54.0718 48.2233C54.0609 48.2233 54.039 48.2233 54.0281 48.2233C53.9515 48.2233 53.864 48.2343 53.7765 48.2452C53.689 48.2452 53.6124 48.2562 53.5249 48.2671C53.4265 48.278 53.3171 48.289 53.2187 48.2999C53.1203 48.3108 53.0109 48.3109 52.9124 48.3218C52.8359 48.3218 52.7593 48.3327 52.6828 48.3437C52.6062 48.3437 52.5296 48.3546 52.4531 48.3546C52.3656 48.3546 52.2781 48.3546 52.1796 48.3655C51.9281 48.3874 51.6874 48.3983 51.4359 48.4093H51.414C51.1624 48.4093 50.9109 48.4202 50.6702 48.4312C50.2874 48.4312 49.8937 48.4312 49.5109 48.4312C49.4234 48.4312 49.3468 48.4312 49.2593 48.4312C48.8656 48.4312 48.4718 48.4202 48.0671 48.3874C48.0671 48.3874 48.0562 48.3874 48.0453 48.3874C47.8156 48.3765 47.5859 48.3765 47.3453 48.3437C47.2359 48.3218 47.1156 48.3218 47.0062 48.3108C46.8203 48.2999 46.6234 48.289 46.4374 48.278C46.2734 48.2671 46.1093 48.2562 45.9452 48.2343C45.8577 48.2343 45.7812 48.2233 45.6937 48.2124C45.6499 48.2124 45.5953 48.2015 45.5515 48.1905C45.3984 48.1687 45.2562 48.1358 45.1031 48.1249C44.9062 48.103 44.7093 48.0702 44.5234 48.0374C44.4578 48.0374 44.4031 48.0265 44.3375 48.0155C44.0203 47.9499 43.7031 47.8952 43.3968 47.8405C43.2656 47.8187 43.1343 47.7968 43.003 47.7749C42.8718 47.753 42.7406 47.7202 42.6093 47.6874C42.3687 47.6218 42.1281 47.578 41.8875 47.5233C41.8109 47.5015 41.7234 47.4796 41.6468 47.4577C41.4827 47.414 41.3187 47.3812 41.1656 47.3265C40.8484 47.228 40.5312 47.1296 40.214 47.0202C40.1593 46.9984 40.1047 46.9874 40.05 46.9655C39.8422 46.8999 39.6344 46.8233 39.4375 46.7358C39.175 46.6265 38.9234 46.4952 38.6499 46.3749C38.4859 46.3093 38.3328 46.2327 38.1906 46.1452C38.0375 46.0687 37.8953 45.9812 37.7531 45.8937C37.6874 45.8499 37.6218 45.8171 37.5562 45.7734C37.4906 45.7296 37.414 45.6858 37.3374 45.6421C37.3374 45.7077 37.3374 45.7515 37.3374 45.7952C37.3374 46.3858 37.3374 46.9765 37.3374 47.5562C37.3374 47.6765 37.3374 47.7858 37.3374 47.9062C37.3374 48.0483 37.3374 48.1905 37.3374 48.3327C37.3374 48.4749 37.3593 48.6062 37.4031 48.7265C37.4468 48.8468 37.5125 48.9671 37.589 49.0874L37.6109 49.153Z" fill="#368DDF"/>
<path d="M62.4282 51.5267V51.3735C62.3735 51.3954 62.3298 51.4064 62.2969 51.4282C62.2751 51.4392 62.2422 51.461 62.2204 51.472C62.1985 51.4829 62.1766 51.4938 62.1547 51.5048C62.0782 51.5485 61.9907 51.5813 61.9142 51.6251C61.7938 51.6798 61.6845 51.7345 61.5641 51.8001C61.3891 51.8876 61.2032 51.9423 61.0173 52.0188C60.8532 52.0845 60.7001 52.1501 60.536 52.2048C60.4157 52.2485 60.2954 52.2813 60.1751 52.3142C60.0548 52.347 59.9344 52.3907 59.8141 52.4235C59.65 52.4782 59.4751 52.522 59.311 52.5767C59.2563 52.5876 59.2016 52.6095 59.1469 52.6313C58.9501 52.686 58.7532 52.7298 58.5563 52.7735C58.5016 52.7845 58.4579 52.7954 58.4032 52.8063C58.3157 52.8282 58.2282 52.8392 58.1407 52.861C57.9985 52.8938 57.8673 52.9267 57.7251 52.9595C57.5938 52.9813 57.4735 53.0032 57.3423 53.0251C57.2657 53.036 57.1891 53.0579 57.1016 53.0689C57.0032 53.0907 56.9047 53.1126 56.8063 53.1235C56.6641 53.1454 56.522 53.1673 56.3798 53.1892C56.2595 53.211 56.1391 53.222 56.0079 53.2439C55.8219 53.2767 55.636 53.3095 55.461 53.3313C55.1657 53.3642 54.8594 53.386 54.5641 53.4407C54.4657 53.4517 54.3782 53.4626 54.2797 53.4626C54.2141 53.4626 54.1594 53.4626 54.0938 53.4845C54.061 53.4845 54.0282 53.4845 53.9954 53.4845C53.897 53.5063 53.7985 53.5063 53.7001 53.5063C53.6017 53.5063 53.4922 53.5063 53.3938 53.5282C53.3172 53.5282 53.2517 53.5392 53.1751 53.5392C53.0329 53.5392 52.9017 53.561 52.7595 53.561C52.6829 53.561 52.6173 53.561 52.5407 53.572C52.4751 53.572 52.3985 53.572 52.3329 53.5829C51.9829 53.6048 51.6329 53.6157 51.2938 53.6267C50.7579 53.6376 50.222 53.6376 49.686 53.6267C48.8767 53.6267 48.0563 53.6048 47.2469 53.561C47.1048 53.561 46.9735 53.5501 46.8313 53.5392C46.6891 53.5392 46.5579 53.5173 46.4157 53.5173C46.4157 53.5173 46.4048 53.5173 46.3938 53.5173C46.3938 53.5173 46.3829 53.5173 46.372 53.5173C46.197 53.5064 46.022 53.4845 45.847 53.4735C45.6938 53.4626 45.5298 53.4407 45.3767 53.4298C45.2782 53.4298 45.1688 53.4079 45.0704 53.397C44.961 53.386 44.8407 53.3751 44.7313 53.3642C44.5891 53.3532 44.4579 53.3313 44.3157 53.3204C44.1188 53.2876 43.9329 53.2548 43.736 53.2329C43.5282 53.2001 43.3204 53.1673 43.1235 53.1454C43.0251 53.1345 42.9157 53.1126 42.8173 53.1017C42.6751 53.0798 42.5329 53.047 42.3907 53.0142C42.1719 52.9704 41.9532 52.9376 41.7454 52.8938C41.5376 52.8501 41.3298 52.7954 41.1329 52.7517C40.9579 52.7079 40.772 52.6642 40.597 52.6204C40.4329 52.5767 40.2689 52.522 40.1048 52.4673C40.0501 52.4563 40.0063 52.4345 39.9516 52.4235C39.7001 52.347 39.4485 52.2704 39.2079 52.1938C39.1095 52.161 39.022 52.1173 38.9235 52.0845C38.8141 52.0407 38.6938 51.997 38.5845 51.9532C38.311 51.8438 38.0376 51.7126 37.7751 51.5814C37.6876 51.5376 37.6001 51.4938 37.5126 51.4501C37.5126 51.4501 37.4907 51.4501 37.4798 51.4392C37.4579 51.4392 37.4251 51.4173 37.3922 51.4063C37.3922 51.4063 37.3814 51.472 37.3814 51.4938C37.3814 52.0845 37.3814 52.6751 37.3814 53.2657C37.3814 53.4298 37.3814 53.5829 37.3814 53.747C37.3814 53.8563 37.4141 53.9767 37.4579 54.0751C37.5016 54.1845 37.5782 54.272 37.6439 54.3704C37.7642 54.5345 37.8954 54.6767 38.0595 54.8079C38.1579 54.8845 38.2563 54.9501 38.3657 55.0157C38.5735 55.147 38.7814 55.2782 39.011 55.3767C39.3501 55.5298 39.6892 55.672 40.0392 55.8032C40.2798 55.8907 40.5313 55.9673 40.772 56.0439C40.772 56.0439 40.7939 56.0439 40.8048 56.0439C40.9251 56.0767 41.0454 56.1204 41.1657 56.1532C41.3516 56.197 41.5376 56.2407 41.7235 56.2845C41.9423 56.3392 42.161 56.3939 42.3797 56.4376C42.4782 56.4595 42.5657 56.4704 42.6641 56.4923C42.7735 56.5142 42.8938 56.536 43.0032 56.5579C43.2766 56.6017 43.5501 56.6563 43.8235 56.7001C43.8782 56.7001 43.9438 56.722 43.9985 56.7329C44.0423 56.7329 44.097 56.7548 44.1407 56.7548C44.3485 56.7767 44.5563 56.7985 44.7532 56.8204C44.7532 56.8204 44.7532 56.8204 44.7642 56.8204C44.7642 56.8204 44.7641 56.8204 44.786 56.8204C45.0266 56.8532 45.2673 56.886 45.5079 56.9188C45.6392 56.9298 45.7813 56.9407 45.9126 56.9517C46.0438 56.9517 46.1751 56.9735 46.3173 56.9845C46.6892 57.0173 47.061 57.0501 47.4329 57.072C47.8485 57.0939 48.2641 57.1048 48.6797 57.1267C49.0626 57.1267 49.4345 57.1376 49.8173 57.1376C49.9157 57.1376 50.0251 57.1376 50.1235 57.1376C50.8673 57.1376 51.611 57.1157 52.3548 57.0829C52.3548 57.0829 52.3657 57.0829 52.3766 57.0829C52.6829 57.072 52.9892 57.0392 53.2954 57.0173C53.3173 57.0173 53.3501 57.0173 53.372 57.0173C53.6235 56.9954 53.8642 56.9735 54.1157 56.9517C54.1376 56.9517 54.1595 56.9517 54.1813 56.9517C54.1813 56.9517 54.2032 56.9517 54.2141 56.9517C54.4547 56.9298 54.6845 56.9079 54.9251 56.886C54.9251 56.886 54.936 56.886 54.947 56.886H54.9579C55.0891 56.8642 55.2204 56.8423 55.3517 56.8314C55.4282 56.8314 55.5047 56.8095 55.5813 56.7985C55.7563 56.7767 55.9313 56.7548 56.0954 56.722C56.2048 56.711 56.3141 56.6892 56.4126 56.6673C56.5876 56.6345 56.7626 56.6017 56.9376 56.5688C57.0579 56.547 57.1782 56.5251 57.2985 56.5032C57.3751 56.4923 57.4626 56.4704 57.5392 56.4595C57.8126 56.3938 58.086 56.3282 58.3595 56.2517C58.5563 56.197 58.7532 56.1423 58.961 56.0985C59.311 56.011 59.6391 55.8907 59.9673 55.7704C60.1094 55.7157 60.2516 55.661 60.3938 55.5954C60.536 55.5407 60.6782 55.4751 60.8095 55.4095C60.9516 55.3438 61.0829 55.2782 61.2141 55.2017C61.3126 55.147 61.4001 55.0813 61.4985 55.0157C61.6845 54.8954 61.8594 54.7642 62.0126 54.6001C62.0563 54.5563 62.0892 54.5126 62.122 54.4688C62.1985 54.3704 62.2642 54.261 62.3188 54.1517C62.3298 54.1298 62.3516 54.097 62.3626 54.0751C62.4173 53.9329 62.4501 53.7907 62.4391 53.6267C62.4391 53.5173 62.4391 53.4079 62.4391 53.2876C62.4391 52.7188 62.4391 52.1501 62.4391 51.5814L62.4282 51.5267Z" fill="#368DDF"/>
</svg>
