<svg width="80" height="16" viewBox="0 0 80 16" fill="none" xmlns="http://www.w3.org/2000/svg">
<path fill-rule="evenodd" clip-rule="evenodd" d="M0.5 5.32527H28.5V-0.00805664H0.5V5.32527Z" fill="#FDB913"/>
<path fill-rule="evenodd" clip-rule="evenodd" d="M0.5 10.6585H28.5V5.3252H0.5V10.6585Z" fill="#006A44"/>
<path fill-rule="evenodd" clip-rule="evenodd" d="M0.5 15.992H28.5V10.6587H0.5V15.992Z" fill="#C1272D"/>
<path d="M44.9395 3.46069V5.04858H40.5332V3.46069H44.9395ZM46.3281 3.46069V11.9919H44.2715V3.46069H46.3281ZM40.3926 3.46069H42.4375L42.2148 7.79663C42.1797 8.45288 42.1133 9.01929 42.0156 9.49585C41.918 9.96851 41.7871 10.3669 41.623 10.6912C41.459 11.0115 41.2617 11.2673 41.0312 11.4587C40.8008 11.6501 40.5332 11.7869 40.2285 11.8689C39.9277 11.9509 39.5898 11.9919 39.2148 11.9919H38.7168V10.4099L38.9395 10.3865C39.1191 10.3669 39.2773 10.3181 39.4141 10.24C39.5508 10.158 39.668 10.0369 39.7656 9.87671C39.8672 9.71655 39.9512 9.51147 40.0176 9.26147C40.084 9.01147 40.1367 8.70874 40.1758 8.35327C40.2188 7.9939 40.248 7.57397 40.2637 7.09351L40.3926 3.46069ZM49.5508 8.84546L52.6152 3.46069H54.6719V11.9919H52.6152V6.61304L49.5508 11.9919H47.4941V3.46069H49.5508V8.84546ZM59.8867 3.46069V11.9919H57.8301V3.46069H59.8867ZM62.4531 3.46069V5.04858H55.3223V3.46069H62.4531ZM66.8066 8.36499H64.6094L64.5977 7.01733H66.3789C66.6992 7.01733 66.9551 6.98218 67.1465 6.91187C67.3379 6.83765 67.4766 6.73022 67.5625 6.5896C67.6523 6.44897 67.6973 6.27319 67.6973 6.06226C67.6973 5.82007 67.6523 5.62476 67.5625 5.47632C67.4727 5.32788 67.3301 5.22046 67.1348 5.15405C66.9434 5.08374 66.6953 5.04858 66.3906 5.04858H65.3828V11.9919H63.3262V3.46069H66.3906C66.918 3.46069 67.3887 3.50952 67.8027 3.60718C68.2168 3.70093 68.5684 3.84546 68.8574 4.04077C69.1504 4.23608 69.373 4.48218 69.5254 4.77905C69.6777 5.07202 69.7539 5.41772 69.7539 5.81616C69.7539 6.16382 69.6797 6.48999 69.5312 6.79468C69.3828 7.09937 69.1348 7.34741 68.7871 7.53882C68.4434 7.72632 67.9727 7.82397 67.375 7.83179L66.8066 8.36499ZM66.7246 11.9919H64.1113L64.8145 10.4099H66.7246C67.0059 10.4099 67.2305 10.3669 67.3984 10.281C67.5703 10.1912 67.6934 10.074 67.7676 9.92944C67.8457 9.78101 67.8848 9.61694 67.8848 9.43726C67.8848 9.21851 67.8477 9.02905 67.7734 8.8689C67.7031 8.70874 67.5898 8.58569 67.4336 8.49976C67.2773 8.40991 67.0684 8.36499 66.8066 8.36499H65.0781L65.0898 7.01733H67.1582L67.6387 7.5564C68.209 7.53296 68.6602 7.61304 68.9922 7.79663C69.3281 7.98022 69.5684 8.22241 69.7129 8.52319C69.8574 8.82397 69.9297 9.13843 69.9297 9.46655C69.9297 10.0251 69.8086 10.4919 69.5664 10.8669C69.3281 11.2419 68.9707 11.5232 68.4941 11.7107C68.0176 11.8982 67.4277 11.9919 66.7246 11.9919ZM74.6875 5.25366L72.6074 11.9919H70.3984L73.5332 3.46069H74.9336L74.6875 5.25366ZM76.4102 11.9919L74.3242 5.25366L74.0547 3.46069H75.4727L78.625 11.9919H76.4102ZM76.3281 8.8103V10.3982H71.9512V8.8103H76.3281Z" fill="#4D4D4D"/>
</svg>
