<svg width="273" height="60" viewBox="0 0 273 60" fill="none" xmlns="http://www.w3.org/2000/svg">
<path d="M56.1207 1.19L55.7107 0.03L2.78069 0L2.36069 1.19C2.28069 1.42 -5.43931 24.28 7.48069 43.13C14.3607 53.17 27.6507 59.68 29.0507 59.96L29.2407 60L29.4307 59.96C30.8307 59.68 44.1207 53.17 51.0007 43.13C63.9207 24.29 56.2007 1.42 56.1207 1.19Z" fill="#333334"/>
<path d="M27.1907 28.93L29.2407 27.74L31.2907 28.93L36.2807 31.81L41.9007 35.06C42.4607 35.38 42.8907 35.83 43.1907 36.35C43.8007 37.4 43.8407 38.74 43.1907 39.87C42.2207 41.56 40.0707 42.14 38.3807 41.16L29.2407 35.88L20.1007 41.16C18.4207 42.14 16.2707 41.56 15.2907 39.87C14.6407 38.75 14.6807 37.41 15.2907 36.35C15.5907 35.83 16.0207 35.39 16.5807 35.06L22.2007 31.81L27.1907 28.93Z" fill="#C63235"/>
<path d="M29.2407 49.33C31.9303 49.33 34.1107 47.1496 34.1107 44.46C34.1107 41.7704 31.9303 39.59 29.2407 39.59C26.551 39.59 24.3707 41.7704 24.3707 44.46C24.3707 47.1496 26.551 49.33 29.2407 49.33Z" fill="#C63235"/>
<path d="M32.5607 26.73L30.5107 25.55L30.7807 25.39L30.5107 25.54V23.17V17.41V10.92C30.5107 10.28 30.6807 9.67999 30.9807 9.15999C31.5907 8.10999 32.7307 7.39999 34.0207 7.39999C35.9707 7.39999 37.5407 8.96999 37.5407 10.92V21.48L46.6807 26.76C48.3707 27.73 48.9407 29.88 47.9707 31.57C47.3207 32.7 46.1407 33.33 44.9207 33.33C44.3207 33.33 43.7207 33.18 43.1607 32.86L37.5407 29.61L32.5507 26.73H32.5607Z" fill="#EDE417"/>
<path d="M44.9907 22.06C47.6803 22.06 49.8607 19.8796 49.8607 17.19C49.8607 14.5004 47.6803 12.32 44.9907 12.32C42.301 12.32 40.1207 14.5004 40.1207 17.19C40.1207 19.8796 42.301 22.06 44.9907 22.06Z" fill="#EDE417"/>
<path d="M27.9707 23.18V25.55L27.7007 25.4L27.9707 25.56L25.9207 26.74L20.9307 29.62L15.3107 32.87C14.7507 33.19 14.1507 33.34 13.5507 33.34C12.3307 33.34 11.1507 32.71 10.5007 31.58C9.53066 29.89 10.1007 27.74 11.7907 26.77L20.9307 21.49V10.93C20.9307 8.98999 22.5007 7.40999 24.4507 7.40999C25.7507 7.40999 26.8907 8.10999 27.4907 9.16999C27.7907 9.68999 27.9607 10.29 27.9607 10.93V17.42V23.18H27.9707Z" fill="#018DFF"/>
<path d="M13.4907 22.06C16.1803 22.06 18.3607 19.8796 18.3607 17.19C18.3607 14.5004 16.1803 12.32 13.4907 12.32C10.801 12.32 8.62067 14.5004 8.62067 17.19C8.62067 19.8796 10.801 22.06 13.4907 22.06Z" fill="#018DFF"/>
<path d="M76.5414 46.6044V38.8144H77.6614V46.6044H76.5414Z" fill="#018DFF"/>
<path d="M83.9414 44.4344L81.3014 41.2544V46.6144H80.1814V39.9244L79.2714 38.8244H80.7414L83.9214 42.6444L87.1514 38.8244H88.6214L87.7114 39.9244V46.6144H86.5914V41.2544L83.9314 44.4344H83.9414Z" fill="#018DFF"/>
<path d="M90.2514 46.6044V38.8144H91.3714V46.6044H90.2514Z" fill="#018DFF"/>
<path d="M94.8014 46.6044H93.6614V38.8144H99.1414V39.9644H94.8014V46.6044Z" fill="#018DFF"/>
<path d="M100.861 46.6044V38.8144H104.871C105.211 38.8144 105.521 38.8644 105.811 38.9644C106.091 39.0644 106.331 39.2144 106.531 39.4044C106.731 39.5944 106.881 39.8244 106.991 40.1044C107.101 40.3844 107.151 40.6944 107.151 41.0344C107.151 41.3744 107.101 41.6944 106.991 41.9644C106.881 42.2344 106.731 42.4744 106.531 42.6744C106.331 42.8744 106.091 43.0244 105.811 43.1244C105.531 43.2244 105.221 43.2844 104.871 43.2844H103.491C103.241 43.2844 102.991 43.3044 102.741 43.3444C102.491 43.3844 102.241 43.4744 102.011 43.5944V46.5944H100.871L100.861 46.6044ZM104.861 42.1444C105.631 42.1444 106.011 41.7744 106.011 41.0344C106.011 40.6344 105.911 40.3544 105.721 40.1944C105.531 40.0344 105.241 39.9544 104.861 39.9544H102.001V42.4544C102.241 42.3144 102.481 42.2244 102.731 42.1944C102.981 42.1644 103.231 42.1444 103.491 42.1444H104.871H104.861Z" fill="#018DFF"/>
<path d="M110.511 38.6844H111.761L115.511 46.6044H114.241L113.731 45.4644H111.361C111.001 45.4644 110.691 45.4844 110.421 45.5344C110.141 45.5844 109.911 45.6444 109.721 45.7244C109.521 45.8044 109.371 45.8844 109.251 45.9744C109.131 46.0644 109.051 46.1544 109.011 46.2344L108.811 46.6044H107.581L110.951 39.6444L110.521 38.6844H110.511ZM113.211 44.3244L111.511 41.0344L109.791 44.7644C109.931 44.6444 110.161 44.5444 110.481 44.4544C110.801 44.3644 111.231 44.3244 111.771 44.3244H113.211Z" fill="#018DFF"/>
<path d="M124.921 45.4544L123.671 48.2444H122.411L123.141 46.6044H116.981V38.8144H118.121V45.4544H122.281V38.8144H123.421V45.4544H124.931H124.921Z" fill="#018DFF"/>
<path d="M126.591 46.6044V38.8144H127.711V46.6044H126.591Z" fill="#018DFF"/>
<path d="M135.311 43.7244C135.071 43.5944 134.831 43.5144 134.581 43.4744C134.331 43.4344 134.081 43.4144 133.831 43.4144H133.151L131.911 45.3744C131.731 45.6644 131.551 45.8944 131.381 46.0544C131.211 46.2144 131.031 46.3444 130.861 46.4244C130.691 46.5044 130.521 46.5544 130.351 46.5744C130.181 46.5944 130.011 46.6044 129.831 46.6044H129.491V45.4544H129.751C129.831 45.4544 129.921 45.4544 130.021 45.4244C130.111 45.4044 130.211 45.3644 130.321 45.3144C130.431 45.2544 130.541 45.1644 130.661 45.0544C130.781 44.9444 130.911 44.7844 131.051 44.5744L131.881 43.3544C131.591 43.3144 131.321 43.2344 131.081 43.1044C130.841 42.9844 130.631 42.8244 130.461 42.6344C130.291 42.4444 130.161 42.2144 130.061 41.9544C129.961 41.6944 129.911 41.3944 129.911 41.0744C129.911 40.7544 129.971 40.4244 130.091 40.1444C130.211 39.8644 130.381 39.6244 130.601 39.4244C130.821 39.2344 131.081 39.0744 131.381 38.9744C131.681 38.8644 132.011 38.8144 132.361 38.8144H136.451V46.6044H135.311V43.7244ZM135.311 39.9644H132.361C132.171 39.9644 132.001 39.9944 131.841 40.0444C131.681 40.0944 131.541 40.1644 131.421 40.2644C131.301 40.3544 131.211 40.4744 131.141 40.6044C131.071 40.7444 131.041 40.8944 131.041 41.0544C131.041 41.4744 131.161 41.7744 131.401 41.9644C131.641 42.1544 131.961 42.2544 132.361 42.2544H133.831C134.091 42.2544 134.341 42.2744 134.591 42.3044C134.841 42.3344 135.081 42.4244 135.311 42.5644V39.9544V39.9644Z" fill="#018DFF"/>
<path d="M148.201 44.4844C148.201 44.8744 148.121 45.2044 147.971 45.4744C147.811 45.7444 147.611 45.9644 147.351 46.1344C147.091 46.3044 146.811 46.4244 146.491 46.5044C146.171 46.5844 145.851 46.6144 145.531 46.6144H141.581V38.8244H145.531C145.861 38.8244 146.161 38.8744 146.441 38.9644C146.721 39.0544 146.971 39.1944 147.171 39.3744C147.381 39.5544 147.541 39.7744 147.651 40.0444C147.761 40.3044 147.821 40.6144 147.821 40.9544C147.821 41.2944 147.761 41.5944 147.641 41.8644C147.521 42.1344 147.351 42.3444 147.121 42.4944C147.251 42.5544 147.391 42.6444 147.521 42.7644C147.651 42.8844 147.771 43.0244 147.871 43.1844C147.971 43.3544 148.051 43.5444 148.111 43.7544C148.171 43.9744 148.201 44.2144 148.201 44.4844ZM142.711 42.3544C142.951 42.2144 143.191 42.1344 143.431 42.0944C143.681 42.0644 143.931 42.0444 144.191 42.0444H145.521C145.871 42.0444 146.151 41.9544 146.361 41.7744C146.571 41.5944 146.671 41.3244 146.671 40.9644C146.671 40.6044 146.561 40.3344 146.351 40.1844C146.131 40.0344 145.861 39.9644 145.521 39.9644H142.711V42.3544ZM142.711 45.4544H145.641C145.791 45.4544 145.951 45.4344 146.121 45.3844C146.291 45.3344 146.441 45.2744 146.581 45.1744C146.721 45.0844 146.831 44.9644 146.921 44.8244C147.011 44.6844 147.061 44.5144 147.061 44.3244C147.061 44.0944 147.011 43.9044 146.921 43.7644C146.831 43.6144 146.711 43.5044 146.571 43.4244C146.421 43.3444 146.261 43.2844 146.081 43.2444C145.901 43.2144 145.711 43.1944 145.521 43.1944H144.191C143.941 43.1944 143.691 43.2144 143.441 43.2544C143.191 43.2944 142.951 43.3744 142.711 43.5044V45.4544Z" fill="#018DFF"/>
<path d="M158.841 40.6744C158.551 40.3844 158.211 40.1544 157.821 39.9844C157.431 39.8144 157.011 39.7344 156.571 39.7344C156.131 39.7344 155.731 39.8044 155.361 39.9544C154.991 40.1044 154.661 40.3044 154.381 40.5744C154.101 40.8444 153.891 41.1544 153.731 41.5244C153.571 41.8844 153.501 42.2944 153.501 42.7244C153.501 43.1544 153.581 43.5244 153.751 43.8844C153.921 44.2444 154.141 44.5544 154.431 44.8044C154.721 45.0644 155.041 45.2644 155.411 45.4044C155.781 45.5544 156.171 45.6244 156.581 45.6244C157.091 45.6244 157.551 45.5144 157.981 45.2944C158.401 45.0744 158.761 44.7844 159.061 44.4144L159.761 45.3644C159.361 45.8044 158.891 46.1444 158.351 46.3944C157.801 46.6444 157.211 46.7744 156.581 46.7744C155.991 46.7744 155.441 46.6644 154.931 46.4544C154.421 46.2344 153.981 45.9444 153.601 45.5644C153.221 45.1844 152.931 44.7444 152.711 44.2344C152.491 43.7244 152.391 43.1744 152.391 42.5944C152.391 42.0144 152.501 41.4944 152.731 41.0044C152.961 40.5144 153.261 40.0844 153.651 39.7344C154.041 39.3744 154.481 39.0944 154.991 38.8944C155.501 38.6944 156.031 38.5944 156.591 38.5944C157.181 38.5944 157.731 38.7044 158.251 38.9244C158.761 39.1444 159.211 39.4444 159.591 39.8244L158.861 40.6844L158.841 40.6744Z" fill="#018DFF"/>
<path d="M166.721 46.6044V39.9644H164.481C164.431 40.4744 164.361 40.9944 164.271 41.5344C164.181 42.0744 164.061 42.6044 163.911 43.1244C163.761 43.6444 163.581 44.1344 163.361 44.6044C163.141 45.0744 162.881 45.4944 162.561 45.8744C162.421 46.0444 162.271 46.1744 162.111 46.2744C161.951 46.3744 161.781 46.4444 161.621 46.4944C161.461 46.5444 161.311 46.5744 161.171 46.5844C161.031 46.5944 160.901 46.6044 160.801 46.6044H160.591V45.4544H160.801C160.891 45.4544 160.981 45.4544 161.081 45.4244C161.181 45.3944 161.281 45.3644 161.391 45.2944C161.501 45.2244 161.621 45.1244 161.741 44.9944C161.861 44.8644 162.001 44.6844 162.151 44.4544C162.361 44.1244 162.531 43.7744 162.671 43.4144C162.811 43.0544 162.921 42.6844 163.011 42.3044C163.101 41.9244 163.171 41.5344 163.231 41.1344C163.291 40.7344 163.331 40.3444 163.381 39.9444H162.481L161.991 38.7944H167.861V46.5844H166.721V46.6044Z" fill="#018DFF"/>
<path d="M178.031 42.7244C178.031 43.3044 177.921 43.8344 177.691 44.3344C177.461 44.8244 177.161 45.2544 176.781 45.6144C176.401 45.9744 175.951 46.2644 175.441 46.4744C174.931 46.6844 174.391 46.7844 173.831 46.7844C173.241 46.7844 172.691 46.6744 172.181 46.4644C171.671 46.2444 171.231 45.9544 170.851 45.5744C170.471 45.1944 170.181 44.7544 169.961 44.2444C169.741 43.7344 169.641 43.1844 169.641 42.6044C169.641 42.0244 169.751 41.5044 169.981 41.0144C170.211 40.5244 170.511 40.0944 170.901 39.7444C171.291 39.3844 171.731 39.1044 172.241 38.9044C172.751 38.7044 173.281 38.6044 173.841 38.6044C174.401 38.6044 174.961 38.7144 175.471 38.9244C175.981 39.1344 176.421 39.4244 176.801 39.8044C177.181 40.1744 177.481 40.6144 177.701 41.1144C177.921 41.6144 178.031 42.1544 178.031 42.7444V42.7244ZM176.891 42.6544C176.891 42.2344 176.811 41.8444 176.641 41.4844C176.481 41.1244 176.251 40.8144 175.971 40.5544C175.691 40.2944 175.361 40.0944 174.991 39.9544C174.621 39.8144 174.231 39.7444 173.811 39.7444C173.391 39.7444 172.971 39.8144 172.601 39.9644C172.231 40.1144 171.901 40.3144 171.621 40.5844C171.341 40.8544 171.131 41.1644 170.971 41.5344C170.811 41.8944 170.741 42.3044 170.741 42.7344C170.741 43.1644 170.821 43.5344 170.991 43.8944C171.161 44.2544 171.381 44.5644 171.671 44.8144C171.961 45.0744 172.281 45.2744 172.651 45.4144C173.021 45.5644 173.411 45.6344 173.821 45.6344C174.231 45.6344 174.631 45.5544 175.011 45.4044C175.381 45.2544 175.711 45.0444 175.981 44.7744C176.261 44.5044 176.471 44.1944 176.641 43.8344C176.801 43.4744 176.891 43.0844 176.891 42.6544Z" fill="#018DFF"/>
<path d="M186.421 44.4844C186.421 44.8744 186.341 45.2044 186.191 45.4744C186.031 45.7444 185.831 45.9644 185.571 46.1344C185.311 46.3044 185.031 46.4244 184.711 46.5044C184.391 46.5844 184.071 46.6144 183.751 46.6144H179.801V38.8244H183.751C184.081 38.8244 184.381 38.8744 184.661 38.9644C184.941 39.0544 185.191 39.1944 185.391 39.3744C185.601 39.5544 185.761 39.7744 185.871 40.0444C185.981 40.3044 186.041 40.6144 186.041 40.9544C186.041 41.2944 185.981 41.5944 185.861 41.8644C185.741 42.1344 185.571 42.3444 185.341 42.4944C185.471 42.5544 185.611 42.6444 185.741 42.7644C185.871 42.8844 185.991 43.0244 186.091 43.1844C186.191 43.3544 186.271 43.5444 186.331 43.7544C186.391 43.9744 186.421 44.2144 186.421 44.4844ZM180.931 42.3544C181.171 42.2144 181.411 42.1344 181.651 42.0944C181.901 42.0644 182.151 42.0444 182.411 42.0444H183.741C184.091 42.0444 184.371 41.9544 184.581 41.7744C184.791 41.5944 184.891 41.3244 184.891 40.9644C184.891 40.6044 184.781 40.3344 184.571 40.1844C184.351 40.0344 184.081 39.9644 183.741 39.9644H180.931V42.3544ZM180.931 45.4544H183.861C184.011 45.4544 184.171 45.4344 184.341 45.3844C184.511 45.3344 184.661 45.2744 184.801 45.1744C184.941 45.0844 185.051 44.9644 185.141 44.8244C185.231 44.6844 185.281 44.5144 185.281 44.3244C185.281 44.0944 185.231 43.9044 185.141 43.7644C185.051 43.6144 184.931 43.5044 184.791 43.4244C184.641 43.3444 184.481 43.2844 184.301 43.2444C184.121 43.2144 183.931 43.1944 183.741 43.1944H182.411C182.161 43.1944 181.911 43.2144 181.661 43.2544C181.411 43.2944 181.171 43.3744 180.931 43.5044V45.4544Z" fill="#018DFF"/>
<path d="M190.291 38.6844H191.541L195.291 46.6044H194.021L193.511 45.4644H191.141C190.781 45.4644 190.471 45.4844 190.201 45.5344C189.921 45.5844 189.691 45.6444 189.501 45.7244C189.301 45.8044 189.151 45.8844 189.031 45.9744C188.911 46.0644 188.831 46.1544 188.791 46.2344L188.591 46.6044H187.361L190.731 39.6444L190.301 38.6844H190.291ZM192.991 44.3244L191.291 41.0344L189.571 44.7644C189.711 44.6444 189.941 44.5444 190.261 44.4544C190.581 44.3644 191.011 44.3244 191.551 44.3244H192.991Z" fill="#018DFF"/>
<path d="M202.001 38.8244V46.6144H200.861V43.6144C200.731 43.6744 200.591 43.7344 200.461 43.7844C200.321 43.8344 200.181 43.8844 200.021 43.9244C199.861 43.9644 199.691 43.9944 199.501 44.0144C199.311 44.0344 199.111 44.0444 198.881 44.0444C198.381 44.0444 197.941 43.9944 197.561 43.8944C197.181 43.7944 196.861 43.6344 196.611 43.4044C196.361 43.1744 196.161 42.8744 196.031 42.5044C195.901 42.1344 195.831 41.6844 195.831 41.1344C195.831 41.0344 195.831 40.8944 195.851 40.7044C195.861 40.5144 195.871 40.3044 195.891 40.0844C195.911 39.8644 195.931 39.6344 195.951 39.4044C195.971 39.1744 196.001 38.9744 196.041 38.8044H197.181C197.111 39.2444 197.061 39.6844 197.021 40.1244C196.981 40.5644 196.971 41.0044 196.971 41.4444C196.971 42.0044 197.141 42.3844 197.491 42.5944C197.831 42.8044 198.311 42.9144 198.931 42.9144C199.241 42.9144 199.551 42.8744 199.851 42.7844C200.151 42.6944 200.491 42.5844 200.871 42.4444V38.8044H202.011L202.001 38.8244Z" fill="#018DFF"/>
<path d="M209.841 38.8244V46.6144H208.701V43.6144C208.571 43.6744 208.431 43.7344 208.301 43.7844C208.161 43.8344 208.021 43.8844 207.861 43.9244C207.701 43.9644 207.531 43.9944 207.341 44.0144C207.151 44.0344 206.951 44.0444 206.721 44.0444C206.221 44.0444 205.781 43.9944 205.401 43.8944C205.021 43.7944 204.701 43.6344 204.451 43.4044C204.201 43.1744 204.001 42.8744 203.871 42.5044C203.741 42.1344 203.671 41.6844 203.671 41.1344C203.671 41.0344 203.671 40.8944 203.691 40.7044C203.701 40.5144 203.711 40.3044 203.731 40.0844C203.751 39.8644 203.771 39.6344 203.791 39.4044C203.811 39.1744 203.841 38.9744 203.881 38.8044H205.021C204.951 39.2444 204.901 39.6844 204.861 40.1244C204.821 40.5644 204.811 41.0044 204.811 41.4444C204.811 42.0044 204.981 42.3844 205.331 42.5944C205.671 42.8044 206.151 42.9144 206.771 42.9144C207.081 42.9144 207.391 42.8744 207.691 42.7844C207.991 42.6944 208.331 42.5844 208.711 42.4444V38.8044H209.851L209.841 38.8244Z" fill="#018DFF"/>
<path d="M217.851 38.8244H218.991V46.6144H217.851V40.6144L213.281 46.6144H212.141V38.8244H213.281V44.8244L217.851 38.8244Z" fill="#018DFF"/>
<path d="M222.411 46.6044H221.271V38.8144H222.411V42.0044C222.561 41.9244 222.721 41.8744 222.891 41.8444C223.061 41.8144 223.221 41.7944 223.391 41.7944C223.501 41.7944 223.661 41.8044 223.881 41.8344C224.091 41.8544 224.321 41.8844 224.571 41.9144C224.821 41.9444 225.061 41.9644 225.311 41.9944C225.551 42.0144 225.761 42.0344 225.941 42.0344C226.101 42.0344 226.271 42.0244 226.461 41.9944C226.651 41.9644 226.831 41.9144 226.991 41.8344V38.8144H228.131V46.6044H226.991V42.9844C226.821 43.0644 226.651 43.1144 226.461 43.1444C226.271 43.1744 226.101 43.1844 225.941 43.1844C225.771 43.1844 225.561 43.1744 225.321 43.1444C225.081 43.1244 224.831 43.0944 224.591 43.0644C224.341 43.0344 224.111 43.0144 223.901 42.9844C223.691 42.9644 223.531 42.9444 223.421 42.9444C223.251 42.9444 223.091 42.9644 222.921 42.9944C222.751 43.0244 222.591 43.0844 222.431 43.1544V46.6044H222.411Z" fill="#018DFF"/>
<path d="M231.261 40.6544C231.471 41.1844 231.701 41.6644 231.941 42.1044C232.191 42.5344 232.451 42.9344 232.731 43.2944C233.011 43.6544 233.291 44.0044 233.581 44.3444C233.801 43.9844 234.011 43.5744 234.211 43.1144C234.421 42.6544 234.611 42.1844 234.791 41.7044C234.971 41.2144 235.141 40.7244 235.291 40.2344C235.441 39.7444 235.581 39.2744 235.691 38.8344H237.001C236.851 39.4144 236.681 40.0044 236.491 40.5844C236.311 41.1644 236.101 41.7444 235.861 42.3244C235.631 42.8944 235.371 43.4644 235.081 44.0144C234.791 44.5644 234.481 45.0944 234.131 45.6044C233.971 45.8344 233.811 46.0244 233.651 46.1644C233.491 46.3044 233.321 46.4244 233.151 46.5044C232.981 46.5844 232.811 46.6444 232.631 46.6744C232.451 46.7044 232.271 46.7244 232.081 46.7244C231.951 46.7244 231.801 46.7144 231.651 46.6844C231.491 46.6644 231.341 46.6244 231.191 46.5844C231.041 46.5344 230.901 46.4844 230.781 46.4244C230.651 46.3644 230.561 46.2944 230.491 46.2244L230.931 45.2344C231.101 45.3744 231.261 45.4744 231.431 45.5344C231.601 45.5944 231.811 45.6244 232.091 45.6244C232.271 45.6244 232.431 45.5944 232.571 45.5244C232.711 45.4544 232.831 45.3444 232.911 45.1944C232.531 44.8544 232.171 44.4744 231.831 44.0544C231.491 43.6344 231.171 43.1644 230.881 42.6444C230.591 42.1244 230.321 41.5544 230.091 40.9244C229.851 40.2944 229.651 39.6044 229.481 38.8444H230.721C230.871 39.5344 231.051 40.1444 231.261 40.6744V40.6544Z" fill="#018DFF"/>
<path d="M70.4814 16.7244H76.4914V30.0044H80.9214V16.7244H87.1614V12.2944H70.4814V16.7244Z" fill="#333334"/>
<path d="M107.611 14.0544C106.651 13.2844 105.531 12.7044 104.281 12.3244C101.801 11.5644 99.1314 11.5544 96.6814 12.3644C95.4414 12.7644 94.3314 13.3744 93.3614 14.1544C92.3814 14.9444 91.5914 15.9344 91.0014 17.0844C90.4114 18.2444 90.1014 19.5944 90.1014 21.0844C90.1014 22.5744 90.3914 23.9244 90.9814 25.0944C91.5614 26.2544 92.3414 27.2544 93.3014 28.0644C94.2614 28.8644 95.3714 29.4844 96.6114 29.8944C97.8414 30.3044 99.1314 30.5144 100.441 30.5144C101.751 30.5144 103.051 30.3044 104.291 29.8744C105.541 29.4444 106.661 28.8244 107.611 28.0144C108.571 27.2044 109.361 26.1944 109.951 25.0244C110.541 23.8444 110.841 22.4844 110.841 20.9944C110.841 19.5044 110.541 18.1244 109.941 16.9644C109.351 15.8144 108.561 14.8344 107.591 14.0644L107.611 14.0544ZM106.231 21.0244C106.231 21.8244 106.071 22.5344 105.751 23.1444C105.431 23.7644 104.991 24.2844 104.471 24.7044C103.931 25.1344 103.311 25.4644 102.631 25.6844C101.231 26.1444 99.6914 26.1144 98.3214 25.7244C97.6414 25.5344 97.0214 25.2244 96.4814 24.8244C95.9514 24.4244 95.5214 23.9244 95.2014 23.3144C94.8814 22.7144 94.7214 21.9844 94.7214 21.1444C94.7214 20.3044 94.8814 19.5744 95.2014 18.9744C95.5214 18.3644 95.9514 17.8544 96.4614 17.4644C96.9814 17.0644 97.6014 16.7644 98.2814 16.5644C98.9814 16.3644 99.7214 16.2644 100.471 16.2644C101.221 16.2644 101.931 16.3644 102.641 16.5444C103.321 16.7244 103.941 17.0244 104.481 17.4144C105.001 17.8044 105.431 18.2944 105.751 18.8944C106.071 19.4844 106.231 20.1944 106.231 21.0044V21.0244Z" fill="#333334"/>
<path d="M129.751 20.0744C129.111 19.5544 128.211 19.1444 127.061 18.8444C125.941 18.5544 124.471 18.4144 122.691 18.4144C121.921 18.4144 121.301 18.3744 120.861 18.2944C120.351 18.2044 120.091 18.0944 119.951 18.0244C119.831 17.9544 119.751 17.8844 119.721 17.8144C119.671 17.6744 119.641 17.5044 119.641 17.3244C119.641 17.2344 119.691 17.1344 119.801 17.0144C119.951 16.8444 120.161 16.6944 120.411 16.5644C120.691 16.4244 121.011 16.3144 121.361 16.2244C121.711 16.1444 122.061 16.0944 122.421 16.0944C123.321 16.0944 124.181 16.1944 124.971 16.3944C125.721 16.5844 126.391 16.9244 126.961 17.4044L127.391 17.7644L130.381 14.3044L129.861 13.9444C128.591 13.0744 127.341 12.4944 126.121 12.1944C124.011 11.6844 121.681 11.5644 119.661 12.1344C118.771 12.3844 117.981 12.7544 117.311 13.2244C116.631 13.7044 116.081 14.2944 115.661 14.9744C115.231 15.6844 115.021 16.4644 115.021 17.3144C115.021 18.3044 115.221 19.1644 115.601 19.8744C115.981 20.5844 116.531 21.1744 117.211 21.6144C117.881 22.0444 118.671 22.3544 119.561 22.5444C120.421 22.7244 121.391 22.8144 122.431 22.8144C124.101 22.8144 125.341 22.9244 126.131 23.1444C126.881 23.3544 126.981 23.7344 126.981 24.0744C126.981 24.4944 126.871 25.1144 125.891 25.5744C125.031 25.9844 123.871 26.1944 122.421 26.1944C121.741 26.1944 121.151 26.1144 120.681 25.9544C120.201 25.7944 119.781 25.5844 119.431 25.3344C119.081 25.0844 118.761 24.8144 118.501 24.5244C118.201 24.1944 117.931 23.9044 117.661 23.6344L117.261 23.2344L114.131 26.4144L114.461 26.8144C115.421 27.9644 116.611 28.8744 117.991 29.5344C119.371 30.1944 120.861 30.5344 122.411 30.5344C123.621 30.5344 124.771 30.4044 125.841 30.1544C126.921 29.8944 127.881 29.5044 128.681 28.9944C129.511 28.4644 130.171 27.7844 130.641 26.9744C131.121 26.1544 131.361 25.1844 131.361 24.0844C131.361 23.3744 131.251 22.6644 131.051 21.9944C130.831 21.2744 130.381 20.6344 129.721 20.0944L129.751 20.0744Z" fill="#333334"/>
<path d="M140.971 12.2944H136.411V30.0044H149.771V25.5444H140.971V12.2944Z" fill="#333334"/>
<path d="M170.071 14.0544C169.111 13.2844 167.991 12.7044 166.741 12.3244C164.261 11.5644 161.591 11.5544 159.141 12.3644C157.901 12.7644 156.791 13.3744 155.821 14.1544C154.841 14.9444 154.051 15.9344 153.461 17.0844C152.871 18.2444 152.561 19.5944 152.561 21.0844C152.561 22.5744 152.851 23.9244 153.441 25.0944C154.021 26.2544 154.801 27.2544 155.761 28.0644C156.721 28.8644 157.831 29.4844 159.071 29.8944C160.301 30.3044 161.591 30.5144 162.901 30.5144C164.211 30.5144 165.511 30.3044 166.751 29.8744C168.001 29.4444 169.121 28.8244 170.071 28.0144C171.031 27.2044 171.821 26.1944 172.411 25.0244C173.001 23.8444 173.301 22.4844 173.301 20.9944C173.301 19.5044 173.001 18.1244 172.401 16.9644C171.811 15.8144 171.021 14.8344 170.051 14.0644L170.071 14.0544ZM168.691 21.0244C168.691 21.8244 168.531 22.5344 168.211 23.1444C167.891 23.7644 167.451 24.2844 166.931 24.7044C166.391 25.1344 165.771 25.4644 165.091 25.6844C163.691 26.1444 162.151 26.1144 160.781 25.7244C160.101 25.5344 159.481 25.2244 158.941 24.8244C158.411 24.4244 157.981 23.9244 157.661 23.3144C157.341 22.7144 157.181 21.9844 157.181 21.1444C157.181 20.3044 157.341 19.5744 157.661 18.9744C157.981 18.3644 158.411 17.8544 158.921 17.4644C159.441 17.0644 160.061 16.7644 160.741 16.5644C161.441 16.3644 162.181 16.2644 162.931 16.2644C163.681 16.2644 164.391 16.3644 165.101 16.5444C165.781 16.7244 166.401 17.0244 166.941 17.4144C167.461 17.8044 167.891 18.2944 168.211 18.8944C168.531 19.4844 168.691 20.1944 168.691 21.0044V21.0244Z" fill="#333334"/>
<path d="M190.861 12.2944L185.511 24.6444L180.281 12.2944H175.331L183.021 30.0044H188.021L195.851 12.2944H190.861Z" fill="#333334"/>
<path d="M201.961 11.9144L203.341 14.5544L195.101 30.0044H199.851L200.071 29.5644C200.131 29.5144 200.321 29.3644 200.881 29.1044C201.421 28.8544 202.091 28.6044 202.881 28.3644C203.681 28.1244 204.571 27.9244 205.551 27.7544C206.521 27.5944 207.511 27.5044 208.491 27.5044H210.131L211.441 30.0044H216.341L206.781 11.9144H201.951H201.961ZM207.981 23.3744C206.421 23.4044 205.101 23.5844 204.051 23.9044C203.651 24.0244 203.291 24.1444 202.971 24.2544L205.691 19.0144L207.981 23.3744Z" fill="#333334"/>
<path d="M234.831 25.1544C234.591 25.0744 234.201 24.8344 233.711 24.1544L231.471 20.3744L237.381 12.3044H231.751L224.961 21.7344V12.2944H220.341V30.0044H224.701L228.571 24.0944L230.451 27.1744C230.961 27.7944 231.431 28.2944 231.861 28.6644C232.311 29.0544 232.741 29.3444 233.161 29.5344C233.581 29.7244 234.011 29.8544 234.441 29.9144C234.841 29.9744 235.271 30.0044 235.721 30.0044H237.731V25.3544H236.011C235.641 25.3544 235.251 25.2844 234.841 25.1544H234.831Z" fill="#333334"/>
<path d="M247.121 12.2944H242.721V30.0044H247.121V12.2944Z" fill="#333334"/>
<path d="M262.631 11.9144H257.801L259.181 14.5544L250.941 30.0044H255.691L255.911 29.5644C255.971 29.5144 256.161 29.3644 256.721 29.1044C257.261 28.8544 257.931 28.6044 258.721 28.3644C259.521 28.1244 260.411 27.9244 261.391 27.7544C262.361 27.5944 263.351 27.5044 264.331 27.5044H265.971L267.281 30.0044H272.181L262.621 11.9144H262.631ZM263.821 23.3744C262.261 23.4044 260.941 23.5844 259.891 23.9044C259.491 24.0244 259.131 24.1444 258.811 24.2544L261.531 19.0144L263.821 23.3744Z" fill="#333334"/>
</svg>
