<svg width="243" height="67" viewBox="0 0 243 67" fill="none" xmlns="http://www.w3.org/2000/svg">
<path d="M50.0988 14.2876L49.7326 13.2484L2.47436 13.2188L2.10817 14.2876C2.03889 14.4955 -4.85932 34.9031 6.68059 51.728C12.8266 60.6848 24.6931 66.5042 25.9402 66.7517L26.1084 66.7813L26.2767 66.7517C27.5336 66.5042 39.3902 60.6848 45.5362 51.728C57.0662 34.9031 50.168 14.4856 50.0988 14.2876Z" fill="#333334"/>
<path d="M24.2676 39.0502L26.0985 37.9912L27.9295 39.0502L32.3831 41.6234L37.4009 44.5232C37.8958 44.8102 38.2817 45.2061 38.549 45.6713C39.0933 46.6115 39.1329 47.809 38.549 48.8086C37.678 50.313 35.758 50.8276 34.2537 49.9567L26.0886 45.2457L17.9236 49.9567C16.4193 50.8276 14.4992 50.313 13.6283 48.8086C13.0444 47.809 13.084 46.6115 13.6283 45.6713C13.8955 45.2061 14.2815 44.8102 14.7764 44.5232L19.7941 41.6234L24.2478 39.0502H24.2676Z" fill="#C63235"/>
<path d="M26.0986 57.2709C28.5036 57.2709 30.4533 55.3212 30.4533 52.9162C30.4533 50.5112 28.5036 48.5615 26.0986 48.5615C23.6936 48.5615 21.7439 50.5112 21.7439 52.9162C21.7439 55.3212 23.6936 57.2709 26.0986 57.2709Z" fill="#C63235"/>
<path d="M29.0578 37.0807L27.2268 36.0217V33.9038V28.7672V22.9676C27.2268 22.3935 27.3753 21.8591 27.6425 21.3939C28.1868 20.4537 29.1963 19.8203 30.3642 19.8203C32.106 19.8203 33.5114 21.2257 33.5015 22.9577V32.3895L41.6665 37.1005C43.1709 37.9615 43.6855 39.8815 42.8146 41.3958C42.2406 42.4053 41.1816 42.9595 40.0929 42.9595C39.5585 42.9595 39.024 42.821 38.5193 42.5339L33.5015 39.6341L29.0479 37.0609L29.0578 37.0807Z" fill="#EDE417"/>
<path d="M40.1523 32.9232C42.5573 32.9232 44.507 30.9736 44.507 28.5686C44.507 26.1635 42.5573 24.2139 40.1523 24.2139C37.7473 24.2139 35.7976 26.1635 35.7976 28.5686C35.7976 30.9736 37.7473 32.9232 40.1523 32.9232Z" fill="#EDE417"/>
<path d="M24.9702 33.9144V36.0323L23.1392 37.0913L18.6856 39.6645L13.6678 42.5643C13.173 42.8514 12.6286 42.9899 12.0942 42.9899C11.0055 42.9899 9.95644 42.4258 9.37251 41.4262C8.50158 39.9218 9.01622 38.0018 10.5206 37.1309L18.6856 32.4199V22.9782C18.6856 21.2462 20.091 19.8408 21.8328 19.8408C22.9908 19.8408 24.0102 20.4742 24.5545 21.4144C24.8217 21.8796 24.9702 22.414 24.9702 22.9881V28.7877V33.9243V33.9144Z" fill="#018DFF"/>
<path d="M12.0349 32.9232C14.4399 32.9232 16.3895 30.9736 16.3895 28.5686C16.3895 26.1635 14.4399 24.2139 12.0349 24.2139C9.62983 24.2139 7.68018 26.1635 7.68018 28.5686C7.68018 30.9736 9.62983 32.9232 12.0349 32.9232Z" fill="#018DFF"/>
<path d="M62.9043 28.285H68.2784V40.1416H72.2372V28.285H77.8092V24.3262H62.9043V28.285Z" fill="white"/>
<path d="M96.0591 25.8993C95.1981 25.2164 94.1985 24.6919 93.09 24.3554C90.883 23.6824 88.4879 23.6725 86.3007 24.3851C85.2021 24.7413 84.2025 25.2857 83.3316 25.9884C82.4607 26.701 81.7481 27.5818 81.2235 28.6111C80.6891 29.6503 80.4219 30.8478 80.4219 32.1839C80.4219 33.52 80.6891 34.7175 81.2037 35.7666C81.7184 36.8058 82.4211 37.6965 83.2821 38.419C84.1333 39.1316 85.1329 39.6858 86.2314 40.052C87.33 40.4182 88.478 40.6062 89.6558 40.6062C90.8335 40.6062 91.9915 40.4182 93.0999 40.0322C94.2084 39.6561 95.208 39.092 96.069 38.3695C96.9301 37.647 97.6328 36.7464 98.1573 35.6973C98.6819 34.6383 98.959 33.4309 98.959 32.0948C98.959 30.7587 98.6917 29.5315 98.1573 28.4923C97.6328 27.463 96.9301 26.5921 96.0591 25.8993ZM94.8319 32.1245C94.8319 32.8371 94.6835 33.4804 94.4063 34.0148C94.1193 34.5691 93.7333 35.0342 93.2583 35.4103C92.7733 35.7864 92.2191 36.0833 91.6154 36.2813C90.3684 36.687 88.9927 36.6672 87.7655 36.3208C87.1518 36.1526 86.6075 35.8755 86.1226 35.5192C85.6574 35.1629 85.2714 34.7175 84.9844 34.1732C84.6974 33.6388 84.5588 32.9855 84.5588 32.2433C84.5588 31.501 84.6974 30.8379 84.9844 30.3134C85.2714 29.769 85.6475 29.3138 86.1127 28.9674C86.5778 28.6111 87.132 28.3439 87.7358 28.1657C88.3593 27.9876 89.0224 27.8985 89.6954 27.8985C90.3684 27.8985 91.0018 27.9876 91.6253 28.1558C92.2389 28.3241 92.7832 28.5814 93.2682 28.9278C93.7334 29.2742 94.1193 29.7195 94.4063 30.2441C94.6835 30.7686 94.8319 31.402 94.8319 32.1344V32.1245Z" fill="white"/>
<path d="M115.824 31.2736C115.259 30.8084 114.448 30.4423 113.419 30.175C112.419 29.9177 111.113 29.789 109.519 29.789C108.826 29.789 108.282 29.7495 107.886 29.6802C107.431 29.601 107.193 29.502 107.075 29.4328C106.966 29.3734 106.896 29.3041 106.877 29.2447C106.827 29.1161 106.807 28.9676 106.807 28.8092C106.807 28.7301 106.857 28.641 106.946 28.5321C107.084 28.3837 107.273 28.2451 107.49 28.1264C107.738 27.9977 108.025 27.8987 108.341 27.8195C108.648 27.7404 108.965 27.7008 109.291 27.7008C110.093 27.7008 110.865 27.7899 111.568 27.968C112.241 28.1362 112.835 28.4431 113.349 28.8686L113.735 29.1853L116.398 26.0975L115.932 25.7808C114.804 25.0088 113.676 24.4843 112.597 24.217C110.717 23.7618 108.628 23.6529 106.827 24.1675C106.035 24.3952 105.323 24.7218 104.729 25.1375C104.125 25.563 103.63 26.0975 103.254 26.7012C102.878 27.3346 102.68 28.0373 102.68 28.7895C102.68 29.6703 102.858 30.4423 103.195 31.0757C103.541 31.7091 104.026 32.2336 104.64 32.6295C105.234 33.0155 105.936 33.2926 106.738 33.4608C107.51 33.6192 108.371 33.6984 109.301 33.6984C110.786 33.6984 111.904 33.7973 112.607 33.9953C113.28 34.1833 113.369 34.5198 113.369 34.8266C113.369 35.2027 113.27 35.7569 112.399 36.1726C111.637 36.5388 110.588 36.7269 109.301 36.7269C108.688 36.7269 108.173 36.6576 107.748 36.5091C107.322 36.3607 106.946 36.1825 106.629 35.9549C106.313 35.7371 106.035 35.4897 105.798 35.2324C105.531 34.9355 105.283 34.6782 105.056 34.4406L104.699 34.0843L101.898 36.9149L102.195 37.2712C103.056 38.2906 104.115 39.112 105.352 39.7058C106.59 40.2997 107.916 40.5966 109.301 40.5966C110.38 40.5966 111.409 40.4778 112.36 40.2502C113.32 40.0226 114.181 39.6663 114.903 39.211C115.645 38.7359 116.229 38.1322 116.655 37.4097C117.08 36.6774 117.298 35.8064 117.298 34.8266C117.298 34.1932 117.199 33.5598 117.021 32.966C116.823 32.3227 116.417 31.7487 115.833 31.2637L115.824 31.2736Z" fill="white"/>
<path d="M125.839 24.3262H121.772V40.1416H133.698V36.163H125.839V24.3262Z" fill="white"/>
<path d="M151.829 25.8993C150.968 25.2164 149.968 24.6919 148.86 24.3554C146.653 23.6824 144.258 23.6725 142.07 24.3851C140.972 24.7413 139.972 25.2857 139.101 25.9884C138.23 26.701 137.518 27.5818 136.993 28.6111C136.459 29.6503 136.192 30.8478 136.192 32.1839C136.192 33.52 136.459 34.7175 136.974 35.7666C137.488 36.8058 138.191 37.6965 139.052 38.419C139.903 39.1316 140.903 39.6858 142.001 40.052C143.1 40.4182 144.248 40.6062 145.426 40.6062C146.603 40.6062 147.761 40.4182 148.87 40.0322C149.978 39.6561 150.978 39.092 151.839 38.3695C152.7 37.647 153.403 36.7464 153.927 35.6973C154.452 34.6383 154.729 33.4309 154.729 32.0948C154.729 30.7587 154.462 29.5315 153.927 28.4923C153.403 27.463 152.7 26.5921 151.829 25.8993ZM150.602 32.1245C150.602 32.8371 150.453 33.4804 150.176 34.0148C149.889 34.5691 149.503 35.0342 149.028 35.4103C148.543 35.7864 147.989 36.0833 147.385 36.2813C146.138 36.687 144.762 36.6672 143.535 36.3208C142.922 36.1526 142.377 35.8755 141.892 35.5192C141.427 35.1629 141.041 34.7175 140.754 34.1732C140.467 33.6388 140.329 32.9855 140.329 32.2433C140.329 31.501 140.467 30.8379 140.754 30.3134C141.041 29.769 141.417 29.3138 141.882 28.9674C142.348 28.6111 142.902 28.3439 143.506 28.1657C144.129 27.9876 144.792 27.8985 145.465 27.8985C146.138 27.8985 146.772 27.9876 147.395 28.1558C148.009 28.3241 148.553 28.5814 149.038 28.9278C149.503 29.2742 149.889 29.7195 150.176 30.2441C150.453 30.7686 150.602 31.402 150.602 32.1344V32.1245Z" fill="white"/>
<path d="M170.386 24.3262L165.605 35.3514L160.944 24.3262H156.52L163.389 40.1416H167.842L174.839 24.3262H170.386Z" fill="white"/>
<path d="M180.293 23.9902L181.53 26.3556L174.176 40.152H178.422L178.62 39.7562C178.67 39.7067 178.848 39.578 179.343 39.3405C179.827 39.1129 180.421 38.8951 181.124 38.6774C181.837 38.4696 182.638 38.2815 183.509 38.1331C184.37 37.9846 185.261 37.9153 186.142 37.9153H187.606L188.774 40.1421H193.149L184.618 23.9902H180.303H180.293ZM185.667 34.2237C184.271 34.2534 183.093 34.4118 182.153 34.6988C181.797 34.8077 181.48 34.9165 181.193 35.0155L183.618 30.3342L185.667 34.2237Z" fill="white"/>
<path d="M209.637 35.8067C209.419 35.7374 209.073 35.5197 208.638 34.916L206.638 31.5411L211.913 24.3361H206.886L200.819 32.7584V24.3262H196.692V40.1416H200.581L204.035 34.8665L205.718 37.608C206.173 38.1622 206.599 38.6076 206.975 38.944C207.371 39.2904 207.767 39.5478 208.143 39.7259C208.519 39.8942 208.905 40.0129 209.281 40.0624C209.637 40.1119 210.023 40.1416 210.419 40.1416H212.21V35.9848H210.676C210.35 35.9848 209.993 35.9255 209.627 35.8067H209.637Z" fill="white"/>
<path d="M220.623 24.3262H216.694V40.1416H220.623V24.3262Z" fill="white"/>
<path d="M234.459 23.9902H230.144L231.381 26.3556L224.028 40.152H228.273L228.471 39.7562C228.521 39.7067 228.699 39.578 229.194 39.3405C229.679 39.1129 230.273 38.8951 230.975 38.6774C231.688 38.4696 232.49 38.2815 233.36 38.1331C234.222 37.9846 235.112 37.9153 235.993 37.9153H237.458L238.626 40.1421H243L234.469 23.9902H234.459ZM235.518 34.2237C234.123 34.2534 232.945 34.4118 232.005 34.6988C231.648 34.8077 231.332 34.9165 231.045 35.0155L233.469 30.3342L235.518 34.2237Z" fill="white"/>
<path d="M68.3378 54.7195V48.8407H66.3485C66.3089 49.286 66.2396 49.7512 66.1604 50.2263C66.0812 50.7013 65.9724 51.1764 65.8437 51.6316C65.715 52.0869 65.5468 52.5323 65.3588 52.9479C65.1608 53.3636 64.9332 53.7397 64.6561 54.0663C64.5373 54.2148 64.3987 54.3335 64.2503 54.4127C64.1018 54.5018 63.9633 54.5612 63.8247 54.6106C63.6862 54.6502 63.5476 54.6799 63.4189 54.6898C63.2903 54.6997 63.1814 54.7096 63.0923 54.7096H62.9043V53.6902H63.0923C63.1715 53.6902 63.2507 53.6902 63.3398 53.6704C63.4288 53.6506 63.5179 53.6209 63.6169 53.5616C63.7158 53.5022 63.8148 53.4131 63.9336 53.2943C64.0425 53.1756 64.1612 53.0172 64.2899 52.8193C64.4779 52.5224 64.6264 52.2156 64.755 51.8989C64.8738 51.5822 64.9827 51.2556 65.0618 50.9191C65.141 50.5826 65.2103 50.2362 65.2598 49.8898C65.3093 49.5434 65.3489 49.1871 65.3884 48.8407H64.5967L64.1612 47.8213H69.3571V54.7096H68.3477L68.3378 54.7195Z" fill="#018DFF"/>
<path d="M72.3857 53.7107H76.6315V54.7301H71.3762V47.8418H76.2258V48.8612H72.3857V50.9594C72.5936 50.8406 72.8113 50.7614 73.0191 50.7317C73.2369 50.702 73.4546 50.6921 73.6822 50.6921H75.1866V51.7115H73.6822C73.4645 51.7115 73.2369 51.7313 73.0191 51.761C72.8014 51.7907 72.5837 51.8699 72.3758 51.9787V53.7305L72.3857 53.7107Z" fill="#018DFF"/>
<path d="M79.2541 54.7194H78.2446V47.8311H83.0942V48.8504H79.2541V54.7293V54.7194Z" fill="#018DFF"/>
<path d="M85.3903 47.713H86.4987L89.8142 54.7201H88.686L88.2307 53.7106H86.1325C85.8158 53.7106 85.5387 53.7304 85.3012 53.7799C85.0538 53.8195 84.8459 53.8789 84.6777 53.9481C84.5094 54.0174 84.3709 54.0867 84.262 54.1659C84.1531 54.245 84.0839 54.3242 84.0542 54.3935L83.876 54.7201H82.7874L85.7664 48.5543L85.3903 47.7031V47.713ZM87.7853 52.7011L86.281 49.7914L84.7569 53.0871C84.8756 52.9782 85.0835 52.8892 85.3705 52.81C85.6575 52.7308 86.0336 52.6912 86.5185 52.6912H87.7952L87.7853 52.7011Z" fill="#018DFF"/>
<path d="M95.8019 54.7195V48.8407H93.8126C93.773 49.286 93.7037 49.7512 93.6245 50.2263C93.5453 50.7013 93.4365 51.1764 93.3078 51.6316C93.1792 52.0869 93.0109 52.5323 92.8229 52.9479C92.6249 53.3636 92.3973 53.7397 92.1202 54.0663C92.0014 54.2148 91.8629 54.3335 91.7144 54.4127C91.5659 54.5018 91.4274 54.5612 91.2888 54.6106C91.1503 54.6502 91.0117 54.6799 90.883 54.6898C90.7544 54.6997 90.6455 54.7096 90.5564 54.7096H90.3684V53.6902H90.5564C90.6356 53.6902 90.7148 53.6902 90.8039 53.6704C90.8929 53.6506 90.982 53.6209 91.081 53.5616C91.18 53.5022 91.2789 53.4131 91.3977 53.2943C91.5066 53.1756 91.6253 53.0172 91.754 52.8193C91.942 52.5224 92.0905 52.2156 92.2191 51.8989C92.3379 51.5822 92.4468 51.2556 92.526 50.9191C92.6051 50.5826 92.6744 50.2362 92.7239 49.8898C92.7734 49.5434 92.813 49.1871 92.8526 48.8407H92.0608L91.6253 47.8213H96.8213V54.7096H95.8118L95.8019 54.7195Z" fill="#018DFF"/>
<path d="M98.8403 54.7194V47.8311H99.83V54.7194H98.8403Z" fill="#018DFF"/>
<path d="M101.74 48.7225C101.899 48.5641 102.057 48.4157 102.225 48.287C102.384 48.1583 102.562 48.0396 102.75 47.9406C102.938 47.8416 103.156 47.7625 103.393 47.713C103.631 47.6635 103.918 47.6338 104.234 47.6338C104.709 47.6338 105.105 47.7031 105.422 47.8515C105.739 48 105.996 48.1781 106.184 48.3959C106.372 48.6136 106.511 48.8412 106.59 49.0887C106.669 49.3361 106.709 49.5538 106.709 49.7518C106.709 50.0685 106.659 50.3258 106.57 50.5237C106.471 50.7217 106.313 50.8998 106.095 51.0582C106.402 51.2363 106.639 51.454 106.808 51.7114C106.976 51.9687 107.055 52.3052 107.055 52.711C107.055 52.9881 107.005 53.2553 106.897 53.5225C106.798 53.7798 106.629 54.0174 106.412 54.2153C106.184 54.4132 105.897 54.5815 105.541 54.7003C105.184 54.819 104.749 54.8784 104.234 54.8784C103.967 54.8784 103.69 54.8487 103.403 54.7893C103.116 54.7299 102.839 54.6508 102.572 54.5419C102.304 54.433 102.057 54.3044 101.819 54.146C101.582 53.9877 101.384 53.8194 101.206 53.6314L101.829 52.7901C101.948 52.9584 102.106 53.1068 102.285 53.2355C102.463 53.3642 102.661 53.4829 102.878 53.572C103.096 53.6611 103.314 53.7402 103.551 53.7897C103.789 53.8392 104.017 53.859 104.234 53.859C104.571 53.859 104.858 53.8293 105.085 53.76C105.313 53.6908 105.501 53.6116 105.64 53.5027C105.778 53.3938 105.887 53.2751 105.946 53.1365C106.006 52.998 106.036 52.8495 106.036 52.6813C106.036 52.4833 105.996 52.3151 105.917 52.1864C105.838 52.0578 105.729 51.9588 105.6 51.8796C105.471 51.8103 105.323 51.7509 105.165 51.7213C105.006 51.6916 104.838 51.6718 104.67 51.6718H103.522V50.6524H104.67C104.986 50.6524 105.234 50.5732 105.422 50.4148C105.61 50.2565 105.699 50.019 105.699 49.6924C105.699 49.5043 105.65 49.3361 105.56 49.1975C105.462 49.059 105.343 48.9501 105.194 48.861C105.046 48.7719 104.887 48.7126 104.709 48.673C104.541 48.6334 104.373 48.6136 104.224 48.6136C104.007 48.6136 103.819 48.6334 103.65 48.673C103.482 48.7126 103.324 48.7621 103.175 48.8313C103.027 48.9006 102.898 48.9897 102.77 49.0887C102.641 49.1876 102.512 49.3064 102.374 49.4449L101.73 48.6829L101.74 48.7225Z" fill="#018DFF"/>
<path d="M110.39 47.713H111.498L114.814 54.7201H113.686L113.23 53.7106H111.132C110.816 53.7106 110.538 53.7304 110.301 53.7799C110.054 53.8195 109.846 53.8789 109.677 53.9481C109.509 54.0174 109.371 54.0867 109.262 54.1659C109.153 54.245 109.084 54.3242 109.054 54.3935L108.876 54.7201H107.787L110.766 48.5543L110.39 47.7031V47.713ZM112.785 52.7011L111.281 49.7914L109.757 53.0871C109.875 52.9782 110.083 52.8892 110.37 52.81C110.657 52.7308 111.033 52.6912 111.518 52.6912H112.795L112.785 52.7011Z" fill="#018DFF"/>
<path d="M123.137 53.7099L122.029 56.1742H120.911L121.554 54.7194H116.101V47.8311H117.11V53.7099H120.782V47.8311H121.791V53.7099H123.127H123.137Z" fill="#018DFF"/>
<path d="M124.612 54.7194V47.8311H125.602V54.7194H124.612Z" fill="#018DFF"/>
<path d="M132.322 52.176C132.114 52.0671 131.896 51.9879 131.679 51.9582C131.461 51.9187 131.233 51.8989 131.015 51.8989H130.412L129.313 53.6308C129.155 53.8882 128.996 54.0861 128.838 54.2345C128.68 54.383 128.531 54.4919 128.383 54.5611C128.234 54.6304 128.086 54.6799 127.928 54.6997C127.779 54.7195 127.621 54.7195 127.472 54.7195H127.166V53.7001H127.393C127.462 53.7001 127.542 53.7001 127.631 53.6803C127.72 53.6605 127.799 53.6308 127.898 53.5813C127.997 53.5319 128.086 53.4527 128.195 53.3537C128.304 53.2547 128.413 53.1162 128.541 52.938L129.274 51.8593C129.016 51.8197 128.779 51.7504 128.571 51.6415C128.353 51.5327 128.175 51.3941 128.027 51.2259C127.878 51.0576 127.759 50.8597 127.67 50.6221C127.581 50.3846 127.542 50.1273 127.542 49.8403C127.542 49.5533 127.591 49.2663 127.7 49.0089C127.809 48.7516 127.957 48.5438 128.155 48.3755C128.353 48.2073 128.581 48.0687 128.848 47.9697C129.115 47.8708 129.402 47.8213 129.719 47.8213H133.341V54.7096H132.332V52.1562L132.322 52.176ZM132.322 48.8506H129.719C129.551 48.8506 129.402 48.8704 129.254 48.9199C129.115 48.9693 128.987 49.0287 128.888 49.1178C128.789 49.2069 128.7 49.3058 128.64 49.4246C128.581 49.5434 128.551 49.6819 128.551 49.8205C128.551 50.1867 128.66 50.4539 128.878 50.632C129.095 50.8003 129.373 50.8894 129.729 50.8894H131.025C131.253 50.8894 131.471 50.9092 131.688 50.9388C131.906 50.9685 132.124 51.0477 132.332 51.1665V48.8605L132.322 48.8506Z" fill="#018DFF"/>
<path d="M143.733 52.8389C143.733 53.1853 143.664 53.4724 143.525 53.7099C143.387 53.9474 143.209 54.1355 142.981 54.2938C142.753 54.4423 142.506 54.5511 142.219 54.6204C141.932 54.6897 141.655 54.7194 141.368 54.7194H137.874V47.8311H141.368C141.655 47.8311 141.922 47.8706 142.179 47.9597C142.427 48.0389 142.644 48.1676 142.823 48.3259C143.001 48.4843 143.149 48.6822 143.248 48.9197C143.347 49.1573 143.397 49.4245 143.397 49.7214C143.397 50.0183 143.347 50.2855 143.238 50.523C143.129 50.7606 142.981 50.9486 142.773 51.0773C142.892 51.1367 143.011 51.2158 143.129 51.3148C143.248 51.4138 143.347 51.5424 143.436 51.6909C143.525 51.8393 143.595 52.0076 143.654 52.1956C143.713 52.3837 143.733 52.6014 143.733 52.8389ZM138.874 50.9585C139.081 50.8397 139.299 50.7606 139.517 50.7309C139.735 50.7012 139.962 50.6814 140.19 50.6814H141.368C141.684 50.6814 141.932 50.6022 142.11 50.4439C142.298 50.2855 142.387 50.048 142.387 49.7214C142.387 49.3948 142.288 49.1672 142.1 49.0385C141.912 48.9098 141.665 48.8405 141.368 48.8405H138.884V50.9486L138.874 50.9585ZM138.874 53.7H141.467C141.605 53.7 141.744 53.6802 141.892 53.6406C142.041 53.601 142.179 53.5416 142.298 53.4526C142.417 53.3734 142.526 53.2645 142.605 53.1359C142.684 53.0072 142.724 52.8587 142.724 52.6905C142.724 52.4925 142.684 52.3243 142.605 52.1956C142.526 52.067 142.417 51.968 142.288 51.8888C142.159 51.8196 142.011 51.7602 141.853 51.7305C141.694 51.7008 141.526 51.681 141.358 51.681H140.18C139.962 51.681 139.735 51.7008 139.517 51.7404C139.299 51.78 139.081 51.8492 138.874 51.9581V53.6901V53.7Z" fill="#018DFF"/>
<path d="M153.145 49.4745C152.888 49.2172 152.581 49.0093 152.245 48.8609C151.898 48.7124 151.532 48.6432 151.136 48.6432C150.74 48.6432 150.394 48.7124 150.067 48.8411C149.731 48.9698 149.444 49.1578 149.206 49.3854C148.959 49.623 148.771 49.9001 148.632 50.2267C148.494 50.5533 148.424 50.8997 148.424 51.2955C148.424 51.6914 148.494 52.0081 148.642 52.3248C148.791 52.6415 148.989 52.9088 149.246 53.1364C149.503 53.364 149.79 53.5422 150.117 53.6708C150.443 53.7995 150.79 53.8688 151.156 53.8688C151.601 53.8688 152.017 53.7698 152.393 53.5818C152.769 53.3937 153.086 53.1265 153.343 52.7999L153.967 53.6411C153.62 54.0271 153.195 54.3339 152.71 54.5517C152.225 54.7694 151.7 54.8882 151.146 54.8882C150.622 54.8882 150.137 54.7892 149.691 54.6011C149.246 54.4131 148.85 54.1459 148.513 53.8193C148.177 53.4927 147.92 53.0968 147.732 52.6415C147.544 52.1863 147.445 51.7013 147.445 51.1867C147.445 50.672 147.544 50.2168 147.741 49.7813C147.939 49.3458 148.217 48.9698 148.553 48.653C148.899 48.3363 149.295 48.0889 149.741 47.9108C150.186 47.7326 150.661 47.6436 151.156 47.6436C151.68 47.6436 152.165 47.7425 152.621 47.9306C153.076 48.1285 153.472 48.3957 153.808 48.7322L153.165 49.4943L153.145 49.4745Z" fill="#018DFF"/>
<path d="M160.113 54.7195V48.8407H158.123C158.084 49.286 158.014 49.7512 157.935 50.2263C157.856 50.7013 157.747 51.1764 157.619 51.6316C157.49 52.0869 157.322 52.5323 157.134 52.9479C156.936 53.3636 156.708 53.7397 156.431 54.0663C156.312 54.2148 156.174 54.3335 156.025 54.4127C155.877 54.5018 155.738 54.5612 155.6 54.6106C155.461 54.6502 155.322 54.6799 155.194 54.6898C155.065 54.6997 154.956 54.7096 154.867 54.7096H154.679V53.6902H154.867C154.946 53.6902 155.026 53.6902 155.115 53.6704C155.204 53.6506 155.293 53.6209 155.392 53.5616C155.491 53.5022 155.59 53.4131 155.708 53.2943C155.817 53.1756 155.936 53.0172 156.065 52.8193C156.253 52.5224 156.401 52.2156 156.53 51.8989C156.649 51.5822 156.758 51.2556 156.837 50.9191C156.916 50.5826 156.985 50.2362 157.035 49.8898C157.084 49.5434 157.124 49.1871 157.163 48.8407H156.372L155.936 47.8213H161.132V54.7096H160.123L160.113 54.7195Z" fill="#018DFF"/>
<path d="M170.119 51.2858C170.119 51.8004 170.02 52.2755 169.822 52.711C169.624 53.1464 169.347 53.5225 169.01 53.8491C168.674 54.1658 168.278 54.4231 167.823 54.6013C167.367 54.7893 166.902 54.8784 166.397 54.8784C165.873 54.8784 165.388 54.7794 164.933 54.5914C164.477 54.4033 164.091 54.1361 163.755 53.8095C163.418 53.473 163.161 53.087 162.973 52.6318C162.785 52.1765 162.686 51.6916 162.686 51.1769C162.686 50.6623 162.785 50.207 162.983 49.7715C163.181 49.3361 163.458 48.96 163.794 48.6433C164.141 48.3266 164.537 48.0792 164.982 47.901C165.427 47.7229 165.903 47.6338 166.397 47.6338C166.892 47.6338 167.387 47.7229 167.842 47.9109C168.298 48.099 168.684 48.3563 169.02 48.6829C169.357 49.0095 169.624 49.3955 169.812 49.8408C170.01 50.2862 170.099 50.7612 170.099 51.2858H170.119ZM169.109 51.2264C169.109 50.8503 169.04 50.5039 168.891 50.1872C168.743 49.8705 168.545 49.5934 168.298 49.3658C168.05 49.1381 167.763 48.96 167.437 48.8313C167.11 48.7027 166.764 48.6433 166.397 48.6433C166.031 48.6433 165.655 48.7126 165.329 48.8412C164.992 48.9699 164.705 49.1579 164.467 49.3856C164.22 49.6231 164.032 49.9002 163.893 50.2268C163.755 50.5534 163.686 50.8998 163.686 51.2957C163.686 51.6916 163.755 52.0083 163.903 52.325C164.052 52.6417 164.25 52.9089 164.507 53.1365C164.764 53.3642 165.051 53.5423 165.378 53.671C165.705 53.7996 166.051 53.8689 166.417 53.8689C166.783 53.8689 167.14 53.7996 167.466 53.6611C167.793 53.5225 168.08 53.3444 168.327 53.1068C168.575 52.8693 168.763 52.5922 168.911 52.2755C169.06 51.9588 169.129 51.6124 169.129 51.2363L169.109 51.2264Z" fill="#018DFF"/>
<path d="M177.551 52.8389C177.551 53.1853 177.482 53.4724 177.343 53.7099C177.205 53.9474 177.027 54.1355 176.799 54.2938C176.571 54.4423 176.324 54.5511 176.037 54.6204C175.75 54.6897 175.473 54.7194 175.186 54.7194H171.692V47.8311H175.186C175.473 47.8311 175.74 47.8706 175.997 47.9597C176.245 48.0389 176.462 48.1676 176.641 48.3259C176.819 48.4843 176.967 48.6822 177.066 48.9197C177.165 49.1573 177.215 49.4245 177.215 49.7214C177.215 50.0183 177.165 50.2855 177.056 50.523C176.947 50.7606 176.799 50.9486 176.591 51.0773C176.71 51.1367 176.829 51.2158 176.947 51.3148C177.066 51.4138 177.165 51.5424 177.254 51.6909C177.343 51.8393 177.413 52.0076 177.472 52.1956C177.531 52.3837 177.551 52.6014 177.551 52.8389ZM172.692 50.9585C172.9 50.8397 173.117 50.7606 173.335 50.7309C173.553 50.7012 173.78 50.6814 174.008 50.6814H175.186C175.502 50.6814 175.75 50.6022 175.928 50.4439C176.116 50.2855 176.205 50.048 176.205 49.7214C176.205 49.3948 176.106 49.1672 175.918 49.0385C175.73 48.9098 175.483 48.8405 175.186 48.8405H172.702V50.9486L172.692 50.9585ZM172.692 53.7H175.285C175.423 53.7 175.562 53.6802 175.71 53.6406C175.859 53.601 175.997 53.5416 176.116 53.4526C176.235 53.3734 176.344 53.2645 176.423 53.1359C176.502 53.0072 176.542 52.8587 176.542 52.6905C176.542 52.4925 176.502 52.3243 176.423 52.1956C176.344 52.067 176.235 51.968 176.106 51.8888C175.978 51.8196 175.829 51.7602 175.671 51.7305C175.512 51.7008 175.344 51.681 175.176 51.681H173.998C173.78 51.681 173.553 51.7008 173.335 51.7404C173.117 51.78 172.9 51.8492 172.692 51.9581V53.6901V53.7Z" fill="#018DFF"/>
<path d="M180.975 47.713H182.084L185.399 54.7201H184.271L183.816 53.7106H181.718C181.401 53.7106 181.124 53.7304 180.886 53.7799C180.639 53.8195 180.431 53.8789 180.263 53.9481C180.095 54.0174 179.956 54.0867 179.847 54.1659C179.738 54.245 179.669 54.3242 179.639 54.3935L179.461 54.7201H178.373L181.352 48.5543L180.975 47.7031V47.713ZM183.371 52.7011L181.866 49.7914L180.342 53.0871C180.461 52.9782 180.669 52.8892 180.956 52.81C181.243 52.7308 181.619 52.6912 182.104 52.6912H183.38L183.371 52.7011Z" fill="#018DFF"/>
<path d="M191.328 47.8323V54.7206H190.319V52.0682C190.2 52.1276 190.081 52.1771 189.962 52.2167C189.843 52.2563 189.715 52.3057 189.566 52.3453C189.428 52.3849 189.269 52.4146 189.111 52.4245C188.953 52.4443 188.765 52.4542 188.557 52.4542C188.111 52.4542 187.726 52.4146 187.389 52.3255C187.053 52.2365 186.775 52.0979 186.548 51.8901C186.32 51.6822 186.152 51.4249 186.033 51.0983C185.914 50.7717 185.855 50.3659 185.855 49.8909C185.855 49.8018 185.855 49.6731 185.865 49.5049C185.865 49.3366 185.885 49.1486 185.904 48.9507C185.924 48.7527 185.934 48.5548 185.964 48.3469C185.984 48.1391 186.013 47.9709 186.043 47.8224H187.053C186.993 48.2084 186.944 48.6043 186.914 48.9902C186.884 49.3861 186.864 49.7721 186.864 50.1581C186.864 50.6529 187.013 50.9894 187.32 51.1775C187.627 51.3655 188.052 51.4546 188.587 51.4546C188.864 51.4546 189.131 51.415 189.398 51.3358C189.665 51.2567 189.962 51.1577 190.309 51.0389V47.8125H191.318L191.328 47.8323Z" fill="#018DFF"/>
<path d="M198.266 47.8323V54.7206H197.256V52.0682C197.138 52.1276 197.019 52.1771 196.9 52.2167C196.781 52.2563 196.653 52.3057 196.504 52.3453C196.366 52.3849 196.207 52.4146 196.049 52.4245C195.89 52.4443 195.702 52.4542 195.495 52.4542C195.049 52.4542 194.663 52.4146 194.327 52.3255C193.99 52.2365 193.713 52.0979 193.486 51.8901C193.258 51.6822 193.09 51.4249 192.971 51.0983C192.852 50.7717 192.793 50.3659 192.793 49.8909C192.793 49.8018 192.793 49.6731 192.803 49.5049C192.803 49.3366 192.822 49.1486 192.842 48.9507C192.862 48.7527 192.872 48.5548 192.902 48.3469C192.921 48.1391 192.951 47.9709 192.981 47.8224H193.99C193.931 48.2084 193.881 48.6043 193.852 48.9902C193.822 49.3861 193.802 49.7721 193.802 50.1581C193.802 50.6529 193.951 50.9894 194.257 51.1775C194.564 51.3655 194.99 51.4546 195.524 51.4546C195.801 51.4546 196.069 51.415 196.336 51.3358C196.603 51.2567 196.9 51.1577 197.246 51.0389V47.8125H198.256L198.266 47.8323Z" fill="#018DFF"/>
<path d="M205.352 47.8311H206.361V54.7194H205.352V49.4047L201.304 54.7194H200.294V47.8311H201.304V53.1457L205.352 47.8311Z" fill="#018DFF"/>
<path d="M209.39 54.7194H208.38V47.8311H209.39V50.6616C209.519 50.5923 209.667 50.5428 209.815 50.523C209.964 50.4934 210.112 50.4835 210.261 50.4835C210.36 50.4835 210.498 50.4933 210.686 50.5131C210.874 50.5329 211.072 50.5626 211.3 50.5824C211.518 50.6022 211.735 50.6319 211.953 50.6517C212.171 50.6715 212.349 50.6814 212.507 50.6814C212.646 50.6814 212.804 50.6715 212.973 50.6418C213.141 50.622 213.299 50.5725 213.448 50.5032V47.8311H214.457V54.7194H213.448V51.5127C213.299 51.582 213.141 51.6315 212.973 51.6513C212.804 51.681 212.656 51.6909 212.507 51.6909C212.349 51.6909 212.171 51.681 211.953 51.6612C211.735 51.6414 211.518 51.6216 211.3 51.5919C211.082 51.5721 210.874 51.5424 210.696 51.5226C210.508 51.5028 210.37 51.4929 210.271 51.4929C210.122 51.4929 209.974 51.5028 209.825 51.5325C209.677 51.5622 209.538 51.6117 209.39 51.6711V54.7194Z" fill="#018DFF"/>
<path d="M216.476 54.7194V47.8311H217.466V54.7194H216.476Z" fill="#018DFF"/>
</svg>
