<svg width="122" height="16" viewBox="0 0 122 16" fill="none" xmlns="http://www.w3.org/2000/svg">
<path fill-rule="evenodd" clip-rule="evenodd" d="M0.5 5.32855H28.5V-0.00805664H0.5V5.32855Z" fill="#EF3340"/>
<path fill-rule="evenodd" clip-rule="evenodd" d="M0.5 10.6551H28.5V5.32837H0.5V10.6551Z" fill="white"/>
<path fill-rule="evenodd" clip-rule="evenodd" d="M0.5 15.9921H28.5V10.6555H0.5V15.9921Z" fill="#00A3E0"/>
<path d="M44.9395 3.46069V5.04858H40.5332V3.46069H44.9395ZM46.3281 3.46069V11.9919H44.2715V3.46069H46.3281ZM40.3926 3.46069H42.4375L42.2148 7.79663C42.1797 8.45288 42.1133 9.01929 42.0156 9.49585C41.918 9.96851 41.7871 10.3669 41.623 10.6912C41.459 11.0115 41.2617 11.2673 41.0312 11.4587C40.8008 11.6501 40.5332 11.7869 40.2285 11.8689C39.9277 11.9509 39.5898 11.9919 39.2148 11.9919H38.7168V10.4099L38.9395 10.3865C39.1191 10.3669 39.2773 10.3181 39.4141 10.24C39.5508 10.158 39.668 10.0369 39.7656 9.87671C39.8672 9.71655 39.9512 9.51147 40.0176 9.26147C40.084 9.01147 40.1367 8.70874 40.1758 8.35327C40.2188 7.9939 40.248 7.57397 40.2637 7.09351L40.3926 3.46069ZM49.7324 3.46069V11.9919H47.6816V3.46069H49.7324ZM51.209 7.17554V8.70483H48.7422V7.17554H51.209ZM58.0293 7.5564V7.9021C58.0293 8.55444 57.9375 9.14038 57.7539 9.65991C57.5742 10.1755 57.3184 10.6169 56.9863 10.9841C56.6543 11.3474 56.2617 11.6267 55.8086 11.822C55.3555 12.0134 54.8555 12.1091 54.3086 12.1091C53.7578 12.1091 53.2539 12.0134 52.7969 11.822C52.3438 11.6267 51.9492 11.3474 51.6133 10.9841C51.2812 10.6169 51.0234 10.1755 50.8398 9.65991C50.6602 9.14038 50.5703 8.55444 50.5703 7.9021V7.5564C50.5703 6.90405 50.6602 6.31812 50.8398 5.79858C51.0234 5.27905 51.2793 4.83765 51.6074 4.47437C51.9395 4.10718 52.332 3.82788 52.7852 3.63647C53.2422 3.44116 53.7461 3.34351 54.2969 3.34351C54.8438 3.34351 55.3438 3.44116 55.7969 3.63647C56.2539 3.82788 56.6484 4.10718 56.9805 4.47437C57.3125 4.83765 57.5703 5.27905 57.7539 5.79858C57.9375 6.31812 58.0293 6.90405 58.0293 7.5564ZM55.9434 7.9021V7.54468C55.9434 7.1228 55.9062 6.75171 55.832 6.4314C55.7617 6.10718 55.6562 5.83569 55.5156 5.61694C55.375 5.39819 55.2012 5.23413 54.9941 5.12476C54.791 5.01147 54.5586 4.95483 54.2969 4.95483C54.0234 4.95483 53.7852 5.01147 53.582 5.12476C53.3789 5.23413 53.209 5.39819 53.0723 5.61694C52.9355 5.83569 52.832 6.10718 52.7617 6.4314C52.6953 6.75171 52.6621 7.1228 52.6621 7.54468V7.9021C52.6621 8.32007 52.6953 8.69116 52.7617 9.01538C52.832 9.33569 52.9355 9.60718 53.0723 9.82983C53.2129 10.0525 53.3848 10.2205 53.5879 10.3337C53.7949 10.447 54.0352 10.5037 54.3086 10.5037C54.5703 10.5037 54.8027 10.447 55.0059 10.3337C55.209 10.2205 55.3789 10.0525 55.5156 9.82983C55.6562 9.60718 55.7617 9.33569 55.832 9.01538C55.9062 8.69116 55.9434 8.32007 55.9434 7.9021ZM61.3223 3.46069V11.9919H59.2715V3.46069H61.3223ZM66.2441 3.46069L63.1797 8.61694H60.9648L60.7188 6.75952H62.1191L63.7598 3.46069H66.2441ZM64.1113 11.9919L62.1133 8.25952L63.6074 6.88257L66.5371 11.9919H64.1113ZM71.7168 9.10327H73.7676C73.7402 9.69702 73.5801 10.2205 73.2871 10.6736C72.9941 11.1267 72.5879 11.4802 72.0684 11.7341C71.5527 11.9841 70.9434 12.1091 70.2402 12.1091C69.6699 12.1091 69.1602 12.0134 68.7109 11.822C68.2656 11.6306 67.8867 11.3552 67.5742 10.9958C67.2656 10.6365 67.0293 10.2009 66.8652 9.68921C66.7051 9.17749 66.625 8.60132 66.625 7.96069V7.4978C66.625 6.85718 66.709 6.28101 66.877 5.76929C67.0488 5.25366 67.291 4.81616 67.6035 4.45679C67.9199 4.09351 68.2988 3.81616 68.7402 3.62476C69.1816 3.43335 69.6719 3.33765 70.2109 3.33765C70.9531 3.33765 71.5801 3.47046 72.0918 3.73608C72.6035 4.00171 73 4.36694 73.2812 4.83179C73.5625 5.29272 73.7285 5.81812 73.7793 6.40796H71.7285C71.7207 6.08765 71.666 5.82007 71.5645 5.60522C71.4629 5.38647 71.3027 5.22241 71.084 5.11304C70.8652 5.00366 70.5742 4.94897 70.2109 4.94897C69.957 4.94897 69.7363 4.99585 69.5488 5.0896C69.3613 5.18335 69.2051 5.33179 69.0801 5.53491C68.9551 5.73804 68.8613 6.00171 68.7988 6.32593C68.7402 6.64624 68.7109 7.03296 68.7109 7.48608V7.96069C68.7109 8.41382 68.7383 8.80054 68.793 9.12085C68.8477 9.44116 68.9355 9.70288 69.0566 9.90601C69.1777 10.1091 69.334 10.2595 69.5254 10.3572C69.7207 10.4509 69.959 10.4978 70.2402 10.4978C70.5527 10.4978 70.8164 10.449 71.0312 10.3513C71.2461 10.2498 71.4121 10.0974 71.5293 9.89429C71.6465 9.68726 71.709 9.42358 71.7168 9.10327ZM80.6113 10.4099V11.9919H76.0645V10.4099H80.6113ZM76.7969 3.46069V11.9919H74.7402V3.46069H76.7969ZM80.0254 6.84741V8.37671H76.0645V6.84741H80.0254ZM80.6289 3.46069V5.04858H76.0645V3.46069H80.6289ZM82.4746 3.46069H84.1504L86.0547 9.39624L87.959 3.46069H89.6348L86.7344 11.9919H85.375L82.4746 3.46069ZM81.4551 3.46069H83.1895L83.5117 9.99976V11.9919H81.4551V3.46069ZM88.9199 3.46069H90.6602V11.9919H88.5977V9.99976L88.9199 3.46069ZM97.7383 3.46069V5.04858H94.0293V11.9919H91.9785V3.46069H97.7383ZM93.2676 6.39624H95.1016C95.793 6.39624 96.3945 6.51147 96.9062 6.74194C97.418 6.97241 97.8125 7.29468 98.0898 7.70874C98.3711 8.1228 98.5117 8.60718 98.5117 9.16187C98.5117 9.57983 98.4316 9.96265 98.2715 10.3103C98.1113 10.6541 97.8809 10.9529 97.5801 11.2068C97.2832 11.4568 96.9258 11.6501 96.5078 11.7869C96.0898 11.9236 95.6211 11.9919 95.1016 11.9919H91.9844V3.46069H94.0469V10.4099H95.1016C95.3945 10.4099 95.6406 10.3533 95.8398 10.24C96.043 10.1267 96.1973 9.97632 96.3027 9.78882C96.4082 9.59741 96.4609 9.38452 96.4609 9.15015C96.4609 8.92358 96.4082 8.72241 96.3027 8.54663C96.1973 8.37085 96.043 8.23218 95.8398 8.13062C95.6406 8.02905 95.3945 7.97827 95.1016 7.97827H93.2676V6.39624ZM102.074 8.77515L104.09 3.46069H106.264L103.387 10.2283C103.277 10.4783 103.15 10.7166 103.006 10.9431C102.865 11.1697 102.697 11.3708 102.502 11.5466C102.311 11.7224 102.084 11.8611 101.822 11.9626C101.561 12.0642 101.254 12.115 100.902 12.115C100.816 12.115 100.711 12.113 100.586 12.1091C100.465 12.1091 100.359 12.1072 100.27 12.1033L100.234 10.5095C100.285 10.5212 100.355 10.5291 100.445 10.533C100.535 10.533 100.6 10.533 100.639 10.533C100.873 10.533 101.059 10.5056 101.195 10.4509C101.332 10.3923 101.439 10.3064 101.518 10.1931C101.6 10.0759 101.67 9.92749 101.729 9.7478L102.074 8.77515ZM100.932 3.46069L102.678 7.16382L103.346 9.53101H101.869L98.7461 3.46069H100.932ZM110.371 9.09741H108.25V7.50952H110.371C110.66 7.50952 110.895 7.46069 111.074 7.36304C111.254 7.26538 111.385 7.13062 111.467 6.95874C111.553 6.78296 111.596 6.58569 111.596 6.36694C111.596 6.13257 111.553 5.91577 111.467 5.71655C111.385 5.51733 111.254 5.35718 111.074 5.23608C110.895 5.11108 110.66 5.04858 110.371 5.04858H109.023V11.9919H106.967V3.46069H110.371C111.055 3.46069 111.643 3.58569 112.135 3.83569C112.631 4.08569 113.012 4.42944 113.277 4.86694C113.543 5.30054 113.676 5.79663 113.676 6.35522C113.676 6.90601 113.543 7.38647 113.277 7.79663C113.012 8.20679 112.631 8.5271 112.135 8.75757C111.643 8.98413 111.055 9.09741 110.371 9.09741ZM120.531 3.46069V5.04858H116.822V11.9919H114.771V3.46069H120.531Z" fill="#4D4D4D"/>
</svg>
