<svg width="89" height="16" viewBox="0 0 89 16" fill="none" xmlns="http://www.w3.org/2000/svg">
<path d="M1 -0.00805664H29V15.9919H1V-0.00805664Z" fill="white"/>
<path d="M15 -0.00805664H29V15.9919H15V-0.00805664Z" fill="#CF142B"/>
<path d="M0.5 2.07251H6.5V3.92822H0.5V2.07251Z" fill="#CF142B"/>
<path d="M2.57251 0H4.42822V6H2.57251V0Z" fill="#CF142B"/>
<path d="M2.60995 4.51385C2.96111 4.51385 3.24578 4.22918 3.24578 3.87802C3.24578 3.52686 2.96111 3.24219 2.60995 3.24219C2.25879 3.24219 1.97412 3.52686 1.97412 3.87802C1.97412 4.22918 2.25879 4.51385 2.60995 4.51385Z" fill="#CF142B"/>
<path d="M4.43588 4.51385C4.78704 4.51385 5.07171 4.22918 5.07171 3.87802C5.07171 3.52686 4.78704 3.24219 4.43588 3.24219C4.08472 3.24219 3.80005 3.52686 3.80005 3.87802C3.80005 4.22918 4.08472 4.51385 4.43588 4.51385Z" fill="#CF142B"/>
<path d="M2.60995 2.82439C2.96111 2.82439 3.24578 2.53972 3.24578 2.18856C3.24578 1.83741 2.96111 1.55273 2.60995 1.55273C2.25879 1.55273 1.97412 1.83741 1.97412 2.18856C1.97412 2.53972 2.25879 2.82439 2.60995 2.82439Z" fill="#CF142B"/>
<path d="M4.43588 2.82439C4.78704 2.82439 5.07171 2.53972 5.07171 2.18856C5.07171 1.83741 4.78704 1.55273 4.43588 1.55273C4.08472 1.55273 3.80005 1.83741 3.80005 2.18856C3.80005 2.53972 4.08472 2.82439 4.43588 2.82439Z" fill="#CF142B"/>
<path d="M2.60841 4.36672C2.87836 4.36672 3.09719 4.14789 3.09719 3.87794C3.09719 3.608 2.87836 3.38916 2.60841 3.38916C2.33846 3.38916 2.11963 3.608 2.11963 3.87794C2.11963 4.14789 2.33846 4.36672 2.60841 4.36672Z" fill="#99AAB5"/>
<path d="M4.4358 4.36672C4.70575 4.36672 4.92458 4.14789 4.92458 3.87794C4.92458 3.608 4.70575 3.38916 4.4358 3.38916C4.16586 3.38916 3.94702 3.608 3.94702 3.87794C3.94702 4.14789 4.16586 4.36672 4.4358 4.36672Z" fill="#99AAB5"/>
<path d="M2.60841 2.67727C2.87836 2.67727 3.09719 2.45844 3.09719 2.18849C3.09719 1.91854 2.87836 1.69971 2.60841 1.69971C2.33846 1.69971 2.11963 1.91854 2.11963 2.18849C2.11963 2.45844 2.33846 2.67727 2.60841 2.67727Z" fill="#99AAB5"/>
<path d="M4.4358 2.67727C4.70575 2.67727 4.92458 2.45844 4.92458 2.18849C4.92458 1.91854 4.70575 1.69971 4.4358 1.69971C4.16586 1.69971 3.94702 1.91854 3.94702 2.18849C3.94702 2.45844 4.16586 2.67727 4.4358 2.67727Z" fill="#99AAB5"/>
<path d="M3.52247 4.27687C4.21525 4.27687 4.77687 3.71525 4.77687 3.02247C4.77687 2.32968 4.21525 1.76807 3.52247 1.76807C2.82968 1.76807 2.26807 2.32968 2.26807 3.02247C2.26807 3.71525 2.82968 4.27687 3.52247 4.27687Z" fill="#CCD6DD"/>
<path d="M2.81006 0.23877H4.1908V5.76172H2.81006V0.23877Z" fill="#CCD6DD"/>
<path d="M0.739014 2.31006H6.26197V3.6908H0.739014V2.31006Z" fill="#CCD6DD"/>
<path d="M3.52261 3.88873C3.98167 3.88873 4.35382 3.51658 4.35382 3.05752C4.35382 2.59846 3.98167 2.22632 3.52261 2.22632C3.06355 2.22632 2.69141 2.59846 2.69141 3.05752C2.69141 3.51658 3.06355 3.88873 3.52261 3.88873Z" fill="#B2C0C9"/>
<path d="M3.94703 3.0161C3.95762 3.00459 3.96866 2.99378 3.98017 2.98365L3.98638 2.97882C4.01538 2.99401 4.04368 3.01058 4.0713 3.02853C4.12653 3.06236 4.30188 2.98296 4.22249 2.93395C4.15414 2.89183 4.0858 2.84282 4.00157 2.85732C3.94017 2.86995 3.88337 2.89907 3.83726 2.94154C3.83266 2.89874 3.82599 2.85639 3.81724 2.81451C3.83036 2.80071 3.83795 2.78552 3.8345 2.76688C3.82691 2.72684 3.849 2.68265 3.86281 2.64606C3.86971 2.62811 3.86005 2.61569 3.84555 2.60809C3.85153 2.59981 3.85705 2.59129 3.86212 2.58255C3.88655 2.59107 3.91144 2.59822 3.93668 2.60395C3.96038 2.60724 3.98449 2.60576 4.00761 2.5996C4.03073 2.59343 4.05239 2.5827 4.0713 2.56805C4.10306 2.5432 4.0927 2.51765 4.05611 2.51075C3.99122 2.49763 3.93115 2.4645 3.8704 2.43826C3.83036 2.421 3.77168 2.43895 3.73647 2.45828C3.71369 2.47071 3.67848 2.50385 3.71507 2.5218C3.71093 2.52594 3.70609 2.67368 3.70402 2.67851C3.67365 2.7441 3.62256 2.30985 3.58735 3.00022H3.57492C3.56319 3.00022 3.47758 2.76204 3.48241 2.71441C3.5335 2.70405 3.50036 2.53215 3.50036 2.49694V2.47692C3.50036 2.46657 3.57838 2.45966 3.57285 2.45414C3.59356 2.44102 3.65363 2.42307 3.63499 2.40789C3.60599 2.38372 3.56595 2.40029 3.53419 2.41272C3.52453 2.40789 3.52453 2.40443 3.51486 2.40305C3.50796 2.40167 3.50589 2.40305 3.49898 2.40305C3.53626 2.38786 3.56802 2.36301 3.55835 2.33471C3.55283 2.31745 3.54869 2.30364 3.55835 2.28638C3.60461 2.2063 3.41338 2.22425 3.38093 2.28017C3.37128 2.29581 3.36523 2.3134 3.3632 2.33166C3.36117 2.34993 3.36322 2.36841 3.36919 2.38579C3.37748 2.41203 3.41131 2.421 3.44721 2.41755C3.42741 2.42747 3.41106 2.4431 3.40026 2.46242L3.39819 2.46864C3.36991 2.46872 3.34195 2.4746 3.31603 2.4859C3.20489 2.53353 3.08752 2.56805 2.98328 2.63018C2.96602 2.64054 2.91838 2.67368 2.96188 2.68748C2.99189 2.6943 3.0232 2.69263 3.05231 2.68265C3.05277 2.68725 3.05415 2.69163 3.05646 2.69577C3.08496 2.73233 3.12129 2.76206 3.16277 2.78276C3.20489 2.80347 3.26081 2.79173 3.29809 2.76688C3.32294 2.751 3.34986 2.71096 3.3188 2.68956C3.33053 2.6723 3.34848 2.65987 3.36574 2.64744C3.368 2.69027 3.37424 2.7328 3.38438 2.77447C3.38764 2.7843 3.39307 2.79326 3.40026 2.80071C3.37842 2.80514 3.35744 2.81306 3.33813 2.82418C3.31534 2.83799 3.28842 2.86905 3.30913 2.89045C3.26025 2.89831 3.21265 2.91271 3.16761 2.93326C3.15035 2.94085 3.11238 2.96294 3.10892 2.9871L3.04265 2.99539C3.00744 3.00091 2.94945 3.01748 2.93702 3.05752C2.92026 3.05854 2.90362 3.06108 2.88732 3.06512C2.84658 3.07064 2.76995 3.08859 2.7665 3.12449C2.76098 3.188 2.79273 3.23978 2.82035 3.29363C2.79432 3.318 2.77647 3.34983 2.76926 3.38476C2.75269 3.46691 2.946 3.43792 2.96049 3.36474C2.96257 3.35369 2.96395 3.34265 2.97361 3.33574C2.99777 3.31848 3.02194 3.28465 3.00054 3.26118C3.00974 3.25428 3.01342 3.24852 3.01158 3.24392C2.98742 3.19698 2.96188 3.15141 2.95842 3.09894C2.96892 3.10254 2.97982 3.10486 2.99087 3.10585C3.01013 3.17671 3.05148 3.23959 3.10892 3.28534C3.12135 3.29639 3.14413 3.29777 3.16899 3.29432C3.15865 3.30165 3.15053 3.31168 3.14551 3.32331C3.1238 3.38172 3.1101 3.4428 3.10478 3.50488C3.10202 3.53043 3.12135 3.55528 3.1462 3.56149C3.22274 3.58154 3.29408 3.6178 3.35539 3.66781C3.42235 3.7189 3.58942 3.62501 3.50243 3.55804C3.44267 3.51073 3.37549 3.47363 3.30361 3.44827C3.30718 3.41286 3.3153 3.37805 3.32777 3.34472C3.33197 3.33445 3.33362 3.32332 3.3326 3.31227C3.34817 3.3065 3.36319 3.29934 3.37748 3.29087C3.50036 3.21631 3.65086 3.20043 3.78272 3.14037C3.7772 3.1597 3.78894 3.17834 3.81655 3.18455C3.87316 3.19767 3.97603 3.19698 3.99467 3.26187C4.01331 3.32746 3.99122 3.40616 4.03333 3.46415C4.07199 3.518 4.25632 3.4531 4.21006 3.3889C4.19418 3.36681 4.19695 3.32331 4.19557 3.29708C4.19349 3.25635 4.19142 3.21355 4.17209 3.17627C4.13274 3.10171 4.00502 3.09618 3.93323 3.07892C3.90837 3.0734 3.88076 3.04095 3.85452 3.04924C3.85659 3.04441 3.85245 3.00022 3.84003 3.00022H3.83588C3.83657 3.00022 3.83657 3.03336 3.83726 3.03267C3.87938 3.02991 3.92011 3.04855 3.94703 3.0161Z" fill="#99AAB5"/>
<path d="M40.6699 3.46069H42.3457L44.25 9.39624L46.1543 3.46069H47.8301L44.9297 11.9919H43.5703L40.6699 3.46069ZM39.6504 3.46069H41.3848L41.707 9.99976V11.9919H39.6504V3.46069ZM47.1152 3.46069H48.8555V11.9919H46.793V9.99976L47.1152 3.46069ZM53.8945 5.25366L51.8145 11.9919H49.6055L52.7402 3.46069H54.1406L53.8945 5.25366ZM55.6172 11.9919L53.5312 5.25366L53.2617 3.46069H54.6797L57.832 11.9919H55.6172ZM55.5352 8.8103V10.3982H51.1582V8.8103H55.5352ZM64.3535 3.46069V5.04858H59.9473V3.46069H64.3535ZM65.7422 3.46069V11.9919H63.6855V3.46069H65.7422ZM59.8066 3.46069H61.8516L61.6289 7.79663C61.5938 8.45288 61.5273 9.01929 61.4297 9.49585C61.332 9.96851 61.2012 10.3669 61.0371 10.6912C60.873 11.0115 60.6758 11.2673 60.4453 11.4587C60.2148 11.6501 59.9473 11.7869 59.6426 11.8689C59.3418 11.9509 59.0039 11.9919 58.6289 11.9919H58.1309V10.4099L58.3535 10.3865C58.5332 10.3669 58.6914 10.3181 58.8281 10.24C58.9648 10.158 59.082 10.0369 59.1797 9.87671C59.2812 9.71655 59.3652 9.51147 59.4316 9.26147C59.498 9.01147 59.5508 8.70874 59.5898 8.35327C59.6328 7.9939 59.6621 7.57397 59.6777 7.09351L59.8066 3.46069ZM68.3145 6.39624H70.1484C70.8398 6.39624 71.4414 6.51147 71.9531 6.74194C72.4648 6.97241 72.8594 7.29468 73.1367 7.70874C73.418 8.1228 73.5586 8.60718 73.5586 9.16187C73.5586 9.57983 73.4785 9.96265 73.3184 10.3103C73.1582 10.6541 72.9277 10.9529 72.627 11.2068C72.3301 11.4568 71.9727 11.6501 71.5547 11.7869C71.1367 11.9236 70.668 11.9919 70.1484 11.9919H67.0312V3.46069H69.0938V10.4099H70.1484C70.4414 10.4099 70.6875 10.3533 70.8867 10.24C71.0898 10.1267 71.2441 9.97632 71.3496 9.78882C71.4551 9.59741 71.5078 9.38452 71.5078 9.15015C71.5078 8.92358 71.4551 8.72241 71.3496 8.54663C71.2441 8.37085 71.0898 8.23218 70.8867 8.13062C70.6875 8.02905 70.4414 7.97827 70.1484 7.97827H68.3145V6.39624ZM78.0586 3.46069V11.9919H76.002V3.46069H78.0586ZM80.625 3.46069V5.04858H73.4941V3.46069H80.625ZM84.3984 5.25366L82.3184 11.9919H80.1094L83.2441 3.46069H84.6445L84.3984 5.25366ZM86.1211 11.9919L84.0352 5.25366L83.7656 3.46069H85.1836L88.3359 11.9919H86.1211ZM86.0391 8.8103V10.3982H81.6621V8.8103H86.0391Z" fill="#4D4D4D"/>
</svg>
