<svg width="71" height="70" viewBox="0 0 71 70" fill="none" xmlns="http://www.w3.org/2000/svg">
<path d="M58.1297 0H12.8703C6.04531 0 0.5 5.54531 0.5 12.3703V57.6297C0.5 64.4547 6.04531 70 12.8703 70H58.1297C64.9547 70 70.5 64.4547 70.5 57.6297V12.3703C70.5 5.54531 64.9547 0 58.1297 0ZM68.3016 57.6297C68.3016 63.2406 63.7406 67.8016 58.1297 67.8016H12.8703C7.25937 67.8016 2.69845 63.2406 2.69845 57.6297V12.3703C2.69845 6.75938 7.25937 2.19844 12.8703 2.19844H58.1297C63.7406 2.19844 68.3016 6.75938 68.3016 12.3703V57.6297Z" fill="#B3B3B3"/>
<path d="M49.314 14.4157C43.7031 12.9501 38.7484 14.9297 35.6203 19.8516C35.4671 19.6438 35.3031 19.4251 35.15 19.2172C34.5046 18.3313 33.8265 17.4235 32.9734 16.7016C30.4031 14.5251 26.8703 13.5844 23.2719 14.1204C19.4328 14.6891 16.064 16.8001 14.0406 19.9282C11.6015 23.6797 11.2625 27.9344 12.9578 33.3157C13.1328 33.8735 13.964 34.1141 14.3578 34.1251C15.6812 34.1469 17.0046 34.1469 18.3281 34.1469C19.6734 34.1469 21.0078 34.1469 22.3531 34.1688C23.1843 34.1688 23.6656 33.8626 24.0265 33.0641C24.6719 31.6313 25.35 30.1985 26.0172 28.7766C26.5641 27.6063 27.1219 26.436 27.6578 25.2657C28.0844 24.3469 28.5109 24.0079 29.189 24.0626C29.8671 24.1172 30.2171 24.511 30.4906 25.5063C31.4968 29.2469 32.525 32.9766 33.5531 36.7063L33.8593 37.811C33.9906 38.2813 34.1328 38.7516 34.2969 39.2766L34.9531 41.475L35.675 39.5829C35.7953 39.2657 35.8937 39.0032 35.9922 38.7516L36.5281 37.2532C37.5562 34.3985 38.5843 31.5547 39.6015 28.7001C39.9625 27.6829 40.4984 27.5516 40.9359 27.5516C41.3516 27.5516 41.9531 27.6719 42.2593 28.6672C42.314 28.8313 42.3687 28.9954 42.4344 29.1594L45.0484 36.7938L45.5844 35.8751C46.2188 34.7922 47.3344 34.1141 48.4281 34.136C50.0359 34.1797 51.6765 34.1688 53.2515 34.1688C54.4109 34.1688 55.5812 34.1688 56.7406 34.1688C57.0796 34.1688 58.1078 34.1907 58.2937 32.9547C58.3812 32.3313 58.5015 31.7079 58.6109 31.0844C58.8625 29.7391 59.1141 28.3501 59.1141 26.961C59.1141 20.9891 55.1875 15.9469 49.3359 14.4266L49.314 14.4157Z" fill="#368DDF"/>
<path d="M49.1171 36.761C48.6031 36.7719 48.0452 37.1985 47.7937 37.5813C47.4327 38.1282 47.0937 38.6969 46.7765 39.2438C46.4921 39.7251 46.2078 40.2173 45.9015 40.6876C45.639 41.0923 45.2343 41.3329 44.7859 41.3548C44.3921 41.3657 44.0421 41.2016 43.7906 40.8954C43.5828 40.6219 43.4406 40.2391 43.2984 39.8235C42.8281 38.4782 42.3687 37.1329 41.8765 35.7001L40.8812 32.7907L39.2187 37.3735C38.1578 40.3048 37.1296 43.1266 36.1234 45.9594C35.7843 46.911 35.3905 47.2829 34.7343 47.2829C34.7343 47.2829 34.7234 47.2829 34.7125 47.2829C33.9797 47.2829 33.5749 46.8673 33.3124 45.8719C32.6453 43.4001 31.9672 40.9173 31.289 38.4454L30.9937 37.3626C30.5671 35.8094 30.1406 34.2563 29.6812 32.6376L28.7077 29.1376L28.15 30.3298C27.8875 30.8876 27.6249 31.4235 27.3734 31.9485C26.8046 33.1188 26.2687 34.2235 25.8093 35.3501C25.3718 36.4219 24.7484 36.8048 23.5672 36.7719C21.6203 36.7173 19.6952 36.7282 17.6499 36.7391C16.8077 36.7391 15.9437 36.7391 15.0687 36.7391H14.2484L14.9375 38.0079C15.1125 38.336 15.2546 38.5985 15.3968 38.8501C17.7812 42.9298 20.9422 46.7032 25.0765 50.3782C27.1656 52.2376 29.4515 53.911 31.6609 55.5407L32.9624 56.5032C33.7827 57.1048 34.6468 57.411 35.5218 57.411C36.3531 57.411 37.1843 57.1376 37.9718 56.5907C38.3984 56.2954 38.8359 56.0001 39.2734 55.7157C40.4984 54.8954 41.7672 54.0532 42.9156 53.1016C48.6906 48.311 52.7484 43.772 55.7015 38.7954C55.8656 38.5219 56.0078 38.2485 56.1609 37.9313C56.2375 37.7782 56.3249 37.6141 56.4124 37.4391L56.7843 36.7282H54.214C52.4421 36.7282 50.7796 36.7173 49.1062 36.761H49.1171Z" fill="#368DDF"/>
</svg>
