<svg width="118" height="124" viewBox="0 0 118 124" fill="none" xmlns="http://www.w3.org/2000/svg">
<path d="M0.0709229 72.7683V10.0078C0.0709229 4.48004 4.55097 0 10.0787 0H107.921C113.449 0 117.929 4.48004 117.929 10.0078V72.7683C117.929 79.9324 114.616 86.7073 108.959 91.0976L73.2483 118.856C64.8669 125.371 53.133 125.371 44.7516 118.856L9.04099 91.0976C3.38357 86.6973 0.0709229 79.9324 0.0709229 72.7683Z" fill="url(#paint0_linear_14004_3541)"/>
<path d="M57.4235 116.481C54.3004 116.192 51.347 114.885 48.8725 112.959L13.4412 85.4302C9.52992 82.3969 7.245 77.7173 7.245 72.7683V10.0078C7.245 8.45127 8.51218 7.18408 10.0687 7.18408H107.911C109.478 7.18408 110.735 8.45127 110.735 10.0078V72.7683C110.735 77.7573 108.48 82.367 104.539 85.4302L68.8281 113.189C65.5754 115.713 61.5842 116.88 57.4135 116.491L57.4235 116.481Z" stroke="#CCCCCC" stroke-width="2.55" stroke-miterlimit="10"/>
<defs>
<linearGradient id="paint0_linear_14004_3541" x1="59" y1="123.745" x2="59" y2="0" gradientUnits="userSpaceOnUse">
<stop stop-color="#3650D1"/>
<stop offset="0.74" stop-color="#3686D3"/>
</linearGradient>
</defs>
</svg>
