<svg width="117" height="16" viewBox="0 0 117 16" fill="none" xmlns="http://www.w3.org/2000/svg">
<path fill-rule="evenodd" clip-rule="evenodd" d="M0.5 5.32855H28.5V-0.00805664H0.5V5.32855Z" fill="#AE1C28"/>
<path fill-rule="evenodd" clip-rule="evenodd" d="M0.5 10.6652H28.5V5.32861H0.5V10.6652Z" fill="white"/>
<path fill-rule="evenodd" clip-rule="evenodd" d="M0.5 15.9918H28.5V10.665H0.5V15.9918Z" fill="#21468B"/>
<path d="M44.8984 6.84741V8.42944H40.5215V6.84741H44.8984ZM41.207 3.46069V11.9919H39.1504V3.46069H41.207ZM46.2812 3.46069V11.9919H44.2305V3.46069H46.2812ZM49.7734 3.46069V11.9919H47.7227V3.46069H49.7734ZM58.1465 10.4099V11.9919H52.1523V10.4099H58.1465ZM52.832 10.4099V14.0837H50.9277L50.7871 10.4099H52.832ZM59.5469 10.4099L59.3301 14.0896H57.4844V10.4099H59.5469ZM57.25 3.46069V5.04858H52.9668V3.46069H57.25ZM58.6328 3.46069V11.9919H56.5879V3.46069H58.6328ZM52.832 3.46069H54.8828L54.6309 6.95874C54.5879 7.5564 54.5195 8.07593 54.4258 8.51733C54.332 8.95874 54.2207 9.3396 54.0918 9.65991C53.9629 9.98022 53.8223 10.2556 53.6699 10.4861C53.5176 10.7166 53.3574 10.9177 53.1895 11.0896C53.0254 11.2615 52.8613 11.4177 52.6973 11.5583C52.5332 11.699 52.375 11.8435 52.2227 11.9919H50.9746V10.4099H51.3848C51.5059 10.324 51.627 10.2087 51.748 10.0642C51.873 9.91577 51.9902 9.7146 52.0996 9.46069C52.209 9.20679 52.3047 8.87671 52.3867 8.47046C52.4688 8.06421 52.5312 7.5603 52.5742 6.95874L52.832 3.46069ZM66.127 10.4099V11.9919H61.5801V10.4099H66.127ZM62.3125 3.46069V11.9919H60.2559V3.46069H62.3125ZM65.541 6.84741V8.37671H61.5801V6.84741H65.541ZM66.1445 3.46069V5.04858H61.5801V3.46069H66.1445ZM70.375 9.09741H68.2539V7.50952H70.375C70.6641 7.50952 70.8984 7.46069 71.0781 7.36304C71.2578 7.26538 71.3887 7.13062 71.4707 6.95874C71.5566 6.78296 71.5996 6.58569 71.5996 6.36694C71.5996 6.13257 71.5566 5.91577 71.4707 5.71655C71.3887 5.51733 71.2578 5.35718 71.0781 5.23608C70.8984 5.11108 70.6641 5.04858 70.375 5.04858H69.0273V11.9919H66.9707V3.46069H70.375C71.0586 3.46069 71.6465 3.58569 72.1387 3.83569C72.6348 4.08569 73.0156 4.42944 73.2812 4.86694C73.5469 5.30054 73.6797 5.79663 73.6797 6.35522C73.6797 6.90601 73.5469 7.38647 73.2812 7.79663C73.0156 8.20679 72.6348 8.5271 72.1387 8.75757C71.6465 8.98413 71.0586 9.09741 70.375 9.09741ZM79.7207 3.46069V5.04858H75.3145V3.46069H79.7207ZM81.1094 3.46069V11.9919H79.0527V3.46069H81.1094ZM75.1738 3.46069H77.2188L76.9961 7.79663C76.9609 8.45288 76.8945 9.01929 76.7969 9.49585C76.6992 9.96851 76.5684 10.3669 76.4043 10.6912C76.2402 11.0115 76.043 11.2673 75.8125 11.4587C75.582 11.6501 75.3145 11.7869 75.0098 11.8689C74.709 11.9509 74.3711 11.9919 73.9961 11.9919H73.498V10.4099L73.7207 10.3865C73.9004 10.3669 74.0586 10.3181 74.1953 10.24C74.332 10.158 74.4492 10.0369 74.5469 9.87671C74.6484 9.71655 74.7324 9.51147 74.7988 9.26147C74.8652 9.01147 74.918 8.70874 74.957 8.35327C75 7.9939 75.0293 7.57397 75.0449 7.09351L75.1738 3.46069ZM86.1133 5.25366L84.0332 11.9919H81.8242L84.959 3.46069H86.3594L86.1133 5.25366ZM87.8359 11.9919L85.75 5.25366L85.4805 3.46069H86.8984L90.0508 11.9919H87.8359ZM87.7539 8.8103V10.3982H83.377V8.8103H87.7539ZM96.4258 6.84741V8.42944H92.0488V6.84741H96.4258ZM92.7344 3.46069V11.9919H90.6777V3.46069H92.7344ZM97.8086 3.46069V11.9919H95.7578V3.46069H97.8086ZM106.041 10.4099V11.9919H100.047V10.4099H106.041ZM100.727 10.4099V14.0837H98.8223L98.6816 10.4099H100.727ZM107.441 10.4099L107.225 14.0896H105.379V10.4099H107.441ZM105.145 3.46069V5.04858H100.861V3.46069H105.145ZM106.527 3.46069V11.9919H104.482V3.46069H106.527ZM100.727 3.46069H102.777L102.525 6.95874C102.482 7.5564 102.414 8.07593 102.32 8.51733C102.227 8.95874 102.115 9.3396 101.986 9.65991C101.857 9.98022 101.717 10.2556 101.564 10.4861C101.412 10.7166 101.252 10.9177 101.084 11.0896C100.92 11.2615 100.756 11.4177 100.592 11.5583C100.428 11.699 100.27 11.8435 100.117 11.9919H98.8691V10.4099H99.2793C99.4004 10.324 99.5215 10.2087 99.6426 10.0642C99.7676 9.91577 99.8848 9.7146 99.9941 9.46069C100.104 9.20679 100.199 8.87671 100.281 8.47046C100.363 8.06421 100.426 7.5603 100.469 6.95874L100.727 3.46069ZM110.09 8.84546L113.154 3.46069H115.211V11.9919H113.154V6.61304L110.09 11.9919H108.033V3.46069H110.09V8.84546Z" fill="#4D4D4D"/>
</svg>
