<svg width="96" height="16" viewBox="0 0 96 16" fill="none" xmlns="http://www.w3.org/2000/svg">
<mask id="mask0_6002_1701" style="mask-type:luminance" maskUnits="userSpaceOnUse" x="0" y="-1" width="29" height="17">
<path d="M28.5 -0.00805664H0.5V15.9919H28.5V-0.00805664Z" fill="white"/>
</mask>
<g mask="url(#mask0_6002_1701)">
<path d="M28.5 -0.00805664H0.5V15.9919H28.5V-0.00805664Z" fill="#DC1C37"/>
<path d="M10.7091 -0.00805664H6.62744V15.9919H10.7091V-0.00805664Z" fill="white"/>
<path d="M28.5 5.99292H0.5V9.99046H28.5V5.99292Z" fill="white"/>
<path d="M9.69624 -0.00805664H7.65039V15.9919H9.69624V-0.00805664Z" fill="#192967"/>
<path d="M28.5 6.99487H0.5V8.99857H28.5V6.99487Z" fill="#192967"/>
</g>
<path d="M44.8984 6.84741V8.42944H40.5215V6.84741H44.8984ZM41.207 3.46069V11.9919H39.1504V3.46069H41.207ZM46.2812 3.46069V11.9919H44.2305V3.46069H46.2812ZM54.8066 7.5564V7.9021C54.8066 8.55444 54.7148 9.14038 54.5312 9.65991C54.3516 10.1755 54.0957 10.6169 53.7637 10.9841C53.4316 11.3474 53.0391 11.6267 52.5859 11.822C52.1328 12.0134 51.6328 12.1091 51.0859 12.1091C50.5352 12.1091 50.0312 12.0134 49.5742 11.822C49.1211 11.6267 48.7266 11.3474 48.3906 10.9841C48.0586 10.6169 47.8008 10.1755 47.6172 9.65991C47.4375 9.14038 47.3477 8.55444 47.3477 7.9021V7.5564C47.3477 6.90405 47.4375 6.31812 47.6172 5.79858C47.8008 5.27905 48.0566 4.83765 48.3848 4.47437C48.7168 4.10718 49.1094 3.82788 49.5625 3.63647C50.0195 3.44116 50.5234 3.34351 51.0742 3.34351C51.6211 3.34351 52.1211 3.44116 52.5742 3.63647C53.0312 3.82788 53.4258 4.10718 53.7578 4.47437C54.0898 4.83765 54.3477 5.27905 54.5312 5.79858C54.7148 6.31812 54.8066 6.90405 54.8066 7.5564ZM52.7207 7.9021V7.54468C52.7207 7.1228 52.6836 6.75171 52.6094 6.4314C52.5391 6.10718 52.4336 5.83569 52.293 5.61694C52.1523 5.39819 51.9785 5.23413 51.7715 5.12476C51.5684 5.01147 51.3359 4.95483 51.0742 4.95483C50.8008 4.95483 50.5625 5.01147 50.3594 5.12476C50.1562 5.23413 49.9863 5.39819 49.8496 5.61694C49.7129 5.83569 49.6094 6.10718 49.5391 6.4314C49.4727 6.75171 49.4395 7.1228 49.4395 7.54468V7.9021C49.4395 8.32007 49.4727 8.69116 49.5391 9.01538C49.6094 9.33569 49.7129 9.60718 49.8496 9.82983C49.9902 10.0525 50.1621 10.2205 50.3652 10.3337C50.5723 10.447 50.8125 10.5037 51.0859 10.5037C51.3477 10.5037 51.5801 10.447 51.7832 10.3337C51.9863 10.2205 52.1562 10.0525 52.293 9.82983C52.4336 9.60718 52.5391 9.33569 52.6094 9.01538C52.6836 8.69116 52.7207 8.32007 52.7207 7.9021ZM59.2773 9.09741H57.1562V7.50952H59.2773C59.5664 7.50952 59.8008 7.46069 59.9805 7.36304C60.1602 7.26538 60.291 7.13062 60.373 6.95874C60.459 6.78296 60.502 6.58569 60.502 6.36694C60.502 6.13257 60.459 5.91577 60.373 5.71655C60.291 5.51733 60.1602 5.35718 59.9805 5.23608C59.8008 5.11108 59.5664 5.04858 59.2773 5.04858H57.9297V11.9919H55.873V3.46069H59.2773C59.9609 3.46069 60.5488 3.58569 61.041 3.83569C61.5371 4.08569 61.918 4.42944 62.1836 4.86694C62.4492 5.30054 62.582 5.79663 62.582 6.35522C62.582 6.90601 62.4492 7.38647 62.1836 7.79663C61.918 8.20679 61.5371 8.5271 61.041 8.75757C60.5488 8.98413 59.9609 9.09741 59.2773 9.09741ZM67.1699 8.36499H64.9727L64.9609 7.01733H66.7422C67.0625 7.01733 67.3184 6.98218 67.5098 6.91187C67.7012 6.83765 67.8398 6.73022 67.9258 6.5896C68.0156 6.44897 68.0605 6.27319 68.0605 6.06226C68.0605 5.82007 68.0156 5.62476 67.9258 5.47632C67.8359 5.32788 67.6934 5.22046 67.498 5.15405C67.3066 5.08374 67.0586 5.04858 66.7539 5.04858H65.7461V11.9919H63.6895V3.46069H66.7539C67.2812 3.46069 67.752 3.50952 68.166 3.60718C68.5801 3.70093 68.9316 3.84546 69.2207 4.04077C69.5137 4.23608 69.7363 4.48218 69.8887 4.77905C70.041 5.07202 70.1172 5.41772 70.1172 5.81616C70.1172 6.16382 70.043 6.48999 69.8945 6.79468C69.7461 7.09937 69.498 7.34741 69.1504 7.53882C68.8066 7.72632 68.3359 7.82397 67.7383 7.83179L67.1699 8.36499ZM67.0879 11.9919H64.4746L65.1777 10.4099H67.0879C67.3691 10.4099 67.5938 10.3669 67.7617 10.281C67.9336 10.1912 68.0566 10.074 68.1309 9.92944C68.209 9.78101 68.248 9.61694 68.248 9.43726C68.248 9.21851 68.2109 9.02905 68.1367 8.8689C68.0664 8.70874 67.9531 8.58569 67.7969 8.49976C67.6406 8.40991 67.4316 8.36499 67.1699 8.36499H65.4414L65.4531 7.01733H67.5215L68.002 7.5564C68.5723 7.53296 69.0234 7.61304 69.3555 7.79663C69.6914 7.98022 69.9316 8.22241 70.0762 8.52319C70.2207 8.82397 70.293 9.13843 70.293 9.46655C70.293 10.0251 70.1719 10.4919 69.9297 10.8669C69.6914 11.2419 69.334 11.5232 68.8574 11.7107C68.3809 11.8982 67.791 11.9919 67.0879 11.9919ZM77.3066 10.4099V11.9919H72.7598V10.4099H77.3066ZM73.4922 3.46069V11.9919H71.4355V3.46069H73.4922ZM76.7207 6.84741V8.37671H72.7598V6.84741H76.7207ZM77.3242 3.46069V5.04858H72.7598V3.46069H77.3242ZM83.8984 3.46069V5.04858H80.1895V11.9919H78.1387V3.46069H83.8984ZM87.0273 3.46069V11.9919H84.9766V3.46069H87.0273ZM92.916 8.9978H90.6367L90.0273 8.74585C89.332 8.5271 88.8027 8.20288 88.4395 7.77319C88.0762 7.3396 87.8945 6.78687 87.8945 6.11499C87.8945 5.52905 88.0254 5.04077 88.2871 4.65015C88.5488 4.25562 88.9199 3.95874 89.4004 3.75952C89.8809 3.5603 90.4512 3.46069 91.1113 3.46069H94.2051V11.9919H92.1426V5.04858H91.1113C90.7012 5.04858 90.4043 5.15601 90.2207 5.37085C90.0371 5.58179 89.9453 5.89038 89.9453 6.29663C89.9453 6.60913 89.9883 6.85522 90.0742 7.03491C90.1641 7.2146 90.2949 7.34351 90.4668 7.42163C90.6387 7.49585 90.8535 7.53296 91.1113 7.53296H92.9043L92.916 8.9978ZM91.334 8.23022L89.5234 11.9919H87.2852L89.0723 8.23022H91.334Z" fill="#4D4D4D"/>
</svg>
