<svg width="54" height="53" viewBox="0 0 54 53" fill="none" xmlns="http://www.w3.org/2000/svg">
<path d="M40.6042 21.8059C40.8936 21.5165 41.133 21.287 41.3625 21.0575C42.6297 19.7903 43.8869 18.5232 45.1541 17.256C45.5831 16.8269 46.072 16.4677 46.6408 16.2482C47.3991 15.9489 48.1874 15.7992 49.0155 15.9189C49.694 16.0187 50.3226 16.2283 50.8913 16.5875C51.3204 16.8569 51.6896 17.1961 52.0188 17.5952C52.4678 18.144 52.7372 18.7726 52.9168 19.4411C52.9967 19.7405 53.0166 20.0697 53.0166 20.379C53.0266 21.0376 52.8969 21.6762 52.6375 22.2848C52.388 22.8635 52.0188 23.3624 51.5798 23.8014C48.6962 26.695 45.8027 29.5786 42.9191 32.4722C42.2106 33.1806 41.5122 33.889 40.7938 34.5875C40.6541 34.7272 40.5743 34.9167 40.5743 35.1163C40.5743 39.4467 40.5743 43.777 40.5743 48.1074C40.5743 48.7759 40.5044 49.4544 40.255 50.073C39.9656 50.8014 39.5066 51.43 38.898 51.9389C38.3392 52.4079 37.7006 52.7072 37.0022 52.8768C36.633 52.9666 36.2339 52.9966 35.8448 52.9966C25.7572 52.9966 15.6696 52.9966 5.58203 52.9966C4.62415 52.9966 3.64633 52.7671 2.8481 52.2283C1.93014 51.6096 1.27161 50.7715 0.992227 49.6939C0.882471 49.2648 0.842561 48.8158 0.782694 48.3668C0.772716 48.2671 0.782694 48.1673 0.782694 48.0575C0.782694 33.9289 0.782694 19.7903 0.782694 5.66174C0.782694 4.98325 0.862516 4.31474 1.10198 3.68614C1.36141 3.00764 1.7705 2.40897 2.31928 1.92006C2.90797 1.40121 3.58646 1.04201 4.35476 0.862411C4.70398 0.782588 5.08314 0.772609 5.44234 0.742676C5.5022 0.742676 5.56207 0.742676 5.62194 0.742676C14.2128 0.742676 22.8038 0.742676 31.3847 0.742676C32.3725 0.742676 33.3104 0.932255 34.1386 1.50099C34.5676 1.80033 34.9567 2.16951 35.3359 2.53869C36.5732 3.75598 37.8004 4.99323 39.0277 6.23048C39.5166 6.71939 39.9257 7.2582 40.1951 7.8868C40.4445 8.47549 40.5543 9.09412 40.5643 9.7327C40.5643 10.94 40.5344 12.1473 40.6441 13.3546C40.8736 15.8691 40.9035 18.3934 40.5942 20.9079C40.5443 21.317 40.5643 21.3968 40.5743 21.7959L40.6042 21.8059ZM28.3514 3.82582H27.9324C20.5188 3.82582 13.1053 3.82582 5.6818 3.82582C5.55209 3.82582 5.41241 3.82582 5.2827 3.82582C4.80376 3.87571 4.41462 4.08525 4.13524 4.49434C3.93569 4.79367 3.85587 5.11297 3.85587 5.47217C3.85587 19.7405 3.85587 33.9988 3.85587 48.2671C3.85587 48.3369 3.85587 48.4068 3.85587 48.4766C3.90576 48.9555 4.10531 49.3546 4.49445 49.644C4.82371 49.8835 5.19289 49.9433 5.59201 49.9433C15.6596 49.9433 25.7273 49.9433 35.7949 49.9433C35.8947 49.9433 36.0044 49.9633 36.1042 49.9433C36.3237 49.8935 36.5432 49.8535 36.7328 49.7438C37.6009 49.2549 37.7106 48.307 37.2616 47.0597C36.2639 44.256 36.5532 41.2826 37.4811 38.4589C37.541 38.2793 37.5111 38.1396 37.5011 37.96C37.2916 38.0997 37.1219 38.2493 36.9324 38.3292C36.5033 38.5088 36.0643 38.6684 35.6153 38.8181C34.4878 39.1972 33.3603 39.5664 32.2328 39.9456C31.5443 40.175 30.8658 40.4045 30.1774 40.6141C29.5488 40.8136 28.8802 40.5043 28.551 40.0553C28.1918 39.5664 28.1818 39.0376 28.3714 38.4888C28.7007 37.5209 29.0399 36.5431 29.3592 35.5753C29.6984 34.5575 30.0277 33.5498 30.357 32.532C30.5066 32.083 30.7561 31.664 31.0854 31.3347C33.1707 29.2593 35.2461 27.1739 37.3315 25.1085C37.4512 24.9888 37.521 24.8192 37.521 24.6396C37.521 20.8779 37.521 17.1063 37.521 13.3447C37.521 13.2449 37.5211 13.1451 37.5111 13.0354C37.3415 13.0354 37.2117 13.0354 37.082 13.0354C34.7871 13.0354 32.4922 13.0354 30.1973 13.0354C30.0676 13.0354 29.9279 13.0354 29.7982 13.0354C29.4889 13.0054 29.1995 12.9156 28.9501 12.726C28.531 12.3968 28.3415 11.9578 28.3415 11.4289C28.3415 9.04423 28.3415 6.64955 28.3415 4.26485C28.3415 4.14512 28.3415 4.02538 28.3415 3.86574L28.3514 3.82582ZM38.439 32.6418C40.8936 30.1872 43.3182 27.7527 45.7528 25.3181C45.5831 25.0287 43.7971 23.2626 43.5975 23.1728C43.0987 23.5719 36.4135 30.317 36.3237 30.5065L38.449 32.6418H38.439ZM37.5111 9.93225C37.5909 9.33358 37.3714 8.88458 36.9723 8.49545C36.0842 7.60742 35.1962 6.71939 34.3082 5.83137C33.8293 5.35243 33.3503 4.8735 32.8714 4.38458C32.4822 3.99545 32.0233 3.77594 31.4545 3.84578C31.3847 4.18503 31.4046 9.71274 31.4745 9.93225H37.521H37.5111ZM48.0077 23.0631C48.3171 22.7538 48.6363 22.4444 48.9457 22.1252C49.1951 21.8757 49.4545 21.6263 49.674 21.3469C50.1729 20.7183 50.0333 19.7105 49.3448 19.2216C48.776 18.8225 47.9978 18.8025 47.4689 19.3014C46.9102 19.8303 46.3913 20.399 45.8525 20.9478C46.0122 21.2072 47.7882 22.9633 48.0077 23.0631ZM34.0887 32.6617C33.8492 32.9112 33.6097 33.1307 33.3902 33.3702C33.3304 33.43 33.2605 33.5398 33.2406 33.6196C32.9412 34.4977 32.6419 35.3857 32.3426 36.2637C32.3026 36.3935 32.2727 36.5232 32.2328 36.6828C32.3226 36.6728 32.3725 36.6728 32.4224 36.6529C33.2306 36.3835 34.0388 36.1041 34.847 35.8447C35.286 35.705 35.6652 35.4356 35.9745 35.0864C36.0643 34.9866 36.1541 34.9068 36.2339 34.8269C35.5155 34.0985 34.8171 33.3901 34.0887 32.6617Z" fill="white"/>
<path d="M19.1818 16.0688C22.6541 16.0688 26.1363 16.0688 29.6086 16.0688C29.8381 16.0688 30.0776 16.0988 30.2971 16.1487C30.8758 16.2684 31.3248 16.8471 31.3847 17.4358C31.4545 18.1243 31.0654 18.7329 30.5066 18.9724C30.327 19.0522 30.1175 19.0822 29.9179 19.1221C29.8082 19.142 29.6984 19.1221 29.5787 19.1221C22.6241 19.1221 15.6696 19.1221 8.71504 19.1221C8.48555 19.1221 8.24609 19.0921 8.0166 19.0422C7.23833 18.8926 6.69952 17.8649 6.9789 17.1365C7.18844 16.5777 7.6973 16.1287 8.33589 16.0788C8.47558 16.0688 8.62524 16.0788 8.76493 16.0788C12.2272 16.0788 15.6995 16.0788 19.1618 16.0788L19.1818 16.0688Z" fill="white"/>
<path d="M16.1485 22.195C18.623 22.195 21.1075 22.195 23.582 22.195C24.041 22.195 24.4501 22.2848 24.7893 22.6041C25.2084 22.9933 25.378 23.4922 25.2483 24.0509C25.1186 24.6097 24.7793 25.0188 24.2006 25.1684C24.0111 25.2183 23.8215 25.2483 23.6319 25.2483C18.6131 25.2483 13.6042 25.2483 8.58534 25.2483C7.96671 25.2483 7.46782 25.0287 7.14853 24.4899C6.58977 23.572 7.14853 22.4944 7.99664 22.2749C8.21615 22.215 8.45563 22.1851 8.68512 22.1851C11.1696 22.1851 13.6641 22.1851 16.1485 22.1851V22.195Z" fill="white"/>
<path d="M16.1086 28.3213C18.5732 28.3213 21.0477 28.3213 23.5122 28.3213C23.7317 28.3213 23.9612 28.3513 24.1707 28.4012C24.8093 28.5309 25.378 29.2293 25.2683 30.0475C25.1785 30.716 24.6896 31.2848 23.8814 31.3746C23.7616 31.3845 23.6419 31.3845 23.5122 31.3845C18.5632 31.3845 13.6242 31.3845 8.67515 31.3845C8.25608 31.3845 7.86695 31.3247 7.52771 31.0652C7.02882 30.6861 6.81928 30.0176 6.94899 29.5486C7.17848 28.7005 7.75719 28.3912 8.33591 28.3313C8.4756 28.3114 8.62527 28.3213 8.76495 28.3213C11.2095 28.3213 13.6541 28.3213 16.1086 28.3213Z" fill="white"/>
<path d="M16.0887 34.4377C18.5832 34.4377 21.0876 34.4377 23.5821 34.4377C24.0211 34.4377 24.4302 34.5275 24.7694 34.8268C25.1985 35.216 25.3681 35.7049 25.2583 36.2637C25.1386 36.8324 24.7993 37.2515 24.2007 37.4111C24.0111 37.461 23.8215 37.4909 23.6319 37.4909C18.6131 37.4909 13.6042 37.4909 8.58538 37.4909C7.96675 37.4909 7.46786 37.2714 7.14857 36.7326C6.58981 35.8146 7.15855 34.737 7.99668 34.5175C8.21619 34.4577 8.45567 34.4277 8.68516 34.4277C11.1497 34.4277 13.6242 34.4277 16.0887 34.4277V34.4377Z" fill="white"/>
<path d="M25.2683 46.89C23.7716 46.89 22.275 46.89 20.7683 46.89C20.2794 46.89 19.8603 46.7204 19.531 46.3412C18.7927 45.4832 19.2317 44.2659 20.1597 43.9366C20.3792 43.8568 20.6186 43.8268 20.8481 43.8268C22.8038 43.8268 24.7594 43.8268 26.7151 43.8268C27.7428 43.8268 28.7705 43.8368 29.8082 43.8268C30.4268 43.8169 31.1452 44.2259 31.3448 44.9444C31.5543 45.6827 31.1652 46.5009 30.4169 46.7803C30.2073 46.8601 29.9579 46.89 29.7284 46.89C28.2417 46.89 26.755 46.89 25.2683 46.89Z" fill="white"/>
</svg>
