<svg width="26" height="17" viewBox="0 0 26 17" fill="none" xmlns="http://www.w3.org/2000/svg">
<path d="M5.8243 17.012C4.37563 17.012 3.2008 16.5262 2.2998 15.5545C1.3988 14.5828 0.948297 13.2667 0.948297 11.606C0.948297 10.3163 1.24863 9.0355 1.8493 7.7635C2.46763 6.4915 3.3863 5.25483 4.6053 4.0535C5.8243 2.8345 7.34363 1.695 9.1633 0.634998L11.3893 3.6295C9.99363 4.2655 8.74813 5.05167 7.6528 5.988C6.57513 6.92433 5.8243 7.85183 5.4003 8.7705C6.28363 8.7175 7.08746 8.85 7.8118 9.168C8.5538 9.486 9.1368 9.95416 9.5608 10.5725C10.0025 11.1732 10.2233 11.8887 10.2233 12.719C10.2233 13.991 9.80813 15.0245 8.9778 15.8195C8.16513 16.6145 7.11396 17.012 5.8243 17.012ZM20.42 17.012C18.9713 17.012 17.7965 16.5262 16.8955 15.5545C15.9945 14.5828 15.544 13.2667 15.544 11.606C15.544 10.3163 15.8443 9.0355 16.445 7.7635C17.0633 6.4915 17.982 5.25483 19.201 4.0535C20.42 2.8345 21.9393 1.695 23.759 0.634998L25.985 3.6295C24.5893 4.2655 23.3438 5.05167 22.2485 5.988C21.1708 6.92433 20.42 7.85183 19.996 8.7705C20.8793 8.7175 21.6832 8.85 22.4075 9.168C23.1495 9.486 23.7325 9.95416 24.1565 10.5725C24.5982 11.1732 24.819 11.8887 24.819 12.719C24.819 13.991 24.4038 15.0245 23.5735 15.8195C22.7608 16.6145 21.7097 17.012 20.42 17.012Z" fill="#808080"/>
</svg>
