<svg width="91" height="15" viewBox="0 0 91 15" fill="none" xmlns="http://www.w3.org/2000/svg">
<path d="M90.23 9.92909H86.7601C86.7501 10.1391 86.73 10.3091 86.69 10.5091C86.64 10.7991 86.5301 11.0291 86.3301 11.2491C86.1401 11.4591 85.9201 11.5791 85.6401 11.6191C85.1901 11.6891 84.7801 11.5591 84.4501 11.2391C84.1601 10.9691 83.98 10.6691 83.87 10.2891C83.62 9.37909 83.63 8.54909 83.91 7.64909C84.03 7.26909 84.2501 6.98909 84.5901 6.77909C85.0801 6.47909 85.6701 6.49909 86.1301 6.84909C86.4901 7.11909 86.7001 7.46909 86.7701 7.90909H90.06C90.09 7.33909 89.98 6.84909 89.72 6.34909C89.5 5.91909 89.2501 5.58909 88.8901 5.26909C88.3301 4.74909 87.74 4.42909 87 4.22909C85.96 3.95909 85.02 3.93909 83.97 4.15909C82.13 4.53909 80.7601 5.82909 80.2701 7.64909C80.0501 8.44909 80.0201 9.16909 80.1501 9.98909C80.2501 10.5791 80.42 11.0591 80.72 11.5791C81.11 12.2491 81.55 12.7491 82.17 13.2091C82.93 13.7791 83.7001 14.0791 84.6401 14.1691C85.3501 14.2391 85.96 14.2091 86.66 14.0691C87.69 13.8591 88.52 13.4091 89.24 12.6391C89.96 11.8791 90.29 10.9591 90.22 9.91909L90.23 9.92909Z" fill="#CCCCCC"/>
<path d="M79.6 0.439453H76V2.97945H79.6V0.439453Z" fill="#CCCCCC"/>
<path d="M79.6 4.28906H76V13.9091H79.6V4.28906Z" fill="#CCCCCC"/>
<path d="M72.88 4.11954C71.9 3.82954 70.97 3.89954 70.04 4.32954C69.47 4.58954 69.02 4.88954 68.55 5.29954L68.47 4.27954H65V13.8995H68.7V8.53954C68.7 8.22954 68.77 7.96954 68.93 7.70954C69.3 7.07954 70.07 6.81954 70.75 7.10954C71.06 7.23954 71.27 7.47954 71.37 7.79954C71.43 7.97954 71.45 8.13954 71.45 8.31954V13.8995H75.27V7.68954C75.27 7.15954 75.2 6.71954 75.04 6.20954C74.71 5.15954 73.95 4.41954 72.89 4.10954L72.88 4.11954Z" fill="#CCCCCC"/>
<path d="M30.34 4.11954C29.36 3.82954 28.4299 3.89954 27.4999 4.32954C26.9299 4.58954 26.4799 4.88954 26.0099 5.29954L25.9299 4.27954H22.46V13.8995H26.1599V8.53954C26.1599 8.22954 26.23 7.96954 26.39 7.70954C26.76 7.07954 27.53 6.81954 28.21 7.10954C28.52 7.23954 28.73 7.47954 28.83 7.79954C28.88 7.97954 28.9099 8.13954 28.9099 8.31954V13.8995H32.7299V7.68954C32.7299 7.15954 32.6599 6.71954 32.4999 6.20954C32.1699 5.15954 31.4099 4.41954 30.3499 4.10954L30.34 4.11954Z" fill="#CCCCCC"/>
<path d="M52.67 8.81965C52.18 8.39965 51.69 8.12965 51.08 7.94965C50.95 7.90965 50.83 7.87965 50.69 7.83965C49.94 7.62965 49.29 7.48965 48.51 7.37965C48.3 7.34965 48.13 7.31965 47.92 7.26965C47.83 7.24965 47.75 7.21965 47.66 7.17965C47.44 7.07965 47.35 6.82965 47.44 6.60965C47.44 6.59965 47.45 6.58965 47.46 6.57965C47.58 6.36965 47.75 6.23965 47.98 6.16965C48.38 6.04965 48.75 6.05965 49.15 6.19965C49.53 6.32965 49.77 6.67965 49.75 7.07965H53.14C53.14 6.65965 53.07 6.30965 52.93 5.91965C52.79 5.51965 52.57 5.21965 52.24 4.95965C51.95 4.72965 51.68 4.56965 51.33 4.43965C51 4.30965 50.7 4.22965 50.35 4.16965C49.51 4.02965 48.78 3.97965 47.93 4.02965C47.44 4.05965 47.03 4.11965 46.56 4.22965C45.92 4.37965 45.4 4.62965 44.88 5.02965C44.44 5.37965 44.15 5.77965 43.97 6.30965C43.89 6.54965 43.85 6.75965 43.84 7.00965C43.82 7.42965 43.88 7.78965 44.04 8.17965C44.32 8.87965 44.82 9.37965 45.52 9.65965C45.88 9.79965 46.19 9.89965 46.56 9.96965C47.3 10.1197 47.93 10.2397 48.67 10.3697C48.95 10.4197 49.18 10.4697 49.44 10.5597C49.66 10.6297 49.81 10.7997 49.86 11.0297C49.91 11.2797 49.84 11.5097 49.67 11.6897C49.49 11.8697 49.28 11.9797 49.03 12.0197C48.69 12.0697 48.39 12.0497 48.07 11.9297C47.91 11.8697 47.79 11.7997 47.66 11.6997C47.49 11.5597 47.39 11.3997 47.32 11.1897C47.27 11.0097 47.24 10.8597 47.25 10.6797H43.73V10.8897C43.73 11.2197 43.78 11.4997 43.9 11.8097C44.08 12.2797 44.32 12.6397 44.68 12.9797C45.16 13.4297 45.65 13.6997 46.28 13.8797C47.58 14.2497 48.75 14.3196 50.09 14.1196C50.72 14.0196 51.24 13.8497 51.8 13.5597C52.05 13.4297 52.25 13.2997 52.46 13.1196C53.41 12.3196 53.76 11.0997 53.38 9.91965C53.24 9.46965 53.01 9.12965 52.66 8.81965H52.67Z" fill="#CCCCCC"/>
<path d="M11.43 3.14945C10.68 1.53945 9.22001 0.559452 7.45001 0.459452C7.18001 0.449452 6.96 0.439453 6.69 0.439453H0.0100098V13.9095H4.09998V9.75945H6.57001C7.21001 9.75945 7.76001 9.69945 8.39001 9.55945C10.29 9.13945 11.64 7.63945 11.85 5.70945C11.95 4.78945 11.82 3.98945 11.43 3.14945ZM7.84003 5.43945C7.81003 5.65945 7.72998 5.83945 7.59998 6.02945C7.34998 6.36945 7.00002 6.55945 6.58002 6.57945C6.28002 6.59945 6.02002 6.59945 5.71002 6.59945H4.10999V3.66945H6.5C7.21 3.66945 7.78999 4.19945 7.85999 4.89945C7.87999 5.08945 7.86998 5.24945 7.84998 5.43945H7.84003Z" fill="#CCCCCC"/>
<path d="M63.02 5.48977C62.21 4.71977 61.32 4.26977 60.21 4.09977C59.83 4.03977 59.5 4.00977 59.12 4.00977C58.74 4.00977 58.41 4.02977 58.03 4.09977C56.93 4.26977 56.03 4.71977 55.23 5.48977C54.37 6.31977 53.89 7.29977 53.79 8.48977C53.72 9.21977 53.79 9.84976 53.98 10.5598C54.28 11.6498 54.85 12.4798 55.74 13.1698C56.33 13.6198 56.91 13.8898 57.64 14.0498C58.16 14.1598 58.6 14.2098 59.13 14.2098C59.66 14.2098 60.1 14.1598 60.62 14.0498C61.34 13.8898 61.93 13.6198 62.52 13.1698C63.42 12.4898 63.98 11.6498 64.28 10.5598C64.48 9.84976 64.53 9.21977 64.47 8.48977C64.36 7.29977 63.89 6.31977 63.03 5.48977H63.02ZM60.72 9.98977C60.67 10.3298 60.59 10.6098 60.45 10.9198C60.12 11.6498 59.2701 11.9798 58.53 11.6498C58.19 11.4998 57.95 11.2598 57.8 10.9198C57.66 10.6098 57.58 10.3298 57.53 9.98977C57.43 9.30977 57.44 8.72976 57.57 8.05976C57.64 7.70976 57.75 7.42976 57.95 7.12976C58.37 6.47976 59.24 6.29976 59.89 6.72976C60.06 6.83976 60.18 6.96976 60.29 7.12976C60.48 7.42976 60.6 7.70976 60.67 8.05976C60.8 8.72976 60.81 9.31977 60.71 9.98977H60.72Z" fill="#CCCCCC"/>
<path d="M43.24 10.8896C43.22 9.84963 43.21 8.95963 43.2 7.91963C43.2 7.35963 43.13 6.87963 42.99 6.33963C42.81 5.61963 42.39 5.07963 41.74 4.71963C41.35 4.49963 40.99 4.36963 40.56 4.26963C39.17 3.96963 37.95 3.94963 36.55 4.18963C36.16 4.25963 35.8301 4.34963 35.4601 4.49963C34.6101 4.84963 34.02 5.48963 33.75 6.36963C33.65 6.70963 33.62 7.00963 33.66 7.35963C33.66 7.41963 33.6801 7.47963 33.7101 7.53963L36.95 7.61963C36.95 7.40963 36.97 7.23963 37.04 7.04963C37.15 6.74963 37.3501 6.54963 37.6501 6.43963C38.0801 6.27963 38.5 6.26963 38.94 6.41963C39.23 6.50963 39.43 6.71963 39.5201 7.00963C39.58 7.18963 39.55 7.36963 39.44 7.52963C39.34 7.66963 39.23 7.75963 39.07 7.81963C38.97 7.85963 38.89 7.87963 38.79 7.90963C38.34 8.02963 37.96 8.10963 37.5 8.18963C37.14 8.24963 36.83 8.30963 36.47 8.37963C35.98 8.47963 35.57 8.57963 35.1 8.73963C34.67 8.87963 34.32 9.07963 33.99 9.38963C33.55 9.78963 33.3 10.2596 33.22 10.8496C33.17 11.2396 33.18 11.5796 33.26 11.9696C33.49 12.9696 34.18 13.7196 35.17 13.9996C36.27 14.3196 37.29 14.2696 38.35 13.8396C38.86 13.6296 39.26 13.3496 39.61 12.9196C39.68 13.1496 39.75 13.3496 39.83 13.5796C39.88 13.7096 39.93 13.8096 40.0201 13.9096H43.5901C43.4401 13.6696 43.3601 13.4396 43.3401 13.1496C43.2901 12.3596 43.26 11.6896 43.24 10.8896ZM39.64 10.5796C39.6 10.8396 39.53 11.0496 39.39 11.2696C39.23 11.5196 39.02 11.6896 38.75 11.8196C38.49 11.9296 38.26 11.9896 37.98 12.0196C37.75 12.0396 37.55 12.0196 37.32 11.9596C37.14 11.9096 36.99 11.8196 36.86 11.6896C36.75 11.5696 36.6801 11.4396 36.6501 11.2896C36.6001 11.0496 36.68 10.8096 36.87 10.6496C37 10.5396 37.1201 10.4696 37.2801 10.4096C37.6601 10.2696 37.98 10.1696 38.36 10.0596C38.83 9.92963 39.2101 9.78963 39.6501 9.57963C39.6901 9.92963 39.6901 10.2296 39.6501 10.5796H39.64Z" fill="#CCCCCC"/>
<path d="M21.6401 10.8896C21.6201 9.84963 21.6101 8.95963 21.6001 7.91963C21.6001 7.35963 21.5301 6.87963 21.3901 6.33963C21.2101 5.61963 20.7901 5.07963 20.1401 4.71963C19.7501 4.49963 19.3901 4.36963 18.9601 4.26963C17.5701 3.96963 16.3501 3.94963 14.9501 4.18963C14.5601 4.25963 14.2301 4.34963 13.8601 4.49963C13.0101 4.84963 12.4201 5.48963 12.1501 6.36963C12.0501 6.70963 12.0201 7.00963 12.0601 7.35963C12.0601 7.41963 12.0801 7.47963 12.1101 7.53963L15.3501 7.61963C15.3501 7.40963 15.3701 7.23963 15.4401 7.04963C15.5501 6.74963 15.7501 6.54963 16.0501 6.43963C16.4801 6.27963 16.9001 6.26963 17.3401 6.41963C17.6301 6.50963 17.8401 6.71963 17.9301 7.00963C17.9901 7.18963 17.9601 7.36963 17.8501 7.52963C17.7501 7.66963 17.6401 7.75963 17.4801 7.81963C17.3801 7.85963 17.3001 7.87963 17.2001 7.90963C16.7501 8.02963 16.3701 8.10963 15.9101 8.18963C15.5501 8.24963 15.2401 8.30963 14.8801 8.37963C14.3901 8.47963 13.9801 8.57963 13.5101 8.73963C13.0801 8.87963 12.7301 9.07963 12.4001 9.38963C11.9601 9.78963 11.7101 10.2596 11.6301 10.8496C11.5701 11.2396 11.5901 11.5796 11.6701 11.9696C11.9001 12.9696 12.5901 13.7196 13.5801 13.9996C14.6801 14.3196 15.7001 14.2696 16.7601 13.8396C17.2701 13.6296 17.6701 13.3496 18.0201 12.9196C18.0901 13.1496 18.1601 13.3496 18.2401 13.5796C18.2901 13.7096 18.3401 13.8096 18.4301 13.9096H22.0001C21.8501 13.6696 21.7701 13.4396 21.7501 13.1496C21.7001 12.3596 21.6701 11.6896 21.6501 10.8896H21.6401ZM18.0401 10.5796C18.0001 10.8396 17.9301 11.0496 17.7901 11.2696C17.6301 11.5196 17.4201 11.6896 17.1501 11.8196C16.8901 11.9296 16.6601 11.9896 16.3801 12.0196C16.1501 12.0396 15.9501 12.0196 15.7201 11.9596C15.5401 11.9096 15.3901 11.8196 15.2601 11.6896C15.1501 11.5696 15.0801 11.4396 15.0501 11.2896C15.0001 11.0496 15.0801 10.8096 15.2701 10.6496C15.4001 10.5396 15.5201 10.4696 15.6801 10.4096C16.0601 10.2696 16.3801 10.1696 16.7601 10.0596C17.2301 9.92963 17.6101 9.78963 18.0501 9.57963C18.0901 9.92963 18.0901 10.2296 18.0501 10.5796H18.0401Z" fill="#CCCCCC"/>
</svg>
