<svg width="20" height="19" viewBox="0 0 20 19" fill="none" xmlns="http://www.w3.org/2000/svg">
<path d="M10.7718 0.612305L12.4518 5.7423C12.5618 6.0723 12.8718 6.3023 13.2318 6.3023H18.6718C19.4618 6.3023 19.7918 7.3123 19.1518 7.7723L14.7518 10.9423C14.4618 11.1523 14.3418 11.5123 14.4518 11.8523L16.1318 16.9823C16.3718 17.7323 15.5118 18.3523 14.8718 17.8923L10.4718 14.7223C10.1818 14.5123 9.79181 14.5123 9.51181 14.7223L5.11181 17.8923C4.47181 18.3523 3.61181 17.7323 3.85181 16.9823L5.53181 11.8523C5.64181 11.5223 5.52181 11.1523 5.23181 10.9423L0.831812 7.7723C0.191812 7.3123 0.521812 6.3023 1.31181 6.3023H6.75181C7.10181 6.3023 7.42181 6.0723 7.53181 5.7423L9.21181 0.612305C9.45181 -0.137695 10.5218 -0.137695 10.7718 0.612305Z" fill="#808080"/>
</svg>
