<svg width="64" height="80" viewBox="0 0 64 80" fill="none" xmlns="http://www.w3.org/2000/svg">
<mask id="path-1-outside-1_16013_533" maskUnits="userSpaceOnUse" x="0" y="0" width="64" height="80" fill="black">
<rect fill="white" width="64" height="80"/>
<path d="M60.261 49.9028L40.2169 42.4451V34.7429L42.0843 31.931C42.4578 31.442 42.5823 30.8307 42.5823 30.0972V22.7618C43.0803 22.7618 43.5783 22.7618 43.9518 22.6395C45.1968 22.2727 46.1928 21.4169 46.8153 20.0721C49.3052 14.815 49.5542 10.4138 47.6867 6.9906C44.8233 1.97806 38.4739 1.12226 38.2249 1C37.7269 1 37.4779 1.12226 37.2289 1.48903C36.9799 1.8558 36.9799 2.34483 37.2289 2.7116C37.6024 3.44514 37.6024 4.4232 37.1044 5.15674C36.6064 5.89028 35.7349 6.50157 34.8635 6.37931L24.5301 6.1348C21.5422 6.01255 18.8032 7.35737 17.1847 9.68025C15.1928 12.4922 14.5703 15.1818 15.1928 17.7492C16.1887 21.4169 19.5502 23.7398 20.9197 24.5956V29.8527C20.9197 30.464 21.0442 31.0752 21.4177 31.5643L23.6586 34.9875V42.0784C23.5341 42.0784 23.4096 42.0784 23.4096 42.2006L3.61446 49.4138C1.99599 50.0251 1 51.4922 1 53.0815V71.9091C1 74.1097 2.86748 75.8213 4.98395 75.8213H25.6506C26.2731 75.8213 26.7711 75.3323 26.7711 74.721C26.7711 74.1097 26.2731 73.6207 25.6506 73.6207H14.5703V58.8276C14.5703 58.2163 14.0723 57.7273 13.4498 57.7273C12.8273 57.7273 12.3293 58.2163 12.3293 58.8276V73.6207H4.98395C3.98797 73.6207 3.24099 72.7649 3.24099 71.9091V53.4483C3.24099 52.7147 3.73897 52.1035 4.36146 51.7367L21.7912 45.3793V45.5016L25.8996 52.4702C26.0241 52.7147 26.2731 52.9593 26.6466 52.9593C26.7711 52.9593 26.7711 52.9593 26.8956 52.9593C27.1446 52.9593 27.3936 52.837 27.5181 52.7147L28.0161 52.348L28.3895 53.0815L25.5261 70.3198C25.5261 70.5643 25.5261 70.931 25.7751 71.1756L31.004 78.511C31.253 78.7555 31.502 79 31.8755 79C32.249 79 32.6225 78.8778 32.747 78.511L38.1004 71.1756C38.2249 70.931 38.3494 70.6865 38.3494 70.3198L35.6105 52.7147C35.6105 52.5925 35.6104 52.4702 35.4859 52.4702L35.7349 52.2257L36.3574 52.5925C36.6064 52.7147 36.9799 52.837 37.2289 52.7147C37.4779 52.5925 37.8514 52.4702 37.9759 52.2257L42.0843 45.2571L59.6385 51.7367C60.3855 51.9812 60.759 52.7147 60.759 53.4483V72.0314C60.759 73.0094 60.012 73.743 59.0161 73.743H51.5462V58.9499C51.5462 58.3386 51.0482 57.8495 50.4257 57.8495C49.8032 57.8495 49.3052 58.3386 49.3052 58.9499V73.743H38.4739C37.8514 73.743 37.3534 74.232 37.3534 74.8433C37.3534 75.4546 37.8514 75.9436 38.4739 75.9436H59.0161C61.257 75.9436 63 74.1097 63 72.0314V53.4483C62.8755 51.9812 61.755 50.5141 60.261 49.9028ZM37.6024 42.5674L31.751 45.1348L25.6506 42.6897V38.4107C26.2731 38.7774 26.8956 39.0219 27.6426 39.0219H35.6105C36.4819 39.0219 37.2289 38.6552 37.8514 38.1661V42.5674C37.7269 42.4451 37.7269 42.4451 37.6024 42.5674ZM17.0602 17.3824C16.5622 15.4263 17.0603 13.2257 18.6787 11.0251C19.9237 9.31349 22.0402 8.33542 24.1566 8.45768L34.4899 8.7022C36.2329 8.7022 37.8514 7.8464 38.7229 6.37931C39.2209 5.52351 39.4699 4.66772 39.4699 3.68966C41.3373 4.30095 44.0763 5.52352 45.5703 8.09091C47.0643 10.9028 46.8153 14.5705 44.6988 19.094C44.4498 19.7053 43.8273 20.1944 43.2048 20.4389C42.9558 20.5611 42.7068 20.5611 42.4578 20.4389V19.7053V19.4608C42.4578 17.627 40.9638 16.1599 39.0964 16.1599H24.0321C22.1647 16.1599 20.6707 17.627 20.6707 19.4608V20.4389V22.0282C19.4257 21.1724 17.6827 19.5831 17.0602 17.3824ZM22.9116 30.0972V24.1066V20.5611V19.5831C22.9116 18.9718 23.4096 18.4828 24.0321 18.4828H39.0964C39.7189 18.4828 40.2169 18.9718 40.2169 19.5831V19.8276V21.2947V30.2194C40.2169 30.464 40.2168 30.5862 40.0924 30.8307L36.4819 36.3323C36.2329 36.6991 35.9839 36.8213 35.4859 36.8213H27.5181C27.1446 36.8213 26.7711 36.5768 26.5221 36.3323L22.9116 30.7085C22.9116 30.464 22.9116 30.2194 22.9116 30.0972ZM23.6586 44.6458L23.9076 44.5235H24.0321C24.1566 44.5235 24.2811 44.6458 24.5301 44.6458C24.5301 44.6458 24.5301 44.6458 24.6546 44.6458L31.3775 47.3354C31.502 47.3354 31.6265 47.4577 31.751 47.4577C31.502 47.4577 31.3775 47.5799 31.1285 47.7022L27.1446 50.5141L23.6586 44.6458ZM35.8594 70.442L31.751 76.0658L27.6426 70.442L30.3815 54.1818H33.3695L35.8594 70.442ZM32.996 51.9812H30.1325L29.759 51.2477L31.8755 49.7806L33.743 51.1254L32.996 51.9812ZM36.3574 50.2696L32.3735 47.4577C32.249 47.3354 32 47.3354 31.751 47.2132C31.8755 47.2132 32 47.2132 32.1245 47.0909L38.3494 44.4013H38.4739C38.5984 44.4013 38.7229 44.5235 38.8474 44.5235C38.9719 44.5235 38.9719 44.5235 39.0964 44.5235L39.5944 44.768L36.3574 50.2696Z"/>
</mask>
<path d="M60.261 49.9028L40.2169 42.4451V34.7429L42.0843 31.931C42.4578 31.442 42.5823 30.8307 42.5823 30.0972V22.7618C43.0803 22.7618 43.5783 22.7618 43.9518 22.6395C45.1968 22.2727 46.1928 21.4169 46.8153 20.0721C49.3052 14.815 49.5542 10.4138 47.6867 6.9906C44.8233 1.97806 38.4739 1.12226 38.2249 1C37.7269 1 37.4779 1.12226 37.2289 1.48903C36.9799 1.8558 36.9799 2.34483 37.2289 2.7116C37.6024 3.44514 37.6024 4.4232 37.1044 5.15674C36.6064 5.89028 35.7349 6.50157 34.8635 6.37931L24.5301 6.1348C21.5422 6.01255 18.8032 7.35737 17.1847 9.68025C15.1928 12.4922 14.5703 15.1818 15.1928 17.7492C16.1887 21.4169 19.5502 23.7398 20.9197 24.5956V29.8527C20.9197 30.464 21.0442 31.0752 21.4177 31.5643L23.6586 34.9875V42.0784C23.5341 42.0784 23.4096 42.0784 23.4096 42.2006L3.61446 49.4138C1.99599 50.0251 1 51.4922 1 53.0815V71.9091C1 74.1097 2.86748 75.8213 4.98395 75.8213H25.6506C26.2731 75.8213 26.7711 75.3323 26.7711 74.721C26.7711 74.1097 26.2731 73.6207 25.6506 73.6207H14.5703V58.8276C14.5703 58.2163 14.0723 57.7273 13.4498 57.7273C12.8273 57.7273 12.3293 58.2163 12.3293 58.8276V73.6207H4.98395C3.98797 73.6207 3.24099 72.7649 3.24099 71.9091V53.4483C3.24099 52.7147 3.73897 52.1035 4.36146 51.7367L21.7912 45.3793V45.5016L25.8996 52.4702C26.0241 52.7147 26.2731 52.9593 26.6466 52.9593C26.7711 52.9593 26.7711 52.9593 26.8956 52.9593C27.1446 52.9593 27.3936 52.837 27.5181 52.7147L28.0161 52.348L28.3895 53.0815L25.5261 70.3198C25.5261 70.5643 25.5261 70.931 25.7751 71.1756L31.004 78.511C31.253 78.7555 31.502 79 31.8755 79C32.249 79 32.6225 78.8778 32.747 78.511L38.1004 71.1756C38.2249 70.931 38.3494 70.6865 38.3494 70.3198L35.6105 52.7147C35.6105 52.5925 35.6104 52.4702 35.4859 52.4702L35.7349 52.2257L36.3574 52.5925C36.6064 52.7147 36.9799 52.837 37.2289 52.7147C37.4779 52.5925 37.8514 52.4702 37.9759 52.2257L42.0843 45.2571L59.6385 51.7367C60.3855 51.9812 60.759 52.7147 60.759 53.4483V72.0314C60.759 73.0094 60.012 73.743 59.0161 73.743H51.5462V58.9499C51.5462 58.3386 51.0482 57.8495 50.4257 57.8495C49.8032 57.8495 49.3052 58.3386 49.3052 58.9499V73.743H38.4739C37.8514 73.743 37.3534 74.232 37.3534 74.8433C37.3534 75.4546 37.8514 75.9436 38.4739 75.9436H59.0161C61.257 75.9436 63 74.1097 63 72.0314V53.4483C62.8755 51.9812 61.755 50.5141 60.261 49.9028ZM37.6024 42.5674L31.751 45.1348L25.6506 42.6897V38.4107C26.2731 38.7774 26.8956 39.0219 27.6426 39.0219H35.6105C36.4819 39.0219 37.2289 38.6552 37.8514 38.1661V42.5674C37.7269 42.4451 37.7269 42.4451 37.6024 42.5674ZM17.0602 17.3824C16.5622 15.4263 17.0603 13.2257 18.6787 11.0251C19.9237 9.31349 22.0402 8.33542 24.1566 8.45768L34.4899 8.7022C36.2329 8.7022 37.8514 7.8464 38.7229 6.37931C39.2209 5.52351 39.4699 4.66772 39.4699 3.68966C41.3373 4.30095 44.0763 5.52352 45.5703 8.09091C47.0643 10.9028 46.8153 14.5705 44.6988 19.094C44.4498 19.7053 43.8273 20.1944 43.2048 20.4389C42.9558 20.5611 42.7068 20.5611 42.4578 20.4389V19.7053V19.4608C42.4578 17.627 40.9638 16.1599 39.0964 16.1599H24.0321C22.1647 16.1599 20.6707 17.627 20.6707 19.4608V20.4389V22.0282C19.4257 21.1724 17.6827 19.5831 17.0602 17.3824ZM22.9116 30.0972V24.1066V20.5611V19.5831C22.9116 18.9718 23.4096 18.4828 24.0321 18.4828H39.0964C39.7189 18.4828 40.2169 18.9718 40.2169 19.5831V19.8276V21.2947V30.2194C40.2169 30.464 40.2168 30.5862 40.0924 30.8307L36.4819 36.3323C36.2329 36.6991 35.9839 36.8213 35.4859 36.8213H27.5181C27.1446 36.8213 26.7711 36.5768 26.5221 36.3323L22.9116 30.7085C22.9116 30.464 22.9116 30.2194 22.9116 30.0972ZM23.6586 44.6458L23.9076 44.5235H24.0321C24.1566 44.5235 24.2811 44.6458 24.5301 44.6458C24.5301 44.6458 24.5301 44.6458 24.6546 44.6458L31.3775 47.3354C31.502 47.3354 31.6265 47.4577 31.751 47.4577C31.502 47.4577 31.3775 47.5799 31.1285 47.7022L27.1446 50.5141L23.6586 44.6458ZM35.8594 70.442L31.751 76.0658L27.6426 70.442L30.3815 54.1818H33.3695L35.8594 70.442ZM32.996 51.9812H30.1325L29.759 51.2477L31.8755 49.7806L33.743 51.1254L32.996 51.9812ZM36.3574 50.2696L32.3735 47.4577C32.249 47.3354 32 47.3354 31.751 47.2132C31.8755 47.2132 32 47.2132 32.1245 47.0909L38.3494 44.4013H38.4739C38.5984 44.4013 38.7229 44.5235 38.8474 44.5235C38.9719 44.5235 38.9719 44.5235 39.0964 44.5235L39.5944 44.768L36.3574 50.2696Z" fill="white"/>
<path d="M60.261 49.9028L40.2169 42.4451V34.7429L42.0843 31.931C42.4578 31.442 42.5823 30.8307 42.5823 30.0972V22.7618C43.0803 22.7618 43.5783 22.7618 43.9518 22.6395C45.1968 22.2727 46.1928 21.4169 46.8153 20.0721C49.3052 14.815 49.5542 10.4138 47.6867 6.9906C44.8233 1.97806 38.4739 1.12226 38.2249 1C37.7269 1 37.4779 1.12226 37.2289 1.48903C36.9799 1.8558 36.9799 2.34483 37.2289 2.7116C37.6024 3.44514 37.6024 4.4232 37.1044 5.15674C36.6064 5.89028 35.7349 6.50157 34.8635 6.37931L24.5301 6.1348C21.5422 6.01255 18.8032 7.35737 17.1847 9.68025C15.1928 12.4922 14.5703 15.1818 15.1928 17.7492C16.1887 21.4169 19.5502 23.7398 20.9197 24.5956V29.8527C20.9197 30.464 21.0442 31.0752 21.4177 31.5643L23.6586 34.9875V42.0784C23.5341 42.0784 23.4096 42.0784 23.4096 42.2006L3.61446 49.4138C1.99599 50.0251 1 51.4922 1 53.0815V71.9091C1 74.1097 2.86748 75.8213 4.98395 75.8213H25.6506C26.2731 75.8213 26.7711 75.3323 26.7711 74.721C26.7711 74.1097 26.2731 73.6207 25.6506 73.6207H14.5703V58.8276C14.5703 58.2163 14.0723 57.7273 13.4498 57.7273C12.8273 57.7273 12.3293 58.2163 12.3293 58.8276V73.6207H4.98395C3.98797 73.6207 3.24099 72.7649 3.24099 71.9091V53.4483C3.24099 52.7147 3.73897 52.1035 4.36146 51.7367L21.7912 45.3793V45.5016L25.8996 52.4702C26.0241 52.7147 26.2731 52.9593 26.6466 52.9593C26.7711 52.9593 26.7711 52.9593 26.8956 52.9593C27.1446 52.9593 27.3936 52.837 27.5181 52.7147L28.0161 52.348L28.3895 53.0815L25.5261 70.3198C25.5261 70.5643 25.5261 70.931 25.7751 71.1756L31.004 78.511C31.253 78.7555 31.502 79 31.8755 79C32.249 79 32.6225 78.8778 32.747 78.511L38.1004 71.1756C38.2249 70.931 38.3494 70.6865 38.3494 70.3198L35.6105 52.7147C35.6105 52.5925 35.6104 52.4702 35.4859 52.4702L35.7349 52.2257L36.3574 52.5925C36.6064 52.7147 36.9799 52.837 37.2289 52.7147C37.4779 52.5925 37.8514 52.4702 37.9759 52.2257L42.0843 45.2571L59.6385 51.7367C60.3855 51.9812 60.759 52.7147 60.759 53.4483V72.0314C60.759 73.0094 60.012 73.743 59.0161 73.743H51.5462V58.9499C51.5462 58.3386 51.0482 57.8495 50.4257 57.8495C49.8032 57.8495 49.3052 58.3386 49.3052 58.9499V73.743H38.4739C37.8514 73.743 37.3534 74.232 37.3534 74.8433C37.3534 75.4546 37.8514 75.9436 38.4739 75.9436H59.0161C61.257 75.9436 63 74.1097 63 72.0314V53.4483C62.8755 51.9812 61.755 50.5141 60.261 49.9028ZM37.6024 42.5674L31.751 45.1348L25.6506 42.6897V38.4107C26.2731 38.7774 26.8956 39.0219 27.6426 39.0219H35.6105C36.4819 39.0219 37.2289 38.6552 37.8514 38.1661V42.5674C37.7269 42.4451 37.7269 42.4451 37.6024 42.5674ZM17.0602 17.3824C16.5622 15.4263 17.0603 13.2257 18.6787 11.0251C19.9237 9.31349 22.0402 8.33542 24.1566 8.45768L34.4899 8.7022C36.2329 8.7022 37.8514 7.8464 38.7229 6.37931C39.2209 5.52351 39.4699 4.66772 39.4699 3.68966C41.3373 4.30095 44.0763 5.52352 45.5703 8.09091C47.0643 10.9028 46.8153 14.5705 44.6988 19.094C44.4498 19.7053 43.8273 20.1944 43.2048 20.4389C42.9558 20.5611 42.7068 20.5611 42.4578 20.4389V19.7053V19.4608C42.4578 17.627 40.9638 16.1599 39.0964 16.1599H24.0321C22.1647 16.1599 20.6707 17.627 20.6707 19.4608V20.4389V22.0282C19.4257 21.1724 17.6827 19.5831 17.0602 17.3824ZM22.9116 30.0972V24.1066V20.5611V19.5831C22.9116 18.9718 23.4096 18.4828 24.0321 18.4828H39.0964C39.7189 18.4828 40.2169 18.9718 40.2169 19.5831V19.8276V21.2947V30.2194C40.2169 30.464 40.2168 30.5862 40.0924 30.8307L36.4819 36.3323C36.2329 36.6991 35.9839 36.8213 35.4859 36.8213H27.5181C27.1446 36.8213 26.7711 36.5768 26.5221 36.3323L22.9116 30.7085C22.9116 30.464 22.9116 30.2194 22.9116 30.0972ZM23.6586 44.6458L23.9076 44.5235H24.0321C24.1566 44.5235 24.2811 44.6458 24.5301 44.6458C24.5301 44.6458 24.5301 44.6458 24.6546 44.6458L31.3775 47.3354C31.502 47.3354 31.6265 47.4577 31.751 47.4577C31.502 47.4577 31.3775 47.5799 31.1285 47.7022L27.1446 50.5141L23.6586 44.6458ZM35.8594 70.442L31.751 76.0658L27.6426 70.442L30.3815 54.1818H33.3695L35.8594 70.442ZM32.996 51.9812H30.1325L29.759 51.2477L31.8755 49.7806L33.743 51.1254L32.996 51.9812ZM36.3574 50.2696L32.3735 47.4577C32.249 47.3354 32 47.3354 31.751 47.2132C31.8755 47.2132 32 47.2132 32.1245 47.0909L38.3494 44.4013H38.4739C38.5984 44.4013 38.7229 44.5235 38.8474 44.5235C38.9719 44.5235 38.9719 44.5235 39.0964 44.5235L39.5944 44.768L36.3574 50.2696Z" stroke="white" stroke-width="2" mask="url(#path-1-outside-1_16013_533)"/>
</svg>
