<svg width="21" height="20" viewBox="0 0 21 20" fill="none" xmlns="http://www.w3.org/2000/svg">
<g clip-path="url(#clip0_12_151)">
<path d="M17.5161 0H3.51611C1.85926 0 0.516113 1.34315 0.516113 3V17C0.516113 18.6569 1.85926 20 3.51611 20H17.5161C19.173 20 20.5161 18.6569 20.5161 17V3C20.5161 1.34315 19.173 0 17.5161 0Z" fill="url(#paint0_linear_12_151)"/>
<path d="M14.2424 15.6966C13.9926 15.7066 13.7428 15.6966 13.493 15.6367C13.3431 15.6067 13.2032 15.5767 13.0533 15.5368C12.5237 15.3869 12.0341 15.1471 11.5545 14.8773C10.2056 14.0979 9.0565 13.0887 8.03732 11.9196C7.37785 11.1603 6.79831 10.3509 6.34867 9.45162C6.07888 8.90206 5.86905 8.32252 5.78912 7.70302C5.73916 7.27336 5.75914 6.8537 6.00894 6.474C6.0589 6.39406 6.11885 6.32412 6.1788 6.25418C6.48856 5.93443 6.8083 5.63467 7.11805 5.31493C7.54771 4.87528 8.22717 4.91525 8.62685 5.31493C9.11646 5.78455 9.59607 6.27416 10.0657 6.75378C10.4854 7.18343 10.4854 7.82292 10.0657 8.21261C9.97577 8.29255 9.86586 8.36249 9.74595 8.40246C9.45618 8.52236 9.22637 8.69223 9.09647 8.98199C9.01654 9.18183 8.99655 9.38167 9.0565 9.58151C9.21638 10.1611 9.54611 10.6407 9.9358 11.0803C10.3455 11.5399 10.8151 11.9196 11.3746 12.1994C11.6244 12.3193 11.8742 12.4292 12.154 12.3893C12.5337 12.3393 12.8335 12.1495 12.9834 11.7897C13.0733 11.5599 13.1832 11.3601 13.403 11.2202C13.8027 10.9704 14.3023 11.0104 14.662 11.3601C15.1616 11.8497 15.6612 12.3393 16.1508 12.8489C16.5505 13.2586 16.5405 13.918 16.1308 14.3277C15.8111 14.6575 15.4814 14.9772 15.1616 15.2969C14.9318 15.5268 14.652 15.6467 14.3323 15.6866C14.3323 15.6866 14.2823 15.6866 14.2224 15.6866L14.2424 15.6966Z" fill="white"/>
</g>
<defs>
<linearGradient id="paint0_linear_12_151" x1="10.5161" y1="20.07" x2="10.5161" y2="-7.13" gradientUnits="userSpaceOnUse">
<stop stop-color="#3650D1"/>
<stop offset="0.74" stop-color="#368DDF"/>
</linearGradient>
<clipPath id="clip0_12_151">
<rect width="20" height="20" fill="white" transform="translate(0.516113)"/>
</clipPath>
</defs>
</svg>
