<svg width="93" height="16" viewBox="0 0 93 16" fill="none" xmlns="http://www.w3.org/2000/svg">
<path fill-rule="evenodd" clip-rule="evenodd" d="M0.5 7.98704H28.5V-0.00805664H0.5V7.98704Z" fill="white"/>
<path fill-rule="evenodd" clip-rule="evenodd" d="M0.5 15.992H28.5V7.98706H0.5V15.992Z" fill="#D61E34"/>
<path d="M46.3105 3.46069V11.9919H44.2539V5.04858H41.1895V11.9919H39.1387V3.46069H46.3105ZM54.8184 7.5564V7.9021C54.8184 8.55444 54.7266 9.14038 54.543 9.65991C54.3633 10.1755 54.1074 10.6169 53.7754 10.9841C53.4434 11.3474 53.0508 11.6267 52.5977 11.822C52.1445 12.0134 51.6445 12.1091 51.0977 12.1091C50.5469 12.1091 50.043 12.0134 49.5859 11.822C49.1328 11.6267 48.7383 11.3474 48.4023 10.9841C48.0703 10.6169 47.8125 10.1755 47.6289 9.65991C47.4492 9.14038 47.3594 8.55444 47.3594 7.9021V7.5564C47.3594 6.90405 47.4492 6.31812 47.6289 5.79858C47.8125 5.27905 48.0684 4.83765 48.3965 4.47437C48.7285 4.10718 49.1211 3.82788 49.5742 3.63647C50.0312 3.44116 50.5352 3.34351 51.0859 3.34351C51.6328 3.34351 52.1328 3.44116 52.5859 3.63647C53.043 3.82788 53.4375 4.10718 53.7695 4.47437C54.1016 4.83765 54.3594 5.27905 54.543 5.79858C54.7266 6.31812 54.8184 6.90405 54.8184 7.5564ZM52.7324 7.9021V7.54468C52.7324 7.1228 52.6953 6.75171 52.6211 6.4314C52.5508 6.10718 52.4453 5.83569 52.3047 5.61694C52.1641 5.39819 51.9902 5.23413 51.7832 5.12476C51.5801 5.01147 51.3477 4.95483 51.0859 4.95483C50.8125 4.95483 50.5742 5.01147 50.3711 5.12476C50.168 5.23413 49.998 5.39819 49.8613 5.61694C49.7246 5.83569 49.6211 6.10718 49.5508 6.4314C49.4844 6.75171 49.4512 7.1228 49.4512 7.54468V7.9021C49.4512 8.32007 49.4844 8.69116 49.5508 9.01538C49.6211 9.33569 49.7246 9.60718 49.8613 9.82983C50.002 10.0525 50.1738 10.2205 50.377 10.3337C50.584 10.447 50.8242 10.5037 51.0977 10.5037C51.3594 10.5037 51.5918 10.447 51.7949 10.3337C51.998 10.2205 52.168 10.0525 52.3047 9.82983C52.4453 9.60718 52.5508 9.33569 52.6211 9.01538C52.6953 8.69116 52.7324 8.32007 52.7324 7.9021ZM61.4863 3.46069V5.04858H57.0801V3.46069H61.4863ZM62.875 3.46069V11.9919H60.8184V3.46069H62.875ZM56.9395 3.46069H58.9844L58.7617 7.79663C58.7266 8.45288 58.6602 9.01929 58.5625 9.49585C58.4648 9.96851 58.334 10.3669 58.1699 10.6912C58.0059 11.0115 57.8086 11.2673 57.5781 11.4587C57.3477 11.6501 57.0801 11.7869 56.7754 11.8689C56.4746 11.9509 56.1367 11.9919 55.7617 11.9919H55.2637V10.4099L55.4863 10.3865C55.666 10.3669 55.8242 10.3181 55.9609 10.24C56.0977 10.158 56.2148 10.0369 56.3125 9.87671C56.4141 9.71655 56.498 9.51147 56.5645 9.26147C56.6309 9.01147 56.6836 8.70874 56.7227 8.35327C56.7656 7.9939 56.7949 7.57397 56.8105 7.09351L56.9395 3.46069ZM65.4473 6.39624H67.2812C67.9727 6.39624 68.5742 6.51147 69.0859 6.74194C69.5977 6.97241 69.9922 7.29468 70.2695 7.70874C70.5508 8.1228 70.6914 8.60718 70.6914 9.16187C70.6914 9.57983 70.6113 9.96265 70.4512 10.3103C70.291 10.6541 70.0605 10.9529 69.7598 11.2068C69.4629 11.4568 69.1055 11.6501 68.6875 11.7869C68.2695 11.9236 67.8008 11.9919 67.2812 11.9919H64.1641V3.46069H66.2266V10.4099H67.2812C67.5742 10.4099 67.8203 10.3533 68.0195 10.24C68.2227 10.1267 68.377 9.97632 68.4824 9.78882C68.5879 9.59741 68.6406 9.38452 68.6406 9.15015C68.6406 8.92358 68.5879 8.72241 68.4824 8.54663C68.377 8.37085 68.2227 8.23218 68.0195 8.13062C67.8203 8.02905 67.5742 7.97827 67.2812 7.97827H65.4473V6.39624ZM83.2305 10.4744L83.1133 14.0427H81.2559V11.9861H80.5996V10.4744H83.2305ZM71.5879 3.46069H73.6504V10.4099H75.7715V3.46069H77.8281V10.4099H79.9199V3.46069H81.9707V11.9919H71.5879V3.46069ZM87.9062 5.25366L85.8262 11.9919H83.6172L86.752 3.46069H88.1523L87.9062 5.25366ZM89.6289 11.9919L87.543 5.25366L87.2734 3.46069H88.6914L91.8438 11.9919H89.6289ZM89.5469 8.8103V10.3982H85.1699V8.8103H89.5469Z" fill="#4D4D4D"/>
</svg>
