<svg width="52" height="50" viewBox="0 0 52 50" fill="none" xmlns="http://www.w3.org/2000/svg">
<path d="M31.82 32.06C34.5 37.57 37.19 43.09 39.87 48.6C40.19 49.26 40.36 49.29 40.9 48.8C41.47 48.28 42.04 47.77 42.6 47.24C44.17 45.77 44.73 43.98 44.26 41.87C42.99 36.23 41.72 30.6 40.45 24.96C40.15 23.64 39.85 22.32 39.54 20.97C36.5 23.63 33.44 26.32 30.34 29.03C30.83 30.04 31.32 31.05 31.82 32.06Z" fill="#1D7ED1"/>
<path d="M24.35 9.2299C19.67 7.7099 14.98 6.1799 10.29 4.6699C8.25 4.0099 6.43 4.4199 4.84 5.8399C4.25 6.3599 3.68 6.8999 3.1 7.4299C2.61 7.8799 2.62999 8.0599 3.19999 8.4099C9.41999 12.1799 15.64 15.9499 21.85 19.7199C24.9 16.8299 27.84 14.0299 30.72 11.2999C28.6 10.6099 26.48 9.9199 24.35 9.2299Z" fill="#1D7ED1"/>
<path d="M12.67 30.7699C12.67 30.7699 12.64 30.7699 12.63 30.7699C9.54998 30.6899 6.46998 30.6399 3.39998 30.5599C3.37998 30.5599 3.35998 30.5599 3.33998 30.5599C2.91998 30.5599 2.58998 30.6799 2.27998 30.9899C1.79998 31.4699 1.26998 31.9199 0.769976 32.3799C0.249976 32.8599 0.289976 33.0899 0.969976 33.3599C4.33998 34.7299 7.70998 36.1099 11.09 37.4699C11.45 37.6199 11.63 37.8199 11.74 38.1899C12.77 41.6799 13.82 45.1699 14.87 48.6599C14.97 49.0099 15.1 49.1699 15.29 49.1699C15.42 49.1699 15.57 49.0899 15.76 48.9199C16.3 48.4399 16.81 47.9399 17.36 47.4699C17.69 47.1899 17.84 46.8699 17.87 46.4399C18.08 43.3499 18.3 40.2599 18.54 37.1799C18.56 36.9299 18.69 36.6199 18.87 36.4599C28.7 27.8299 38.54 19.1999 48.38 10.5799C50.14 9.03995 51.18 7.11995 51.54 4.81995C51.89 2.55995 50.6 0.909946 48.14 0.819946C46.02 0.849946 43.87 1.56995 42.12 3.23995C32.56 12.2999 23.02 21.3699 13.48 30.4399C13.24 30.6699 13.01 30.7599 12.68 30.7599L12.67 30.7699Z" fill="#1D7ED1"/>
</svg>
