<svg xmlns="http://www.w3.org/2000/svg" xmlns:xlink="http://www.w3.org/1999/xlink" width="1840" height="833"><defs><linearGradient id="b" x1="0%" x2="100%" y1="50%" y2="50%"><stop offset="0%" stop-color="#373737"/><stop offset="100%" stop-color="#494949"/></linearGradient><linearGradient id="d" x1="50%" x2="50%" y1="100%" y2="0%"><stop offset="0%" stop-color="#393939"/><stop offset="100%" stop-color="#303030"/></linearGradient><linearGradient id="e" x1="50%" x2="50%" y1="0%" y2="100%"><stop offset="0%" stop-color="#565656"/><stop offset="100%" stop-color="#7A7A7A"/></linearGradient><path id="a" d="M0 0h1840v833H0z"/></defs><g fill="none" fill-rule="evenodd"><mask id="c" fill="#fff"><use xlink:href="#a"/></mask><use xlink:href="#a" fill="#000"/><path fill="url(#b)" d="M-841.348 833c276.698 0 427.956-421 715.073-421 287.117 0 467.22 421 718.832 421H-841.348Z" mask="url(#c)" opacity=".52"/><path fill="url(#b)" d="M1235.652 421c276.698 0 427.956-421 715.073-421 287.117 0 467.22 421 718.832 421H1235.652Z" mask="url(#c)" opacity=".52" transform="matrix(1 0 0 -1 0 421)"/><rect width="500" height="895" x="865" y="239" fill="url(#d)" mask="url(#c)" rx="6.8"/><rect width="500" height="895" x="475" y="119" fill="url(#e)" mask="url(#c)" opacity=".8" rx="6.8"/></g></svg>