<svg width="48" height="48" viewBox="0 0 48 48" fill="none" xmlns="http://www.w3.org/2000/svg">
<path d="M24 48C37.2548 48 48 37.2548 48 24C48 10.7452 37.2548 0 24 0C10.7452 0 0 10.7452 0 24C0 37.2548 10.7452 48 24 48Z" fill="url(#paint0_linear_16036_599)"/>
<path d="M23.9997 39.8481L22.4624 39.3641C14.9938 37.0296 9.97363 30.2063 9.97363 22.3866V12.6595L12.2038 13.0581C13.7886 13.3428 16.256 13.4946 18.9701 12.6215C20.3651 12.1755 21.6842 11.5017 22.8799 10.6286L23.9997 9.8125L25.1195 10.6286C26.3153 11.5017 27.6344 12.1755 29.0294 12.6215C31.7435 13.4946 34.2109 13.3428 35.7957 13.0581L38.0258 12.6595V22.3866C38.0258 30.2063 33.0057 37.0296 25.5371 39.3641L23.9997 39.8481ZM13.7696 17.0533V22.3961C13.7696 28.5456 17.7174 33.9169 23.5917 35.7484L23.9997 35.8718L24.4078 35.7484C30.2821 33.9169 34.2299 28.5456 34.2299 22.3961V17.0533C32.0662 17.1672 29.9025 16.892 27.8621 16.2372C26.5051 15.8006 25.2144 15.2028 23.9997 14.4531C22.785 15.2028 21.4849 15.8006 20.1373 16.2372C18.1065 16.892 15.9428 17.1672 13.7696 17.0533Z" fill="white"/>
<path d="M30.3962 21.0487V21.191C30.3962 25.6798 27.8909 29.6655 24 31.63V19.0273C24.9775 19.4449 25.9739 19.8245 26.9893 20.1566C28.1091 20.5173 29.2479 20.8115 30.3962 21.0487Z" fill="white"/>
<defs>
<linearGradient id="paint0_linear_16036_599" x1="24" y1="48" x2="24" y2="0" gradientUnits="userSpaceOnUse">
<stop stop-color="#3650CE"/>
<stop offset="0.74" stop-color="#3683D0"/>
</linearGradient>
</defs>
</svg>
