<svg width="48" height="48" viewBox="0 0 48 48" fill="none" xmlns="http://www.w3.org/2000/svg">
<path d="M24 48C37.2548 48 48 37.2548 48 24C48 10.7452 37.2548 0 24 0C10.7452 0 0 10.7452 0 24C0 37.2548 10.7452 48 24 48Z" fill="url(#paint0_linear_16036_607)"/>
<path d="M11.3311 16.7023L12.4509 17.8221L14.1306 19.5018L14.197 19.5682L16.9016 19.5493L17.0345 19.6916L19.8245 22.5196L20.3844 23.089C20.2516 23.4971 20.1567 23.9241 20.1567 24.3701C20.1567 26.6572 22.0072 28.5172 24.3038 28.5172C26.6003 28.5172 28.4509 26.6667 28.4509 24.3701C28.4509 22.0736 26.6003 20.223 24.3038 20.223C23.8767 20.223 23.4781 20.3085 23.0985 20.4223L22.5292 19.8434L19.7391 17.0154L19.6063 16.8826V14.14L19.5968 14.121L11.7581 6.28235L11.7391 11.6726L6.33936 11.7011L9.6893 15.051L11.3311 16.6928V16.7023Z" fill="white"/>
<path d="M24.3038 9.30017C22.6431 9.30017 21.0488 9.56589 19.5589 10.0689L19.9195 10.4295L21.6277 12.1376L22.4723 12.9728V13.248C23.0702 13.1436 23.6775 13.0961 24.3038 13.0961C30.5292 13.0961 35.5874 18.1543 35.5874 24.3796C35.5874 30.605 30.5292 35.6632 24.3038 35.6632C18.0785 35.6632 13.0203 30.5955 13.0203 24.3796C13.0203 23.7059 13.0773 23.0511 13.1911 22.4152H13.0298L12.1852 21.5801L10.4391 19.834L10.0595 19.4544C9.51855 21.0012 9.22437 22.6525 9.22437 24.3796C9.22437 32.6928 15.9907 39.4591 24.3038 39.4591C32.617 39.4591 39.3833 32.6928 39.3833 24.3796C39.3833 16.0665 32.617 9.30017 24.3038 9.30017Z" fill="white"/>
<defs>
<linearGradient id="paint0_linear_16036_607" x1="7.02706" y1="40.9732" x2="40.9682" y2="7.03211" gradientUnits="userSpaceOnUse">
<stop stop-color="#3650CE"/>
<stop offset="0.74" stop-color="#3683D0"/>
</linearGradient>
</defs>
</svg>
