<svg width="48" height="48" viewBox="0 0 48 48" fill="none" xmlns="http://www.w3.org/2000/svg">
<path d="M24 48C37.2548 48 48 37.2548 48 24C48 10.7452 37.2548 0 24 0C10.7452 0 0 10.7452 0 24C0 37.2548 10.7452 48 24 48Z" fill="url(#paint0_linear_16036_617)"/>
<path d="M19.0011 40.8879L15.9323 36.4198L10.5861 35.4838L10.422 30.07L6.43652 26.4029L9.22543 21.7612L7.8551 16.5115L12.7188 14.1183L14.3979 8.96507L19.7827 9.57303L23.9806 6.14722L28.1784 9.57303L33.5632 8.96507L35.2423 14.1183L40.106 16.5115L38.7357 21.7612L41.5246 26.4029L37.5391 30.07L37.375 35.4838L32.0288 36.4198L28.96 40.8879L23.9613 38.7841L18.9625 40.8879H19.0011ZM23.9999 34.5959L27.5897 36.111L29.7996 32.8975L33.6404 32.2317L33.7562 28.333L36.6223 25.6888L34.6151 22.3499L35.5994 18.5766L32.106 16.8493L30.8997 13.1436L27.03 13.5875L24.0095 11.1267L20.989 13.5875L17.1193 13.1436L15.913 16.8493L12.4196 18.5766L13.404 22.3499L11.3967 25.6888L14.2628 28.333L14.3786 32.2317L18.2194 32.8975L20.4293 36.111L24.0192 34.5959H23.9999Z" fill="white"/>
<path d="M23.2378 29.6357L17.303 24.2798L19.8892 21.4137L23.0062 24.2219L27.9857 18.8854L30.8132 21.5199L23.2378 29.6357Z" fill="white"/>
<defs>
<linearGradient id="paint0_linear_16036_617" x1="24" y1="48" x2="24" y2="0" gradientUnits="userSpaceOnUse">
<stop stop-color="#3650CE"/>
<stop offset="0.74" stop-color="#3683D0"/>
</linearGradient>
</defs>
</svg>
