<svg width="48" height="48" viewBox="0 0 48 48" fill="none" xmlns="http://www.w3.org/2000/svg">
<path d="M24 48C37.2548 48 48 37.2548 48 24C48 10.7452 37.2548 0 24 0C10.7452 0 0 10.7452 0 24C0 37.2548 10.7452 48 24 48Z" fill="url(#paint0_linear_16036_612)"/>
<path d="M31.6911 16.5501V15.5851C31.6911 11.4548 28.3329 8.09656 24.2026 8.09656H23.363C19.2327 8.09656 15.8745 11.4548 15.8745 15.5851V16.5501H11.3003V35.6768H36.246V16.5501H31.6718H31.6911ZM19.7442 15.5851C19.7442 13.5875 21.3751 11.9566 23.3727 11.9566H24.2122C26.2098 11.9566 27.8407 13.5875 27.8407 15.5851V16.5501H19.7538V15.5851H19.7442ZM15.17 31.8167V20.4102H32.3956V23.9904H23.778V28.2268H32.3956V31.807H15.17V31.8167Z" fill="white"/>
<defs>
<linearGradient id="paint0_linear_16036_612" x1="24" y1="48" x2="24" y2="0" gradientUnits="userSpaceOnUse">
<stop stop-color="#3650CE"/>
<stop offset="0.74" stop-color="#3683D0"/>
</linearGradient>
</defs>
</svg>
