<svg width="92" height="16" viewBox="0 0 92 16" fill="none" xmlns="http://www.w3.org/2000/svg">
<path fill-rule="evenodd" clip-rule="evenodd" d="M0.5 15.9919H9.83668V-0.00805664H0.5V15.9919Z" fill="#2B3379"/>
<path fill-rule="evenodd" clip-rule="evenodd" d="M9.83667 15.9919H19.1633V-0.00805664H9.83667V15.9919Z" fill="#F4D02F"/>
<path fill-rule="evenodd" clip-rule="evenodd" d="M19.1633 15.9919H28.5V-0.00805664H19.1633V15.9919Z" fill="#BB1F33"/>
<path d="M42.5547 9.09741H40.4336V7.50952H42.5547C42.8438 7.50952 43.0781 7.46069 43.2578 7.36304C43.4375 7.26538 43.5684 7.13062 43.6504 6.95874C43.7363 6.78296 43.7793 6.58569 43.7793 6.36694C43.7793 6.13257 43.7363 5.91577 43.6504 5.71655C43.5684 5.51733 43.4375 5.35718 43.2578 5.23608C43.0781 5.11108 42.8438 5.04858 42.5547 5.04858H41.207V11.9919H39.1504V3.46069H42.5547C43.2383 3.46069 43.8262 3.58569 44.3184 3.83569C44.8145 4.08569 45.1953 4.42944 45.4609 4.86694C45.7266 5.30054 45.8594 5.79663 45.8594 6.35522C45.8594 6.90601 45.7266 7.38647 45.4609 7.79663C45.1953 8.20679 44.8145 8.5271 44.3184 8.75757C43.8262 8.98413 43.2383 9.09741 42.5547 9.09741ZM49.668 8.77515L51.6836 3.46069H53.8574L50.9805 10.2283C50.8711 10.4783 50.7441 10.7166 50.5996 10.9431C50.459 11.1697 50.291 11.3708 50.0957 11.5466C49.9043 11.7224 49.6777 11.8611 49.416 11.9626C49.1543 12.0642 48.8477 12.115 48.4961 12.115C48.4102 12.115 48.3047 12.113 48.1797 12.1091C48.0586 12.1091 47.9531 12.1072 47.8633 12.1033L47.8281 10.5095C47.8789 10.5212 47.9492 10.5291 48.0391 10.533C48.1289 10.533 48.1934 10.533 48.2324 10.533C48.4668 10.533 48.6523 10.5056 48.7891 10.4509C48.9258 10.3923 49.0332 10.3064 49.1113 10.1931C49.1934 10.0759 49.2637 9.92749 49.3223 9.7478L49.668 8.77515ZM48.5254 3.46069L50.2715 7.16382L50.9395 9.53101H49.4629L46.3398 3.46069H48.5254ZM55.5801 3.46069H57.2559L59.1602 9.39624L61.0645 3.46069H62.7402L59.8398 11.9919H58.4805L55.5801 3.46069ZM54.5605 3.46069H56.2949L56.6172 9.99976V11.9919H54.5605V3.46069ZM62.0254 3.46069H63.7656V11.9919H61.7031V9.99976L62.0254 3.46069ZM67.7852 8.77515L69.8008 3.46069H71.9746L69.0977 10.2283C68.9883 10.4783 68.8613 10.7166 68.7168 10.9431C68.5762 11.1697 68.4082 11.3708 68.2129 11.5466C68.0215 11.7224 67.7949 11.8611 67.5332 11.9626C67.2715 12.0642 66.9648 12.115 66.6133 12.115C66.5273 12.115 66.4219 12.113 66.2969 12.1091C66.1758 12.1091 66.0703 12.1072 65.9805 12.1033L65.9453 10.5095C65.9961 10.5212 66.0664 10.5291 66.1562 10.533C66.2461 10.533 66.3105 10.533 66.3496 10.533C66.584 10.533 66.7695 10.5056 66.9062 10.4509C67.043 10.3923 67.1504 10.3064 67.2285 10.1931C67.3105 10.0759 67.3809 9.92749 67.4395 9.7478L67.7852 8.77515ZM66.6426 3.46069L68.3887 7.16382L69.0566 9.53101H67.5801L64.457 3.46069H66.6426ZM78.4258 6.84741V8.42944H74.0488V6.84741H78.4258ZM74.7344 3.46069V11.9919H72.6777V3.46069H74.7344ZM79.8086 3.46069V11.9919H77.7578V3.46069H79.8086ZM83.3008 3.46069V11.9919H81.25V3.46069H83.3008ZM89.1895 8.9978H86.9102L86.3008 8.74585C85.6055 8.5271 85.0762 8.20288 84.7129 7.77319C84.3496 7.3396 84.168 6.78687 84.168 6.11499C84.168 5.52905 84.2988 5.04077 84.5605 4.65015C84.8223 4.25562 85.1934 3.95874 85.6738 3.75952C86.1543 3.5603 86.7246 3.46069 87.3848 3.46069H90.4785V11.9919H88.416V5.04858H87.3848C86.9746 5.04858 86.6777 5.15601 86.4941 5.37085C86.3105 5.58179 86.2188 5.89038 86.2188 6.29663C86.2188 6.60913 86.2617 6.85522 86.3477 7.03491C86.4375 7.2146 86.5684 7.34351 86.7402 7.42163C86.9121 7.49585 87.127 7.53296 87.3848 7.53296H89.1777L89.1895 8.9978ZM87.6074 8.23022L85.7969 11.9919H83.5586L85.3457 8.23022H87.6074Z" fill="#4D4D4D"/>
</svg>
