<svg width="107" height="36" viewBox="0 0 107 36" fill="none" xmlns="http://www.w3.org/2000/svg">
<path d="M106.84 8.69028C108.29 16.9903 85.6899 27.8603 56.3699 32.9703C27.0499 38.0803 2.09989 35.4903 0.659892 27.1803C-0.780108 18.8803 21.8199 8.01027 51.1399 2.91027C80.4599 -2.19973 105.4 0.390275 106.85 8.69028H106.84Z" fill="#262626"/>
<path d="M79.2398 21.0099L79.0898 12.3799H81.8098V23.2599H77.8998L75.1798 14.3299H75.1198L75.2798 23.2599H72.5698V12.3799H76.6498L79.1798 21.0099H79.2398Z" fill="#CCCCCC"/>
<path d="M29.7698 13.3999L28.2698 23.3699H25.2998L27.3398 12.3799H32.2298L34.2598 23.3699H31.2998L29.8398 13.3999H29.7698Z" fill="#CCCCCC"/>
<path d="M41.1697 23.3699L39.3297 13.4899H39.2697L39.1997 23.3699H36.4497L36.6897 12.3799H41.1797L42.5297 20.7799H42.5897L43.9497 12.3799H48.4297L48.6697 23.3699H45.9197L45.8497 13.4899H45.7997L43.9597 23.3699H41.1697Z" fill="#CCCCCC"/>
<path d="M20.6698 20.27C20.7798 20.54 20.7398 20.88 20.6898 21.09C20.5998 21.46 20.3498 21.83 19.6198 21.83C18.9298 21.83 18.5098 21.44 18.5098 20.83V19.77H15.5598V20.62C15.5598 23.07 17.4898 23.81 19.5498 23.81C21.6098 23.81 23.1798 23.13 23.4398 21.3C23.5698 20.35 23.4698 19.73 23.4298 19.49C22.9698 17.19 18.7898 16.5 18.4798 15.22C18.4298 15 18.4398 14.77 18.4698 14.64C18.5498 14.29 18.7898 13.9 19.4698 13.9C20.1098 13.9 20.4898 14.3 20.4898 14.9V15.58H23.2298V14.81C23.2298 12.42 21.0798 12.04 19.5198 12.04C17.5598 12.04 15.9698 12.69 15.6798 14.48C15.5998 14.97 15.5898 15.41 15.6998 15.97C16.1798 18.22 20.0798 18.87 20.6498 20.29L20.6698 20.27Z" fill="#CCCCCC"/>
<path d="M56.4099 20.2498C56.5199 20.5098 56.4799 20.8498 56.4299 21.0498C56.3399 21.4098 56.0899 21.7798 55.3699 21.7798C54.6899 21.7798 54.2799 21.3898 54.2799 20.7998V19.7498H51.3599V20.5898C51.3599 23.0198 53.2699 23.7498 55.3099 23.7498C57.3499 23.7498 58.8999 23.0798 59.1499 21.2598C59.2799 20.3198 59.1899 19.6998 59.1499 19.4698C58.6899 17.1898 54.5599 16.5098 54.2499 15.2398C54.1999 15.0198 54.2099 14.7898 54.2399 14.6698C54.3199 14.3198 54.5499 13.9398 55.2399 13.9398C55.8799 13.9398 56.2499 14.3298 56.2499 14.9198V15.5898H58.9698V14.8298C58.9698 12.4598 56.8399 12.0898 55.2999 12.0898C53.3699 12.0898 51.7799 12.7298 51.4999 14.4998C51.4199 14.9898 51.4099 15.4198 51.5299 15.9698C51.9999 18.1898 55.8699 18.8398 56.4299 20.2498H56.4099Z" fill="#CCCCCC"/>
<path d="M65.6499 21.7299C66.4099 21.7299 66.6499 21.1999 66.6999 20.9299C66.7199 20.8099 66.7299 20.6499 66.7299 20.5099V12.3799H69.5099V20.2599C69.5099 20.4599 69.4999 20.8799 69.4899 20.9799C69.2899 23.0299 67.6699 23.6999 65.6499 23.6999C63.6299 23.6999 61.9999 23.0299 61.8099 20.9799C61.8099 20.8799 61.7799 20.4599 61.7899 20.2599V12.3799H64.5699V20.5099C64.5699 20.6499 64.5699 20.8099 64.5999 20.9299C64.6599 21.1999 64.8899 21.7299 65.6599 21.7299H65.6499Z" fill="#CCCCCC"/>
<path d="M88.5797 21.6103C89.3797 21.6103 89.6497 21.1103 89.7097 20.8103C89.7297 20.6803 89.7397 20.5303 89.7297 20.3903V18.7903H88.5997V17.1903H92.4997V20.1403C92.4997 20.3503 92.4997 20.5003 92.4597 20.8603C92.2797 22.8603 90.5397 23.5703 88.5897 23.5703C86.6397 23.5703 84.9097 22.8603 84.7197 20.8603C84.6897 20.4903 84.6797 20.3403 84.6797 20.1403V15.5103C84.6797 15.3103 84.7097 14.9703 84.7297 14.7903C84.9697 12.7403 86.6397 12.0703 88.5897 12.0703C90.5397 12.0703 92.2497 12.7303 92.4497 14.7903C92.4897 15.1403 92.4697 15.5103 92.4697 15.5103V15.8803H89.6997V15.2603C89.6997 15.2603 89.6997 15.0003 89.6597 14.8403C89.6097 14.6003 89.3997 14.0403 88.5597 14.0403C87.7197 14.0403 87.5197 14.5703 87.4697 14.8403C87.4397 14.9803 87.4197 15.1803 87.4197 15.3603V20.3903C87.4197 20.5303 87.4197 20.6803 87.4497 20.8103C87.4997 21.1003 87.7697 21.6103 88.5697 21.6103H88.5797Z" fill="#CCCCCC"/>
</svg>
