<svg width="58" height="49" viewBox="0 0 58 49" fill="none" xmlns="http://www.w3.org/2000/svg">
<path d="M8.02991 27.69V48.12H20.0599C16.6899 45.45 14.5199 41.31 14.5199 36.68C14.5199 28.64 21.0599 22.09 29.1099 22.09C37.1599 22.09 43.6999 28.63 43.6999 36.68C43.6999 41.31 41.5299 45.44 38.1599 48.12H50.1899V27.69L29.1199 11.12L8.02991 27.69Z" fill="#1D7ED1"/>
<path d="M28.8 0L0 22.65L4 27.59L28.8 8.08L53.61 27.59L57.61 22.65L28.8 0Z" fill="#1D7ED1"/>
<path d="M50.1699 5.18005H43.6699V8.56005L50.1599 13.6701L50.1699 5.18005Z" fill="#1D7ED1"/>
<path d="M40.5399 36.69C40.5399 30.37 35.4199 25.25 29.0999 25.25C22.7799 25.25 17.6599 30.37 17.6599 36.69C17.6599 43.01 22.7799 48.13 29.0999 48.13C35.4199 48.13 40.5399 43.01 40.5399 36.69ZM35.1399 40.72L33.1399 42.72L29.1099 38.69L25.0799 42.72L23.0799 40.72L27.1099 36.69L23.0799 32.66L25.0799 30.66L29.1099 34.69L33.1399 30.66L35.1399 32.66L31.1099 36.69L35.1399 40.72Z" fill="#1D7ED1"/>
</svg>
