<svg width="51" height="60" viewBox="0 0 51 60" fill="none" xmlns="http://www.w3.org/2000/svg">
<path d="M50.05 9.49996C49.97 8.88996 49.63 8.42996 49.08 8.20996C48.82 8.09996 48.56 8.01996 48.3 7.92996L48.14 7.87996C47.86 7.78996 47.59 7.69996 47.31 7.61996L46.94 7.51996C46.78 7.47996 46.61 7.42996 46.45 7.37996C46.24 7.30996 46.03 7.23996 45.82 7.16996C45.62 7.09996 45.42 7.02996 45.21 6.96996C44.95 6.88996 44.7 6.80996 44.44 6.72996L43.5 6.42996C43.34 6.37996 43.18 6.31996 43.02 6.26996C42.88 6.22996 42.73 6.18996 42.59 6.14996C42.44 6.10996 42.28 6.06996 42.13 6.01996C41.91 5.94996 41.69 5.87996 41.47 5.79996C41.28 5.72996 41.09 5.66996 40.89 5.60996C40.62 5.51996 40.34 5.43996 40.07 5.34996L39.16 5.06996C38.99 5.01996 38.83 4.95996 38.66 4.90996C38.53 4.86996 38.39 4.82996 38.26 4.79996C38.11 4.75996 37.95 4.71996 37.8 4.66996C37.59 4.59996 37.38 4.52996 37.17 4.45996C36.97 4.38996 36.77 4.31996 36.57 4.25996C36.33 4.17996 36.09 4.10996 35.85 4.03996L35.24 3.84996C35.11 3.80996 34.99 3.76996 34.86 3.72996C34.7 3.67996 34.55 3.62996 34.39 3.57996C34.24 3.52996 34.08 3.48996 33.93 3.44996C33.78 3.40996 33.64 3.36996 33.49 3.32996C33.28 3.25996 33.07 3.19996 32.85 3.12996L29.98 2.22996C29.83 2.18996 29.67 2.13996 29.52 2.08996C29.39 2.04996 29.26 1.99996 29.14 1.95996C28.98 1.90996 28.83 1.84996 28.67 1.79996C28.47 1.73996 28.27 1.67996 28.06 1.61996C27.84 1.54996 27.61 1.48996 27.39 1.41996C27.18 1.34996 26.97 1.27996 26.77 1.20996C26.44 1.09996 26.11 0.989956 25.78 0.889956L25.66 0.849957C25.41 0.769957 25.11 0.679957 24.76 0.769957C24.53 0.829957 24.31 0.899956 24.08 0.969956L21.29 1.85996C21.02 1.93996 20.76 2.02996 20.49 2.10996L20.13 2.21996C19.95 2.26996 19.77 2.31996 19.59 2.37996L17.86 2.92996C17.7 2.97996 17.55 3.01996 17.39 3.06996C17.25 3.10996 17.12 3.15996 16.98 3.20996C16.83 3.25996 16.68 3.30996 16.54 3.35996C16.4 3.39996 16.25 3.43996 16.11 3.47996C15.95 3.51996 15.8 3.56996 15.64 3.60996C15.35 3.69996 15.07 3.78996 14.78 3.88996L13.07 4.43996C12.91 4.48996 12.74 4.54996 12.58 4.59996C12.43 4.63996 12.29 4.68996 12.14 4.72996C11.99 4.76996 11.84 4.81996 11.69 4.85996C11.48 4.91996 11.27 4.98996 11.07 5.05996L10.7 5.17996C10.28 5.30996 9.86999 5.44996 9.44999 5.57996C9.21999 5.64996 8.98999 5.71996 8.74999 5.78996L8.24999 5.93996C8.06999 5.98996 7.88999 6.04996 7.70999 6.10996L7.07999 6.30996C6.85999 6.37996 6.63999 6.45996 6.41999 6.52996L5.64999 6.76996C5.36999 6.84996 5.09999 6.93996 4.81999 7.02996C4.62999 7.08996 4.44999 7.14996 4.25999 7.20996C4.03999 7.27996 3.82999 7.34996 3.60999 7.41996C3.46999 7.45996 3.31999 7.49996 3.16999 7.53996C3.01999 7.57996 2.86999 7.61996 2.71999 7.66996C2.22999 7.81996 1.73999 7.97996 1.25999 8.13996C1.12999 8.17996 0.949989 8.24996 0.789989 8.34996C0.289989 8.66996 0.0299866 9.15996 0.0299866 9.75996C0.0299866 12.67 0.0299866 15.58 0.0299866 18.49V22.36C0.0299866 24.08 0.0299866 25.81 0.0299866 27.53C0.0299866 27.88 0.0299866 28.22 0.0299866 28.57C0.0299866 29.54 0.0099868 30.54 0.119987 31.54C0.139987 31.76 0.159988 31.98 0.179988 32.2C0.219988 32.68 0.269986 33.18 0.349986 33.68L0.399989 33.97C0.459989 34.32 0.519988 34.66 0.569988 35.01C0.649988 35.55 0.769986 36.09 0.919986 36.64L1.48999 38.65C1.67999 39.3 1.91999 39.93 2.16999 40.57C2.51999 41.48 2.92999 42.38 3.37999 43.26C3.92999 44.34 4.53999 45.37 5.18999 46.34C6.10999 47.7 7.11999 48.97 8.18999 50.13C9.08999 51.1 10.02 51.98 10.96 52.74L11.18 52.92C11.68 53.33 12.2 53.75 12.74 54.13C13.7 54.8 14.56 55.35 15.4 55.82C16.61 56.51 17.84 57.1 19.05 57.58C19.48 57.75 19.93 57.92 20.37 58.07C20.9 58.25 21.43 58.43 21.97 58.6C22.23 58.68 22.49 58.74 22.75 58.81L23.33 58.95C23.78 59.06 24.23 59.18 24.69 59.28C24.79 59.3 24.9 59.31 25 59.31C25.15 59.31 25.28 59.29 25.39 59.27C25.83 59.18 26.28 59.07 26.72 58.96L26.93 58.91C27.35 58.8 27.78 58.7 28.2 58.58C28.51 58.49 28.81 58.38 29.11 58.28L29.77 58.06C30.04 57.97 30.32 57.88 30.58 57.77C31.69 57.32 32.62 56.91 33.53 56.43L33.72 56.33C34.34 56 34.98 55.66 35.59 55.27C36.37 54.77 37.12 54.24 37.89 53.69C38.73 53.08 39.59 52.36 40.58 51.42C41.65 50.41 42.67 49.28 43.62 48.06C44.43 47.02 45.16 45.95 45.78 44.88C46.11 44.31 46.44 43.7 46.75 43.08C47.05 42.49 47.32 41.88 47.59 41.28C47.77 40.89 47.93 40.49 48.08 40.08C48.22 39.68 48.35 39.28 48.48 38.87L48.6 38.49C48.73 38.09 48.86 37.69 48.97 37.28C49.09 36.86 49.19 36.44 49.3 35.96C49.36 35.72 49.4 35.47 49.45 35.22C49.48 35.07 49.5 34.92 49.52 34.77C49.54 34.62 49.56 34.47 49.59 34.32C49.61 34.19 49.64 34.06 49.66 33.93C49.7 33.73 49.74 33.54 49.77 33.34C49.82 33 49.86 32.66 49.88 32.31L49.92 31.75C49.96 31.16 50 30.55 50 29.94C50 24.74 50 19.54 50 14.34V9.71996C50 9.65996 50 9.58996 50 9.52996L50.05 9.49996ZM46.9 23.15C46.9 25.49 46.9 27.83 46.9 30.17C46.9 30.79 46.84 31.44 46.78 32.06V32.15C46.72 32.69 46.64 33.24 46.56 33.78C46.53 33.95 46.49 34.12 46.45 34.28C46.43 34.38 46.4 34.48 46.38 34.59L46.21 35.45C46.15 35.74 46.09 36.02 46.02 36.31C45.95 36.58 45.87 36.84 45.79 37.1L45.76 37.21C45.63 37.63 45.49 38.05 45.35 38.48C45.25 38.79 45.14 39.1 45.01 39.4C44.78 39.94 44.54 40.48 44.29 41.02C43.9 41.87 43.45 42.7 42.92 43.57C42.36 44.48 41.76 45.34 41.15 46.13C40.14 47.42 39.02 48.62 37.8 49.71C36.68 50.72 35.5 51.61 34.31 52.36C33.69 52.75 33.04 53.13 32.31 53.51C31.6 53.89 30.96 54.2 30.36 54.46C29.73 54.73 29.06 54.97 28.38 55.21C27.88 55.38 27.38 55.54 26.87 55.68C26.65 55.74 26.43 55.79 26.21 55.83C26.06 55.86 25.92 55.89 25.77 55.93C25.62 55.97 25.47 56.01 25.32 56.05L25.09 56.11L24.25 55.9C24.13 55.87 24.02 55.85 23.9 55.82C23.41 55.68 22.91 55.54 22.41 55.4C22.16 55.33 21.9 55.25 21.66 55.16C21.35 55.04 21.04 54.92 20.74 54.8C20.49 54.7 20.24 54.6 19.98 54.51C18.91 54.1 17.9 53.56 17.14 53.13C16.36 52.69 15.61 52.19 14.88 51.7C14.1 51.18 13.31 50.55 12.46 49.79C11.4 48.85 10.43 47.84 9.55999 46.79C8.81999 45.9 8.14999 44.98 7.55999 44.04C7.01999 43.19 6.63999 42.53 6.31999 41.89C6.02999 41.31 5.72999 40.7 5.45999 40.06C5.11999 39.24 4.81999 38.41 4.47999 37.48C4.40999 37.29 4.35999 37.08 4.30999 36.88L4.12999 36.19C4.05999 35.96 3.99999 35.73 3.93999 35.49C3.89999 35.32 3.86999 35.15 3.83999 34.98L3.60999 33.72C3.56999 33.51 3.52999 33.3 3.49999 33.08C3.43999 32.65 3.39999 32.22 3.35999 31.73C3.23999 30.51 3.24999 29.26 3.24999 28.05V10.8C3.42999 10.75 3.59999 10.7 3.76999 10.64L5.42999 10.11C5.68999 10.02 5.95999 9.93996 6.21999 9.84996C6.36999 9.79996 6.51999 9.75996 6.65999 9.71996C6.79999 9.67996 6.93999 9.63996 7.07999 9.59996C7.24999 9.54996 7.41999 9.48996 7.58999 9.42996L14.49 7.26996C14.67 7.21996 14.84 7.15996 15.02 7.10996L15.38 6.99996C15.65 6.91996 15.92 6.83996 16.19 6.74996L20.92 5.24996C21.08 5.19996 21.24 5.13996 21.4 5.08996C21.78 4.96996 22.15 4.85996 22.53 4.73996L23.17 4.53996C23.46 4.44996 23.74 4.36996 24.03 4.27996C24.15 4.23996 24.26 4.19996 24.37 4.15996C24.54 4.09996 24.7 4.03996 24.87 3.99996C24.98 3.97996 25.13 3.98996 25.35 3.99996C25.37 3.99996 25.43 4.01996 25.46 4.03996L26.21 4.28996C26.64 4.42996 27.07 4.56996 27.49 4.69996C27.71 4.76996 27.93 4.83996 28.15 4.89996C28.37 4.95996 28.58 5.02996 28.8 5.09996C29 5.15996 29.2 5.22996 29.4 5.29996C29.61 5.36996 29.83 5.43996 30.04 5.50996C30.2 5.55996 30.36 5.59996 30.52 5.64996C30.65 5.67996 30.78 5.71996 30.91 5.75996C31.21 5.84996 31.51 5.94996 31.8 6.03996L33.42 6.55996C33.73 6.65996 34.03 6.75996 34.34 6.85996C34.49 6.90996 34.65 6.94996 34.8 6.98996C34.94 7.02996 35.09 7.06996 35.23 7.10996C35.48 7.18996 35.72 7.26996 35.97 7.34996L36.47 7.51996C36.64 7.57996 36.82 7.62996 36.99 7.67996L38.25 8.07996C38.41 8.12996 38.58 8.17996 38.74 8.22996L39.08 8.32996C39.26 8.37996 39.45 8.42996 39.63 8.48996C39.8 8.53996 39.98 8.59996 40.15 8.65996L40.61 8.80996C41.03 8.94996 41.45 9.07996 41.87 9.21996C42.02 9.26996 42.17 9.30996 42.33 9.34996C42.48 9.38996 42.62 9.42996 42.77 9.47996C42.92 9.52996 43.06 9.57996 43.21 9.62996C43.35 9.67996 43.5 9.72996 43.64 9.76996L46.34 10.61C46.53 10.67 46.71 10.73 46.9 10.78C46.9 10.8 46.9 10.83 46.9 10.85V20.23H46.89V23.11L46.9 23.15Z" fill="white"/>
<path d="M42.49 13.3601C42.25 13.2301 42 13.1501 41.76 13.0701L41.66 13.0401C41.45 12.9701 41.25 12.9101 41.04 12.8501L39.35 12.3301C39.11 12.2601 38.88 12.1901 38.64 12.1101C38.51 12.0701 38.38 12.0201 38.25 11.9801C38.1 11.9301 37.94 11.8701 37.79 11.8301C37.65 11.7801 37.5 11.7401 37.35 11.7001C37.21 11.6601 37.06 11.6201 36.92 11.5701C36.68 11.5001 36.44 11.4201 36.21 11.3401L33.2 10.4001C33.04 10.3501 32.87 10.3001 32.71 10.2501L32.11 10.0601C31.89 9.99011 31.66 9.91011 31.44 9.84011C31.24 9.78011 31.04 9.72011 30.84 9.65011C30.64 9.59011 30.45 9.53011 30.25 9.47011C30.07 9.41011 29.88 9.35011 29.7 9.29011C29.49 9.22011 29.28 9.15011 29.07 9.09011C28.86 9.02011 28.65 8.96011 28.44 8.90011C28.24 8.84011 28.05 8.78011 27.85 8.72011C27.42 8.59011 26.99 8.45011 26.56 8.32011L26 8.14011C25.9 8.11011 25.79 8.08011 25.7 8.04011C25.36 7.91011 24.98 7.89011 24.58 8.00011C24.3 8.07011 24.03 8.17011 23.75 8.26011C23.6 8.31011 23.45 8.36011 23.3 8.41011C22.99 8.51011 22.68 8.60011 22.37 8.70011C22.06 8.80011 21.74 8.89011 21.43 8.99011C21.22 9.06011 21.01 9.13011 20.81 9.20011C20.62 9.27011 20.43 9.33011 20.24 9.39011C19.86 9.51011 19.48 9.63011 19.1 9.74011L17.62 10.1901C17.42 10.2501 17.23 10.3101 17.04 10.3801L13.36 11.5401C13.13 11.6101 12.89 11.6801 12.66 11.7501C12.52 11.7901 12.38 11.8401 12.24 11.8901C12.1 11.9401 11.95 11.9901 11.8 12.0401C11.67 12.0801 11.53 12.1201 11.39 12.1601C11.23 12.2001 11.08 12.2501 10.92 12.3001C10.7 12.3701 10.48 12.4401 10.26 12.5201C10.07 12.5901 9.87 12.6501 9.68 12.7101L9.47 12.7801C8.98 12.9401 8.48 13.1001 7.98 13.2401C7.47 13.3901 7.10999 13.7401 6.93999 14.2701C6.86999 14.4801 6.87 14.7001 6.87 14.9001C6.87 19.3201 6.87 23.7501 6.87 28.1701V28.6701C6.87 29.6201 6.87 30.6101 6.98 31.5901C7.06 32.2401 7.14 32.8801 7.24 33.5301C7.27 33.7401 7.32 33.9501 7.36 34.1501L7.38 34.2301C7.41 34.3501 7.44 34.4801 7.47 34.6001L7.62 35.2201C7.67 35.4601 7.73 35.7001 7.8 35.9301C7.93 36.3601 8.07 36.8001 8.23 37.2201C8.46 37.8201 8.7 38.4201 8.95 39.0201C9.21 39.6401 9.52 40.2201 9.89 40.9001C10.31 41.6601 10.8 42.4301 11.35 43.2001C11.81 43.8301 12.33 44.4701 12.98 45.2101C13.8 46.1201 14.7 46.9701 15.75 47.8101C16.71 48.5801 17.75 49.2801 18.85 49.9001C19.91 50.4901 20.88 50.9601 21.83 51.3201C22.29 51.4901 22.74 51.6601 23.21 51.8101C23.66 51.9501 24.12 52.0801 24.58 52.2101L24.87 52.2901C24.94 52.3101 25.01 52.3201 25.08 52.3201C25.14 52.3201 25.21 52.3201 25.27 52.3001L25.44 52.2601C25.68 52.2001 25.93 52.1501 26.16 52.0801C26.57 51.9501 26.99 51.8201 27.39 51.6701L27.82 51.5101C28.38 51.3001 28.96 51.0901 29.52 50.8401C30.5 50.3901 31.35 49.9401 32.11 49.4401C32.63 49.1001 33.14 48.7601 33.65 48.4101C34.32 47.9501 34.52 47.0701 34.12 46.3801C33.89 45.9801 33.55 45.7201 33.14 45.6401C32.64 45.5401 32.16 45.6601 31.75 45.9601C31.09 46.4601 30.37 46.9101 29.63 47.3201C29.1 47.6101 28.52 47.8901 27.92 48.1701C27.48 48.3701 27.02 48.5401 26.58 48.7001C26.35 48.7901 26.1 48.8601 25.86 48.9301L25.57 49.0201C25.47 49.0501 25.36 49.0901 25.26 49.1101C25.14 49.1401 25.01 49.1201 24.82 49.0501C24.6 48.9701 24.38 48.9101 24.16 48.8501C23.97 48.8001 23.77 48.7501 23.58 48.6801C23.14 48.5301 22.71 48.3501 22.28 48.1601C21.39 47.7801 20.6 47.3701 19.85 46.9101C18.93 46.3501 18.14 45.7901 17.43 45.1901C16.74 44.6201 16.23 44.1501 15.78 43.6901C14.83 42.7101 14.14 41.8601 13.59 41.0101L13.28 40.5401C12.98 40.0901 12.7 39.6601 12.46 39.2001C11.99 38.3201 11.4 37.1501 11.03 35.8801C10.97 35.6801 10.91 35.4801 10.84 35.2701C10.72 34.9001 10.61 34.5401 10.53 34.1801C10.36 33.4001 10.21 32.5901 10.09 31.7601C10.01 31.2001 9.97 30.6401 9.97 30.0701C9.97 26.3901 9.97 22.7101 9.96 19.0201V15.8401C10.21 15.7701 10.46 15.7001 10.71 15.6201C10.95 15.5401 11.19 15.4601 11.43 15.3801C11.7 15.2901 11.96 15.2001 12.23 15.1201C12.45 15.0501 12.68 14.9801 12.91 14.9201C13.1 14.8601 13.29 14.8101 13.48 14.7501L18.76 13.0801C18.94 13.0201 19.13 12.9601 19.31 12.9001L19.7 12.7901C19.86 12.7401 20.02 12.7001 20.17 12.6501C20.33 12.6001 20.49 12.5501 20.66 12.4901L21.63 12.1801C21.86 12.1101 22.08 12.0401 22.31 11.9701C22.58 11.8901 22.84 11.8001 23.11 11.7101L23.82 11.4801C24.25 11.3401 24.69 11.2101 25.09 11.1001C25.25 11.1501 25.4 11.2001 25.56 11.2401L26.32 11.4701C26.48 11.5201 26.63 11.5601 26.79 11.6101C26.95 11.6601 27.1 11.7101 27.26 11.7701L29.3 12.4201C29.46 12.4701 29.63 12.5301 29.79 12.5801C29.92 12.6201 30.05 12.6501 30.18 12.6901C30.33 12.7301 30.48 12.7701 30.63 12.8201C30.87 12.9001 31.11 12.9801 31.35 13.0501L31.89 13.2301C32.2 13.3301 32.51 13.4301 32.82 13.5201L33.49 13.7301C33.76 13.8201 34.04 13.9101 34.31 13.9901C34.45 14.0301 34.6 14.0701 34.74 14.1101C34.89 14.1501 35.03 14.1901 35.18 14.2401C35.39 14.3101 35.6 14.3701 35.81 14.4401L37.29 14.9201C37.58 15.0101 37.87 15.1101 38.16 15.1901C38.3 15.2301 38.45 15.2701 38.59 15.3101C38.74 15.3501 38.9 15.3901 39.05 15.4401C39.26 15.5101 39.48 15.5801 39.69 15.6501C39.87 15.7101 40.04 15.7701 40.23 15.8301V19.1501C40.23 22.7001 40.23 26.2601 40.23 29.8101C40.23 30.2401 40.2 30.6801 40.16 31.1101C40.14 31.3201 40.13 31.5201 40.11 31.7801L40.05 32.1501C40.01 32.4101 39.97 32.6601 39.92 32.9201L39.88 33.1501C39.82 33.4901 39.75 33.8401 39.67 34.1701C39.56 34.6101 39.43 35.0401 39.28 35.4901L39.19 35.7701C39.08 36.1401 38.97 36.4901 38.83 36.8201C38.57 37.4301 38.29 38.0201 38 38.6201L37.91 38.8001C37.63 39.3901 37.62 39.9301 37.9 40.4301C38.19 40.9701 38.97 41.3101 39.53 41.1701C40.03 41.0301 40.39 40.7601 40.6 40.3501C40.85 39.8601 41.09 39.3501 41.32 38.8501C41.55 38.3301 41.76 37.8201 41.94 37.3101C42.12 36.8201 42.28 36.3201 42.42 35.8201C42.5 35.5601 42.55 35.3001 42.61 35.0401L42.76 34.4101C42.83 34.1101 42.91 33.8001 42.96 33.5001C43.07 32.9201 43.13 32.4501 43.18 31.9901C43.24 31.3001 43.31 30.5801 43.31 29.8701C43.32 28.1401 43.31 26.4001 43.31 24.6701V14.7601C43.31 14.1401 43.03 13.6401 42.51 13.3701L42.49 13.3601Z" fill="white"/>
<path d="M36.63 42.4299C36.63 42.4299 36.62 42.4299 36.61 42.4299C35.75 42.4299 35.05 43.1499 35.04 44.0099C35.04 44.4099 35.21 44.8199 35.51 45.1199C35.81 45.4199 36.22 45.5899 36.63 45.5899C37.05 45.5899 37.48 45.3999 37.78 45.0699C38.06 44.7699 38.2 44.3899 38.18 43.9899C38.19 43.5799 38.04 43.1999 37.75 42.8999C37.45 42.5999 37.05 42.4199 36.63 42.4199V42.4299Z" fill="white"/>
</svg>
