<svg width="54" height="54" viewBox="0 0 54 54" fill="none" xmlns="http://www.w3.org/2000/svg">
<path d="M27.0399 45.2799C26.2599 45.2799 25.4799 45.2599 24.6999 45.2799C23.7499 45.3099 23.1999 44.8699 22.8899 44.0699C22.5499 43.1899 22.1999 42.3199 21.8499 41.4399C21.7799 41.2599 21.6799 41.1499 21.4899 41.0799C20.0999 40.5499 18.8399 39.7999 17.6799 38.8799C17.5099 38.7399 17.3499 38.6999 17.1299 38.7299C16.4499 38.8399 15.7699 38.9299 15.0799 39.0299C14.7799 39.0699 14.4899 39.1199 14.1899 39.1699C13.4499 39.2799 12.8799 38.9999 12.4999 38.3699C11.9199 37.3899 11.3499 36.3899 10.7799 35.3999C10.4999 34.9199 10.2299 34.4399 9.94989 33.9599C9.57989 33.3099 9.61989 32.6899 10.0799 32.0999C10.6899 31.3099 11.3099 30.5199 11.9299 29.7499C12.0599 29.5899 12.0999 29.4299 12.0699 29.2299C11.9199 28.2399 11.8499 27.2399 11.9099 26.2399C11.9399 25.7899 11.9999 25.3299 12.0599 24.8799C12.0899 24.6599 12.0599 24.4899 11.9099 24.2999C11.2899 23.5299 10.6899 22.7499 10.0799 21.9699C9.61989 21.3799 9.55988 20.7599 9.93988 20.1099C10.6099 18.9399 11.2899 17.7699 11.9699 16.5999C12.1299 16.3199 12.2899 16.0399 12.4499 15.7599C12.7799 15.1599 13.3999 14.7599 14.1999 14.8899C15.1799 15.0499 16.1599 15.1699 17.1399 15.3099C17.3599 15.3399 17.5099 15.2799 17.6799 15.1499C18.7999 14.2699 20.0099 13.5299 21.3499 13.0199C21.6299 12.9099 21.7899 12.7399 21.8999 12.4499C22.2399 11.5399 22.5999 10.6299 22.9799 9.72994C23.2399 9.10994 23.7299 8.76994 24.4099 8.75994C26.1599 8.74994 27.8999 8.74994 29.6499 8.75994C30.2799 8.75994 30.7699 9.05994 31.0299 9.63994C31.2799 10.1699 31.4899 10.7199 31.7099 11.2699C31.8999 11.7299 32.0799 12.1899 32.2599 12.6599C32.3099 12.7999 32.3999 12.8699 32.5299 12.9299C33.4899 13.3099 34.4099 13.7699 35.2699 14.3499C35.6599 14.6199 36.0499 14.8999 36.4199 15.1899C36.5699 15.2999 36.7099 15.3399 36.8799 15.3099C37.6999 15.1799 38.5299 15.0499 39.3499 14.9399C39.6799 14.8899 40.0199 14.8499 40.3399 14.8699C40.8799 14.8999 41.2699 15.1999 41.5399 15.6599C42.0899 16.6099 42.6399 17.5599 43.1899 18.5099C43.4799 19.0199 43.7699 19.5299 44.0699 20.0299C44.4499 20.6799 44.4499 21.3199 43.9799 21.9199C43.3999 22.6699 42.8299 23.4199 42.2299 24.1499C42.0099 24.4199 41.8899 24.6599 42.0099 25.0199C42.0899 25.2499 42.0699 25.5299 42.0899 25.7799C42.1799 26.8399 42.1299 27.8899 42.0299 28.9499C41.8399 29.3599 42.0299 29.6499 42.2799 29.9599C42.8599 30.6699 43.4199 31.3999 43.9899 32.1299C44.4299 32.6999 44.4599 33.3199 44.1099 33.9399C43.4799 35.0499 42.8299 36.1499 42.1999 37.2499C41.9799 37.6199 41.7699 37.9999 41.5499 38.3699C41.1699 38.9899 40.6199 39.2699 39.8899 39.1599C38.8899 39.0099 37.8899 38.8699 36.8899 38.7199C36.7099 38.6899 36.5699 38.7199 36.4299 38.8399C35.3399 39.7299 34.1299 40.4199 32.8499 40.9899C32.3799 41.0399 32.2399 41.3899 32.0999 41.7699C31.7899 42.5999 31.4499 43.4199 31.1099 44.2399C30.8299 44.9299 30.2999 45.2799 29.5599 45.2799C28.7099 45.2799 27.8699 45.2799 27.0199 45.2799H27.0399ZM25.4999 11.8999C25.1399 12.7899 24.7899 13.6499 24.4499 14.5199C24.2299 15.0899 23.8399 15.4499 23.2599 15.6299C22.4099 15.8999 21.6099 16.2899 20.8499 16.7499C20.1699 17.1599 19.5599 17.6499 18.9599 18.1599C18.6099 18.4599 18.1899 18.5999 17.7299 18.5399C17.4099 18.4999 17.0899 18.4399 16.7699 18.3999C16.2099 18.3199 15.6499 18.2399 15.0899 18.1399C14.8299 18.0899 14.6499 18.1499 14.5299 18.4099C14.3799 18.7299 14.1799 19.0299 13.9999 19.3399C13.7299 19.8199 13.4499 20.2999 13.1799 20.7799C13.2899 20.9199 13.3799 21.0399 13.4799 21.1699C14.0099 21.8499 14.5499 22.5299 15.0699 23.2199C15.3299 23.5599 15.4199 23.9599 15.3499 24.3799C15.2799 24.8699 15.1799 25.3599 15.1099 25.8599C15.0099 26.6099 15.0099 27.3699 15.1099 28.1199C15.1799 28.6299 15.2799 29.1299 15.3499 29.6299C15.4299 30.1499 15.2499 30.5899 14.9299 30.9899C14.5699 31.4399 14.2099 31.8899 13.8599 32.3499C13.6299 32.6399 13.3999 32.9399 13.1699 33.2399C13.6599 34.0799 14.1399 34.8899 14.5999 35.7099C14.6999 35.8899 14.8299 35.8899 14.9899 35.8699C15.8199 35.7599 16.6399 35.6599 17.4599 35.5099C18.0599 35.3999 18.5699 35.5299 19.0399 35.9099C19.5599 36.3399 20.0999 36.7499 20.6599 37.1299C21.5199 37.7199 22.4699 38.1099 23.4499 38.4499C23.8699 38.5999 24.1799 38.8699 24.3499 39.2799C24.5299 39.6999 24.6999 40.1199 24.8699 40.5399C25.0799 41.0599 25.2899 41.5899 25.5099 42.1099H28.5899C28.6399 42.0099 28.6899 41.9299 28.7299 41.8299C29.0099 41.1199 29.3099 40.4099 29.5699 39.6899C29.8199 38.9999 30.2399 38.5199 30.9799 38.3199C31.4399 38.1999 31.8699 37.9799 32.2999 37.7699C33.3299 37.2799 34.2499 36.6299 35.0999 35.8699C35.5399 35.4799 36.0399 35.3799 36.6199 35.4799C37.4499 35.6199 38.2899 35.7199 39.1299 35.8499C39.3299 35.8799 39.4599 35.8099 39.5599 35.6299C39.8399 35.1199 40.1499 34.6099 40.4399 34.0999C40.6099 33.7999 40.7699 33.4999 40.9399 33.2099C40.8899 33.1299 40.8499 33.0699 40.8099 33.0199C40.2599 32.3099 39.7099 31.5999 39.1499 30.8999C38.7999 30.4699 38.7099 29.9899 38.8099 29.4599C38.8599 29.1799 38.9299 28.8899 38.9699 28.6099C39.1399 27.2199 39.0999 25.8399 38.8099 24.4599C38.6999 23.9499 38.8099 23.4699 39.1499 23.0499C39.7099 22.3599 40.2399 21.6499 40.7999 20.9599C40.9099 20.8199 40.9399 20.6999 40.8499 20.5399C40.4099 19.7799 39.9699 19.0299 39.5299 18.2599C39.4399 18.1099 39.3399 18.0599 39.1699 18.0899C38.9499 18.1299 38.7299 18.1599 38.5099 18.1899C37.9199 18.2699 37.3099 18.3099 36.7299 18.4399C36.0399 18.5999 35.4899 18.4199 34.9799 17.9599C33.7499 16.8599 32.3499 16.0499 30.7699 15.5499C30.2499 15.3799 29.8999 15.0399 29.6999 14.5299C29.4499 13.8899 29.1999 13.2499 28.9399 12.6099C28.8299 12.3499 28.7199 12.0899 28.6099 11.8399H25.5199L25.4999 11.8999Z" fill="white"/>
<path d="M12.1599 8.73987C11.8299 9.02987 11.4899 9.30987 11.1599 9.59987C9.59995 11.0199 8.25995 12.6299 7.12995 14.4099C6.34995 15.6399 5.68995 16.9299 5.14995 18.2799C4.72995 19.3199 4.38995 20.3899 4.11994 21.4799C3.91994 22.3299 3.76995 23.1999 3.64995 24.0699C3.47995 25.3299 3.44995 26.5999 3.47995 27.8699C3.49995 28.9099 3.60994 29.9399 3.77994 30.9499C4.03994 32.5099 4.45994 34.0299 5.02994 35.4999C5.91994 37.7699 7.11995 39.8499 8.63995 41.7499C10.1999 43.6999 12.0199 45.3499 14.0999 46.7199C15.5299 47.6599 17.0499 48.4299 18.6499 49.0499C19.8699 49.5099 21.1099 49.8799 22.3799 50.1399C23.2899 50.3199 24.2199 50.4799 25.1499 50.5099C26.0399 50.5399 26.9299 50.5999 27.8199 50.5799C28.8799 50.5699 29.9299 50.4299 30.9699 50.2699C31.3999 50.1999 31.8199 50.0899 32.2399 49.9999C33.1999 49.7999 33.8899 50.1499 34.2199 50.9299C34.5599 51.7499 34.09 52.7399 33.2299 52.9799C32.79 53.0999 32.3499 53.2099 31.8999 53.2799C31.1299 53.4099 30.3599 53.5399 29.5899 53.6099C28.6899 53.6899 27.7899 53.7199 26.8899 53.7199C26.0699 53.7199 25.2399 53.6999 24.4199 53.6099C23.4299 53.4999 22.4399 53.3299 21.4599 53.1399C20.0699 52.8799 18.7299 52.4699 17.4099 51.9499C15.7099 51.2899 14.0899 50.4699 12.5599 49.4699C10.9399 48.4199 9.44994 47.2099 8.09994 45.8499C6.44994 44.1999 5.03995 42.3699 3.87995 40.3499C3.13995 39.0599 2.50995 37.7199 1.98995 36.3199C1.57995 35.2199 1.23995 34.0899 0.979945 32.9399C0.779945 32.0299 0.629944 31.1099 0.509944 30.1799C0.349944 28.8899 0.309948 27.6099 0.329948 26.3199C0.349948 25.0299 0.469947 23.7399 0.719947 22.4799C0.859947 21.7599 0.979944 21.0299 1.16994 20.3299C1.40994 19.4699 1.69995 18.6199 1.98995 17.7599C2.36995 16.6199 2.88995 15.5399 3.44995 14.4799C4.13995 13.1699 4.93995 11.9399 5.83995 10.7699C7.08995 9.13987 8.50995 7.67987 10.0899 6.37987C10.1699 6.31987 10.2399 6.24987 10.3599 6.13987C10.2199 6.08987 10.1299 6.04987 10.0299 6.02987C9.66994 5.95987 9.30995 5.90987 8.94995 5.81987C8.32995 5.65987 7.95995 5.22987 7.83995 4.61987C7.69995 3.88987 8.02995 3.34987 8.53995 3.00987C8.95995 2.72987 9.42994 2.74987 9.88995 2.82987C11.0499 3.01987 12.2099 3.22987 13.3699 3.43987C13.8499 3.52987 14.3299 3.61987 14.8099 3.71987C15.4899 3.85987 16.0899 4.51987 15.9899 5.36987C15.9299 5.93987 15.8199 6.50987 15.7199 7.07987C15.5999 7.78987 15.4699 8.49987 15.3399 9.20987C15.2399 9.72987 15.1599 10.2599 15.0299 10.7799C14.8399 11.4999 14.0799 11.9799 13.3299 11.8599C12.5199 11.7299 11.9899 11.0599 12.0099 10.3699C12.0199 9.97987 12.1099 9.59987 12.1599 9.21987C12.1799 9.06987 12.1999 8.91987 12.2299 8.76987C12.1999 8.75987 12.1699 8.73987 12.1399 8.72987L12.1599 8.73987Z" fill="white"/>
<path d="M43.71 47.9098C44.1 47.9798 44.41 48.0498 44.73 48.0898C45.34 48.1798 45.84 48.4298 46.11 48.9998C46.61 50.0798 45.84 51.2098 44.8 51.2198C44.41 51.2198 44.01 51.1398 43.62 51.0698C42.45 50.8698 41.28 50.6698 40.11 50.4598C39.84 50.4098 39.57 50.3498 39.29 50.2998C38.51 50.1398 37.97 49.3898 38.09 48.5898C38.17 48.0198 38.28 47.4498 38.38 46.8798C38.47 46.3698 38.55 45.8498 38.64 45.3398C38.76 44.6798 38.86 44.0298 39 43.3798C39.13 42.7498 39.66 42.2398 40.26 42.1598C40.93 42.0598 41.47 42.2998 41.84 42.8698C42.1 43.2698 42.15 43.7098 42.04 44.1798C41.96 44.5298 41.89 44.8898 41.88 45.3198C42.03 45.2098 42.13 45.1398 42.21 45.0698C44.06 43.5098 45.64 41.6998 46.94 39.6498C47.93 38.0898 48.73 36.4398 49.34 34.6898C49.67 33.7498 49.93 32.7798 50.13 31.7998C50.33 30.8198 50.45 29.8298 50.55 28.8298C50.65 27.8498 50.66 26.8698 50.61 25.8998C50.57 25.0598 50.46 24.2198 50.33 23.3798C50.22 22.6198 50.08 21.8598 49.88 21.1298C49.65 20.2698 49.36 19.4398 49.06 18.5998C48.62 17.3498 48.02 16.1798 47.35 15.0398C46.66 13.8698 45.87 12.7698 45 11.7398C43.91 10.4598 42.7 9.30978 41.36 8.27978C40.19 7.37978 38.94 6.59978 37.62 5.92978C36.52 5.37978 35.38 4.90979 34.21 4.52979C32.82 4.08979 31.4 3.77979 29.96 3.59979C28.68 3.43979 27.39 3.35979 26.1 3.42979C25.22 3.47978 24.35 3.58978 23.48 3.70978C22.89 3.78978 22.3 3.92979 21.71 4.03979C20.73 4.22979 20 3.65978 19.79 2.89978C19.62 2.26978 19.91 1.50978 20.5 1.17978C20.66 1.08978 20.84 1.01978 21.02 0.979784C22.36 0.669784 23.72 0.469785 25.1 0.359785C26.64 0.229785 28.17 0.269784 29.7 0.409784C30.71 0.499784 31.7 0.669784 32.69 0.889784C33.71 1.10978 34.71 1.38978 35.7 1.71978C37.3 2.25978 38.83 2.95978 40.3 3.79978C42.86 5.25978 45.1 7.10979 47.06 9.30979C48.3 10.6998 49.37 12.2098 50.29 13.8198C51.08 15.2098 51.74 16.6598 52.27 18.1698C52.52 18.8898 52.73 19.6298 52.92 20.3698C53.1 21.0898 53.26 21.8198 53.39 22.5498C53.51 23.2698 53.57 24.0098 53.66 24.7298C53.78 25.6998 53.8 26.6798 53.76 27.6598C53.72 28.7198 53.66 29.7698 53.47 30.8098C53.33 31.6198 53.21 32.4298 53.02 33.2298C52.84 34.0098 52.6 34.7698 52.35 35.5298C51.89 36.9498 51.29 38.2998 50.59 39.6098C50.04 40.6398 49.42 41.6298 48.74 42.5698C47.85 43.7998 46.87 44.9698 45.76 46.0198C45.15 46.5998 44.51 47.1498 43.88 47.7098C43.84 47.7398 43.81 47.7898 43.71 47.8898V47.9098Z" fill="white"/>
<path d="M27.0399 35.8799C22.2099 35.8899 18.1799 31.9399 18.1799 27.0199C18.1799 22.1299 22.1399 18.1399 27.0499 18.1499C31.9799 18.1499 35.9199 22.1699 35.9099 27.0499C35.8999 31.9499 31.8899 35.9099 27.0399 35.8899V35.8799ZM27.0599 32.7499C30.1999 32.7599 32.7999 30.1999 32.7899 26.9999C32.7799 23.8199 30.2399 21.2699 27.0299 21.2799C23.8299 21.2899 21.3199 23.8899 21.3199 27.0199C21.3199 30.1799 23.9199 32.7699 27.0599 32.7499Z" fill="white"/>
</svg>
