<svg width="85" height="16" viewBox="0 0 85 16" fill="none" xmlns="http://www.w3.org/2000/svg">
<path fill-rule="evenodd" clip-rule="evenodd" d="M0.5 15.9919H28.5V-0.00805664H0.5V15.9919Z" fill="#2E5B96"/>
<path fill-rule="evenodd" clip-rule="evenodd" d="M8.66333 15.9919H11.9327V-0.00805664H8.66333V15.9919Z" fill="#F4D02F"/>
<path fill-rule="evenodd" clip-rule="evenodd" d="M0.5 9.58814H28.5V6.396H0.5V9.58814Z" fill="#F4D02F"/>
<path d="M39.1035 3.46069H41.166V10.4099H43.2871V3.46069H45.3438V10.4099H47.4355V3.46069H49.4863V11.9919H39.1035V3.46069ZM54.2324 8.36499H52.0352L52.0234 7.01733H53.8047C54.125 7.01733 54.3809 6.98218 54.5723 6.91187C54.7637 6.83765 54.9023 6.73022 54.9883 6.5896C55.0781 6.44897 55.123 6.27319 55.123 6.06226C55.123 5.82007 55.0781 5.62476 54.9883 5.47632C54.8984 5.32788 54.7559 5.22046 54.5605 5.15405C54.3691 5.08374 54.1211 5.04858 53.8164 5.04858H52.8086V11.9919H50.752V3.46069H53.8164C54.3438 3.46069 54.8145 3.50952 55.2285 3.60718C55.6426 3.70093 55.9941 3.84546 56.2832 4.04077C56.5762 4.23608 56.7988 4.48218 56.9512 4.77905C57.1035 5.07202 57.1797 5.41772 57.1797 5.81616C57.1797 6.16382 57.1055 6.48999 56.957 6.79468C56.8086 7.09937 56.5605 7.34741 56.2129 7.53882C55.8691 7.72632 55.3984 7.82397 54.8008 7.83179L54.2324 8.36499ZM54.1504 11.9919H51.5371L52.2402 10.4099H54.1504C54.4316 10.4099 54.6562 10.3669 54.8242 10.281C54.9961 10.1912 55.1191 10.074 55.1934 9.92944C55.2715 9.78101 55.3105 9.61694 55.3105 9.43726C55.3105 9.21851 55.2734 9.02905 55.1992 8.8689C55.1289 8.70874 55.0156 8.58569 54.8594 8.49976C54.7031 8.40991 54.4941 8.36499 54.2324 8.36499H52.5039L52.5156 7.01733H54.584L55.0645 7.5564C55.6348 7.53296 56.0859 7.61304 56.418 7.79663C56.7539 7.98022 56.9941 8.22241 57.1387 8.52319C57.2832 8.82397 57.3555 9.13843 57.3555 9.46655C57.3555 10.0251 57.2344 10.4919 56.9922 10.8669C56.7539 11.2419 56.3965 11.5232 55.9199 11.7107C55.4434 11.8982 54.8535 11.9919 54.1504 11.9919ZM64.3691 10.4099V11.9919H59.8223V10.4099H64.3691ZM60.5547 3.46069V11.9919H58.498V3.46069H60.5547ZM63.7832 6.84741V8.37671H59.8223V6.84741H63.7832ZM64.3867 3.46069V5.04858H59.8223V3.46069H64.3867ZM73.5449 10.4275L73.4277 14.0486H71.4883V11.9919H70.8555V10.4275H73.5449ZM65.0664 11.9919V3.46069H67.1172V10.4099H70.1816V3.46069H72.2441V11.9919H65.0664ZM76.6562 3.46069V11.9919H74.6055V3.46069H76.6562ZM82.5449 8.9978H80.2656L79.6562 8.74585C78.9609 8.5271 78.4316 8.20288 78.0684 7.77319C77.7051 7.3396 77.5234 6.78687 77.5234 6.11499C77.5234 5.52905 77.6543 5.04077 77.916 4.65015C78.1777 4.25562 78.5488 3.95874 79.0293 3.75952C79.5098 3.5603 80.0801 3.46069 80.7402 3.46069H83.834V11.9919H81.7715V5.04858H80.7402C80.3301 5.04858 80.0332 5.15601 79.8496 5.37085C79.666 5.58179 79.5742 5.89038 79.5742 6.29663C79.5742 6.60913 79.6172 6.85522 79.7031 7.03491C79.793 7.2146 79.9238 7.34351 80.0957 7.42163C80.2676 7.49585 80.4824 7.53296 80.7402 7.53296H82.5332L82.5449 8.9978ZM80.9629 8.23022L79.1523 11.9919H76.9141L78.7012 8.23022H80.9629Z" fill="#4D4D4D"/>
</svg>
