<svg width="78" height="14" viewBox="0 0 78 14" fill="none" xmlns="http://www.w3.org/2000/svg">
<path fill-rule="evenodd" clip-rule="evenodd" d="M76.1301 1.25984V3.54984C74.9501 3.09984 73.8901 2.87984 72.9701 2.87984C72.4201 2.87984 71.9901 2.97984 71.6601 3.17984C71.3301 3.37984 71.1701 3.61984 71.1701 3.90984C71.1701 4.28984 71.5402 4.62984 72.2802 4.92984L74.4301 5.97984C76.1701 6.80984 77.0302 7.90984 77.0302 9.28984C77.0302 10.4398 76.5701 11.3598 75.6501 12.0298C74.7301 12.7098 73.5001 13.0498 71.9701 13.0498C71.2601 13.0498 70.6301 13.0198 70.0601 12.9598C69.4901 12.8998 68.8501 12.7698 68.1201 12.5998V10.2098C69.4401 10.6598 70.6401 10.8798 71.7301 10.8798C73.0201 10.8798 73.6701 10.5098 73.6701 9.74984C73.6701 9.36984 73.4101 9.06984 72.8701 8.82984L70.4801 7.80984C69.6001 7.40984 68.9401 6.92984 68.5201 6.35984C68.1001 5.77984 67.8801 5.11984 67.8801 4.36984C67.8801 3.30984 68.3301 2.45984 69.2101 1.80984C70.1001 1.16984 71.2801 0.839844 72.7401 0.839844C73.2201 0.839844 73.7601 0.879843 74.3701 0.959843C74.9801 1.03984 75.5701 1.13984 76.1401 1.26984L76.1301 1.25984Z" fill="#CCCCCC"/>
<path fill-rule="evenodd" clip-rule="evenodd" d="M8.52008 1.25984V3.54984C7.34008 3.09984 6.28005 2.87984 5.36005 2.87984C4.81005 2.87984 4.38005 2.97984 4.05005 3.17984C3.72005 3.37984 3.56006 3.61984 3.56006 3.90984C3.56006 4.28984 3.93005 4.62984 4.68005 4.92984L6.83008 5.97984C8.56008 6.80984 9.42004 7.90984 9.42004 9.28984C9.42004 10.4398 8.96005 11.3598 8.05005 12.0298C7.13005 12.7098 5.90005 13.0498 4.36005 13.0498C3.65005 13.0498 3.01007 13.0198 2.45007 12.9598C1.88007 12.8998 1.24008 12.7698 0.520081 12.5998V10.2098C1.85008 10.6598 3.05007 10.8798 4.13007 10.8798C5.42007 10.8798 6.07007 10.5098 6.07007 9.74984C6.07007 9.36984 5.81009 9.06984 5.28009 8.82984L2.89008 7.80984C2.00008 7.40984 1.35005 6.92984 0.930054 6.35984C0.500054 5.77984 0.290039 5.11984 0.290039 4.36984C0.290039 3.30984 0.730056 2.45984 1.62006 1.80984C2.50006 1.16984 3.68008 0.839844 5.14008 0.839844C5.62008 0.839844 6.16009 0.879843 6.78009 0.959843C7.39009 1.03984 7.98004 1.13984 8.54004 1.26984L8.52008 1.25984Z" fill="#CCCCCC"/>
<path fill-rule="evenodd" clip-rule="evenodd" d="M10.98 1.04004H14.48V12.83H10.98V1.04004Z" fill="#CCCCCC"/>
<path fill-rule="evenodd" clip-rule="evenodd" d="M25.7599 1.04004V3.22004H20.5599V5.84004H25.0699V7.80004H20.5599V10.54H25.8599V12.83H17.1899V1.04004H25.7599Z" fill="#CCCCCC"/>
<path fill-rule="evenodd" clip-rule="evenodd" d="M42.1 1.04004V12.83H38.8301V5.06004L35.4401 12.94H33.42L30.16 5.06004V12.83H27.8V1.04004H32.0701L34.9901 8.26004L38.04 1.04004H42.1Z" fill="#CCCCCC"/>
<path fill-rule="evenodd" clip-rule="evenodd" d="M53.3701 1.04004V3.22004H48.2001V5.84004H52.7101V7.80004H48.2001V10.54H53.48V12.83H44.8V1.04004H53.3701Z" fill="#CCCCCC"/>
<path fill-rule="evenodd" clip-rule="evenodd" d="M65.6599 1.04004V12.83H61.9399L57.78 5.27004V12.83H55.4199V1.04004H59.2399L63.2999 8.47004V1.04004H65.6599Z" fill="#CCCCCC"/>
</svg>
