<svg width="30" height="22" viewBox="0 0 30 22" fill="none" xmlns="http://www.w3.org/2000/svg">
<g filter="url(#filter0_d_12_156)">
<g clip-path="url(#clip0_12_156)">
<path fill-rule="evenodd" clip-rule="evenodd" d="M3.99805 16.2162H25.318V3.78381H3.99805V16.2162Z" fill="white"/>
<path fill-rule="evenodd" clip-rule="evenodd" d="M3.99805 16.2162H25.318V7.92361H3.99805V16.2162Z" fill="#303E99"/>
<path fill-rule="evenodd" clip-rule="evenodd" d="M3.99805 16.2162H25.318V12.0764H3.99805V16.2162Z" fill="#BB1F33"/>
<path fill-rule="evenodd" clip-rule="evenodd" d="M7.2194 6.70755C6.9736 6.73342 7.03829 7.03097 7.01241 7.19915C6.92186 8.38934 6.80542 9.61835 7.16766 10.7697C7.45227 11.7012 8.13792 12.4774 8.96589 12.969C9.17288 13.0854 9.36693 13.2277 9.59979 13.2924C9.83266 13.2277 10.0396 13.0725 10.2596 12.9561C11.0746 12.4645 11.7473 11.6883 12.0319 10.7697C12.4071 9.59247 12.2648 8.35053 12.1742 7.13446C12.1613 6.96628 12.1742 6.68167 11.9414 6.69461H7.2194V6.70755Z" fill="white"/>
<path fill-rule="evenodd" clip-rule="evenodd" d="M9.58674 6.88867V13.1113C12.4587 11.7141 12.1482 9.41137 11.9542 6.90161H9.58674V6.88867ZM9.58674 6.88867V13.1113C6.71475 11.7141 7.02524 9.41137 7.21929 6.90161H9.58674V6.88867Z" fill="#BB1F33"/>
<path fill-rule="evenodd" clip-rule="evenodd" d="M9.93597 8.59634C10.2335 8.59634 10.544 8.64809 10.8415 8.71277C10.751 8.42816 10.751 8.24704 10.8415 7.96243C10.544 8.02712 10.2335 8.07886 9.93597 8.07886H9.26325C8.9657 8.07886 8.65521 8.02712 8.35767 7.96243C8.44822 8.24704 8.44822 8.42816 8.35767 8.71277C8.65521 8.64809 8.9657 8.59634 9.26325 8.59634H9.93597Z" fill="white"/>
<path fill-rule="evenodd" clip-rule="evenodd" d="M10.1949 9.7348C10.4924 9.7348 10.8029 9.78655 11.1005 9.85123C11.0099 9.56662 11.0099 9.3855 11.1005 9.10089C10.8029 9.15264 10.4924 9.21732 10.1949 9.21732H9.0047C8.70715 9.21732 8.39667 9.16558 8.09912 9.10089C8.18968 9.3855 8.18968 9.56662 8.09912 9.85123C8.39667 9.78655 8.70715 9.7348 9.0047 9.7348H10.1949Z" fill="white"/>
<path fill-rule="evenodd" clip-rule="evenodd" d="M9.21167 7.13446C9.27635 7.43201 9.3281 7.74249 9.3281 8.04004V11.8952H9.85851V8.0271C9.85851 7.72956 9.91026 7.41907 9.97495 7.12152C9.69033 7.21208 9.50922 7.21208 9.22461 7.12152L9.21167 7.13446Z" fill="white"/>
<path fill-rule="evenodd" clip-rule="evenodd" d="M8.39661 10.9509C8.06025 10.9509 7.77563 11.2225 7.77563 11.5718C7.77563 11.5977 7.77563 11.6236 7.77563 11.6495C7.89207 11.8306 8.03437 11.9988 8.18962 12.154C8.2543 12.1669 8.31898 12.1928 8.38367 12.1928C8.72003 12.1928 9.00464 11.9211 9.00464 11.5718C9.00464 11.2225 8.73296 10.9509 8.38367 10.9509H8.39661Z" fill="#303E99"/>
<path fill-rule="evenodd" clip-rule="evenodd" d="M9.58676 10.5886C9.15984 10.5886 8.79761 10.9379 8.79761 11.3648C8.79761 11.7918 9.1469 12.1411 9.58676 12.1411C10.0266 12.1411 10.3759 11.7918 10.3759 11.3648C10.3759 10.9379 10.0266 10.5886 9.58676 10.5886Z" fill="#303E99"/>
<path fill-rule="evenodd" clip-rule="evenodd" d="M10.7899 10.9509C10.4536 10.9509 10.1689 11.2225 10.1689 11.5718C10.1689 11.9211 10.4406 12.1928 10.7899 12.1928C10.8546 12.1928 10.9193 12.1799 10.984 12.154C11.1392 11.9858 11.2815 11.8176 11.3979 11.6495C11.3979 11.6236 11.3979 11.5977 11.3979 11.5718C11.3979 11.2355 11.1263 10.9509 10.777 10.9509H10.7899Z" fill="#303E99"/>
<path fill-rule="evenodd" clip-rule="evenodd" d="M7.89209 11.7788C8.26726 12.2833 8.81061 12.7361 9.59976 13.1113C10.3889 12.7232 10.9323 12.2833 11.3074 11.7788H7.89209Z" fill="#303E99"/>
</g>
</g>
<defs>
<filter id="filter0_d_12_156" x="-0.00195312" y="0.783813" width="29.3201" height="20.4323" filterUnits="userSpaceOnUse" color-interpolation-filters="sRGB">
<feFlood flood-opacity="0" result="BackgroundImageFix"/>
<feColorMatrix in="SourceAlpha" type="matrix" values="0 0 0 0 0 0 0 0 0 0 0 0 0 0 0 0 0 0 127 0" result="hardAlpha"/>
<feOffset dy="1"/>
<feGaussianBlur stdDeviation="2"/>
<feComposite in2="hardAlpha" operator="out"/>
<feColorMatrix type="matrix" values="0 0 0 0 0 0 0 0 0 0 0 0 0 0 0 0 0 0 0.2 0"/>
<feBlend mode="normal" in2="BackgroundImageFix" result="effect1_dropShadow_12_156"/>
<feBlend mode="normal" in="SourceGraphic" in2="effect1_dropShadow_12_156" result="shape"/>
</filter>
<clipPath id="clip0_12_156">
<rect width="21.32" height="12.4324" fill="white" transform="translate(3.99805 3.78381)"/>
</clipPath>
</defs>
</svg>
