<svg width="121" height="16" viewBox="0 0 121 16" fill="none" xmlns="http://www.w3.org/2000/svg">
<path fill-rule="evenodd" clip-rule="evenodd" d="M0.5 15.9919H28.5V-0.00805664H0.5V15.9919Z" fill="white"/>
<path fill-rule="evenodd" clip-rule="evenodd" d="M0.5 15.9918H28.5V5.3186H0.5V15.9918Z" fill="#303E99"/>
<path fill-rule="evenodd" clip-rule="evenodd" d="M0.5 15.9921H28.5V10.6555H0.5V15.9921Z" fill="#BB1F33"/>
<path fill-rule="evenodd" clip-rule="evenodd" d="M4.7321 3.74609C4.40115 3.77558 4.49141 4.15886 4.4513 4.38491C4.33095 5.91808 4.17049 7.50038 4.65187 8.98441C5.02293 10.1834 5.92551 11.1761 7.01863 11.8247C7.2894 11.9721 7.55015 12.1589 7.84098 12.2375C8.15187 12.149 8.42264 11.9623 8.70344 11.805C9.77651 11.1662 10.659 10.1834 11.0301 8.99425C11.5115 7.48073 11.341 5.87876 11.2206 4.31611C11.2006 4.09989 11.2407 3.72642 10.9097 3.7559H4.7321V3.74609Z" fill="white"/>
<path fill-rule="evenodd" clip-rule="evenodd" d="M7.85111 3.9917V11.9917C11.6319 10.203 11.2107 7.23494 10.97 3.9917H7.85111ZM7.85111 3.9917V11.9917C4.08034 10.203 4.49151 7.23494 4.7322 3.9917H7.85111Z" fill="#BB1F33"/>
<path fill-rule="evenodd" clip-rule="evenodd" d="M8.29224 6.18346C8.68336 6.18346 9.09453 6.25225 9.48565 6.33087C9.36531 5.95741 9.36531 5.73137 9.48565 5.35791C9.09453 5.43653 8.69339 5.50532 8.29224 5.50532H7.40972C7.00857 5.50532 6.60743 5.43653 6.21631 5.35791C6.33665 5.73137 6.33665 5.95741 6.21631 6.33087C6.60743 6.25225 7.00857 6.18346 7.40972 6.18346H8.29224Z" fill="white"/>
<path fill-rule="evenodd" clip-rule="evenodd" d="M8.63337 7.63825C9.03451 7.63825 9.43566 7.70704 9.82678 7.78567C9.71646 7.4122 9.71646 7.18615 9.82678 6.82251C9.43566 6.90113 9.03451 6.96995 8.63337 6.96995H7.0689C6.67778 6.96995 6.26661 6.90113 5.87549 6.82251C5.99583 7.19597 5.99583 7.42203 5.87549 7.78567C6.26661 7.70704 6.66775 7.63825 7.0689 7.63825H8.63337Z" fill="white"/>
<path fill-rule="evenodd" clip-rule="evenodd" d="M7.34961 4.29639C7.42984 4.67968 7.50004 5.07279 7.50004 5.45608V10.4094H8.19202V5.45608C8.19202 5.07279 8.26222 4.66985 8.34245 4.29639C7.96136 4.41432 7.7307 4.41432 7.34961 4.29639Z" fill="white"/>
<path fill-rule="evenodd" clip-rule="evenodd" d="M6.28644 9.21077C5.83515 9.21077 5.47412 9.56457 5.47412 10.0068C5.47412 10.0363 5.47412 10.0756 5.47412 10.1051C5.63458 10.3312 5.8151 10.5474 6.0257 10.7537C6.10593 10.7734 6.18616 10.7931 6.27641 10.7931C6.7277 10.7931 7.08873 10.4393 7.08873 9.99699C7.08873 9.55473 6.7277 9.20093 6.27641 9.20093L6.28644 9.21077Z" fill="#303E99"/>
<path fill-rule="evenodd" clip-rule="evenodd" d="M7.85107 8.74878C7.27943 8.74878 6.81812 9.20086 6.81812 9.75123C6.81812 10.3016 7.27943 10.7537 7.85107 10.7537C8.4227 10.7537 8.88402 10.3016 8.88402 9.75123C8.88402 9.20086 8.4227 8.74878 7.85107 8.74878Z" fill="#303E99"/>
<path fill-rule="evenodd" clip-rule="evenodd" d="M9.41535 9.21045C8.96406 9.21045 8.60303 9.56426 8.60303 10.0065C8.60303 10.4488 8.96406 10.8026 9.41535 10.8026C9.50561 10.8026 9.58584 10.7829 9.66606 10.7633C9.87667 10.5569 10.0572 10.3308 10.2176 10.1048C10.2176 10.0753 10.2176 10.0458 10.2176 10.0065C10.2176 9.56426 9.85661 9.21045 9.40532 9.21045H9.41535Z" fill="#303E99"/>
<path fill-rule="evenodd" clip-rule="evenodd" d="M5.60449 10.272C6.10592 10.9206 6.80793 11.5005 7.84088 11.9919C8.87383 11.5005 9.58587 10.9206 10.0773 10.272H5.60449Z" fill="#303E99"/>
<path d="M44.002 9.10327H46.0527C46.0254 9.69702 45.8652 10.2205 45.5723 10.6736C45.2793 11.1267 44.873 11.4802 44.3535 11.7341C43.8379 11.9841 43.2285 12.1091 42.5254 12.1091C41.9551 12.1091 41.4453 12.0134 40.9961 11.822C40.5508 11.6306 40.1719 11.3552 39.8594 10.9958C39.5508 10.6365 39.3145 10.2009 39.1504 9.68921C38.9902 9.17749 38.9102 8.60132 38.9102 7.96069V7.4978C38.9102 6.85718 38.9941 6.28101 39.1621 5.76929C39.334 5.25366 39.5762 4.81616 39.8887 4.45679C40.2051 4.09351 40.584 3.81616 41.0254 3.62476C41.4668 3.43335 41.957 3.33765 42.4961 3.33765C43.2383 3.33765 43.8652 3.47046 44.377 3.73608C44.8887 4.00171 45.2852 4.36694 45.5664 4.83179C45.8477 5.29272 46.0137 5.81812 46.0645 6.40796H44.0137C44.0059 6.08765 43.9512 5.82007 43.8496 5.60522C43.748 5.38647 43.5879 5.22241 43.3691 5.11304C43.1504 5.00366 42.8594 4.94897 42.4961 4.94897C42.2422 4.94897 42.0215 4.99585 41.834 5.0896C41.6465 5.18335 41.4902 5.33179 41.3652 5.53491C41.2402 5.73804 41.1465 6.00171 41.084 6.32593C41.0254 6.64624 40.9961 7.03296 40.9961 7.48608V7.96069C40.9961 8.41382 41.0234 8.80054 41.0781 9.12085C41.1328 9.44116 41.2207 9.70288 41.3418 9.90601C41.4629 10.1091 41.6191 10.2595 41.8105 10.3572C42.0059 10.4509 42.2441 10.4978 42.5254 10.4978C42.8379 10.4978 43.1016 10.449 43.3164 10.3513C43.5312 10.2498 43.6973 10.0974 43.8145 9.89429C43.9316 9.68726 43.9941 9.42358 44.002 9.10327ZM52.8145 3.46069V5.04858H48.4082V3.46069H52.8145ZM54.2031 3.46069V11.9919H52.1465V3.46069H54.2031ZM48.2676 3.46069H50.3125L50.0898 7.79663C50.0547 8.45288 49.9883 9.01929 49.8906 9.49585C49.793 9.96851 49.6621 10.3669 49.498 10.6912C49.334 11.0115 49.1367 11.2673 48.9062 11.4587C48.6758 11.6501 48.4082 11.7869 48.1035 11.8689C47.8027 11.9509 47.4648 11.9919 47.0898 11.9919H46.5918V10.4099L46.8145 10.3865C46.9941 10.3669 47.1523 10.3181 47.2891 10.24C47.4258 10.158 47.543 10.0369 47.6406 9.87671C47.7422 9.71655 47.8262 9.51147 47.8926 9.26147C47.959 9.01147 48.0117 8.70874 48.0508 8.35327C48.0938 7.9939 48.123 7.57397 48.1387 7.09351L48.2676 3.46069ZM62.7051 7.5564V7.9021C62.7051 8.55444 62.6133 9.14038 62.4297 9.65991C62.25 10.1755 61.9941 10.6169 61.6621 10.9841C61.3301 11.3474 60.9375 11.6267 60.4844 11.822C60.0312 12.0134 59.5312 12.1091 58.9844 12.1091C58.4336 12.1091 57.9297 12.0134 57.4727 11.822C57.0195 11.6267 56.625 11.3474 56.2891 10.9841C55.957 10.6169 55.6992 10.1755 55.5156 9.65991C55.3359 9.14038 55.2461 8.55444 55.2461 7.9021V7.5564C55.2461 6.90405 55.3359 6.31812 55.5156 5.79858C55.6992 5.27905 55.9551 4.83765 56.2832 4.47437C56.6152 4.10718 57.0078 3.82788 57.4609 3.63647C57.918 3.44116 58.4219 3.34351 58.9727 3.34351C59.5195 3.34351 60.0195 3.44116 60.4727 3.63647C60.9297 3.82788 61.3242 4.10718 61.6562 4.47437C61.9883 4.83765 62.2461 5.27905 62.4297 5.79858C62.6133 6.31812 62.7051 6.90405 62.7051 7.5564ZM60.6191 7.9021V7.54468C60.6191 7.1228 60.582 6.75171 60.5078 6.4314C60.4375 6.10718 60.332 5.83569 60.1914 5.61694C60.0508 5.39819 59.877 5.23413 59.6699 5.12476C59.4668 5.01147 59.2344 4.95483 58.9727 4.95483C58.6992 4.95483 58.4609 5.01147 58.2578 5.12476C58.0547 5.23413 57.8848 5.39819 57.748 5.61694C57.6113 5.83569 57.5078 6.10718 57.4375 6.4314C57.3711 6.75171 57.3379 7.1228 57.3379 7.54468V7.9021C57.3379 8.32007 57.3711 8.69116 57.4375 9.01538C57.5078 9.33569 57.6113 9.60718 57.748 9.82983C57.8887 10.0525 58.0605 10.2205 58.2637 10.3337C58.4707 10.447 58.7109 10.5037 58.9844 10.5037C59.2461 10.5037 59.4785 10.447 59.6816 10.3337C59.8848 10.2205 60.0547 10.0525 60.1914 9.82983C60.332 9.60718 60.4375 9.33569 60.5078 9.01538C60.582 8.69116 60.6191 8.32007 60.6191 7.9021ZM67.252 8.36499H65.0547L65.043 7.01733H66.8242C67.1445 7.01733 67.4004 6.98218 67.5918 6.91187C67.7832 6.83765 67.9219 6.73022 68.0078 6.5896C68.0977 6.44897 68.1426 6.27319 68.1426 6.06226C68.1426 5.82007 68.0977 5.62476 68.0078 5.47632C67.918 5.32788 67.7754 5.22046 67.5801 5.15405C67.3887 5.08374 67.1406 5.04858 66.8359 5.04858H65.8281V11.9919H63.7715V3.46069H66.8359C67.3633 3.46069 67.834 3.50952 68.248 3.60718C68.6621 3.70093 69.0137 3.84546 69.3027 4.04077C69.5957 4.23608 69.8184 4.48218 69.9707 4.77905C70.123 5.07202 70.1992 5.41772 70.1992 5.81616C70.1992 6.16382 70.125 6.48999 69.9766 6.79468C69.8281 7.09937 69.5801 7.34741 69.2324 7.53882C68.8887 7.72632 68.418 7.82397 67.8203 7.83179L67.252 8.36499ZM67.1699 11.9919H64.5566L65.2598 10.4099H67.1699C67.4512 10.4099 67.6758 10.3669 67.8438 10.281C68.0156 10.1912 68.1387 10.074 68.2129 9.92944C68.291 9.78101 68.3301 9.61694 68.3301 9.43726C68.3301 9.21851 68.293 9.02905 68.2188 8.8689C68.1484 8.70874 68.0352 8.58569 67.8789 8.49976C67.7227 8.40991 67.5137 8.36499 67.252 8.36499H65.5234L65.5352 7.01733H67.6035L68.084 7.5564C68.6543 7.53296 69.1055 7.61304 69.4375 7.79663C69.7734 7.98022 70.0137 8.22241 70.1582 8.52319C70.3027 8.82397 70.375 9.13843 70.375 9.46655C70.375 10.0251 70.2539 10.4919 70.0117 10.8669C69.7734 11.2419 69.416 11.5232 68.9395 11.7107C68.4629 11.8982 67.873 11.9919 67.1699 11.9919ZM75.1328 5.25366L73.0527 11.9919H70.8438L73.9785 3.46069H75.3789L75.1328 5.25366ZM76.8555 11.9919L74.7695 5.25366L74.5 3.46069H75.918L79.0703 11.9919H76.8555ZM76.7734 8.8103V10.3982H72.3965V8.8103H76.7734ZM79.5039 3.46069H81.5605V6.0564C81.5605 6.40015 81.6152 6.66772 81.7246 6.85913C81.8379 7.05054 82.0059 7.1853 82.2285 7.26343C82.4512 7.34155 82.7285 7.38062 83.0605 7.38062C83.1465 7.38062 83.2695 7.37671 83.4297 7.3689C83.5938 7.35718 83.7676 7.34155 83.9512 7.32202C84.1348 7.30249 84.3066 7.28101 84.4668 7.25757C84.627 7.23022 84.7461 7.19897 84.8242 7.16382V8.74585C84.7422 8.7771 84.6172 8.8064 84.4492 8.83374C84.2812 8.86108 84.1035 8.88452 83.916 8.90405C83.7285 8.92358 83.5547 8.93921 83.3945 8.95093C83.2383 8.95874 83.127 8.96265 83.0605 8.96265C82.3457 8.96265 81.7207 8.85913 81.1855 8.6521C80.6543 8.44507 80.2402 8.12671 79.9434 7.69702C79.6504 7.26733 79.5039 6.72046 79.5039 6.0564V3.46069ZM84.4199 3.46069H86.4766V11.9919H84.4199V3.46069ZM87.7305 3.46069H89.7871V6.0564C89.7871 6.40015 89.8418 6.66772 89.9512 6.85913C90.0645 7.05054 90.2324 7.1853 90.4551 7.26343C90.6777 7.34155 90.9551 7.38062 91.2871 7.38062C91.373 7.38062 91.4961 7.37671 91.6562 7.3689C91.8203 7.35718 91.9941 7.34155 92.1777 7.32202C92.3613 7.30249 92.5332 7.28101 92.6934 7.25757C92.8535 7.23022 92.9727 7.19897 93.0508 7.16382V8.74585C92.9688 8.7771 92.8438 8.8064 92.6758 8.83374C92.5078 8.86108 92.3301 8.88452 92.1426 8.90405C91.9551 8.92358 91.7812 8.93921 91.6211 8.95093C91.4648 8.95874 91.3535 8.96265 91.2871 8.96265C90.5723 8.96265 89.9473 8.85913 89.4121 8.6521C88.8809 8.44507 88.4668 8.12671 88.1699 7.69702C87.877 7.26733 87.7305 6.72046 87.7305 6.0564V3.46069ZM92.6465 3.46069H94.7031V11.9919H92.6465V3.46069ZM97.9258 8.84546L100.99 3.46069H103.047V11.9919H100.99V6.61304L97.9258 11.9919H95.8691V3.46069H97.9258V8.84546ZM110.055 6.84741V8.42944H105.678V6.84741H110.055ZM106.363 3.46069V11.9919H104.307V3.46069H106.363ZM111.438 3.46069V11.9919H109.387V3.46069H111.438ZM116.465 5.25366L114.385 11.9919H112.176L115.311 3.46069H116.711L116.465 5.25366ZM118.188 11.9919L116.102 5.25366L115.832 3.46069H117.25L120.402 11.9919H118.188ZM118.105 8.8103V10.3982H113.729V8.8103H118.105Z" fill="#4D4D4D"/>
</svg>
