<svg width="98" height="16" viewBox="0 0 98 16" fill="none" xmlns="http://www.w3.org/2000/svg">
<path d="M8.01076 3.11947L8.10076 3.02112L7.99076 3.06046L7.94076 2.93262L7.90076 3.06046L7.78076 3.02112L7.87076 3.11947L7.78076 3.22763L7.90076 3.17847L7.94076 3.31613L7.99076 3.17847L8.10076 3.22763L8.01076 3.11947Z" fill="#FFF200"/>
<path d="M28.5 -0.00805664H0.5V5.39085H28.5V-0.00805664Z" fill="white"/>
<path d="M28.5 10.6619H0.5V15.9919H28.5V10.6619Z" fill="#EE1C25"/>
<path d="M28.5 5.39111H0.5V10.6621H28.5V5.39111Z" fill="#0B4EA2"/>
<path d="M10.5485 3.14897C10.037 2.86378 9.31495 2.68677 8.52269 2.68677C7.73043 2.68677 7.00836 2.86378 6.4969 3.14897H6.45679C6.45679 3.14897 6.45679 3.15879 6.45679 3.16863C6.47684 3.63083 6.5671 4.61424 6.62727 5.27312C6.65736 5.65665 6.68745 5.94183 6.68745 5.94183C6.99833 7.66279 8.53272 8.0758 8.53272 8.0758C8.53272 8.0758 10.0671 7.66279 10.378 5.94183C10.378 5.94183 10.4081 5.65665 10.4382 5.27312C10.4983 4.61424 10.5786 3.64067 10.6086 3.17847C10.6086 3.17847 10.6086 3.1588 10.6086 3.14897H10.5585H10.5485Z" fill="#0B4EA2"/>
<path d="M10.5285 3.21777C10.4984 3.67997 10.4282 4.58473 10.3681 5.27311C10.338 5.63697 10.3079 5.91232 10.3079 5.94182C10.0271 7.4956 8.69327 7.96762 8.53281 8.01679C8.36233 7.96762 7.02851 7.50543 6.75774 5.94182C6.75774 5.91232 6.72766 5.64679 6.69757 5.28293C6.6374 4.59454 6.55717 3.68981 6.53711 3.21777H6.40674C6.43682 3.67997 6.50703 4.59455 6.5672 5.29277C6.59728 5.6763 6.62737 5.96148 6.62737 5.96148C6.93826 7.71194 8.50273 8.15448 8.52278 8.15448H8.54284C8.54284 8.15448 10.1274 7.7021 10.4383 5.96148C10.4383 5.96148 10.4683 5.67629 10.4984 5.28293C10.5586 4.59454 10.6388 3.68981 10.6589 3.21777H10.5285Z" fill="#EE1C25"/>
<path d="M8.54283 4.43701L8.08151 5.35157L7.76059 4.94837L6.98838 5.98096C6.98838 5.98096 6.96833 6.50216 7.48982 6.52182C7.79068 6.52182 7.79068 6.38413 8.03136 6.38413C8.27205 6.38413 8.30214 6.54148 8.5328 6.54148C8.76346 6.54148 8.83366 6.39398 9.07434 6.39398C9.31503 6.39398 9.31503 6.56117 9.57578 6.56117C9.83652 6.56117 10.1073 6.30547 10.0872 5.99078L9.305 4.96806L9.00414 5.35157L8.54283 4.44683V4.43701Z" fill="white"/>
<path d="M7.12893 6.51192C7.12893 6.51192 7.22921 6.84628 7.51001 6.84628C7.79082 6.84628 7.76073 6.68896 8.00142 6.68896C8.24211 6.68896 8.29225 6.85612 8.53294 6.85612C8.77362 6.85612 8.81374 6.68896 9.05443 6.68896C9.29511 6.68896 9.35529 6.83646 9.55586 6.83646C9.75643 6.83646 9.87678 6.59061 9.92692 6.49227C9.92692 6.49227 9.76646 6.64961 9.55586 6.64961C9.34526 6.64961 9.21488 6.49227 9.05443 6.49227C8.89397 6.49227 8.77362 6.63977 8.50285 6.63977C8.23208 6.63977 8.23208 6.48242 7.99139 6.48242C7.7507 6.48242 7.70056 6.62993 7.4699 6.62993C7.23924 6.62993 7.1189 6.49227 7.1189 6.49227L7.12893 6.51192Z" fill="white"/>
<path d="M8.51278 6.98384C8.37238 6.98384 8.19187 6.81665 8.02138 6.81665C7.85089 6.81665 7.77066 6.96418 7.42969 6.96418C7.42969 6.96418 8.12166 7.76074 8.52281 7.76074C8.92396 7.76074 9.44545 7.17068 9.64602 6.974C9.41536 6.974 9.28499 6.83634 9.05433 6.83634C8.82367 6.83634 8.8337 6.98384 8.52281 6.98384H8.51278Z" fill="white"/>
<path d="M8.60256 3.90568L8.69256 3.79752L8.57256 3.84668L8.53256 3.70898L8.49256 3.84668L8.37256 3.79752L8.46256 3.90568L8.37256 4.01387L8.49256 3.96468L8.53256 4.10237L8.57256 3.96468L8.69256 4.01387L8.60256 3.90568Z" fill="#FFF200"/>
<path d="M9.1841 3.11906L9.2741 3.01087L9.1541 3.06005L9.1141 2.92236L9.0741 3.06005L8.9541 3.01087L9.0441 3.11906L8.9541 3.22722L9.0741 3.17806L9.1141 3.31572L9.1541 3.17806L9.2741 3.22722L9.1841 3.11906Z" fill="#FFF200"/>
<path d="M44.002 9.10327H46.0527C46.0254 9.69702 45.8652 10.2205 45.5723 10.6736C45.2793 11.1267 44.873 11.4802 44.3535 11.7341C43.8379 11.9841 43.2285 12.1091 42.5254 12.1091C41.9551 12.1091 41.4453 12.0134 40.9961 11.822C40.5508 11.6306 40.1719 11.3552 39.8594 10.9958C39.5508 10.6365 39.3145 10.2009 39.1504 9.68921C38.9902 9.17749 38.9102 8.60132 38.9102 7.96069V7.4978C38.9102 6.85718 38.9941 6.28101 39.1621 5.76929C39.334 5.25366 39.5762 4.81616 39.8887 4.45679C40.2051 4.09351 40.584 3.81616 41.0254 3.62476C41.4668 3.43335 41.957 3.33765 42.4961 3.33765C43.2383 3.33765 43.8652 3.47046 44.377 3.73608C44.8887 4.00171 45.2852 4.36694 45.5664 4.83179C45.8477 5.29272 46.0137 5.81812 46.0645 6.40796H44.0137C44.0059 6.08765 43.9512 5.82007 43.8496 5.60522C43.748 5.38647 43.5879 5.22241 43.3691 5.11304C43.1504 5.00366 42.8594 4.94897 42.4961 4.94897C42.2422 4.94897 42.0215 4.99585 41.834 5.0896C41.6465 5.18335 41.4902 5.33179 41.3652 5.53491C41.2402 5.73804 41.1465 6.00171 41.084 6.32593C41.0254 6.64624 40.9961 7.03296 40.9961 7.48608V7.96069C40.9961 8.41382 41.0234 8.80054 41.0781 9.12085C41.1328 9.44116 41.2207 9.70288 41.3418 9.90601C41.4629 10.1091 41.6191 10.2595 41.8105 10.3572C42.0059 10.4509 42.2441 10.4978 42.5254 10.4978C42.8379 10.4978 43.1016 10.449 43.3164 10.3513C43.5312 10.2498 43.6973 10.0974 43.8145 9.89429C43.9316 9.68726 43.9941 9.42358 44.002 9.10327ZM52.8145 3.46069V5.04858H48.4082V3.46069H52.8145ZM54.2031 3.46069V11.9919H52.1465V3.46069H54.2031ZM48.2676 3.46069H50.3125L50.0898 7.79663C50.0547 8.45288 49.9883 9.01929 49.8906 9.49585C49.793 9.96851 49.6621 10.3669 49.498 10.6912C49.334 11.0115 49.1367 11.2673 48.9062 11.4587C48.6758 11.6501 48.4082 11.7869 48.1035 11.8689C47.8027 11.9509 47.4648 11.9919 47.0898 11.9919H46.5918V10.4099L46.8145 10.3865C46.9941 10.3669 47.1523 10.3181 47.2891 10.24C47.4258 10.158 47.543 10.0369 47.6406 9.87671C47.7422 9.71655 47.8262 9.51147 47.8926 9.26147C47.959 9.01147 48.0117 8.70874 48.0508 8.35327C48.0938 7.9939 48.123 7.57397 48.1387 7.09351L48.2676 3.46069ZM62.7051 7.5564V7.9021C62.7051 8.55444 62.6133 9.14038 62.4297 9.65991C62.25 10.1755 61.9941 10.6169 61.6621 10.9841C61.3301 11.3474 60.9375 11.6267 60.4844 11.822C60.0312 12.0134 59.5312 12.1091 58.9844 12.1091C58.4336 12.1091 57.9297 12.0134 57.4727 11.822C57.0195 11.6267 56.625 11.3474 56.2891 10.9841C55.957 10.6169 55.6992 10.1755 55.5156 9.65991C55.3359 9.14038 55.2461 8.55444 55.2461 7.9021V7.5564C55.2461 6.90405 55.3359 6.31812 55.5156 5.79858C55.6992 5.27905 55.9551 4.83765 56.2832 4.47437C56.6152 4.10718 57.0078 3.82788 57.4609 3.63647C57.918 3.44116 58.4219 3.34351 58.9727 3.34351C59.5195 3.34351 60.0195 3.44116 60.4727 3.63647C60.9297 3.82788 61.3242 4.10718 61.6562 4.47437C61.9883 4.83765 62.2461 5.27905 62.4297 5.79858C62.6133 6.31812 62.7051 6.90405 62.7051 7.5564ZM60.6191 7.9021V7.54468C60.6191 7.1228 60.582 6.75171 60.5078 6.4314C60.4375 6.10718 60.332 5.83569 60.1914 5.61694C60.0508 5.39819 59.877 5.23413 59.6699 5.12476C59.4668 5.01147 59.2344 4.95483 58.9727 4.95483C58.6992 4.95483 58.4609 5.01147 58.2578 5.12476C58.0547 5.23413 57.8848 5.39819 57.748 5.61694C57.6113 5.83569 57.5078 6.10718 57.4375 6.4314C57.3711 6.75171 57.3379 7.1228 57.3379 7.54468V7.9021C57.3379 8.32007 57.3711 8.69116 57.4375 9.01538C57.5078 9.33569 57.6113 9.60718 57.748 9.82983C57.8887 10.0525 58.0605 10.2205 58.2637 10.3337C58.4707 10.447 58.7109 10.5037 58.9844 10.5037C59.2461 10.5037 59.4785 10.447 59.6816 10.3337C59.8848 10.2205 60.0547 10.0525 60.1914 9.82983C60.332 9.60718 60.4375 9.33569 60.5078 9.01538C60.582 8.69116 60.6191 8.32007 60.6191 7.9021ZM67.252 8.36499H65.0547L65.043 7.01733H66.8242C67.1445 7.01733 67.4004 6.98218 67.5918 6.91187C67.7832 6.83765 67.9219 6.73022 68.0078 6.5896C68.0977 6.44897 68.1426 6.27319 68.1426 6.06226C68.1426 5.82007 68.0977 5.62476 68.0078 5.47632C67.918 5.32788 67.7754 5.22046 67.5801 5.15405C67.3887 5.08374 67.1406 5.04858 66.8359 5.04858H65.8281V11.9919H63.7715V3.46069H66.8359C67.3633 3.46069 67.834 3.50952 68.248 3.60718C68.6621 3.70093 69.0137 3.84546 69.3027 4.04077C69.5957 4.23608 69.8184 4.48218 69.9707 4.77905C70.123 5.07202 70.1992 5.41772 70.1992 5.81616C70.1992 6.16382 70.125 6.48999 69.9766 6.79468C69.8281 7.09937 69.5801 7.34741 69.2324 7.53882C68.8887 7.72632 68.418 7.82397 67.8203 7.83179L67.252 8.36499ZM67.1699 11.9919H64.5566L65.2598 10.4099H67.1699C67.4512 10.4099 67.6758 10.3669 67.8438 10.281C68.0156 10.1912 68.1387 10.074 68.2129 9.92944C68.291 9.78101 68.3301 9.61694 68.3301 9.43726C68.3301 9.21851 68.293 9.02905 68.2188 8.8689C68.1484 8.70874 68.0352 8.58569 67.8789 8.49976C67.7227 8.40991 67.5137 8.36499 67.252 8.36499H65.5234L65.5352 7.01733H67.6035L68.084 7.5564C68.6543 7.53296 69.1055 7.61304 69.4375 7.79663C69.7734 7.98022 70.0137 8.22241 70.1582 8.52319C70.3027 8.82397 70.375 9.13843 70.375 9.46655C70.375 10.0251 70.2539 10.4919 70.0117 10.8669C69.7734 11.2419 69.416 11.5232 68.9395 11.7107C68.4629 11.8982 67.873 11.9919 67.1699 11.9919ZM77.3887 10.4099V11.9919H72.8418V10.4099H77.3887ZM73.5742 3.46069V11.9919H71.5176V3.46069H73.5742ZM76.8027 6.84741V8.37671H72.8418V6.84741H76.8027ZM77.4062 3.46069V5.04858H72.8418V3.46069H77.4062ZM83.9805 6.84741V8.42944H79.6035V6.84741H83.9805ZM80.2891 3.46069V11.9919H78.2324V3.46069H80.2891ZM85.3633 3.46069V11.9919H83.3125V3.46069H85.3633ZM88.8555 3.46069V11.9919H86.8047V3.46069H88.8555ZM94.7441 8.9978H92.4648L91.8555 8.74585C91.1602 8.5271 90.6309 8.20288 90.2676 7.77319C89.9043 7.3396 89.7227 6.78687 89.7227 6.11499C89.7227 5.52905 89.8535 5.04077 90.1152 4.65015C90.377 4.25562 90.748 3.95874 91.2285 3.75952C91.709 3.5603 92.2793 3.46069 92.9395 3.46069H96.0332V11.9919H93.9707V5.04858H92.9395C92.5293 5.04858 92.2324 5.15601 92.0488 5.37085C91.8652 5.58179 91.7734 5.89038 91.7734 6.29663C91.7734 6.60913 91.8164 6.85522 91.9023 7.03491C91.9922 7.2146 92.123 7.34351 92.2949 7.42163C92.4668 7.49585 92.6816 7.53296 92.9395 7.53296H94.7324L94.7441 8.9978ZM93.1621 8.23022L91.3516 11.9919H89.1133L90.9004 8.23022H93.1621Z" fill="#4D4D4D"/>
</svg>
