<svg width="30" height="30" viewBox="0 0 30 30" fill="none" xmlns="http://www.w3.org/2000/svg">
<path d="M30 15C30 6.71573 23.2843 0 15 0C6.71573 0 0 6.71573 0 15C0 23.2843 6.71573 30 15 30C23.2843 30 30 23.2843 30 15Z" fill="url(#paint0_linear_0_1)"/>
<path d="M22.33 7.58001C22.27 7.58001 22.2 7.59001 22.13 7.62001L5.11998 14.08C4.63998 14.26 4.64998 14.95 5.13998 15.11L9.07998 16.44L11.46 21.2V21.21C11.5 21.3 11.59 21.36 11.69 21.36C11.75 21.36 11.8 21.34 11.85 21.3L14.08 19.41L11.59 17.52L11.78 20L9.98998 16.3L19.5 10.59L11.59 17.52L17.75 22.19C17.96 22.35 18.19 22.42 18.42 22.42C18.91 22.42 19.38 22.1 19.51 21.57L22.84 8.25001C22.93 7.89001 22.65 7.57001 22.31 7.57001L22.33 7.58001Z" fill="white"/>
<defs>
<linearGradient id="paint0_linear_0_1" x1="15" y1="30" x2="15" y2="0" gradientUnits="userSpaceOnUse">
<stop stop-color="#3650D1"/>
<stop offset="0.74" stop-color="#368DDF"/>
</linearGradient>
</defs>
</svg>
