<svg width="18" height="18" viewBox="0 0 18 18" fill="none" xmlns="http://www.w3.org/2000/svg">
<path d="M18 9C18 4.02944 13.9706 0 9 0C4.02944 0 0 4.02944 0 9C0 13.9706 4.02944 18 9 18C13.9706 18 18 13.9706 18 9Z" fill="#28A7E8"/>
<path d="M13.4 4.55C13.4 4.55 13.32 4.55 13.28 4.57L3.06999 8.45C2.77999 8.56 2.78999 8.97 3.07999 9.07L5.44999 9.87L6.87999 12.73C6.90999 12.78 6.95999 12.82 7.01999 12.82C7.04999 12.82 7.08999 12.81 7.11999 12.78L8.45999 11.65L6.96999 10.52L7.08999 12.01L6.01999 9.79L11.72 6.36L6.96999 10.52L10.67 13.32C10.79 13.41 10.94 13.46 11.07 13.46C11.36 13.46 11.65 13.27 11.72 12.95L13.72 4.96C13.77 4.74 13.6 4.55 13.4 4.55Z" fill="white"/>
</svg>
