<svg width="18" height="18" viewBox="0 0 18 18" fill="none" xmlns="http://www.w3.org/2000/svg">
<path d="M18 9C18 4.02944 13.9706 0 9 0C4.02944 0 0 4.02944 0 9C0 13.9706 4.02944 18 9 18C13.9706 18 18 13.9706 18 9Z" fill="#7360F2"/>
<path fill-rule="evenodd" clip-rule="evenodd" d="M9.8801 5.28C9.6401 5.25 9.33009 5.15 9.28009 5.47C9.22009 5.8 9.56009 5.78 9.78009 5.82C11.2901 6.15 11.8101 6.69 12.0601 8.15C12.0701 8.21 12.0801 8.29 12.0801 8.35C12.1001 8.52 12.1401 8.68 12.4001 8.63C12.5301 8.61 12.5801 8.54 12.5901 8.44C12.6101 8.35 12.5901 8.23 12.6001 8.15C12.6001 6.74 11.3801 5.46 9.8801 5.28ZM10.0201 6.44C9.8601 6.44 9.7101 6.46 9.6501 6.63C9.5601 6.87 9.7501 6.94 9.9301 6.97C10.5501 7.06 10.8701 7.42 10.9401 8.02C10.9401 8.1 10.9801 8.17 11.0101 8.22C11.0601 8.28 11.1301 8.3 11.2101 8.3C11.2601 8.3 11.3101 8.28 11.3401 8.26C11.4401 8.18 11.4601 8.04 11.4501 7.89C11.4601 7.21 10.6801 6.43 10.0201 6.44ZM13.1501 11.19C12.8401 10.95 12.5101 10.73 12.2001 10.51C11.5601 10.08 10.9701 10.04 10.5001 10.74C10.2301 11.14 9.85009 11.15 9.46009 10.98C8.37009 10.51 7.54009 9.77 7.05009 8.68C6.98009 8.51 6.93009 8.35 6.92009 8.2C6.90009 7.91 7.02009 7.66 7.35009 7.44C7.62009 7.27 7.88009 7.06 7.87009 6.67C7.85009 6.16 6.5901 4.46 6.0801 4.28C5.8801 4.21 5.67009 4.22 5.46009 4.28C4.29009 4.67 3.8101 5.61 4.2701 6.71C4.5301 7.33 4.8201 7.92 5.1501 8.46C6.5801 10.86 8.69009 12.61 11.4201 13.76C11.6101 13.84 11.8201 13.87 11.9301 13.9C12.6901 13.91 13.5801 13.19 13.8401 12.48C14.0901 11.79 13.5601 11.53 13.1601 11.19H13.1501ZM9.4001 4.62C11.8401 4.99 12.9601 6.13 13.2701 8.54V8.6C13.2901 8.82 13.2501 9.11 13.5401 9.11C13.8001 9.11 13.8101 8.92 13.8101 8.74C13.8001 8.67 13.8001 8.62 13.8001 8.57C13.8301 6.3 11.8101 4.19 9.4701 4.11C9.2801 4.14 8.92009 3.99 8.89009 4.38C8.89009 4.64 9.19009 4.6 9.39009 4.63L9.4001 4.62Z" fill="white"/>
</svg>
