<svg width="30" height="30" viewBox="0 0 30 30" fill="none" xmlns="http://www.w3.org/2000/svg">
<path d="M30 15C30 6.71573 23.2843 0 15 0C6.71573 0 0 6.71573 0 15C0 23.2843 6.71573 30 15 30C23.2843 30 30 23.2843 30 15Z" fill="url(#paint0_linear_0_1)"/>
<path fill-rule="evenodd" clip-rule="evenodd" d="M16.47 8.79999C16.07 8.74999 15.56 8.57999 15.47 9.10999C15.37 9.65999 15.94 9.61999 16.31 9.69999C18.83 10.25 19.69 11.15 20.11 13.59C20.13 13.69 20.14 13.82 20.14 13.93C20.17 14.22 20.24 14.48 20.68 14.4C20.9 14.37 20.98 14.25 20.99 14.08C21.02 13.93 20.99 13.73 21.01 13.59C21.01 11.24 18.97 9.10999 16.47 8.79999ZM16.7 10.73C16.44 10.73 16.18 10.76 16.08 11.04C15.93 11.44 16.24 11.55 16.55 11.6C17.58 11.75 18.12 12.35 18.23 13.35C18.23 13.49 18.29 13.6 18.35 13.69C18.44 13.79 18.55 13.83 18.69 13.82C18.78 13.82 18.85 13.79 18.91 13.76C19.08 13.63 19.11 13.39 19.09 13.14C19.11 12.01 17.81 10.7 16.7 10.73ZM21.92 18.65C21.41 18.25 20.85 17.89 20.33 17.52C19.26 16.8 18.28 16.74 17.49 17.91C17.04 18.57 16.41 18.6 15.76 18.31C13.95 17.52 12.56 16.29 11.74 14.48C11.62 14.2 11.54 13.93 11.53 13.68C11.5 13.2 11.7 12.78 12.24 12.41C12.69 12.12 13.13 11.77 13.1 11.12C13.06 10.27 10.96 7.43999 10.12 7.12999C9.77997 7.00999 9.43997 7.02999 9.08997 7.12999C7.13997 7.77999 6.33997 9.34 7.10997 11.19C7.54997 12.23 8.01997 13.2 8.57997 14.11C10.97 18.11 14.49 21.03 19.03 22.94C19.34 23.07 19.69 23.13 19.88 23.17C21.15 23.19 22.63 21.98 23.06 20.8C23.48 19.65 22.6 19.21 21.92 18.65ZM15.67 7.70999C19.74 8.32999 21.61 10.23 22.13 14.24V14.34C22.16 14.71 22.09 15.19 22.58 15.19C23.01 15.19 23.03 14.88 23.03 14.57C23.01 14.46 23.01 14.37 23.01 14.28C23.06 10.49 19.69 6.96999 15.79 6.84999C15.48 6.89999 14.88 6.64999 14.83 7.29999C14.82 7.72999 15.33 7.66999 15.67 7.70999Z" fill="white"/>
<defs>
<linearGradient id="paint0_linear_0_1" x1="15" y1="30" x2="15" y2="0" gradientUnits="userSpaceOnUse">
<stop stop-color="#3650D1"/>
<stop offset="0.74" stop-color="#368DDF"/>
</linearGradient>
</defs>
</svg>
