<svg width="32" height="31" viewBox="0 0 32 31" fill="none" xmlns="http://www.w3.org/2000/svg">
<path d="M16.1799 29.53C8.54993 29.53 2.29993 23.25 2.29993 15.62C2.29993 13.9 2.60982 12.28 3.18982 10.75L11.3099 27.08C11.3999 27.29 11.5599 27.48 11.7999 27.48C12.0399 27.48 12.1999 27.3 12.2899 27.08L16.0299 18.72C16.0599 18.63 16.1198 18.54 16.2098 18.54C16.2998 18.54 16.3299 18.63 16.3899 18.72L20.1299 27.08C20.2199 27.29 20.3799 27.48 20.6199 27.48C20.8599 27.48 21.0199 27.3 21.1099 27.08L29.2299 10.75C29.8099 12.28 30.1199 13.91 30.1199 15.62C30.0599 23.25 23.8099 29.53 16.1799 29.53ZM16.1799 12.46C16.0899 12.46 16.0599 12.37 15.9999 12.28L11.6499 2.48004C13.0599 1.96004 14.5899 1.68004 16.1799 1.68004C17.7699 1.68004 19.3098 1.96004 20.7098 2.48004L16.3599 12.28C16.2999 12.4 16.2699 12.46 16.1799 12.46ZM11.7399 22.54C11.6499 22.54 11.6199 22.45 11.5599 22.36L4.50989 8.14004C5.76989 6.21004 7.44988 4.59004 9.49988 3.45004L14.5898 14.76C14.6498 14.94 14.7998 15.01 14.9598 15.01H17.4099C17.5899 15.01 17.7199 14.98 17.8099 14.76L22.8999 3.45004C24.9199 4.58004 26.6399 6.21004 27.8899 8.14004L20.7799 22.36C20.7499 22.45 20.6899 22.54 20.5999 22.54C20.5099 22.54 20.4799 22.45 20.4199 22.36L17.7499 16.29C17.6599 16.08 17.5399 16.04 17.3499 16.04H14.8999C14.7199 16.04 14.5899 16.07 14.4999 16.29L11.9299 22.36C11.8999 22.45 11.8399 22.54 11.7499 22.54H11.7399ZM16.1799 30.93C24.6699 30.93 31.4999 24.1 31.4999 15.61C31.4999 7.12004 24.6699 0.290039 16.1799 0.290039C7.68993 0.290039 0.859863 7.12004 0.859863 15.61C0.859863 24.1 7.68993 30.93 16.1799 30.93Z" fill="#CCCCCC"/>
</svg>
