<svg width="30" height="30" viewBox="0 0 30 30" fill="none" xmlns="http://www.w3.org/2000/svg">
<path d="M30 15C30 6.71573 23.2843 0 15 0C6.71573 0 0 6.71573 0 15C0 23.2843 6.71573 30 15 30C23.2843 30 30 23.2843 30 15Z" fill="url(#paint0_linear_0_1)"/>
<path fill-rule="evenodd" clip-rule="evenodd" d="M23.74 12.89C22.76 8.80997 19.25 6.01997 15 5.96997C14.44 5.98997 13.85 6.03997 13.28 6.14997C7.34002 7.34997 4.28002 13.91 7.16002 19.22C7.25002 19.37 7.25002 19.48 7.22002 19.63C6.82002 21.02 6.44002 22.42 6.06002 23.81C6.02002 23.97 6.07669 24.0266 6.23002 23.98C7.69002 23.6 9.12002 23.22 10.58 22.85C10.7 22.82 10.8 22.83 10.91 22.88C12.77 23.84 14.74 24.11 16.8 23.72C21.71 22.77 24.93 17.75 23.75 12.89H23.74ZM16.26 22.28C15.85 22.35 15.44 22.39 15.23 22.38C13.66 22.38 12.37 22.02 11.19 21.31C11.03 21.23 10.9 21.2 10.73 21.25C9.93002 21.47 9.12002 21.67 8.33002 21.88C8.16002 21.93 8.15002 21.9 8.18002 21.74C8.39002 20.98 8.59002 20.24 8.82002 19.48C8.87002 19.27 8.85002 19.12 8.73002 18.93C7.09002 16.29 7.17002 13.03 8.99002 10.59C10.89 8.06997 13.48 7.01997 16.56 7.66997C19.61 8.31997 21.55 10.28 22.26 13.32C23.24 17.47 20.44 21.59 16.25 22.28H16.26Z" fill="white"/>
<path fill-rule="evenodd" clip-rule="evenodd" d="M17.34 19.24C17.02 19.26 16.7 19.18 16.41 19.1C14.34 18.5 12.81 17.22 11.55 15.52C11.09 14.89 10.65 14.23 10.51 13.43C10.34 12.49 10.62 11.67 11.31 11.02C11.55 10.81 12.24 10.71 12.51 10.85C12.6 10.9 12.68 10.99 12.71 11.08C12.97 11.71 13.23 12.31 13.49 12.93C13.53 13.05 13.52 13.17 13.46 13.29C13.33 13.58 13.12 13.79 12.9 14.03C12.74 14.18 12.74 14.34 12.85 14.53C13.58 15.74 14.58 16.63 15.91 17.14C16.1 17.22 16.25 17.21 16.37 17.05C16.6 16.77 16.83 16.5 17.04 16.22C17.18 16.04 17.35 16 17.55 16.09C17.99 16.29 18.43 16.5 18.85 16.69C18.96 16.75 19.04 16.79 19.14 16.84C19.58 17.06 19.58 17.07 19.53 17.55C19.45 18.49 18.76 18.97 17.91 19.2C17.71 19.25 17.51 19.25 17.33 19.25L17.34 19.24Z" fill="white"/>
<defs>
<linearGradient id="paint0_linear_0_1" x1="15" y1="30" x2="15" y2="0" gradientUnits="userSpaceOnUse">
<stop stop-color="#3650D1"/>
<stop offset="0.74" stop-color="#368DDF"/>
</linearGradient>
</defs>
</svg>
