<svg width="18" height="18" viewBox="0 0 18 18" fill="none" xmlns="http://www.w3.org/2000/svg">
<path d="M18 9C18 4.02944 13.9706 0 9 0C4.02944 0 0 4.02944 0 9C0 13.9706 4.02944 18 9 18C13.9706 18 18 13.9706 18 9Z" fill="#76A803"/>
<path fill-rule="evenodd" clip-rule="evenodd" d="M14.24 7.74001C13.65 5.29001 11.55 3.62001 8.99999 3.59001C8.65999 3.59001 8.30999 3.63001 7.96999 3.70001C4.39999 4.42001 2.56999 8.36001 4.29999 11.54C4.34999 11.63 4.34999 11.7 4.33999 11.79C4.09999 12.62 3.86999 13.47 3.63999 14.3C3.61333 14.3933 3.64666 14.4267 3.73999 14.4C4.60999 14.17 5.47999 13.95 6.34999 13.72C6.41999 13.7 6.47999 13.71 6.54999 13.74C7.65999 14.32 8.84999 14.48 10.08 14.24C13.02 13.67 14.96 10.66 14.25 7.74001H14.24ZM9.74999 13.37C9.49999 13.41 9.25999 13.44 9.12999 13.43C8.18999 13.43 7.40999 13.22 6.70999 12.79C6.60999 12.74 6.53999 12.72 6.42999 12.75C5.94999 12.88 5.46999 13 4.98999 13.13C4.88999 13.16 4.87999 13.13 4.89999 13.04C5.02999 12.58 5.14999 12.14 5.27999 11.69C5.30999 11.57 5.29999 11.47 5.22999 11.36C4.24999 9.78001 4.28999 7.82001 5.38999 6.36001C6.52999 4.85001 8.07999 4.22001 9.92999 4.61001C11.76 5.00001 12.92 6.18001 13.35 8.00001C13.94 10.49 12.26 12.96 9.73999 13.38L9.74999 13.37Z" fill="white"/>
<path fill-rule="evenodd" clip-rule="evenodd" d="M10.41 11.54C10.22 11.54 10.03 11.5 9.84997 11.46C8.60997 11.1 7.68997 10.33 6.93997 9.31C6.65997 8.93 6.39997 8.53 6.30997 8.05C6.20997 7.48 6.36997 6.99 6.78997 6.61C6.92997 6.48 7.34997 6.42 7.50997 6.51C7.56997 6.54 7.60997 6.59 7.62997 6.65C7.78997 7.03 7.93997 7.39 8.09997 7.76C8.11997 7.83 8.11997 7.9 8.07997 7.98C7.99997 8.15 7.87997 8.28 7.74997 8.42C7.65997 8.51 7.65997 8.61 7.71997 8.72C8.15997 9.45 8.75997 9.98 9.54997 10.29C9.66997 10.34 9.74997 10.33 9.81997 10.23C9.95997 10.06 10.1 9.9 10.22 9.73C10.31 9.62 10.41 9.6 10.52 9.65C10.78 9.77 11.05 9.9 11.3 10.01C11.36 10.05 11.42 10.07 11.48 10.1C11.74 10.23 11.74 10.24 11.72 10.53C11.67 11.09 11.26 11.38 10.75 11.52C10.63 11.55 10.51 11.55 10.4 11.55L10.41 11.54Z" fill="white"/>
</svg>
