<svg width="84" height="29" viewBox="0 0 84 29" fill="none" xmlns="http://www.w3.org/2000/svg">
<path d="M57.01 24.1097C56.85 24.1397 56.57 24.1897 56.32 24.1897C55.47 24.1897 54.98 23.8297 54.98 22.8497C54.98 21.8697 55.62 21.4697 56.43 21.4697C56.68 21.4697 56.85 21.5197 56.97 21.5497V22.0297C56.88 21.9997 56.61 21.9597 56.41 21.9597C55.94 21.9597 55.57 22.0297 55.57 22.8297C55.57 23.6297 55.96 23.6997 56.38 23.6997C56.61 23.6997 56.79 23.6497 57 23.6097V24.0997" fill="#CCCCCC"/>
<path d="M59.42 22.8297C59.42 22.1297 59.1901 21.9097 58.8101 21.9097C58.4301 21.9097 58.2001 22.1597 58.1901 22.8297C58.1801 23.4997 58.42 23.7497 58.8 23.7497C59.18 23.7497 59.42 23.5297 59.42 22.8297ZM57.5901 22.8297C57.5901 21.8197 58.0801 21.4697 58.8101 21.4697C59.5401 21.4697 60.0201 21.8397 60.0201 22.8297C60.0201 23.8197 59.54 24.1897 58.8 24.1897C58.06 24.1897 57.5901 23.8197 57.5901 22.8297Z" fill="#CCCCCC"/>
<path d="M61.5 22.7905C61.78 22.7905 62.03 22.7105 62.03 22.3705C62.03 22.0305 61.83 21.9805 61.51 21.9805H61.32V22.7905H61.5ZM60.75 21.5205H61.48C62.29 21.5205 62.62 21.7405 62.62 22.3505C62.62 22.8505 62.36 22.9805 62.06 23.0705V23.1105L62.14 23.1305C62.42 23.2305 62.58 23.7605 62.75 24.0905V24.1605H62.12C62 23.8105 61.86 23.2805 61.6 23.2005H61.32V24.1605H60.75V21.5205Z" fill="#CCCCCC"/>
<path d="M63.9999 22.84H64.21C64.54 22.84 64.71 22.73 64.71 22.41C64.71 22.09 64.5399 21.98 64.2399 21.98H64.0099V22.84H63.9999ZM63.4299 21.51H64.15C64.93 21.51 65.3099 21.69 65.3099 22.36C65.3099 23.03 64.8599 23.23 64.2899 23.23H63.9999V24.14H63.4299V21.5" fill="#CCCCCC"/>
<path d="M67.6201 22.8297C67.6201 22.1297 67.3901 21.9097 67.0201 21.9097C66.6501 21.9097 66.4101 22.1597 66.4001 22.8297C66.3901 23.4997 66.6301 23.7497 67.0101 23.7497C67.3901 23.7497 67.6301 23.5297 67.6301 22.8297H67.6201ZM65.79 22.8297C65.79 21.8197 66.2801 21.4697 67.0101 21.4697C67.7401 21.4697 68.22 21.8397 68.22 22.8297C68.22 23.8197 67.7401 24.1897 67.0001 24.1897C66.2601 24.1897 65.79 23.8197 65.79 22.8297Z" fill="#CCCCCC"/>
<path d="M69.7 22.7905C69.98 22.7905 70.23 22.7105 70.23 22.3705C70.23 22.0305 70.03 21.9805 69.71 21.9805H69.53V22.7905H69.71H69.7ZM68.95 21.5205H69.6801C70.4901 21.5205 70.8199 21.7405 70.8199 22.3505C70.8199 22.8505 70.56 22.9805 70.26 23.0705V23.1105L70.34 23.1305C70.62 23.2305 70.78 23.7605 70.95 24.0905V24.1605H70.3199C70.1999 23.8105 70.06 23.2805 69.8 23.2005H69.52V24.1605H68.95V21.5205Z" fill="#CCCCCC"/>
<path d="M72.9401 23.1802L72.6802 22.2702L72.6501 22.1202H72.6101L72.5801 22.2702L72.3002 23.1802H72.9401ZM71.4102 24.0902L72.3501 21.4902H72.9102L73.9001 24.0902V24.1502H73.2701L73.0502 23.5602H72.2201L72.0302 24.1502H71.4102V24.0902Z" fill="#CCCCCC"/>
<path d="M74.8699 21.9705L74.1299 21.9905V21.5205H76.1898V21.9905L75.4398 21.9705V24.1605H74.8699V21.9705Z" fill="#CCCCCC"/>
<path d="M76.79 24.1605V21.5205H77.36V24.1605H76.79Z" fill="#CCCCCC"/>
<path d="M79.87 22.8297C79.87 22.1297 79.64 21.9097 79.27 21.9097C78.9 21.9097 78.66 22.1597 78.65 22.8297C78.64 23.4997 78.88 23.7497 79.26 23.7497C79.64 23.7497 79.88 23.5297 79.88 22.8297H79.87ZM78.04 22.8297C78.04 21.8197 78.53 21.4697 79.26 21.4697C79.99 21.4697 80.47 21.8397 80.47 22.8297C80.47 23.8197 79.99 24.1897 79.25 24.1897C78.51 24.1897 78.04 23.8197 78.04 22.8297Z" fill="#CCCCCC"/>
<path d="M81.2 21.5205H81.7L82.6801 22.9105L82.8199 23.1405H82.85V21.5305H83.42V24.1705H82.9301L81.9301 22.7305L81.8199 22.5405H81.78V24.1705H81.21V21.5305" fill="#CCCCCC"/>
<path d="M19.85 3.58008L15.57 19.2101H13.08L10.06 7.86008L6.98999 19.2101H4.5L0.219971 3.58008H2.67999L5.72998 14.9301L8.79999 3.58008H11.24L14.33 14.9301L17.38 3.58008H19.84" fill="#CCCCCC"/>
<path d="M20.99 3.61992L23.45 3.41992V7.24992L23.41 8.67992H23.5C24.64 8.24992 25.56 8.04992 26.68 8.04992C28.67 8.04992 30.02 8.94992 30.02 12.3699V19.1999H27.56V12.5699C27.56 10.5099 26.55 10.2399 25.41 10.2399C24.69 10.2399 24.09 10.3999 23.46 10.5799V19.1999H21V3.60992" fill="#CCCCCC"/>
<path d="M32.1599 8.21027H34.6199V19.2003H32.1599V8.21027ZM33.39 3.78027C34.67 3.78027 34.8699 4.52027 34.8699 5.35027C34.8699 6.18027 34.6 6.94027 33.39 6.94027C32.18 6.94027 31.9299 6.18027 31.9299 5.35027C31.9299 4.52027 32.15 3.78027 33.39 3.78027Z" fill="#CCCCCC"/>
<path d="M36.71 8.21055H38.39L38.7299 9.11055H38.89C39.54 8.55055 40.5699 8.06055 41.9099 8.06055C42.0699 8.06055 42.2499 8.06055 42.4199 8.08055V10.5005C41.9699 10.4305 41.5 10.3705 41.03 10.3705C40.36 10.3705 39.8199 10.5305 39.1699 10.8205V19.2205H36.71V8.23055" fill="#CCCCCC"/>
<path d="M43.47 19.2099V3.61992L45.93 3.41992V19.2099H43.47Z" fill="#CCCCCC"/>
<path d="M65.77 13.7598C65.77 11.6798 65.43 9.9798 63.46 9.9798C61.49 9.9798 60.97 11.6098 60.97 13.7598C60.97 15.7498 61.37 17.4798 63.34 17.4798C65.31 17.4798 65.76 15.8498 65.76 13.7598H65.77ZM63.44 8.0498C66.93 8.0498 68.28 10.1098 68.28 13.7598C68.28 17.1898 67.03 19.4298 63.4 19.4298C59.77 19.4298 58.5 17.1898 58.5 13.7598C58.5 10.1098 59.96 8.0498 63.45 8.0498" fill="#CCCCCC"/>
<path d="M76.8199 13.7598C76.8199 11.6798 76.48 9.9798 74.51 9.9798C72.54 9.9798 72.02 11.6098 72.02 13.7598C72.02 15.7498 72.42 17.4798 74.39 17.4798C76.36 17.4798 76.8101 15.8498 76.8101 13.7598H76.8199ZM74.49 8.0498C77.98 8.0498 79.33 10.1098 79.33 13.7598C79.33 17.1898 78.08 19.4298 74.45 19.4298C70.82 19.4298 69.55 17.1898 69.55 13.7598C69.55 10.1098 71.01 8.0498 74.5 8.0498" fill="#CCCCCC"/>
<path d="M80.9199 19.2099V3.61992L83.3799 3.41992V19.2099H80.9199Z" fill="#CCCCCC"/>
<path d="M50.4099 17.1705C51.0999 17.1905 51.48 17.2105 52.2 17.2105C53.72 17.2105 54.7299 16.4005 54.7299 13.2005C54.7299 11.0105 53.8299 10.4205 52.2199 10.4205C51.5899 10.4205 51.0099 10.5305 50.4099 10.7305V17.1605V17.1705ZM47.95 8.21055H49.8099L50.0099 9.02055C50.7499 8.62055 52.1099 8.06055 53.3499 8.06055C55.5899 8.06055 57.2199 9.69055 57.2199 13.6105C57.2199 17.5305 55.4999 19.3705 52.6299 19.3705C51.5799 19.3705 50.4099 19.1505 50.4099 19.1505V24.1905L47.95 24.4605V8.21055Z" fill="#CCCCCC"/>
<path d="M60.14 1.46007C58.3 -0.66993 52.45 1.20007 45.93 5.72007V6.86007C51.67 2.78007 56.74 0.890071 58.19 2.57007C60 4.67007 55.5 11.5301 48.13 17.8901C40.76 24.2501 33.32 27.7001 31.51 25.6001C30.57 24.5101 31.34 22.1401 33.32 19.2101H32.17C29.71 22.8701 28.79 25.9501 30.05 27.4101C32.35 30.0701 40.95 26.4301 49.26 19.2601C57.57 12.0901 62.4501 4.12007 60.1501 1.46007" fill="#999999"/>
</svg>
