<svg width="21" height="20" viewBox="0 0 21 20" fill="none" xmlns="http://www.w3.org/2000/svg">
<g clip-path="url(#clip0_12_145)">
<path d="M17.5161 0H3.51611C1.85926 0 0.516113 1.34315 0.516113 3V17C0.516113 18.6569 1.85926 20 3.51611 20H17.5161C19.173 20 20.5161 18.6569 20.5161 17V3C20.5161 1.34315 19.173 0 17.5161 0Z" fill="url(#paint0_linear_12_145)"/>
<path d="M4.80682 6.5463L10.6671 9.47643L16.5274 6.5463C16.4876 6.4271 16.4181 6.31784 16.3287 6.23838C16.1797 6.08939 15.9811 6 15.7526 6H5.58157C5.36305 6 5.15446 6.08939 5.00547 6.23838C4.91608 6.32778 4.85648 6.4271 4.80682 6.5463ZM16.5671 7.99646L10.6671 10.9465L4.76709 7.99646V13.1714C4.76709 13.3899 4.85648 13.5985 5.00547 13.7475C5.15446 13.8965 5.35312 13.9859 5.58157 13.9859H15.7526C15.9711 13.9859 16.1797 13.8965 16.3287 13.7475C16.4777 13.5985 16.5671 13.3998 16.5671 13.1714V8.0064V7.99646Z" fill="white"/>
</g>
<defs>
<linearGradient id="paint0_linear_12_145" x1="10.5161" y1="20.07" x2="10.5161" y2="-7.13" gradientUnits="userSpaceOnUse">
<stop stop-color="#3650D1"/>
<stop offset="0.74" stop-color="#368DDF"/>
</linearGradient>
<clipPath id="clip0_12_145">
<rect width="20" height="20" fill="white" transform="translate(0.516113)"/>
</clipPath>
</defs>
</svg>
