<svg width="119" height="125" viewBox="0 0 119 125" fill="none" xmlns="http://www.w3.org/2000/svg">
<path d="M0 72.93V10.03C0 4.49 4.49 0 10.03 0H108.09C113.63 0 118.12 4.49 118.12 10.03V72.93C118.12 80.11 114.8 86.9 109.13 91.3L73.34 119.12C64.94 125.65 53.18 125.65 44.78 119.12L8.99 91.3C3.32 86.89 0 80.11 0 72.93Z" fill="url(#paint0_linear_8016_1429)"/>
<path d="M59.06 116.82C55.46 116.82 52.05 115.65 49.2 113.44L13.41 85.6202C9.45995 82.5502 7.19995 77.9302 7.19995 72.9302V10.0302C7.19995 8.4702 8.46995 7.2002 10.03 7.2002H108.09C109.65 7.2002 110.92 8.4702 110.92 10.0302V72.9302C110.92 77.9302 108.66 82.5502 104.71 85.6202L68.9199 113.44C66.0699 115.65 62.66 116.82 59.06 116.82Z" stroke="#CCCCCC" stroke-width="2.55" stroke-miterlimit="10"/>
<path d="M59.0399 70.2799C58.2599 70.2799 57.4799 70.2599 56.6999 70.2799C55.7499 70.3099 55.1999 69.8699 54.8899 69.0699C54.5499 68.1899 54.1999 67.3199 53.8499 66.4399C53.7799 66.2599 53.6799 66.1499 53.4899 66.0799C52.0999 65.5499 50.8399 64.7999 49.6799 63.8799C49.5099 63.7399 49.3499 63.6999 49.1299 63.7299C48.4499 63.8399 47.7699 63.9299 47.0799 64.0299C46.7799 64.0699 46.4899 64.1199 46.1899 64.1699C45.4499 64.2799 44.8799 63.9999 44.4999 63.3699C43.9199 62.3899 43.3499 61.3899 42.7799 60.3999C42.4999 59.9199 42.2299 59.4399 41.9499 58.9599C41.5799 58.3099 41.6199 57.6899 42.0799 57.0999C42.6899 56.3099 43.3099 55.5199 43.9299 54.7499C44.0599 54.5899 44.0999 54.4299 44.0699 54.2299C43.9199 53.2399 43.8499 52.2399 43.9099 51.2399C43.9399 50.7899 43.9999 50.3299 44.0599 49.8799C44.0899 49.6599 44.0599 49.4899 43.9099 49.2999C43.2899 48.5299 42.6899 47.7499 42.0799 46.9699C41.6199 46.3799 41.5599 45.7599 41.9399 45.1099C42.6099 43.9399 43.2899 42.7699 43.9699 41.5999C44.1299 41.3199 44.2899 41.0399 44.4499 40.7599C44.7799 40.1599 45.3999 39.7599 46.1999 39.8899C47.1799 40.0499 48.1599 40.1699 49.1399 40.3099C49.3599 40.3399 49.5099 40.2799 49.6799 40.1499C50.7999 39.2699 52.0099 38.5299 53.3499 38.0199C53.6299 37.9099 53.7899 37.7399 53.8999 37.4499C54.2399 36.5399 54.5999 35.6299 54.9799 34.7299C55.2399 34.1099 55.7299 33.7699 56.4099 33.7599C58.1599 33.7499 59.8999 33.7499 61.6499 33.7599C62.2799 33.7599 62.7699 34.0599 63.0299 34.6399C63.2799 35.1699 63.4899 35.7199 63.7099 36.2699C63.8999 36.7299 64.0799 37.1899 64.2599 37.6599C64.3099 37.7999 64.3999 37.8699 64.5299 37.9299C65.4899 38.3099 66.4099 38.7699 67.2699 39.3499C67.6599 39.6199 68.0499 39.8999 68.4199 40.1899C68.5699 40.2999 68.7099 40.3399 68.8799 40.3099C69.6999 40.1799 70.5299 40.0499 71.3499 39.9399C71.6799 39.8899 72.0199 39.8499 72.3399 39.8699C72.8799 39.8999 73.2699 40.1999 73.5399 40.6599C74.0899 41.6099 74.6399 42.5599 75.1899 43.5099C75.4799 44.0199 75.7699 44.5299 76.0699 45.0299C76.4499 45.6799 76.4499 46.3199 75.9799 46.9199C75.3999 47.6699 74.8299 48.4199 74.2299 49.1499C74.0099 49.4199 73.8899 49.6599 74.0099 50.0199C74.0899 50.2499 74.0699 50.5299 74.0899 50.7799C74.1799 51.8399 74.1299 52.8899 74.0299 53.9499C73.8399 54.3599 74.0299 54.6499 74.2799 54.9599C74.8599 55.6699 75.4199 56.3999 75.9899 57.1299C76.4299 57.6999 76.4599 58.3199 76.1099 58.9399C75.4799 60.0499 74.8299 61.1499 74.1999 62.2499C73.9799 62.6199 73.7699 62.9999 73.5499 63.3699C73.1699 63.9899 72.6199 64.2699 71.8899 64.1599C70.8899 64.0099 69.8899 63.8699 68.8899 63.7199C68.7099 63.6899 68.5699 63.7199 68.4299 63.8399C67.3399 64.7299 66.1299 65.4199 64.8499 65.9899C64.3799 66.0399 64.2399 66.3899 64.0999 66.7699C63.7899 67.5999 63.4499 68.4199 63.1099 69.2399C62.8299 69.9299 62.2999 70.2799 61.5599 70.2799C60.7099 70.2799 59.8699 70.2799 59.0199 70.2799H59.0399ZM57.4999 36.8999C57.1399 37.7899 56.7899 38.6499 56.4499 39.5199C56.2299 40.0899 55.8399 40.4499 55.2599 40.6299C54.4099 40.8999 53.6099 41.2899 52.8499 41.7499C52.1699 42.1599 51.5599 42.6499 50.9599 43.1599C50.6099 43.4599 50.1899 43.5999 49.7299 43.5399C49.4099 43.4999 49.0899 43.4399 48.7699 43.3999C48.2099 43.3199 47.6499 43.2399 47.0899 43.1399C46.8299 43.0899 46.6499 43.1499 46.5299 43.4099C46.3799 43.7299 46.1799 44.0299 45.9999 44.3399C45.7299 44.8199 45.4499 45.2999 45.1799 45.7799C45.2899 45.9199 45.3799 46.0399 45.4799 46.1699C46.0099 46.8499 46.5499 47.5299 47.0699 48.2199C47.3299 48.5599 47.4199 48.9599 47.3499 49.3799C47.2799 49.8699 47.1799 50.3599 47.1099 50.8599C47.0099 51.6099 47.0099 52.3699 47.1099 53.1199C47.1799 53.6299 47.2799 54.1299 47.3499 54.6299C47.4299 55.1499 47.2499 55.5899 46.9299 55.9899C46.5699 56.4399 46.2099 56.8899 45.8599 57.3499C45.6299 57.6399 45.3999 57.9399 45.1699 58.2399C45.6599 59.0799 46.1399 59.8899 46.5999 60.7099C46.6999 60.8899 46.8299 60.8899 46.9899 60.8699C47.8199 60.7599 48.6399 60.6599 49.4599 60.5099C50.0599 60.3999 50.5699 60.5299 51.0399 60.9099C51.5599 61.3399 52.0999 61.7499 52.6599 62.1299C53.5199 62.7199 54.4699 63.1099 55.4499 63.4499C55.8699 63.5999 56.1799 63.8699 56.3499 64.2799C56.5299 64.6999 56.6999 65.1199 56.8699 65.5399C57.0799 66.0599 57.2899 66.5899 57.5099 67.1099H60.5899C60.6399 67.0099 60.6899 66.9299 60.7299 66.8299C61.0099 66.1199 61.3099 65.4099 61.5699 64.6899C61.8199 63.9999 62.2399 63.5199 62.9799 63.3199C63.4399 63.1999 63.8699 62.9799 64.2999 62.7699C65.3299 62.2799 66.2499 61.6299 67.0999 60.8699C67.5399 60.4799 68.0399 60.3799 68.6199 60.4799C69.4499 60.6199 70.2899 60.7199 71.1299 60.8499C71.3299 60.8799 71.4599 60.8099 71.5599 60.6299C71.8399 60.1199 72.1499 59.6099 72.4399 59.0999C72.6099 58.7999 72.7699 58.4999 72.9399 58.2099C72.8899 58.1299 72.8499 58.0699 72.8099 58.0199C72.2599 57.3099 71.7099 56.5999 71.1499 55.8999C70.7999 55.4699 70.7099 54.9899 70.8099 54.4599C70.8599 54.1799 70.9299 53.8899 70.9699 53.6099C71.1399 52.2199 71.0999 50.8399 70.8099 49.4599C70.6999 48.9499 70.8099 48.4699 71.1499 48.0499C71.7099 47.3599 72.2399 46.6499 72.7999 45.9599C72.9099 45.8199 72.9399 45.6999 72.8499 45.5399C72.4099 44.7799 71.9699 44.0299 71.5299 43.2599C71.4399 43.1099 71.3399 43.0599 71.1699 43.0899C70.9499 43.1299 70.7299 43.1599 70.5099 43.1899C69.9199 43.2699 69.3099 43.3099 68.7299 43.4399C68.0399 43.5999 67.4899 43.4199 66.9799 42.9599C65.7499 41.8599 64.3499 41.0499 62.7699 40.5499C62.2499 40.3799 61.8999 40.0399 61.6999 39.5299C61.4499 38.8899 61.1999 38.2499 60.9399 37.6099C60.8299 37.3499 60.7199 37.0899 60.6099 36.8399H57.5199L57.4999 36.8999Z" fill="white"/>
<path d="M44.1599 33.7399C43.8299 34.0299 43.4899 34.3099 43.1599 34.5999C41.5999 36.0199 40.2599 37.6299 39.1299 39.4099C38.3499 40.6399 37.6899 41.9299 37.1499 43.2799C36.7299 44.3199 36.3899 45.3899 36.1199 46.4799C35.9199 47.3299 35.7699 48.1999 35.6499 49.0699C35.4799 50.3299 35.4499 51.5999 35.4799 52.8699C35.4999 53.9099 35.6099 54.9399 35.7799 55.9499C36.0399 57.5099 36.4599 59.0299 37.0299 60.4999C37.9199 62.7699 39.1199 64.8499 40.6399 66.7499C42.1999 68.6999 44.0199 70.3499 46.0999 71.7199C47.5299 72.6599 49.0499 73.4299 50.6499 74.0499C51.8699 74.5099 53.1099 74.8799 54.3799 75.1399C55.2899 75.3199 56.2199 75.4799 57.1499 75.5099C58.0399 75.5399 58.9299 75.5999 59.8199 75.5799C60.8799 75.5699 61.9299 75.4299 62.9699 75.2699C63.3999 75.1999 63.8199 75.0899 64.2399 74.9999C65.1999 74.7999 65.8899 75.1499 66.2199 75.9299C66.5599 76.7499 66.09 77.7399 65.2299 77.9799C64.79 78.0999 64.3499 78.2099 63.8999 78.2799C63.1299 78.4099 62.3599 78.5399 61.5899 78.6099C60.6899 78.6899 59.7899 78.7199 58.8899 78.7199C58.0699 78.7199 57.2399 78.6999 56.4199 78.6099C55.4299 78.4999 54.4399 78.3299 53.4599 78.1399C52.0699 77.8799 50.7299 77.4699 49.4099 76.9499C47.7099 76.2899 46.0899 75.4699 44.5599 74.4699C42.9399 73.4199 41.4499 72.2099 40.0999 70.8499C38.4499 69.1999 37.0399 67.3699 35.8799 65.3499C35.1399 64.0599 34.5099 62.7199 33.9899 61.3199C33.5799 60.2199 33.2399 59.0899 32.9799 57.9399C32.7799 57.0299 32.6299 56.1099 32.5099 55.1799C32.3499 53.8899 32.3099 52.6099 32.3299 51.3199C32.3499 50.0299 32.4699 48.7399 32.7199 47.4799C32.8599 46.7599 32.9799 46.0299 33.1699 45.3299C33.4099 44.4699 33.6999 43.6199 33.9899 42.7599C34.3699 41.6199 34.8899 40.5399 35.4499 39.4799C36.1399 38.1699 36.9399 36.9399 37.8399 35.7699C39.0899 34.1399 40.5099 32.6799 42.0899 31.3799C42.1699 31.3199 42.2399 31.2499 42.3599 31.1399C42.2199 31.0899 42.1299 31.0499 42.0299 31.0299C41.6699 30.9599 41.3099 30.9099 40.9499 30.8199C40.3299 30.6599 39.9599 30.2299 39.8399 29.6199C39.6999 28.8899 40.0299 28.3499 40.5399 28.0099C40.9599 27.7299 41.4299 27.7499 41.8899 27.8299C43.0499 28.0199 44.2099 28.2299 45.3699 28.4399C45.8499 28.5299 46.3299 28.6199 46.8099 28.7199C47.4899 28.8599 48.0899 29.5199 47.9899 30.3699C47.9299 30.9399 47.8199 31.5099 47.7199 32.0799C47.5999 32.7899 47.4699 33.4999 47.3399 34.2099C47.2399 34.7299 47.1599 35.2599 47.0299 35.7799C46.8399 36.4999 46.0799 36.9799 45.3299 36.8599C44.5199 36.7299 43.9899 36.0599 44.0099 35.3699C44.0199 34.9799 44.1099 34.5999 44.1599 34.2199C44.1799 34.0699 44.1999 33.9199 44.2299 33.7699C44.1999 33.7599 44.1699 33.7399 44.1399 33.7299L44.1599 33.7399Z" fill="white"/>
<path d="M75.7099 72.9098C76.0999 72.9798 76.4099 73.0498 76.7299 73.0898C77.3399 73.1798 77.8399 73.4298 78.1099 73.9998C78.6099 75.0798 77.8399 76.2098 76.7999 76.2198C76.4099 76.2198 76.0099 76.1398 75.6199 76.0698C74.4499 75.8698 73.2799 75.6698 72.1099 75.4598C71.8399 75.4098 71.5699 75.3498 71.2899 75.2998C70.5099 75.1398 69.9699 74.3898 70.0899 73.5898C70.1699 73.0198 70.2799 72.4498 70.3799 71.8798C70.4699 71.3698 70.5499 70.8498 70.6399 70.3398C70.7599 69.6798 70.8599 69.0298 70.9999 68.3798C71.1299 67.7498 71.6599 67.2398 72.2599 67.1598C72.9299 67.0598 73.4699 67.2998 73.8399 67.8698C74.0999 68.2698 74.1499 68.7098 74.0399 69.1798C73.9599 69.5298 73.8899 69.8898 73.8799 70.3198C74.0299 70.2098 74.1299 70.1398 74.2099 70.0698C76.0599 68.5098 77.6399 66.6998 78.9399 64.6498C79.9299 63.0898 80.7299 61.4398 81.3399 59.6898C81.6699 58.7498 81.9299 57.7798 82.1299 56.7998C82.3299 55.8198 82.4499 54.8298 82.5499 53.8298C82.6499 52.8498 82.6599 51.8698 82.6099 50.8998C82.5699 50.0598 82.4599 49.2198 82.3299 48.3798C82.2199 47.6198 82.0799 46.8598 81.8799 46.1298C81.6499 45.2698 81.3599 44.4398 81.0599 43.5998C80.6199 42.3498 80.0199 41.1798 79.3499 40.0398C78.6599 38.8698 77.8699 37.7698 76.9999 36.7398C75.9099 35.4598 74.6999 34.3098 73.3599 33.2798C72.1899 32.3798 70.9399 31.5998 69.6199 30.9298C68.5199 30.3798 67.3799 29.9098 66.2099 29.5298C64.8199 29.0898 63.3999 28.7798 61.9599 28.5998C60.6799 28.4398 59.3899 28.3598 58.0999 28.4298C57.2199 28.4798 56.3499 28.5898 55.4799 28.7098C54.8899 28.7898 54.2999 28.9298 53.7099 29.0398C52.7299 29.2298 51.9999 28.6598 51.7899 27.8998C51.6199 27.2698 51.9099 26.5098 52.4999 26.1798C52.6599 26.0898 52.8399 26.0198 53.0199 25.9798C54.3599 25.6698 55.7199 25.4698 57.0999 25.3598C58.6399 25.2298 60.1699 25.2698 61.6999 25.4098C62.7099 25.4998 63.6999 25.6698 64.6899 25.8898C65.7099 26.1098 66.7099 26.3898 67.6999 26.7198C69.2999 27.2598 70.8299 27.9598 72.2999 28.7998C74.8599 30.2598 77.0999 32.1098 79.0599 34.3098C80.2999 35.6998 81.3699 37.2098 82.2899 38.8198C83.0799 40.2098 83.7399 41.6598 84.2699 43.1698C84.5199 43.8898 84.7299 44.6298 84.9199 45.3698C85.0999 46.0898 85.2599 46.8198 85.3899 47.5498C85.5099 48.2698 85.5699 49.0098 85.6599 49.7298C85.7799 50.6998 85.7999 51.6798 85.7599 52.6598C85.7199 53.7198 85.6599 54.7698 85.4699 55.8098C85.3299 56.6198 85.2099 57.4298 85.0199 58.2298C84.8399 59.0098 84.5999 59.7698 84.3499 60.5298C83.8899 61.9498 83.2899 63.2998 82.5899 64.6098C82.0399 65.6398 81.4199 66.6298 80.7399 67.5698C79.8499 68.7998 78.8699 69.9698 77.7599 71.0198C77.1499 71.5998 76.5099 72.1498 75.8799 72.7098C75.8399 72.7398 75.8099 72.7898 75.7099 72.8898V72.9098Z" fill="white"/>
<path d="M59.0399 60.8799C54.2099 60.8899 50.1799 56.9399 50.1799 52.0199C50.1799 47.1299 54.1399 43.1399 59.0499 43.1499C63.9799 43.1499 67.9199 47.1699 67.9099 52.0499C67.8999 56.9499 63.8899 60.9099 59.0399 60.8899V60.8799ZM59.0599 57.7499C62.1999 57.7599 64.7999 55.1999 64.7899 51.9999C64.7799 48.8199 62.2399 46.2699 59.0299 46.2799C55.8299 46.2899 53.3199 48.8899 53.3199 52.0199C53.3199 55.1799 55.9199 57.7699 59.0599 57.7499Z" fill="white"/>
<defs>
<linearGradient id="paint0_linear_8016_1429" x1="59.06" y1="124.02" x2="59.06" y2="0" gradientUnits="userSpaceOnUse">
<stop stop-color="#3650D1"/>
<stop offset="0.74" stop-color="#3686D3"/>
</linearGradient>
</defs>
</svg>
