<svg width="118" height="124" viewBox="0 0 118 124" fill="none" xmlns="http://www.w3.org/2000/svg">
<path d="M0.0710449 72.7683V10.0078C0.0710449 4.48004 4.55109 0 10.0788 0H107.921C113.449 0 117.929 4.48004 117.929 10.0078V72.7683C117.929 79.9324 114.617 86.7073 108.959 91.0976L73.2484 118.856C64.8671 125.371 53.1331 125.371 44.7518 118.856L9.04112 91.0976C3.38369 86.6973 0.0710449 79.9324 0.0710449 72.7683Z" fill="url(#paint0_linear_8016_1307)"/>
<path d="M57.4236 116.481C54.3006 116.192 51.3471 114.885 48.8726 112.959L13.4413 85.4302C9.53004 82.3969 7.24512 77.7173 7.24512 72.7683V10.0078C7.24512 8.45127 8.5123 7.18408 10.0688 7.18408H107.911C109.478 7.18408 110.735 8.45127 110.735 10.0078V72.7683C110.735 77.7573 108.48 82.367 104.539 85.4302L68.8283 113.189C65.5755 115.713 61.5844 116.88 57.4136 116.491L57.4236 116.481Z" stroke="#CCCCCC" stroke-width="2.55" stroke-miterlimit="10"/>
<path d="M79.6043 46.8059C79.8936 46.5165 80.1331 46.287 80.3626 46.0575C81.6298 44.7903 82.887 43.5232 84.1541 42.256C84.5832 41.8269 85.0721 41.4677 85.6408 41.2482C86.3992 40.9489 87.1874 40.7992 88.0156 40.9189C88.6941 41.0187 89.3227 41.2283 89.8914 41.5875C90.3204 41.8569 90.6896 42.1961 91.0189 42.5952C91.4679 43.144 91.7373 43.7726 91.9169 44.4411C91.9967 44.7405 92.0167 45.0697 92.0167 45.379C92.0267 46.0376 91.8969 46.6762 91.6375 47.2848C91.3881 47.8635 91.0189 48.3624 90.5799 48.8014C87.6963 51.695 84.8027 54.5786 81.9191 57.4722C81.2107 58.1806 80.5122 58.889 79.7938 59.5875C79.6541 59.7272 79.5743 59.9167 79.5743 60.1163C79.5743 64.4467 79.5743 68.777 79.5743 73.1074C79.5743 73.7759 79.5045 74.4544 79.255 75.073C78.9657 75.8014 78.5067 76.43 77.8981 76.9389C77.3393 77.4079 76.7007 77.7072 76.0023 77.8768C75.6331 77.9666 75.234 77.9966 74.8448 77.9966C64.7572 77.9966 54.6697 77.9966 44.5821 77.9966C43.6242 77.9966 42.6464 77.7671 41.8482 77.2283C40.9302 76.6096 40.2717 75.7715 39.9923 74.6939C39.8825 74.2648 39.8426 73.8158 39.7828 73.3668C39.7728 73.2671 39.7828 73.1673 39.7828 73.0575C39.7828 58.9289 39.7828 44.7903 39.7828 30.6617C39.7828 29.9833 39.8626 29.3147 40.102 28.6861C40.3615 28.0076 40.7706 27.409 41.3193 26.9201C41.908 26.4012 42.5865 26.042 43.3548 25.8624C43.704 25.7826 44.0832 25.7726 44.4424 25.7427C44.5023 25.7427 44.5621 25.7427 44.622 25.7427C53.2129 25.7427 61.8038 25.7427 70.3848 25.7427C71.3726 25.7427 72.3105 25.9323 73.1386 26.501C73.5677 26.8003 73.9568 27.1695 74.336 27.5387C75.5732 28.756 76.8005 29.9932 78.0278 31.2305C78.5167 31.7194 78.9258 32.2582 79.1952 32.8868C79.4446 33.4755 79.5544 34.0941 79.5644 34.7327C79.5644 35.94 79.5344 37.1473 79.6442 38.3546C79.8737 40.8691 79.9036 43.3934 79.5943 45.9079C79.5444 46.317 79.5643 46.3968 79.5743 46.7959L79.6043 46.8059ZM67.3515 28.8258H66.9324C59.5189 28.8258 52.1054 28.8258 44.6819 28.8258C44.5522 28.8258 44.4125 28.8258 44.2828 28.8258C43.8038 28.8757 43.4147 29.0852 43.1353 29.4943C42.9357 29.7937 42.8559 30.113 42.8559 30.4722C42.8559 44.7405 42.8559 58.9988 42.8559 73.2671C42.8559 73.3369 42.8559 73.4068 42.8559 73.4766C42.9058 73.9555 43.1054 74.3546 43.4945 74.644C43.8238 74.8835 44.193 74.9433 44.5921 74.9433C54.6597 74.9433 64.7273 74.9433 74.795 74.9433C74.8947 74.9433 75.0045 74.9633 75.1043 74.9433C75.3238 74.8935 75.5433 74.8535 75.7329 74.7438C76.6009 74.2549 76.7107 73.307 76.2617 72.0597C75.2639 69.256 75.5533 66.2826 76.4812 63.4589C76.5411 63.2793 76.5111 63.1396 76.5012 62.96C76.2916 63.0997 76.122 63.2493 75.9324 63.3292C75.5034 63.5088 75.0643 63.6684 74.6153 63.8181C73.4879 64.1972 72.3604 64.5664 71.2329 64.9456C70.5444 65.175 69.8659 65.4045 69.1774 65.6141C68.5488 65.8136 67.8803 65.5043 67.551 65.0553C67.1918 64.5664 67.1819 64.0376 67.3714 63.4888C67.7007 62.5209 68.04 61.5431 68.3592 60.5753C68.6985 59.5575 69.0278 58.5498 69.357 57.532C69.5067 57.083 69.7561 56.664 70.0854 56.3347C72.1708 54.2593 74.2462 52.1739 76.3315 50.1085C76.4513 49.9888 76.5211 49.8192 76.5211 49.6396C76.5211 45.8779 76.5211 42.1063 76.5211 38.3447C76.5211 38.2449 76.5211 38.1451 76.5111 38.0354C76.3415 38.0354 76.2118 38.0354 76.0821 38.0354C73.7872 38.0354 71.4923 38.0354 69.1974 38.0354C69.0677 38.0354 68.928 38.0354 68.7983 38.0354C68.489 38.0054 68.1996 37.9156 67.9502 37.726C67.5311 37.3968 67.3415 36.9578 67.3415 36.4289C67.3415 34.0442 67.3415 31.6495 67.3415 29.2648C67.3415 29.1451 67.3415 29.0254 67.3415 28.8657L67.3515 28.8258ZM77.4391 57.6418C79.8936 55.1872 82.3182 52.7527 84.7528 50.3181C84.5832 50.0287 82.7972 48.2626 82.5976 48.1728C82.0987 48.5719 75.4136 55.317 75.3238 55.5065L77.449 57.6418H77.4391ZM76.5111 34.9323C76.591 34.3336 76.3714 33.8846 75.9723 33.4954C75.0843 32.6074 74.1963 31.7194 73.3083 30.8314C72.8293 30.3524 72.3504 29.8735 71.8714 29.3846C71.4823 28.9954 71.0233 28.7759 70.4546 28.8458C70.3847 29.185 70.4047 34.7127 70.4746 34.9323H76.5211H76.5111ZM87.0078 48.0631C87.3171 47.7538 87.6364 47.4444 87.9457 47.1252C88.1952 46.8757 88.4546 46.6263 88.6741 46.3469C89.173 45.7183 89.0333 44.7105 88.3448 44.2216C87.7761 43.8225 86.9978 43.8025 86.469 44.3014C85.9102 44.8303 85.3914 45.399 84.8526 45.9478C85.0122 46.2072 86.7883 47.9633 87.0078 48.0631ZM73.0887 57.6617C72.8493 57.9112 72.6098 58.1307 72.3903 58.3702C72.3304 58.43 72.2606 58.5398 72.2406 58.6196C71.9413 59.4977 71.642 60.3857 71.3426 61.2637C71.3027 61.3935 71.2728 61.5232 71.2329 61.6828C71.3227 61.6728 71.3726 61.6728 71.4224 61.6529C72.2306 61.3835 73.0388 61.1041 73.847 60.8447C74.2861 60.705 74.6652 60.4356 74.9745 60.0864C75.0643 59.9866 75.1542 59.9068 75.234 59.8269C74.5156 59.0985 73.8171 58.3901 73.0887 57.6617Z" fill="white"/>
<path d="M58.1819 41.0688C61.6542 41.0688 65.1364 41.0688 68.6087 41.0688C68.8382 41.0688 69.0777 41.0988 69.2972 41.1487C69.8759 41.2684 70.3249 41.8471 70.3848 42.4358C70.4546 43.1243 70.0655 43.7329 69.5067 43.9724C69.3271 44.0522 69.1176 44.0822 68.9181 44.1221C68.8083 44.142 68.6985 44.1221 68.5788 44.1221C61.6242 44.1221 54.6697 44.1221 47.7152 44.1221C47.4857 44.1221 47.2462 44.0921 47.0167 44.0422C46.2384 43.8926 45.6996 42.8649 45.979 42.1365C46.1886 41.5777 46.6974 41.1287 47.336 41.0788C47.4757 41.0688 47.6254 41.0788 47.7651 41.0788C51.2274 41.0788 54.6996 41.0788 58.162 41.0788L58.1819 41.0688Z" fill="white"/>
<path d="M55.1485 47.195C57.623 47.195 60.1075 47.195 62.582 47.195C63.041 47.195 63.4501 47.2848 63.7893 47.6041C64.2084 47.9933 64.378 48.4922 64.2483 49.0509C64.1186 49.6097 63.7793 50.0188 63.2006 50.1684C63.0111 50.2183 62.8215 50.2483 62.6319 50.2483C57.6131 50.2483 52.6042 50.2483 47.5853 50.2483C46.9667 50.2483 46.4678 50.0287 46.1485 49.4899C45.5898 48.572 46.1485 47.4944 46.9966 47.2749C47.2162 47.215 47.4556 47.1851 47.6851 47.1851C50.1696 47.1851 52.6641 47.1851 55.1485 47.1851V47.195Z" fill="white"/>
<path d="M55.1088 53.3213C57.5733 53.3213 60.0478 53.3213 62.5124 53.3213C62.7319 53.3213 62.9614 53.3513 63.1709 53.4012C63.8095 53.5309 64.3782 54.2293 64.2685 55.0475C64.1787 55.716 63.6898 56.2848 62.8815 56.3746C62.7618 56.3845 62.6421 56.3845 62.5124 56.3845C57.5634 56.3845 52.6243 56.3845 47.6753 56.3845C47.2563 56.3845 46.8671 56.3247 46.5279 56.0652C46.029 55.6861 45.8195 55.0176 45.9492 54.5486C46.1787 53.7005 46.7574 53.3912 47.3361 53.3313C47.4758 53.3114 47.6254 53.3213 47.7651 53.3213C50.2097 53.3213 52.6543 53.3213 55.1088 53.3213Z" fill="white"/>
<path d="M55.0887 59.4377C57.5832 59.4377 60.0876 59.4377 62.5821 59.4377C63.0211 59.4377 63.4302 59.5275 63.7694 59.8268C64.1985 60.216 64.3681 60.7049 64.2583 61.2637C64.1386 61.8324 63.7993 62.2515 63.2007 62.4111C63.0111 62.461 62.8215 62.4909 62.6319 62.4909C57.6131 62.4909 52.6042 62.4909 47.5854 62.4909C46.9668 62.4909 46.4679 62.2714 46.1486 61.7326C45.5898 60.8146 46.1585 59.737 46.9967 59.5175C47.2162 59.4577 47.4557 59.4277 47.6852 59.4277C50.1497 59.4277 52.6242 59.4277 55.0887 59.4277V59.4377Z" fill="white"/>
<path d="M64.2683 71.89C62.7716 71.89 61.275 71.89 59.7683 71.89C59.2794 71.89 58.8603 71.7204 58.531 71.3412C57.7927 70.4832 58.2317 69.2659 59.1597 68.9366C59.3792 68.8568 59.6186 68.8268 59.8481 68.8268C61.8038 68.8268 63.7594 68.8268 65.7151 68.8268C66.7428 68.8268 67.7705 68.8368 68.8082 68.8268C69.4268 68.8169 70.1452 69.2259 70.3448 69.9444C70.5543 70.6827 70.1652 71.5009 69.4169 71.7803C69.2073 71.8601 68.9579 71.89 68.7284 71.89C67.2417 71.89 65.755 71.89 64.2683 71.89Z" fill="white"/>
<defs>
<linearGradient id="paint0_linear_8016_1307" x1="59.0001" y1="123.745" x2="59.0001" y2="0" gradientUnits="userSpaceOnUse">
<stop stop-color="#3650D1"/>
<stop offset="0.74" stop-color="#3686D3"/>
</linearGradient>
</defs>
</svg>
