<svg width="119" height="125" viewBox="0 0 119 125" fill="none" xmlns="http://www.w3.org/2000/svg">
<path d="M0 72.93V10.03C0 4.49 4.49 0 10.03 0H108.09C113.63 0 118.12 4.49 118.12 10.03V72.93C118.12 80.11 114.8 86.9 109.13 91.3L73.34 119.12C64.94 125.65 53.18 125.65 44.78 119.12L8.99 91.3C3.32 86.89 0 80.11 0 72.93Z" fill="url(#paint0_linear_8016_1457)"/>
<path d="M59.06 116.82C55.46 116.82 52.05 115.65 49.2 113.44L13.41 85.6202C9.45995 82.5502 7.19995 77.9302 7.19995 72.9302V10.0302C7.19995 8.4702 8.46995 7.2002 10.03 7.2002H108.09C109.65 7.2002 110.92 8.4702 110.92 10.0302V72.9302C110.92 77.9302 108.66 82.5502 104.71 85.6202L68.9199 113.44C66.0699 115.65 62.66 116.82 59.06 116.82Z" stroke="#CCCCCC" stroke-width="2.55" stroke-miterlimit="10"/>
<path d="M84.05 31.5C83.97 30.89 83.63 30.43 83.08 30.21C82.82 30.1 82.56 30.02 82.3 29.93L82.14 29.88C81.86 29.79 81.59 29.7 81.31 29.62L80.94 29.52C80.78 29.48 80.61 29.43 80.45 29.38C80.24 29.31 80.03 29.24 79.82 29.17C79.62 29.1 79.42 29.03 79.21 28.97C78.95 28.89 78.7 28.81 78.44 28.73L77.5 28.43C77.34 28.38 77.18 28.32 77.02 28.27C76.88 28.23 76.73 28.19 76.59 28.15C76.44 28.11 76.28 28.07 76.13 28.02C75.91 27.95 75.69 27.88 75.47 27.8C75.28 27.73 75.09 27.67 74.89 27.61C74.62 27.52 74.34 27.44 74.07 27.35L73.16 27.07C72.99 27.02 72.83 26.96 72.66 26.91C72.53 26.87 72.39 26.83 72.26 26.8C72.11 26.76 71.95 26.72 71.8 26.67C71.59 26.6 71.38 26.53 71.17 26.46C70.97 26.39 70.77 26.32 70.57 26.26C70.33 26.18 70.09 26.11 69.85 26.04L69.24 25.85C69.11 25.81 68.99 25.77 68.86 25.73C68.7 25.68 68.55 25.63 68.39 25.58C68.24 25.53 68.08 25.49 67.93 25.45C67.78 25.41 67.64 25.37 67.49 25.33C67.28 25.26 67.07 25.2 66.85 25.13L63.98 24.23C63.83 24.19 63.67 24.14 63.52 24.09C63.39 24.05 63.26 24 63.14 23.96C62.98 23.91 62.83 23.85 62.67 23.8C62.47 23.74 62.27 23.68 62.06 23.62C61.84 23.55 61.61 23.49 61.39 23.42C61.18 23.35 60.97 23.28 60.77 23.21C60.44 23.1 60.11 22.99 59.78 22.89L59.66 22.85C59.41 22.77 59.11 22.68 58.76 22.77C58.53 22.83 58.31 22.9 58.08 22.97L55.29 23.86C55.02 23.94 54.76 24.03 54.49 24.11L54.13 24.22C53.95 24.27 53.77 24.32 53.59 24.38L51.86 24.93C51.7 24.98 51.55 25.02 51.39 25.07C51.25 25.11 51.12 25.16 50.98 25.21C50.83 25.26 50.68 25.31 50.54 25.36C50.4 25.4 50.25 25.44 50.11 25.48C49.95 25.52 49.8 25.57 49.64 25.61C49.35 25.7 49.07 25.79 48.78 25.89L47.07 26.44C46.91 26.49 46.74 26.55 46.58 26.6C46.43 26.64 46.29 26.69 46.14 26.73C45.99 26.77 45.84 26.82 45.69 26.86C45.48 26.92 45.27 26.99 45.07 27.06L44.7 27.18C44.28 27.31 43.87 27.45 43.45 27.58C43.22 27.65 42.99 27.72 42.75 27.79L42.25 27.94C42.07 27.99 41.89 28.05 41.71 28.11L41.08 28.31C40.86 28.38 40.64 28.46 40.42 28.53L39.65 28.77C39.37 28.85 39.1 28.94 38.82 29.03C38.63 29.09 38.45 29.15 38.26 29.21C38.04 29.28 37.83 29.35 37.61 29.42C37.47 29.46 37.32 29.5 37.17 29.54C37.02 29.58 36.87 29.62 36.72 29.67C36.23 29.82 35.74 29.98 35.26 30.14C35.13 30.18 34.95 30.25 34.79 30.35C34.29 30.67 34.03 31.16 34.03 31.76C34.03 34.67 34.03 37.58 34.03 40.49V44.36C34.03 46.08 34.03 47.81 34.03 49.53C34.03 49.88 34.03 50.22 34.03 50.57C34.03 51.54 34.01 52.54 34.12 53.54C34.14 53.76 34.16 53.98 34.18 54.2C34.22 54.68 34.27 55.18 34.35 55.68L34.4 55.97C34.46 56.32 34.52 56.66 34.57 57.01C34.65 57.55 34.77 58.09 34.92 58.64L35.49 60.65C35.68 61.3 35.92 61.93 36.17 62.57C36.52 63.48 36.93 64.38 37.38 65.26C37.93 66.34 38.54 67.37 39.19 68.34C40.11 69.7 41.12 70.97 42.19 72.13C43.09 73.1 44.02 73.98 44.96 74.74L45.18 74.92C45.68 75.33 46.2 75.75 46.74 76.13C47.7 76.8 48.56 77.35 49.4 77.82C50.61 78.51 51.84 79.1 53.05 79.58C53.48 79.75 53.93 79.92 54.37 80.07C54.9 80.25 55.43 80.43 55.97 80.6C56.23 80.68 56.49 80.74 56.75 80.81L57.33 80.95C57.78 81.06 58.23 81.18 58.69 81.28C58.79 81.3 58.9 81.31 59 81.31C59.15 81.31 59.28 81.29 59.39 81.27C59.83 81.18 60.28 81.07 60.72 80.96L60.93 80.91C61.35 80.8 61.78 80.7 62.2 80.58C62.51 80.49 62.81 80.38 63.11 80.28L63.77 80.06C64.04 79.97 64.32 79.88 64.58 79.77C65.69 79.32 66.62 78.91 67.53 78.43L67.72 78.33C68.34 78 68.98 77.66 69.59 77.27C70.37 76.77 71.12 76.24 71.89 75.69C72.73 75.08 73.59 74.36 74.58 73.42C75.65 72.41 76.67 71.28 77.62 70.06C78.43 69.02 79.16 67.95 79.78 66.88C80.11 66.31 80.44 65.7 80.75 65.08C81.05 64.49 81.32 63.88 81.59 63.28C81.77 62.89 81.93 62.49 82.08 62.08C82.22 61.68 82.35 61.28 82.48 60.87L82.6 60.49C82.73 60.09 82.86 59.69 82.97 59.28C83.09 58.86 83.19 58.44 83.3 57.96C83.36 57.72 83.4 57.47 83.45 57.22C83.48 57.07 83.5 56.92 83.52 56.77C83.54 56.62 83.56 56.47 83.59 56.32C83.61 56.19 83.64 56.06 83.66 55.93C83.7 55.73 83.74 55.54 83.77 55.34C83.82 55 83.86 54.66 83.88 54.31L83.92 53.75C83.96 53.16 84 52.55 84 51.94C84 46.74 84 41.54 84 36.34V31.72C84 31.66 84 31.59 84 31.53L84.05 31.5ZM80.9 45.15C80.9 47.49 80.9 49.83 80.9 52.17C80.9 52.79 80.84 53.44 80.78 54.06V54.15C80.72 54.69 80.64 55.24 80.56 55.78C80.53 55.95 80.49 56.12 80.45 56.28C80.43 56.38 80.4 56.48 80.38 56.59L80.21 57.45C80.15 57.74 80.09 58.02 80.02 58.31C79.95 58.58 79.87 58.84 79.79 59.1L79.76 59.21C79.63 59.63 79.49 60.05 79.35 60.48C79.25 60.79 79.14 61.1 79.01 61.4C78.78 61.94 78.54 62.48 78.29 63.02C77.9 63.87 77.45 64.7 76.92 65.57C76.36 66.48 75.76 67.34 75.15 68.13C74.14 69.42 73.02 70.62 71.8 71.71C70.68 72.72 69.5 73.61 68.31 74.36C67.69 74.75 67.04 75.13 66.31 75.51C65.6 75.89 64.96 76.2 64.36 76.46C63.73 76.73 63.06 76.97 62.38 77.21C61.88 77.38 61.38 77.54 60.87 77.68C60.65 77.74 60.43 77.79 60.21 77.83C60.06 77.86 59.92 77.89 59.77 77.93C59.62 77.97 59.47 78.01 59.32 78.05L59.09 78.11L58.25 77.9C58.13 77.87 58.02 77.85 57.9 77.82C57.41 77.68 56.91 77.54 56.41 77.4C56.16 77.33 55.9 77.25 55.66 77.16C55.35 77.04 55.04 76.92 54.74 76.8C54.49 76.7 54.24 76.6 53.98 76.51C52.91 76.1 51.9 75.56 51.14 75.13C50.36 74.69 49.61 74.19 48.88 73.7C48.1 73.18 47.31 72.55 46.46 71.79C45.4 70.85 44.43 69.84 43.56 68.79C42.82 67.9 42.15 66.98 41.56 66.04C41.02 65.19 40.64 64.53 40.32 63.89C40.03 63.31 39.73 62.7 39.46 62.06C39.12 61.24 38.82 60.41 38.48 59.48C38.41 59.29 38.36 59.08 38.31 58.88L38.13 58.19C38.06 57.96 38 57.73 37.94 57.49C37.9 57.32 37.87 57.15 37.84 56.98L37.61 55.72C37.57 55.51 37.53 55.3 37.5 55.08C37.44 54.65 37.4 54.22 37.36 53.73C37.24 52.51 37.25 51.26 37.25 50.05V32.8C37.43 32.75 37.6 32.7 37.77 32.64L39.43 32.11C39.69 32.02 39.96 31.94 40.22 31.85C40.37 31.8 40.52 31.76 40.66 31.72C40.8 31.68 40.94 31.64 41.08 31.6C41.25 31.55 41.42 31.49 41.59 31.43L48.49 29.27C48.67 29.22 48.84 29.16 49.02 29.11L49.38 29C49.65 28.92 49.92 28.84 50.19 28.75L54.92 27.25C55.08 27.2 55.24 27.14 55.4 27.09C55.78 26.97 56.15 26.86 56.53 26.74L57.17 26.54C57.46 26.45 57.74 26.37 58.03 26.28C58.15 26.24 58.26 26.2 58.37 26.16C58.54 26.1 58.7 26.04 58.87 26C58.98 25.98 59.13 25.99 59.35 26C59.37 26 59.43 26.02 59.46 26.04L60.21 26.29C60.64 26.43 61.07 26.57 61.49 26.7C61.71 26.77 61.93 26.84 62.15 26.9C62.37 26.96 62.58 27.03 62.8 27.1C63 27.16 63.2 27.23 63.4 27.3C63.61 27.37 63.83 27.44 64.04 27.51C64.2 27.56 64.36 27.6 64.52 27.65C64.65 27.68 64.78 27.72 64.91 27.76C65.21 27.85 65.51 27.95 65.8 28.04L67.42 28.56C67.73 28.66 68.03 28.76 68.34 28.86C68.49 28.91 68.65 28.95 68.8 28.99C68.94 29.03 69.09 29.07 69.23 29.11C69.48 29.19 69.72 29.27 69.97 29.35L70.47 29.52C70.64 29.58 70.82 29.63 70.99 29.68L72.25 30.08C72.41 30.13 72.58 30.18 72.74 30.23L73.08 30.33C73.26 30.38 73.45 30.43 73.63 30.49C73.8 30.54 73.98 30.6 74.15 30.66L74.61 30.81C75.03 30.95 75.45 31.08 75.87 31.22C76.02 31.27 76.17 31.31 76.33 31.35C76.48 31.39 76.62 31.43 76.77 31.48C76.92 31.53 77.06 31.58 77.21 31.63C77.35 31.68 77.5 31.73 77.64 31.77L80.34 32.61C80.53 32.67 80.71 32.73 80.9 32.78C80.9 32.8 80.9 32.83 80.9 32.85V42.23H80.89V45.11L80.9 45.15Z" fill="white"/>
<path d="M76.4899 35.3601C76.2499 35.2301 75.9999 35.1501 75.7599 35.0701L75.6599 35.0401C75.4499 34.9701 75.2499 34.9101 75.0399 34.8501L73.3499 34.3301C73.1099 34.2601 72.8799 34.1901 72.6399 34.1101C72.5099 34.0701 72.3799 34.0201 72.2499 33.9801C72.0999 33.9301 71.9399 33.8701 71.7899 33.8301C71.6499 33.7801 71.4999 33.7401 71.3499 33.7001C71.2099 33.6601 71.0599 33.6201 70.9199 33.5701C70.6799 33.5001 70.4399 33.4201 70.2099 33.3401L67.1999 32.4001C67.0399 32.3501 66.8699 32.3001 66.7099 32.2501L66.1099 32.0601C65.8899 31.9901 65.6599 31.9101 65.4399 31.8401C65.2399 31.7801 65.0399 31.7201 64.8399 31.6501C64.6399 31.5901 64.4499 31.5301 64.2499 31.4701C64.0699 31.4101 63.8799 31.3501 63.6999 31.2901C63.4899 31.2201 63.2799 31.1501 63.0699 31.0901C62.8599 31.0201 62.6499 30.9601 62.4399 30.9001C62.2399 30.8401 62.0499 30.7801 61.8499 30.7201C61.4199 30.5901 60.9899 30.4501 60.5599 30.3201L59.9999 30.1401C59.8999 30.1101 59.7899 30.0801 59.6999 30.0401C59.3599 29.9101 58.9799 29.8901 58.5799 30.0001C58.2999 30.0701 58.0299 30.1701 57.7499 30.2601C57.5999 30.3101 57.4499 30.3601 57.2999 30.4101C56.9899 30.5101 56.6799 30.6001 56.3699 30.7001C56.0599 30.8001 55.7399 30.8901 55.4299 30.9901C55.2199 31.0601 55.0099 31.1301 54.8099 31.2001C54.6199 31.2701 54.4299 31.3301 54.2399 31.3901C53.8599 31.5101 53.4799 31.6301 53.0999 31.7401L51.6199 32.1901C51.4199 32.2501 51.2299 32.3101 51.0399 32.3801L47.3599 33.5401C47.1299 33.6101 46.8899 33.6801 46.6599 33.7501C46.5199 33.7901 46.3799 33.8401 46.2399 33.8901C46.0999 33.9401 45.9499 33.9901 45.7999 34.0401C45.6699 34.0801 45.5299 34.1201 45.3899 34.1601C45.2299 34.2001 45.0799 34.2501 44.9199 34.3001C44.6999 34.3701 44.4799 34.4401 44.2599 34.5201C44.0699 34.5901 43.8699 34.6501 43.6799 34.7101L43.4699 34.7801C42.9799 34.9401 42.4799 35.1001 41.9799 35.2401C41.4699 35.3901 41.1099 35.7401 40.9399 36.2701C40.8699 36.4801 40.8699 36.7001 40.8699 36.9001C40.8699 41.3201 40.8699 45.7501 40.8699 50.1701V50.6701C40.8699 51.6201 40.8699 52.6101 40.9799 53.5901C41.0599 54.2401 41.1399 54.8801 41.2399 55.5301C41.2699 55.7401 41.3199 55.9501 41.3599 56.1501L41.3799 56.2301C41.4099 56.3501 41.4399 56.4801 41.4699 56.6001L41.6199 57.2201C41.6699 57.4601 41.7299 57.7001 41.7999 57.9301C41.9299 58.3601 42.0699 58.8001 42.2299 59.2201C42.4599 59.8201 42.6999 60.4201 42.9499 61.0201C43.2099 61.6401 43.5199 62.2201 43.8899 62.9001C44.3099 63.6601 44.7999 64.4301 45.3499 65.2001C45.8099 65.8301 46.3299 66.4701 46.9799 67.2101C47.7999 68.1201 48.6999 68.9701 49.7499 69.8101C50.7099 70.5801 51.7499 71.2801 52.8499 71.9001C53.9099 72.4901 54.8799 72.9601 55.8299 73.3201C56.2899 73.4901 56.7399 73.6601 57.2099 73.8101C57.6599 73.9501 58.1199 74.0801 58.5799 74.2101L58.8699 74.2901C58.9399 74.3101 59.0099 74.3201 59.0799 74.3201C59.1399 74.3201 59.2099 74.3201 59.2699 74.3001L59.4399 74.2601C59.6799 74.2001 59.9299 74.1501 60.1599 74.0801C60.5699 73.9501 60.9899 73.8201 61.3899 73.6701L61.8199 73.5101C62.3799 73.3001 62.9599 73.0901 63.5199 72.8401C64.4999 72.3901 65.3499 71.9401 66.1099 71.4401C66.6299 71.1001 67.1399 70.7601 67.6499 70.4101C68.3199 69.9501 68.5199 69.0701 68.1199 68.3801C67.8899 67.9801 67.5499 67.7201 67.1399 67.6401C66.6399 67.5401 66.1599 67.6601 65.7499 67.9601C65.0899 68.4601 64.3699 68.9101 63.6299 69.3201C63.0999 69.6101 62.5199 69.8901 61.9199 70.1701C61.4799 70.3701 61.0199 70.5401 60.5799 70.7001C60.3499 70.7901 60.0999 70.8601 59.8599 70.9301L59.5699 71.0201C59.4699 71.0501 59.3599 71.0901 59.2599 71.1101C59.1399 71.1401 59.0099 71.1201 58.8199 71.0501C58.5999 70.9701 58.3799 70.9101 58.1599 70.8501C57.9699 70.8001 57.7699 70.7501 57.5799 70.6801C57.1399 70.5301 56.7099 70.3501 56.2799 70.1601C55.3899 69.7801 54.5999 69.3701 53.8499 68.9101C52.9299 68.3501 52.1399 67.7901 51.4299 67.1901C50.7399 66.6201 50.2299 66.1501 49.7799 65.6901C48.8299 64.7101 48.1399 63.8601 47.5899 63.0101L47.2799 62.5401C46.9799 62.0901 46.6999 61.6601 46.4599 61.2001C45.9899 60.3201 45.3999 59.1501 45.0299 57.8801C44.9699 57.6801 44.9099 57.4801 44.8399 57.2701C44.7199 56.9001 44.6099 56.5401 44.5299 56.1801C44.3599 55.4001 44.2099 54.5901 44.0899 53.7601C44.0099 53.2001 43.9699 52.6401 43.9699 52.0701C43.9699 48.3901 43.9699 44.7101 43.9599 41.0201V37.8401C44.2099 37.7701 44.4599 37.7001 44.7099 37.6201C44.9499 37.5401 45.1899 37.4601 45.4299 37.3801C45.6999 37.2901 45.9599 37.2001 46.2299 37.1201C46.4499 37.0501 46.6799 36.9801 46.9099 36.9201C47.0999 36.8601 47.2899 36.8101 47.4799 36.7501L52.7599 35.0801C52.9399 35.0201 53.1299 34.9601 53.3099 34.9001L53.6999 34.7901C53.8599 34.7401 54.0199 34.7001 54.1699 34.6501C54.3299 34.6001 54.4899 34.5501 54.6599 34.4901L55.6299 34.1801C55.8599 34.1101 56.0799 34.0401 56.3099 33.9701C56.5799 33.8901 56.8399 33.8001 57.1099 33.7101L57.8199 33.4801C58.2499 33.3401 58.6899 33.2101 59.0899 33.1001C59.2499 33.1501 59.3999 33.2001 59.5599 33.2401L60.3199 33.4701C60.4799 33.5201 60.6299 33.5601 60.7899 33.6101C60.9499 33.6601 61.0999 33.7101 61.2599 33.7701L63.2999 34.4201C63.4599 34.4701 63.6299 34.5301 63.7899 34.5801C63.9199 34.6201 64.0499 34.6501 64.1799 34.6901C64.3299 34.7301 64.4799 34.7701 64.6299 34.8201C64.8699 34.9001 65.1099 34.9801 65.3499 35.0501L65.8899 35.2301C66.1999 35.3301 66.5099 35.4301 66.8199 35.5201L67.4899 35.7301C67.7599 35.8201 68.0399 35.9101 68.3099 35.9901C68.4499 36.0301 68.5999 36.0701 68.7399 36.1101C68.8899 36.1501 69.0299 36.1901 69.1799 36.2401C69.3899 36.3101 69.5999 36.3701 69.8099 36.4401L71.2899 36.9201C71.5799 37.0101 71.8699 37.1101 72.1599 37.1901C72.2999 37.2301 72.4499 37.2701 72.5899 37.3101C72.7399 37.3501 72.8999 37.3901 73.0499 37.4401C73.2599 37.5101 73.4799 37.5801 73.6899 37.6501C73.8699 37.7101 74.0399 37.7701 74.2299 37.8301V41.1501C74.2299 44.7001 74.2299 48.2601 74.2299 51.8101C74.2299 52.2401 74.1999 52.6801 74.1599 53.1101C74.1399 53.3201 74.1299 53.5201 74.1099 53.7801L74.0499 54.1501C74.0099 54.4101 73.9699 54.6601 73.9199 54.9201L73.8799 55.1501C73.8199 55.4901 73.7499 55.8401 73.6699 56.1701C73.5599 56.6101 73.4299 57.0401 73.2799 57.4901L73.1899 57.7701C73.0799 58.1401 72.9699 58.4901 72.8299 58.8201C72.5699 59.4301 72.2899 60.0201 71.9999 60.6201L71.9099 60.8001C71.6299 61.3901 71.6199 61.9301 71.8999 62.4301C72.1899 62.9701 72.9699 63.3101 73.5299 63.1701C74.0299 63.0301 74.3899 62.7601 74.5999 62.3501C74.8499 61.8601 75.0899 61.3501 75.3199 60.8501C75.5499 60.3301 75.7599 59.8201 75.9399 59.3101C76.1199 58.8201 76.2799 58.3201 76.4199 57.8201C76.4999 57.5601 76.5499 57.3001 76.6099 57.0401L76.7599 56.4101C76.8299 56.1101 76.9099 55.8001 76.9599 55.5001C77.0699 54.9201 77.1299 54.4501 77.1799 53.9901C77.2399 53.3001 77.3099 52.5801 77.3099 51.8701C77.3199 50.1401 77.3099 48.4001 77.3099 46.6701V36.7601C77.3099 36.1401 77.0299 35.6401 76.5099 35.3701L76.4899 35.3601Z" fill="white"/>
<path d="M70.63 64.4299C70.63 64.4299 70.62 64.4299 70.61 64.4299C69.75 64.4299 69.05 65.1499 69.04 66.0099C69.04 66.4099 69.21 66.8199 69.51 67.1199C69.81 67.4199 70.22 67.5899 70.63 67.5899C71.05 67.5899 71.48 67.3999 71.78 67.0699C72.06 66.7699 72.2 66.3899 72.18 65.9899C72.19 65.5799 72.04 65.1999 71.75 64.8999C71.45 64.5999 71.05 64.4199 70.63 64.4199V64.4299Z" fill="white"/>
<path d="M52.6599 49.9399L57.4799 54.6499" stroke="white" stroke-width="3.9" stroke-linecap="round" stroke-linejoin="round"/>
<path d="M57.48 54.6501L66.55 46.0601" stroke="white" stroke-width="3.9" stroke-linecap="round" stroke-linejoin="round"/>
<defs>
<linearGradient id="paint0_linear_8016_1457" x1="59.06" y1="124.02" x2="59.06" y2="0" gradientUnits="userSpaceOnUse">
<stop stop-color="#3650D1"/>
<stop offset="0.74" stop-color="#3686D3"/>
</linearGradient>
</defs>
</svg>
