<svg width="119" height="125" viewBox="0 0 119 125" fill="none" xmlns="http://www.w3.org/2000/svg">
<path d="M0 72.93V10.03C0 4.49 4.49 0 10.03 0H108.09C113.63 0 118.12 4.49 118.12 10.03V72.93C118.12 80.11 114.8 86.9 109.13 91.3L73.34 119.12C64.94 125.65 53.18 125.65 44.78 119.12L8.99 91.3C3.32 86.89 0 80.11 0 72.93Z" fill="url(#paint0_linear_8016_1445)"/>
<path d="M59.06 116.82C55.46 116.82 52.05 115.65 49.2 113.44L13.41 85.6202C9.45995 82.5502 7.19995 77.9302 7.19995 72.9302V10.0302C7.19995 8.4702 8.46995 7.2002 10.03 7.2002H108.09C109.65 7.2002 110.92 8.4702 110.92 10.0302V72.9302C110.92 77.9302 108.66 82.5502 104.71 85.6202L68.9199 113.44C66.0699 115.65 62.66 116.82 59.06 116.82Z" stroke="#CCCCCC" stroke-width="2.55" stroke-miterlimit="10"/>
<path d="M39.2 58.3801C36 56.4201 35.02 53.0401 35.75 50.2201C36.63 46.7901 39.56 44.7601 42.62 44.6601C45.92 44.5501 49.01 46.6401 50.01 50.1601H68.13C68.56 48.5501 69.44 47.2301 70.75 46.2101C72.06 45.1901 73.56 44.7001 75.23 44.6501C75.23 44.5601 75.25 44.4701 75.25 44.3901C75.25 42.7701 75.25 41.1501 75.25 39.5401C75.25 38.7201 74.83 38.1501 74.1 37.8101C73.87 37.7101 73.59 37.6801 73.33 37.6801C71.05 37.6801 68.78 37.6801 66.5 37.6801C66.39 37.6801 66.29 37.6901 66.18 37.7001C65.58 39.7701 64.36 41.3301 62.48 42.3401C61.01 43.1301 59.42 43.4101 57.79 43.0801C54.01 42.3301 51.57 39.2501 51.72 35.4401C51.86 31.9601 54.5 29.1501 57.79 28.5801C61.61 27.9301 65.16 30.2901 66.18 33.9901C66.28 33.9901 66.4 33.9901 66.51 33.9901C68.79 33.9901 71.06 33.9901 73.34 33.9901C73.87 33.9901 74.38 34.0401 74.88 34.1901C76.45 34.6701 77.63 35.6301 78.36 37.1101C78.73 37.8701 78.92 38.6701 78.92 39.5201C78.92 41.4301 78.92 43.3401 78.92 45.2601C78.92 45.5301 78.98 45.6901 79.23 45.8401C80.24 46.4801 81.04 47.3201 81.63 48.3601C82.11 49.1901 82.39 50.0801 82.54 51.0301C82.73 52.2401 82.57 53.4201 82.15 54.5501C81.62 55.9801 80.73 57.1401 79.48 58.0201C78.95 58.3901 78.38 58.6901 77.78 58.9201C77.46 59.0401 77.12 59.0901 76.79 59.1901C76.23 59.3601 75.65 59.3701 75.07 59.3601C74.4 59.3601 73.75 59.2201 73.11 59.0401C72.05 58.7301 71.12 58.1901 70.31 57.4501C69.59 56.8001 69 56.0301 68.61 55.1301C68.47 54.8001 68.34 54.4601 68.22 54.1201C68.13 53.8601 68.13 53.8601 67.85 53.8601C67.8 53.8601 67.75 53.8601 67.7 53.8601C61.94 53.8601 56.19 53.8601 50.43 53.8601H50.04C48.88 57.3101 46.52 59.1501 42.91 59.4101C42.91 59.4801 42.89 59.5501 42.89 59.6301C42.89 61.2601 42.89 62.8901 42.89 64.5101C42.89 65.3201 43.43 66.0701 44.27 66.3001C44.4 66.3401 44.54 66.3501 44.68 66.3501C47.03 66.3501 49.39 66.3501 51.74 66.3501C51.81 66.3501 51.88 66.3401 51.96 66.3301C52.47 64.4701 53.53 63.0101 55.15 61.9801C56.52 61.1001 58.03 60.7201 59.65 60.8501C62.82 61.1201 65.37 63.2901 66.19 66.3001C66.42 66.3601 75.49 66.3901 76.26 66.3301C76.23 66.2001 76.11 66.1301 76.04 66.0401C75.88 65.8501 75.69 65.6701 75.55 65.4601C74.99 64.6001 75.25 63.2601 76.45 62.7901C77.21 62.4901 77.91 62.7001 78.49 63.2801C79.03 63.8201 79.57 64.3601 80.1 64.9001C80.74 65.5401 81.38 66.1801 82.02 66.8301C82.28 67.0901 82.46 67.4001 82.56 67.7501C82.68 68.1701 82.61 68.5601 82.44 68.9501C82.3 69.2601 82.07 69.5001 81.84 69.7301C80.76 70.8101 79.68 71.9001 78.59 72.9701C78.4 73.1601 78.19 73.3501 77.95 73.4801C77.27 73.8601 76.6 73.7801 75.99 73.3201C75.39 72.8701 75.17 72.2401 75.29 71.5001C75.36 71.0901 75.58 70.7601 75.87 70.4701C76 70.3401 76.12 70.2101 76.25 70.0701C76 70.0001 66.47 70.0001 66.21 70.0501C66.04 70.4801 65.88 70.9101 65.69 71.3301C65.24 72.3301 64.56 73.1501 63.73 73.8501C63.07 74.4001 62.33 74.8101 61.53 75.1001C61.22 75.2101 60.89 75.2601 60.57 75.3501C59.92 75.5401 59.26 75.5401 58.59 75.5101C58.03 75.4801 57.49 75.3601 56.95 75.2101C56.08 74.9601 55.3 74.5501 54.59 74.0101C53.88 73.4701 53.29 72.8301 52.83 72.0701C52.49 71.5201 52.21 70.9401 52.03 70.3201C51.95 70.0301 51.94 70.0301 51.62 70.0301C49.37 70.0301 47.13 70.0301 44.88 70.0301C44.46 70.0301 44.03 70.0101 43.62 69.9201C43.1 69.8101 42.59 69.6401 42.11 69.3801C40.81 68.6601 39.91 67.6001 39.45 66.1801C39.27 65.6301 39.18 65.0601 39.18 64.4801C39.18 62.5701 39.18 60.6601 39.18 58.7401C39.18 58.6201 39.18 58.5101 39.18 58.3801H39.2ZM46.55 52.0201C46.57 50.0101 44.89 48.3401 42.89 48.3401C40.87 48.3401 39.19 49.9801 39.2 52.0201C39.2 54.0701 40.85 55.6901 42.87 55.6901C44.91 55.6901 46.55 54.0301 46.55 52.0201ZM75.24 48.3401C73.23 48.3301 71.56 49.9701 71.57 52.0001C71.57 54.0501 73.21 55.6701 75.23 55.6801C77.28 55.6901 78.92 54.0101 78.92 51.9901C78.92 49.9901 77.25 48.3001 75.24 48.3301V48.3401ZM62.73 68.2001C62.75 66.1901 61.08 64.5201 59.07 64.5101C57.05 64.5101 55.37 66.1501 55.38 68.1901C55.38 70.2401 57.03 71.8601 59.05 71.8701C61.09 71.8701 62.73 70.2101 62.73 68.2001ZM59.07 32.1501C57.06 32.1301 55.39 33.7801 55.38 35.8001C55.38 37.8501 57.01 39.4801 59.03 39.5001C61.08 39.5201 62.72 37.8501 62.73 35.8301C62.73 33.8201 61.06 32.1401 59.06 32.1601L59.07 32.1501Z" fill="white"/>
<path d="M43.56 33.8803C43.42 33.7603 43.26 33.6503 43.13 33.5203C42.6 33.0003 42.39 32.3903 42.58 31.6503C42.81 30.7403 43.71 30.1703 44.65 30.3203C45.06 30.3903 45.41 30.5903 45.69 30.8703C46.9 32.0803 48.11 33.2903 49.31 34.5003C50.03 35.2303 50.05 36.3703 49.31 37.1003C48.47 37.9403 47.64 38.7903 46.8 39.6303C46.4 40.0303 46.01 40.4403 45.6 40.8203C44.59 41.7503 43.13 41.3503 42.64 40.1703C42.34 39.4403 42.51 38.7203 43.1 38.1203C43.23 37.9803 43.37 37.8503 43.49 37.6503C43.38 37.6503 43.26 37.6503 43.15 37.6503C41.24 37.6503 39.33 37.6503 37.41 37.6503C36.87 37.6503 36.4 37.4703 36.02 37.0703C35.23 36.2403 35.34 34.8203 36.5 34.1703C36.77 34.0203 37.08 33.9603 37.41 33.9603C39.33 33.9603 41.25 33.9603 43.17 33.9603C43.28 33.9603 43.38 33.9603 43.49 33.9603C43.51 33.9303 43.53 33.8903 43.56 33.8603V33.8803Z" fill="white"/>
<defs>
<linearGradient id="paint0_linear_8016_1445" x1="59.06" y1="124.02" x2="59.06" y2="0" gradientUnits="userSpaceOnUse">
<stop stop-color="#3650D1"/>
<stop offset="0.74" stop-color="#3686D3"/>
</linearGradient>
</defs>
</svg>
